<svg xmlns="http://www.w3.org/2000/svg" width="182.13" height="183.921" viewBox="0 0 182.13 183.921">
  <g id="グループ_675" data-name="グループ 675" transform="translate(-707 -4123)">
    <path id="パス_414" data-name="パス 414" d="M-2123.729-1342.613a90.882,90.882,0,0,1,91.065-90.75,91.073,91.073,0,0,1,91.065,90.992,90.847,90.847,0,0,1-90.218,91.137,90.669,90.669,0,0,1-28.459-4.259,13.429,13.429,0,0,0-9.462.484c-14.5,6.461-30.153,5.518-30.153,5.518.581-.508,1.161-1.016,1.694-1.525a19.223,19.223,0,0,0,.605-27.443A90.872,90.872,0,0,1-2123.729-1342.613Z" transform="translate(2830.73 5556.363)" fill="#fff"/>
    <path id="パス_741" data-name="パス 741" d="M-40.776-12.552c0-.168-.024-.192-.192-.192-.144,0-.768.048-2.856.048h-1.008v-4.2c.84-.288,1.632-.576,2.328-.864a3.733,3.733,0,0,1,1.032-.312c.264-.024.384-.072.384-.216s-.048-.24-.216-.408a8.136,8.136,0,0,0-1.032-.84,3.816,3.816,0,0,1-1.08.7,29.731,29.731,0,0,1-7.2,2.064,2.819,2.819,0,0,1,.576.72c.216.408.216.408.7.336,1.08-.216,2.112-.456,3.1-.744V-12.7h-1.56c-2.064,0-2.712-.048-2.856-.048-.168,0-.168.024-.168.192v.936c0,.168,0,.192.168.192.144,0,.792-.048,2.856-.048h1.152a29.924,29.924,0,0,1-4.7,7.848,3.339,3.339,0,0,1,.648.984c.072.192.144.264.24.264.072,0,.144-.072.264-.24a30.406,30.406,0,0,0,4.08-7.824c-.024,6.216-.216,11.616-.216,11.976,0,.168.024.192.192.192h1.2c.168,0,.192-.024.192-.192,0-.36-.168-5.664-.192-12.024a27.27,27.27,0,0,0,2.688,4.656c.1.144.192.24.24.24.1,0,.144-.1.24-.288a4.323,4.323,0,0,1,.6-.96A23.649,23.649,0,0,1-44.5-11.472h.672c2.088,0,2.712.048,2.856.048.168,0,.192-.024.192-.192Zm6.168,4.32c-.24.12-.24.168-.168.312,1.008,1.776,1.872,3.48,2.64,5.208-2.5.528-4.752.888-7.368,1.224a149.757,149.757,0,0,0,3.792-15.288A2.713,2.713,0,0,1-35.256-18a.542.542,0,0,0,.12-.36c0-.12-.144-.216-.336-.288a11.731,11.731,0,0,0-1.632-.384,12.9,12.9,0,0,1-.264,2.832,123.649,123.649,0,0,1-3.7,14.9,20.265,20.265,0,0,1-2.232.144A12.059,12.059,0,0,0-42.84.408c.072.192.168.312.288.312a.618.618,0,0,0,.36-.168A1.618,1.618,0,0,1-41.328.24c3.6-.6,6.552-1.1,9.7-1.752l.84,2.232c.072.192.1.192.456.024l.72-.312c.264-.12.264-.168.216-.336a48.871,48.871,0,0,0-4.176-8.64c-.1-.168-.12-.144-.408,0ZM-15.672-14.3c.264-.912.48-1.9.768-2.88a2.175,2.175,0,0,1,.384-.936.644.644,0,0,0,.192-.384.281.281,0,0,0-.192-.264,9.594,9.594,0,0,0-1.92-.552,9.645,9.645,0,0,1-.192,2.256c-.168.888-.36,1.752-.7,3.024a37.83,37.83,0,0,1-4.32.288A13.994,13.994,0,0,1-23.16-13.8c.072.48.144.984.192,1.32.048.216.1.24.384.24,1.632-.024,3.288-.12,4.848-.288A74.429,74.429,0,0,1-22.224-.552a.236.236,0,0,0,.1.312c.312.168.936.456,1.128.528.168.072.264.072.36-.144a108.466,108.466,0,0,0,4.608-12.936,39.835,39.835,0,0,0,4.344-.984c.216-.048.264-.12.24-.36-.024-.288-.072-.7-.12-.984-.024-.168-.1-.216-.288-.168A28.964,28.964,0,0,1-15.672-14.3Zm1.488,10.128a4.074,4.074,0,0,0,1.176,3.24c1.08.984,2.688,1.32,5.28,1.32A21.823,21.823,0,0,0-4.584.144c.192-.024.264-.072.264-.312a8.6,8.6,0,0,0-.1-1.152c-.024-.192-.1-.192-.288-.168a25.744,25.744,0,0,1-3.552.312c-3.024,0-4.368-.72-4.536-2.88-.024-.192-.072-.24-.264-.24A7.545,7.545,0,0,0-14.184-4.176Zm1.8-5.016A20.957,20.957,0,0,1-7.968-9.72,19.2,19.2,0,0,1-4.9-9.456c.216.048.288-.024.312-.312a7.485,7.485,0,0,0-.024-1.056c-.024-.144-.072-.216-.36-.264a24.087,24.087,0,0,0-2.976-.24,19.137,19.137,0,0,0-4.2.5c-.264.072-.312.144-.312.36C-12.456-10.176-12.432-9.6-12.384-9.192Zm21.96-5.352a47.243,47.243,0,0,1-5.5.24,12.2,12.2,0,0,0,.192,1.224.287.287,0,0,0,.336.264c1.512-.024,3.312-.12,4.752-.264C8.928-10.416,8.5-8.208,7.944-6.024c-.072.24-.144.528-.264.912a1.9,1.9,0,0,0-.1.408c0,.144.1.24.312.336a5.322,5.322,0,0,0,1.056.336c.192.024.264-.072.408-.288.144-.24.336-.5.552-.792A8.8,8.8,0,0,1,16.7-8.472c2.208,0,3.48,1.08,3.48,2.88a3.73,3.73,0,0,1-2.472,3.5,18.662,18.662,0,0,1-7.08,1.512A2.606,2.606,0,0,1,11.448.48c.12.264.216.336.384.336A6.3,6.3,0,0,0,13.008.7,17.779,17.779,0,0,0,19.08-.984a4.961,4.961,0,0,0,2.856-4.56c0-2.28-1.7-4.3-5.088-4.3A9.953,9.953,0,0,0,9.576-6.552c.552-2.232.96-4.32,1.32-6.7,1.9-.264,3.72-.576,5.616-1.008.192-.048.24-.1.24-.288a7.167,7.167,0,0,0-.1-1.032c-.024-.216-.1-.24-.312-.168a43.208,43.208,0,0,1-5.16,1.008c.144-1.008.216-1.608.384-2.544a2.08,2.08,0,0,1,.312-.792.6.6,0,0,0,.144-.336c0-.144-.1-.24-.264-.312a7,7,0,0,0-1.944-.408,6.228,6.228,0,0,1,.048,2.136C9.768-15.936,9.7-15.312,9.576-14.544Zm32.112-.6A6,6,0,0,1,47.88-9.072c0,4.008-2.736,6.576-7.488,7.512a2.79,2.79,0,0,1,.936.888.475.475,0,0,0,.624.264c5.208-1.32,7.632-4.464,7.632-8.376,0-4.584-3.192-7.728-8.568-7.728a10.233,10.233,0,0,0-7.2,2.664,8.716,8.716,0,0,0-2.784,6.216c0,3.48,1.7,5.448,3.5,5.448,1.416,0,2.5-.72,3.528-2.472a26.792,26.792,0,0,0,3.168-10.488Zm-2.136.1a25.484,25.484,0,0,1-2.808,9.384c-.7,1.224-1.416,1.752-2.232,1.752-.864,0-1.944-1.128-1.944-3.744a7.441,7.441,0,0,1,2.3-5.184A8.086,8.086,0,0,1,39.552-15.048ZM-46.752,33.1a4.994,4.994,0,0,0-.984,2.832c0,3.1,2.808,4.512,7.464,4.512A34.648,34.648,0,0,0-33,39.824c.24-.048.336-.12.312-.312a12.075,12.075,0,0,0-.216-1.248c-.048-.192-.12-.216-.336-.168a29.856,29.856,0,0,1-6.888.7c-3.936,0-6.144-.96-6.144-2.928a3.8,3.8,0,0,1,.648-1.872c.1-.144.072-.24-.072-.312C-46.032,33.488-46.416,33.272-46.752,33.1Zm.672-8.952c-.024.408-.048.912-.048,1.224,0,.24.072.312.216.336a25.035,25.035,0,0,0,4.872.432c.744,0,1.8-.024,2.592-.1a31.456,31.456,0,0,0-4.128,2.4,2.691,2.691,0,0,1,.984.48.544.544,0,0,0,.672-.048A15.9,15.9,0,0,1-34.7,26.144c.24-.024.336-.1.336-.36a6.954,6.954,0,0,0-.072-1.08c-.024-.168-.12-.24-.336-.216-1.656.144-3.576.216-5.3.216A28.547,28.547,0,0,1-46.08,24.152Zm30.336,2.616c.264-.912.48-1.9.768-2.88a2.175,2.175,0,0,1,.384-.936.644.644,0,0,0,.192-.384.281.281,0,0,0-.192-.264,9.594,9.594,0,0,0-1.92-.552,9.645,9.645,0,0,1-.192,2.256c-.168.888-.36,1.752-.7,3.024a37.83,37.83,0,0,1-4.32.288,13.993,13.993,0,0,1-1.512-.048c.072.48.144.984.192,1.32.048.216.1.24.384.24,1.632-.024,3.288-.12,4.848-.288A74.429,74.429,0,0,1-22.3,40.52a.236.236,0,0,0,.1.312c.312.168.936.456,1.128.528.168.072.264.072.36-.144A108.466,108.466,0,0,0-16.1,28.28,39.836,39.836,0,0,0-11.76,27.3c.216-.048.264-.12.24-.36-.024-.288-.072-.7-.12-.984-.024-.168-.1-.216-.288-.168A28.965,28.965,0,0,1-15.744,26.768ZM-14.256,36.9a4.074,4.074,0,0,0,1.176,3.24c1.08.984,2.688,1.32,5.28,1.32a21.823,21.823,0,0,0,3.144-.24c.192-.024.264-.072.264-.312a8.6,8.6,0,0,0-.1-1.152c-.024-.192-.1-.192-.288-.168a25.743,25.743,0,0,1-3.552.312c-3.024,0-4.368-.72-4.536-2.88-.024-.192-.072-.24-.264-.24A7.545,7.545,0,0,0-14.256,36.9Zm1.8-5.016a20.957,20.957,0,0,1,4.416-.528,19.2,19.2,0,0,1,3.072.264c.216.048.288-.024.312-.312a7.485,7.485,0,0,0-.024-1.056c-.024-.144-.072-.216-.36-.264a24.086,24.086,0,0,0-2.976-.24,19.137,19.137,0,0,0-4.2.5c-.264.072-.312.144-.312.36C-12.528,30.9-12.5,31.472-12.456,31.88Zm4.008-7.824a10.362,10.362,0,0,1,2.784,3.072.192.192,0,0,0,.312.048l.7-.576a.173.173,0,0,0,.048-.264,11.647,11.647,0,0,0-2.712-2.9.186.186,0,0,0-.24-.024Zm2.112-1.608a11.463,11.463,0,0,1,2.76,3c.1.144.192.144.288.048l.648-.576c.12-.1.144-.168.072-.288A13.794,13.794,0,0,0-5.3,21.824c-.1-.072-.168-.048-.264.024Zm15.072-.624a8.12,8.12,0,0,1,.192,2.112c-.048,1.416-.048,2.3-.1,3.24-1.392.408-2.352.648-3.384.936a9.761,9.761,0,0,1-1.584.24,9.46,9.46,0,0,0,.672,1.32c.168.216.264.336.408.312.192-.024.48-.312,1.008-.5.816-.288,1.92-.648,2.856-.912,0,.576-.048,1.32-.072,2.112-1.824,2.568-3.552,4.872-5.352,7.032-.12.144-.144.264-.024.384a10.106,10.106,0,0,0,.888.864c.144.1.264.072.408-.1,1.344-1.9,2.64-3.792,4.08-5.808-.024,3.192-.048,5.736-.1,8.688,0,.168.048.216.192.216.432,0,1.056-.024,1.272-.048.12-.024.192-.072.192-.216-.048-3.144-.1-6.12-.072-9.168,2.592-2.352,4.872-3.336,7.272-3.336a3.846,3.846,0,0,1,4.008,4.2A5.2,5.2,0,0,1,20.04,37.04,9.994,9.994,0,0,1,15.024,39.7a3.711,3.711,0,0,1,1.152.864.54.54,0,0,0,.7.168c4.368-1.3,6.36-4.3,6.36-7.248a5.377,5.377,0,0,0-5.712-5.664,11.211,11.211,0,0,0-7.3,3.072c0-.432,0-.816.024-1.344a13.3,13.3,0,0,1,1.176-1.728c.216-.24.312-.36.312-.5a.892.892,0,0,0-.312-.528c-.216-.216-.36-.312-.456-.312a.259.259,0,0,0-.168.072,1.407,1.407,0,0,1-.384.192c.048-1.152.12-1.992.168-3.072a3.572,3.572,0,0,1,.216-.936c.12-.288.1-.5-.168-.6A8.9,8.9,0,0,0,8.736,21.824Zm26.856.48a13.122,13.122,0,0,1-.216,2.664,44.472,44.472,0,0,0-.552,5.64,14.331,14.331,0,0,0,.6,4.488c.048.144.12.24.24.24.408-.048.936-.12,1.152-.168.144-.048.192-.12.168-.336a1.919,1.919,0,0,1,.168-.768A24.531,24.531,0,0,1,38.664,30.9a.507.507,0,0,0,.024-.648,3.4,3.4,0,0,1-.48-.984c-.552,1.08-1.272,2.448-1.776,3.456a16.682,16.682,0,0,1-.1-2.712,35.853,35.853,0,0,1,.72-5.52,2.263,2.263,0,0,1,.432-.936.6.6,0,0,0,.1-.312c0-.144-.1-.24-.312-.36A6.806,6.806,0,0,0,35.592,22.3Zm7.512.144a9.993,9.993,0,0,1,.48,2.52c.144,1.776.24,4.056.24,5.712,0,3.432-.624,5.472-1.968,7.272A11.224,11.224,0,0,1,37.68,41.24a3.566,3.566,0,0,1,1.224.672.451.451,0,0,0,.624.048,12.312,12.312,0,0,0,3.96-3.48c1.368-1.848,1.968-4.44,1.968-7.872,0-1.7-.1-3.7-.288-6.36a4.039,4.039,0,0,1,.048-1.128c.048-.24,0-.408-.36-.48A8.46,8.46,0,0,0,43.1,22.448Z" transform="translate(798 4203)" fill="#3e0000"/>
  </g>
</svg>
