<svg xmlns="http://www.w3.org/2000/svg" width="182.13" height="183.921" viewBox="0 0 182.13 183.921"><g transform="translate(-707 -4123)"><g transform="translate(2830.73 5556.363)"><path d="M-2123.729-1342.613a90.882,90.882,0,0,1,91.065-90.75,91.073,91.073,0,0,1,91.065,90.992,90.847,90.847,0,0,1-90.218,91.137,90.669,90.669,0,0,1-28.459-4.259,13.429,13.429,0,0,0-9.462.484c-14.5,6.461-30.153,5.518-30.153,5.518.581-.508,1.161-1.016,1.694-1.525a19.223,19.223,0,0,0,.605-27.443A90.872,90.872,0,0,1-2123.729-1342.613Z" transform="translate(0)" fill="#fff"/></g><text transform="translate(798 4203)" fill="#3e0000" font-size="24" font-family="YuGo-Medium, YuGothic" font-weight="500" letter-spacing="0.12em"><tspan x="-52.32" y="0">私たちの</tspan><tspan x="-52.32" y="41">こだわり</tspan></text></g></svg>