<svg xmlns="http://www.w3.org/2000/svg" width="22.72" height="24.491"><defs><clipPath id="a"><path fill="#fff" d="M0 0h22.72v24.491H0z"/></clipPath></defs><g clip-path="url(#a)"><path d="M22.049 8.83a6.711 6.711 0 00-3.958-3.936 10.077 10.077 0 00-6.066.243c-.664.46-.589-2.505.208-3.238.449-.414 1.827-1.856.792-1.9-.859-.036-1.87 1.031-2.267 1.7a2.349 2.349 0 00-.284.784 3.35 3.35 0 00-3.408-.824c.16 2.765 2.018 3.223 3.434 2.92.014.177.025.352.03.523-.476-.079-.945-.256-1.419-.354a10.737 10.737 0 00-2.148-.238 6.756 6.756 0 00-3.91 1.174A8.1 8.1 0 000 12.599a14.11 14.11 0 002.621 7.869 11.361 11.361 0 002.55 2.741 7.109 7.109 0 003.284 1.224 5.033 5.033 0 001.531-.007c.442-.072.856-.259 1.294-.333.331-.056.8.2 1.119.276a5 5 0 001.665.085 7.506 7.506 0 004.99-2.691c2.947-3.387 4.7-8.572 2.995-12.936" fill="#fff"/></g></svg>