<svg xmlns="http://www.w3.org/2000/svg" xmlns:xlink="http://www.w3.org/1999/xlink" width="22.72" height="24.491" viewBox="0 0 22.72 24.491"><defs><clipPath id="a"><rect width="22.72" height="24.491" transform="translate(0 0)" fill="#fff"/></clipPath></defs><g transform="translate(0 0)" clip-path="url(#a)"><path d="M22.049,8.831a6.711,6.711,0,0,0-3.958-3.936,10.077,10.077,0,0,0-6.066.243c-.664.46-.589-2.505.208-3.238.449-.414,1.827-1.856.792-1.9-.859-.036-1.87,1.031-2.267,1.7a2.349,2.349,0,0,0-.284.784,3.35,3.35,0,0,0-3.408-.824C7.226,4.425,9.084,4.883,10.5,4.58c.014.177.025.352.03.523-.476-.079-.945-.256-1.419-.354a10.737,10.737,0,0,0-2.148-.238,6.756,6.756,0,0,0-3.91,1.174A8.1,8.1,0,0,0,0,12.6a14.11,14.11,0,0,0,2.621,7.869,11.361,11.361,0,0,0,2.55,2.741,7.109,7.109,0,0,0,3.284,1.224,5.033,5.033,0,0,0,1.531-.007c.442-.072.856-.259,1.294-.333.331-.056.8.2,1.119.276a5,5,0,0,0,1.665.085,7.506,7.506,0,0,0,4.99-2.691c2.947-3.387,4.7-8.572,2.995-12.936" transform="translate(0 -0.001)" fill="#fff"/></g></svg>