<svg xmlns="http://www.w3.org/2000/svg" width="56.779" height="50"><defs><clipPath id="a"><path fill="#3e0000" d="M0 0h56.779v50H0z"/></clipPath></defs><g clip-path="url(#a)" fill="#3e0000"><path d="M50.594 0a5.194 5.194 0 00-5.064 3.988L44.186 9.56H0l7.395 28.321h31.777L47.25 4.4a3.429 3.429 0 013.344-2.63h6.185V0zM37.779 36.11H8.761L2.292 11.329h41.466zM12.026 40.855a4.573 4.573 0 104.571 4.575 4.579 4.579 0 00-4.571-4.575m0 7.374a2.8 2.8 0 112.8-2.8 2.8 2.8 0 01-2.8 2.8M34.529 40.855A4.573 4.573 0 1039.1 45.43a4.579 4.579 0 00-4.571-4.575m0 7.374a2.8 2.8 0 112.8-2.8 2.8 2.8 0 01-2.8 2.8"/></g></svg>