<svg xmlns="http://www.w3.org/2000/svg" xmlns:xlink="http://www.w3.org/1999/xlink" width="56.779" height="50" viewBox="0 0 56.779 50"><defs><clipPath id="a"><rect width="56.779" height="50" fill="#3e0000"/></clipPath></defs><g transform="translate(0 0)"><g transform="translate(0 0)" clip-path="url(#a)"><path d="M50.594,0A5.194,5.194,0,0,0,45.53,3.988L44.186,9.56H0L7.395,37.881H39.172L47.25,4.4A3.429,3.429,0,0,1,50.594,1.77h6.185V0ZM37.779,36.11H8.761L2.292,11.329H43.758Z" transform="translate(0 0)" fill="#3e0000"/><path d="M8.511,21.586a4.573,4.573,0,1,0,4.571,4.575,4.579,4.579,0,0,0-4.571-4.575m0,7.374a2.8,2.8,0,1,1,2.8-2.8,2.8,2.8,0,0,1-2.8,2.8" transform="translate(3.515 19.269)" fill="#3e0000"/><path d="M20.4,21.586a4.573,4.573,0,1,0,4.571,4.575A4.579,4.579,0,0,0,20.4,21.586m0,7.374a2.8,2.8,0,1,1,2.8-2.8,2.8,2.8,0,0,1-2.8,2.8" transform="translate(14.129 19.269)" fill="#3e0000"/></g></g></svg>