<svg xmlns="http://www.w3.org/2000/svg" xmlns:xlink="http://www.w3.org/1999/xlink" width="5120" height="2880" viewBox="0 0 5120 2880"><defs><clipPath id="a"><rect width="5120" height="2880" transform="translate(2037 7664)" fill="#fff" stroke="#707070" stroke-width="1"/></clipPath></defs><g transform="translate(-2037 -7664)" clip-path="url(#a)"><rect width="5215.535" height="2318.908" transform="translate(1986.355 8319.361)" fill="#98231d"/><g transform="translate(1986.355 7666.358)"><path d="M5215.534,1063.472v0H0V1.549C.386,63.772,23.7,121.963,69.291,174.506c21.049,24.258,47.016,47.43,77.183,68.872,28.57,20.307,61.259,39.323,97.158,56.517a921.294,921.294,0,0,0,110.846,44.087,1135.547,1135.547,0,0,0,118.246,31.584c78.56,16.588,159.318,25.356,233.546,25.356H4509.264a857.689,857.689,0,0,0,99.659-6.351c36.58-4.321,74.444-10.715,112.54-19.005,82.644-17.984,162.682-44.151,231.465-75.671,37.845-17.343,72.429-36.359,102.792-56.517,32.527-21.6,60.589-44.769,83.409-68.872,50.7-53.55,76.406-112.262,76.406-174.506V1063.472Z" transform="translate(0)" fill="#98231d"/></g></g></svg>