<svg xmlns="http://www.w3.org/2000/svg" xmlns:xlink="http://www.w3.org/1999/xlink" width="1920" height="1016" viewBox="0 0 1920 1016"><defs><clipPath id="a"><rect width="1920" height="1016" transform="translate(2037 7664)" fill="#fff" stroke="#707070" stroke-width="1"/></clipPath></defs><g transform="translate(-2037 -7664)" clip-path="url(#a)"><rect width="1956.68" height="817.952" transform="translate(2018 7895.16)" fill="#98231d"/><g transform="translate(2018 7664.834)"><path d="M1956.68,375.12v0H0V.546C.145,22.494,8.89,43.02,26,61.554A161.217,161.217,0,0,0,54.952,85.847,252.19,252.19,0,0,0,91.4,105.782a358.852,358.852,0,0,0,41.585,15.551,447.832,447.832,0,0,0,44.362,11.141,458.077,458.077,0,0,0,87.618,8.944H1691.713a341.964,341.964,0,0,0,37.388-2.24c13.723-1.524,27.929-3.78,42.221-6.7,31-6.344,61.033-15.574,86.837-26.692a289.369,289.369,0,0,0,38.564-19.935,178.637,178.637,0,0,0,31.292-24.293c19.021-18.889,28.665-39.6,28.665-61.554V375.12Z" transform="translate(0 0)" fill="#98231d"/></g></g></svg>