<svg xmlns="http://www.w3.org/2000/svg" width="113.59" height="131.515"><defs><clipPath id="a"><path fill="none" d="M0 0h113.59v131.515H0z"/></clipPath><clipPath id="b"><path fill="none" d="M0 0h55.247v110.508H0z"/></clipPath><clipPath id="c"><path fill="none" d="M0 0h102.795v16.829H0z"/></clipPath></defs><g clip-path="url(#a)"><path d="M16.182 16.181a55.257 55.257 0 0039.073 94.327V102.8a47.544 47.544 0 010-95.088V0a54.892 54.892 0 00-39.073 16.181" fill="#fff"/><g clip-path="url(#b)" transform="translate(58.343)" opacity=".75"><path d="M.002 7.707a47.544 47.544 0 010 95.088v7.714A55.254 55.254 0 00.002 0z" fill="#fff"/></g><path d="M18.833 77.17h4.531V33.332h-4.531V30.81h16.531v2.522h-4.531v20.089l19.469-22.3a3.824 3.824 0 012.825-1.385c2.078 0 3.894 2.013 3.894 4.478 0 2.139-1.5 4.213-3.36 4.213a3.628 3.628 0 01-3.307-3.586L38.465 48.319 55.314 77.17h3.2v2.521H41.985V77.17h4.367L33.025 54.495l-2.192 2.457V77.17h4.532v2.521H18.833zM80.539 29.552c4.429 0 11.41 1.258 11.41 6.737 0 2.393-1.6 4.477-3.679 4.477-2.027 0-3.467-1.953-3.467-3.968a4.107 4.107 0 011.44-3.221 10.311 10.311 0 00-5.7-1.565c-9.171 0-12.535 10.014-12.535 23.243 0 13.415 3.258 23.237 12.535 23.237s12.534-9.822 12.534-23.237c0-5.605-.108-9.9-1.44-13.99a7.64 7.64 0 001.758-4.659 11.186 11.186 0 00-.212-1.7l.1-.06c5.12 4.917 7.792 12.4 7.792 20.411 0 13.609-7.469 25.7-20.536 25.7-12.425 0-20.531-11.272-20.531-25.7 0-14.362 8.159-25.7 20.531-25.7" fill="#fff"/><g clip-path="url(#c)" fill="#fff" transform="translate(5.402 114.686)" opacity=".75"><path d="M1.032 14.666a.921.921 0 01.926.882 7.775 7.775 0 00.248-2.849V1.228H-.001V.4h5.16l4.825 11.552a1.732 1.732 0 00-1.136-.45 1.632 1.632 0 00-1.589 1.428L3.03 2.8v9.9c0 3.053-.079 4.129-1.9 4.129A1.14 1.14 0 01-.001 15.7a1.023 1.023 0 011.033-1.031m7.964-2.621a1.225 1.225 0 011.176.785l5.2-12.426h4.455v.825h-1.754v14.363h1.755v.829h-6.394v-.829h1.751V2.983l-4.624 11a1.552 1.552 0 01-1.382.85 1.474 1.474 0 01-1.487-1.446 1.331 1.331 0 011.3-1.342M21.374 14.52a.955.955 0 01.975 1.072 10.5 10.5 0 001.112-2.415L28.579.4h1.09l5.533 15.189h1.9v.829h-6.6v-.829h1.648L28.019 4.4l-2.27 5.594h3.015a1.557 1.557 0 011.544 1.55 1.434 1.434 0 01-1.422 1.43 1.277 1.277 0 01-1.28-1.3 1.154 1.154 0 01.376-.849h-2.563l-1.072 2.682c-.886 2.272-1.338 3.319-2.516 3.319a1.392 1.392 0 01-1.487-1.237 1.056 1.056 0 011.031-1.072"/><path d="M37.037 15.592h1.608V1.228h-1.608V.4h6.251c2.105 0 6.234.185 6.234 4.31 0 2.582-2.021 3.551-3.715 3.9 3.817 1.1 2.951 3.8 3.736 6.256a.9.9 0 00.906.705.638.638 0 00.432-.131 1.437 1.437 0 01-.307-.907 1.178 1.178 0 011.219-1.2 1.35 1.35 0 011.3 1.366c0 1.318-1.671 1.914-2.884 1.914-6.938 0-1.427-7.795-7.222-7.795a1.023 1.023 0 01-1.035-1.033.932.932 0 01.928-.93.832.832 0 01.829.824.79.79 0 01-.067.309c1.176 0 2.89-.49 2.89-3.283 0-2.593-1.649-3.485-3.24-3.485h-1.759v14.363h1.9v.829h-6.4zM53.4.403h6.395v.825h-1.751v9.271c0 3.093 1.318 5.253 4.269 5.253 2.806 0 4.212-2.16 4.212-5.253V4.43C66.525.3 68.192.3 69.044.3a1.553 1.553 0 011.543 1.552 1.419 1.419 0 01-1.42 1.415 1.269 1.269 0 01-1.282-1.291 1.338 1.338 0 01.083-.411 4.435 4.435 0 00-.621 2.866V10.5c0 4.081-2.126 6.329-6.007 6.329-3.937 0-6.186-2.536-6.186-6.329V1.225H53.4zM70.981 15.587h1.751V1.229h-1.751V.403h6.4v.826h-1.757v6.582l7.53-7.3A1.565 1.565 0 0184.246.05a1.51 1.51 0 011.507 1.474 1.375 1.375 0 01-1.3 1.374 1.293 1.293 0 01-1.28-1.17l-4.6 4.418 6.521 9.444h1.237v.829h-6.4v-.832h1.693l-5.158-7.435-.844.813v6.622h1.751v.829h-6.4zM94.853 0c1.713 0 4.414.4 4.414 2.2a1.448 1.448 0 01-1.425 1.461 1.328 1.328 0 01-1.338-1.3 1.256 1.256 0 01.558-1.048 4.609 4.609 0 00-2.21-.515c-3.551 0-4.849 3.281-4.849 7.615 0 4.4 1.257 7.611 4.849 7.611s4.849-3.215 4.849-7.611a12.436 12.436 0 00-.559-4.577 2.311 2.311 0 00.683-1.526 3.182 3.182 0 00-.082-.567l.04-.014a8.471 8.471 0 013.012 6.684c0 4.455-2.888 8.415-7.942 8.415-4.811 0-7.945-3.7-7.945-8.415 0-4.7 3.155-8.414 7.945-8.414"/></g></g></svg>