<svg xmlns="http://www.w3.org/2000/svg" width="1920" height="600"><defs><clipPath id="a"><path transform="translate(2037 7664)" fill="#fff" stroke="#707070" d="M0 0h1920v600H0z"/></clipPath></defs><g transform="translate(-2037 -7664)" clip-path="url(#a)"><path fill="#98231d" d="M2018 7800.5h1956.68v483H2018z"/><path d="M3974.68 7886H2018v-221.185c.145 12.96 8.89 25.081 26 36.025a169.953 169.953 0 0028.956 14.345 334.051 334.051 0 0036.444 11.772c12.8 3.4 26.8 6.494 41.585 9.183 14.164 2.575 29.09 4.788 44.362 6.579a766.875 766.875 0 0087.62 5.281h1426.746c11.423 0 24-.445 37.388-1.323 13.723-.9 27.929-2.232 42.221-3.959a700.834 700.834 0 0086.837-15.761 391.967 391.967 0 0038.564-11.772 197.737 197.737 0 0031.292-14.345c19.021-11.154 28.665-23.383 28.665-36.347V7886z" fill="#98231d"/></g></svg>