<svg xmlns="http://www.w3.org/2000/svg" width="430" height="257" viewBox="0 0 430 257"><g transform="translate(-1030 -1203)"><g transform="translate(660.414 69)"><text transform="translate(486.586 1155)" fill="#653333" font-size="24" font-family="YuGo-Medium, YuGothic" font-weight="500" letter-spacing="0.2em"><tspan x="0" y="0">ふじのデータ</tspan></text><path d="M0,0H221.573" transform="translate(459.086 1172.93)" fill="none" stroke="#3e0000" stroke-width="0.7"/></g><g transform="translate(-179 -20)"><g transform="translate(1209 1301.896)"><text transform="translate(106 21.104)" fill="#653333" font-size="16" font-family="YuGo-Medium, YuGothic" font-weight="500" letter-spacing="0.2em"><tspan x="0" y="0">表皮は艶やかな赤。果肉は淡い黄色。</tspan></text><rect width="87" height="30" rx="3" transform="translate(0 1.104)" fill="#b63333" opacity="0.898"/><text transform="translate(36 22.104)" fill="#fff" font-size="15" font-family="YuGo-Bold, YuGothic" font-weight="700" letter-spacing="0.2em"><tspan x="0" y="0">色</tspan></text></g><g transform="translate(1209 1351.296)"><text transform="translate(109 19.704)" fill="#653333" font-size="16" font-family="YuGo-Medium, YuGothic" font-weight="500" letter-spacing="0.2em"><tspan x="0" y="0">300g〜400g</tspan></text><rect width="87" height="30" rx="3" transform="translate(0 -0.296)" fill="#b63333" opacity="0.899"/><text transform="translate(19 20.704)" fill="#fff" font-size="15" font-family="YuGo-Bold, YuGothic" font-weight="700" letter-spacing="0.2em"><tspan x="0" y="0">大きさ</tspan></text></g><g transform="translate(1209 1399.953)"><text transform="translate(109 20.046)" fill="#653333" font-size="16" font-family="YuGo-Medium, YuGothic" font-weight="500" letter-spacing="0.2em"><tspan x="0" y="0">11月〜1月</tspan></text><path d="M3,0H84a3,3,0,0,1,3,3V27a3,3,0,0,1-3,3H3a3,3,0,0,1-3-3V3A3,3,0,0,1,3,0Z" transform="translate(0 0.047)" fill="#b63333" opacity="0.905"/><text transform="translate(10 20.046)" fill="#fff" font-size="15" font-family="YuGo-Bold, YuGothic" font-weight="700" letter-spacing="0.2em"><tspan x="0" y="0">旬の時期</tspan></text></g><g transform="translate(1209 1447.363)"><text transform="translate(109 22.637)" fill="#653333" font-size="16" font-family="YuGo-Medium, YuGothic" font-weight="500" letter-spacing="0.2em"><tspan x="0" y="0">14〜16％　爽やかな甘さ。</tspan></text><path d="M3,0H84a3,3,0,0,1,3,3V27a3,3,0,0,1-3,3H3a3,3,0,0,1-3-3V3A3,3,0,0,1,3,0Z" transform="translate(0 2.637)" fill="#b63333" opacity="0.9"/><text transform="translate(27 22.637)" fill="#fff" font-size="14" font-family="YuGo-Bold, YuGothic" font-weight="700" letter-spacing="0.2em"><tspan x="0" y="0">糖度</tspan></text></g></g></g></svg>