<svg xmlns="http://www.w3.org/2000/svg" width="458.176" height="248.819" viewBox="0 0 458.176 248.819"><g transform="translate(-730 -1883)"><path d="M1.984-7.088A11.214,11.214,0,0,1,4.928-5.472c.128.112.208.1.3-.032a4.911,4.911,0,0,0,.416-.688.22.22,0,0,0-.08-.336A12.66,12.66,0,0,0,2.752-7.984a.213.213,0,0,0-.272.112C2.368-7.712,2.192-7.392,1.984-7.088Zm1.888-3.68A10.5,10.5,0,0,1,6.736-8.96c.128.112.192.144.288.032a5.175,5.175,0,0,0,.464-.688c.08-.144.1-.208-.048-.32A12.958,12.958,0,0,0,4.656-11.6c-.144-.064-.192-.064-.288.08C4.208-11.3,4.032-10.992,3.872-10.768ZM3.28-1.12A10.065,10.065,0,0,0,4.032-.048c.144.16.3.192.448.048a2.981,2.981,0,0,1,.768-.544A37.649,37.649,0,0,0,9.92-3.536a26.761,26.761,0,0,0,4.224-3.92.349.349,0,0,0,.08-.432,3.725,3.725,0,0,1-.3-1.04A27.866,27.866,0,0,1,9.36-4.5a29.118,29.118,0,0,1-4.4,2.752A6.8,6.8,0,0,1,3.28-1.12Zm7.472-10.672a6.908,6.908,0,0,1,1.856,2.048.128.128,0,0,0,.208.032l.464-.384a.116.116,0,0,0,.032-.176A7.764,7.764,0,0,0,11.5-12.208a.126.126,0,0,0-.176,0Zm1.408-1.072a7.642,7.642,0,0,1,1.84,2c.064.1.128.1.192.032l.432-.384c.08-.064.1-.112.048-.192a9.2,9.2,0,0,0-1.824-1.872c-.064-.048-.112-.032-.176.016ZM29.184-1.76l.576-3.888c.032-.352.08-.48.224-.608a.249.249,0,0,0,.032-.384,2.852,2.852,0,0,0-.592-.576.288.288,0,0,0-.336-.016,1.086,1.086,0,0,1-.64.128H26.112c-.672,0-1.344-.016-2.24-.1.016.288.048.672.08.88.016.176.08.208.24.192.528-.032,1.264-.048,1.872-.048h2.7L28.16-1.744H24.336c-.736,0-1.392,0-2.288-.064a4.4,4.4,0,0,0,.064.832c.016.192.048.256.224.24.688-.064,1.408-.08,2.048-.08h5.584c.752,0,1.408.016,2.16.032.176,0,.208,0,.224-.208v-.576c-.016-.192-.064-.224-.256-.208-.688,0-1.328.016-2.032.016Zm19.6-3.6c1.072,0,2.256,0,3.456.032.192.016.24-.016.24-.192a7.216,7.216,0,0,0,0-.832c0-.176-.048-.208-.24-.192-1.216.032-2.4.048-3.5.048H43.824a29.223,29.223,0,0,1-3.536-.144,9.458,9.458,0,0,0,.16,1.216c.048.16.128.224.272.224a13.089,13.089,0,0,1,2.16-.16ZM59.6-7.248a11.214,11.214,0,0,1,2.944,1.616c.128.112.208.1.3-.032a4.911,4.911,0,0,0,.416-.688.22.22,0,0,0-.08-.336,12.66,12.66,0,0,0-2.816-1.456.213.213,0,0,0-.272.112C59.984-7.872,59.808-7.552,59.6-7.248Zm1.888-3.68A10.5,10.5,0,0,1,64.352-9.12c.128.112.192.144.288.032a5.175,5.175,0,0,0,.464-.688c.08-.144.1-.208-.048-.32a12.958,12.958,0,0,0-2.784-1.664c-.144-.064-.192-.064-.288.08C61.824-11.456,61.648-11.152,61.488-10.928ZM60.9-1.28a10.065,10.065,0,0,0,.752,1.072c.144.16.3.192.448.048A2.981,2.981,0,0,1,62.864-.7,37.649,37.649,0,0,0,67.536-3.7a26.76,26.76,0,0,0,4.224-3.92.349.349,0,0,0,.08-.432,3.725,3.725,0,0,1-.3-1.04,27.866,27.866,0,0,1-4.56,4.432,29.118,29.118,0,0,1-4.4,2.752A6.8,6.8,0,0,1,60.9-1.28ZM87.184-5.36c1.072,0,2.256,0,3.456.032.192.016.24-.016.24-.192a7.216,7.216,0,0,0,0-.832c0-.176-.048-.208-.24-.192-1.216.032-2.4.048-3.5.048H82.224a29.223,29.223,0,0,1-3.536-.144,9.458,9.458,0,0,0,.16,1.216c.048.16.128.224.272.224a13.089,13.089,0,0,1,2.16-.16ZM106-9.872c-2.512,1.328-3.9,3.184-3.9,5.44,0,3.232,2.912,4.384,5.616,4.624.176.016.224-.048.256-.224a4.787,4.787,0,0,0,.1-.768c0-.128-.048-.16-.256-.176-2.336-.192-4.656-.976-4.656-3.632,0-2.144,1.792-4.112,4.128-5.04a6.624,6.624,0,0,1,2.336-.48c.16-.016.208-.048.208-.192a4.549,4.549,0,0,0-.1-.8c-.032-.1-.112-.144-.272-.128-4.288.528-7.536,1.008-9.92,1.392a12.514,12.514,0,0,1-1.984.192A8.858,8.858,0,0,0,98-8.528a.271.271,0,0,0,.224.144.888.888,0,0,0,.3-.112,3.443,3.443,0,0,1,.96-.272c2.016-.416,4.1-.752,6.5-1.136Zm1.344,2.656A6.908,6.908,0,0,1,109.2-5.168a.128.128,0,0,0,.208.032l.464-.384A.116.116,0,0,0,109.9-5.7,7.764,7.764,0,0,0,108.1-7.632a.124.124,0,0,0-.16-.016Zm1.408-1.072a7.642,7.642,0,0,1,1.84,2c.064.1.128.1.192.032l.432-.384c.08-.064.1-.112.048-.192A9.2,9.2,0,0,0,109.44-8.7c-.064-.048-.112-.032-.176.016ZM130.24-9.872c0-.112-.016-.128-.128-.128-.1,0-.592.032-2.08.032h-.976V-11.3a4.377,4.377,0,0,1,.1-1.44.476.476,0,0,0,.08-.24c0-.08-.08-.128-.192-.144-.3-.032-.672-.064-1.088-.08a9.256,9.256,0,0,1,.112,1.92v1.312h-5.776V-11.28a4.52,4.52,0,0,1,.08-1.392.748.748,0,0,0,.1-.3c0-.064-.08-.128-.192-.144-.336-.032-.72-.064-1.1-.08a9.745,9.745,0,0,1,.128,1.936v1.3h-.928c-1.5,0-2-.032-2.08-.032-.112,0-.128.016-.128.128v.688c0,.128.016.144.128.144.08,0,.576-.032,2.08-.032h.928v5.248c0,3.216-.032,4.64-.032,4.72,0,.112.016.128.128.128h.768c.112,0,.128-.016.128-.128V-.224h5.776V.8c0,.112.016.128.128.128h.768c.112,0,.128-.016.128-.128,0-.1-.032-1.52-.032-4.736V-9.072h.976c1.488,0,1.984.032,2.08.032.112,0,.128-.016.128-.144Zm-4.176,8.784h-5.776v-3.7h5.776Zm0-4.56h-5.776V-9.072h5.776Zm16.064-3.808a26.781,26.781,0,0,1-3.136.368,13.08,13.08,0,0,1-1.584,0,4.862,4.862,0,0,0,.176.832c.048.128.08.192.192.192.4.016.88-.016,1.36-.048,1.1-.08,2.208-.192,3.44-.4a14.071,14.071,0,0,0,2.464,3.7,7.926,7.926,0,0,0-3.392-.72c-2.208,0-3.968.928-3.968,2.784,0,2.144,2.464,3.088,5.392,3.088.7,0,1.552-.048,1.84-.08.128-.032.16-.048.208-.16a5.417,5.417,0,0,0,.208-1.04,12.647,12.647,0,0,1-2.3.192c-2.336,0-4.32-.608-4.32-2.08,0-1.136,1.056-1.824,2.976-1.824a7.6,7.6,0,0,1,3.632.864c.192.112.368.208.576.352.1.064.128.1.192.1s.128-.064.208-.16c.112-.16.3-.448.416-.64a.323.323,0,0,0,.048-.176c0-.048-.032-.1-.112-.144a2.614,2.614,0,0,1-.432-.352,15.232,15.232,0,0,1-2.656-3.9c1.3-.3,2.464-.624,3.456-.96.08-.032.1-.1.08-.208a3.361,3.361,0,0,0-.208-.7c-.048-.112-.128-.112-.224-.08a27.933,27.933,0,0,1-3.5,1.024c-.208-.5-.352-.864-.528-1.344a5.459,5.459,0,0,1-.288-1.072,1.936,1.936,0,0,1-.016-.416c0-.144-.112-.24-.336-.24a9.791,9.791,0,0,0-1.264.144,3.851,3.851,0,0,1,.672,1.248C141.68-10.576,141.856-10.128,142.128-9.456Zm16.752-3.072a5.879,5.879,0,0,1,.352,1.568,28.593,28.593,0,0,0,.848,4.1c-2.032,1.232-3.12,2.416-3.12,3.952,0,2.192,2,2.8,4.768,2.8a35.6,35.6,0,0,0,4.256-.224c.176-.016.24-.08.224-.224a6.96,6.96,0,0,0-.1-.832c-.032-.128-.08-.16-.224-.144a30.747,30.747,0,0,1-4.112.336c-2.416.016-3.76-.336-3.76-1.76,0-1.12.752-1.952,2.368-2.9,1.088-.624,2.464-1.28,3.632-1.824a6.079,6.079,0,0,1,1.408-.512c.288-.032.32-.256.192-.448a6.79,6.79,0,0,0-.816-.9,2.6,2.6,0,0,1-.928.736c-.944.528-1.9.976-2.848,1.44a21.428,21.428,0,0,1-.624-3.232c-.048-.352-.08-.672-.1-1.024,0-.256.08-.4.08-.56a.232.232,0,0,0-.192-.208A7.291,7.291,0,0,0,158.88-12.528Zm21.456.128c0-.112-.016-.128-.128-.128-.08,0-.512.032-1.856.032h-2.608c-1.344,0-1.76-.032-1.84-.032-.112,0-.128.016-.128.128v.608c0,.112.016.128.128.128.08,0,.5-.032,1.84-.032h.176v1.952c-1.088,0-1.472-.032-1.552-.032-.112,0-.128.016-.128.128,0,.1.032.752.032,3.36v2.7c0,3.616-.032,4.24-.032,4.336s.016.112.128.112h.576c.112,0,.128-.016.128-.112V-.688h3.84V-.16c0,.112.016.128.128.128h.56c.112,0,.128-.016.128-.128,0-.08-.032-.544-.032-3.984v-2.72c0-2.1.032-2.688.032-2.784,0-.112-.016-.128-.128-.128-.1,0-.48.032-1.52.032V-11.7h.272c1.344,0,1.776.032,1.856.032.112,0,.128-.016.128-.128Zm-1.424,8.7h-3.84V-4.9a1.523,1.523,0,0,1,.368.32c.064.08.112.112.144.112s.08-.048.144-.144a5.136,5.136,0,0,0,.784-2.224c.032-.384.08-1.184.1-2.192h.784v2.736a1.056,1.056,0,0,0,.3.912,1.225,1.225,0,0,0,.832.224h.384Zm0,2.192h-3.84V-2.9h3.84Zm-2.992-7.52c0,.608-.016,1.264-.08,1.92a3.83,3.83,0,0,1-.768,2.192V-9.024Zm2.992,3.088h-.272c-.256,0-.368-.048-.464-.176a1.148,1.148,0,0,1-.112-.624V-9.024h.848Zm-1.52-3.808h-.784V-11.7h.784Zm5.808,4.56.24-.464a2.464,2.464,0,0,1,.352-.528c.08-.08.144-.128.144-.224,0-.064-.032-.112-.192-.176a4.733,4.733,0,0,0-.8-.256,3.267,3.267,0,0,1-.368,1.136,8.995,8.995,0,0,1-2.752,3.312,1.438,1.438,0,0,1,.4.352c.1.144.144.208.208.208s.128-.048.24-.144a10.785,10.785,0,0,0,1.472-1.52,8.082,8.082,0,0,0,1.328,1.936A9.347,9.347,0,0,1,179.392.4a1.49,1.49,0,0,1,.4.528c.08.176.112.24.208.24a1.172,1.172,0,0,0,.256-.064,10.338,10.338,0,0,0,3.856-2.048A10.571,10.571,0,0,0,187.648.944a1.364,1.364,0,0,0,.24.064c.08,0,.128-.064.192-.256a1.95,1.95,0,0,1,.384-.672,10.383,10.383,0,0,1-3.712-1.632,10.011,10.011,0,0,0,1.632-2.384,1.107,1.107,0,0,1,.288-.432c.1-.064.16-.128.16-.208,0-.1-.1-.224-.272-.4-.224-.224-.32-.3-.432-.3a.3.3,0,0,0-.144.048.773.773,0,0,1-.336.048Zm2.432.752a7.789,7.789,0,0,1-1.536,2.32,7.529,7.529,0,0,1-1.456-2.08l.144-.24ZM185.12-12c-.144.112-.16.144-.064.24a8.617,8.617,0,0,1,.944.928c-1.248.128-2.336.224-3.536.3.288-.528.48-.912.736-1.408a3.57,3.57,0,0,1,.368-.624c.08-.08.144-.128.144-.224s-.064-.144-.224-.208a5.33,5.33,0,0,0-.848-.272,4.322,4.322,0,0,1-.288,1.072,15.764,15.764,0,0,1-.816,1.712,10.106,10.106,0,0,1-1.392-.016,7.805,7.805,0,0,0,.192.88c.032.112.1.176.16.176a.425.425,0,0,0,.224-.08,1.54,1.54,0,0,1,.624-.112c1.968-.144,3.472-.288,5.216-.512.208.288.4.576.592.864.048.064.064.1.112.1s.1-.032.192-.1l.352-.224c.176-.128.176-.16.1-.272a12.106,12.106,0,0,0-2.256-2.448c-.08-.08-.112-.1-.24,0Zm.1,3.616a1.738,1.738,0,0,1,.08-.7.341.341,0,0,0,.064-.192c0-.064-.048-.128-.16-.144l-.9-.1a6.674,6.674,0,0,1,.064,1.152v.832c0,.5.128.752.352.88a2.55,2.55,0,0,0,1.376.208,2.666,2.666,0,0,0,1.36-.192c.3-.144.5-.528.608-1.2.032-.24.032-.288-.208-.4a1.807,1.807,0,0,1-.5-.336c-.064.768-.144,1.088-.4,1.216a1.757,1.757,0,0,1-.864.112c-.448,0-.608-.016-.752-.128-.128-.1-.128-.256-.128-.432Zm-2.128-.56c0-.064-.048-.1-.208-.16-.208-.064-.48-.128-.8-.192a2.068,2.068,0,0,1-.128.832,3.064,3.064,0,0,1-2.176,2.128,1.687,1.687,0,0,1,.384.432c.112.192.16.256.24.256a.463.463,0,0,0,.224-.08,4,4,0,0,0,2.144-2.48,1.676,1.676,0,0,1,.256-.56A.2.2,0,0,0,183.088-8.944ZM204.56-5.952c1.584,0,2.1.032,2.192.032.112,0,.128-.016.128-.144V-6.7c0-.112-.016-.128-.128-.128-.1,0-.608.032-2.192.032h-2.08V-9.376h1.456c1.472,0,1.968.032,2.048.032.112,0,.128-.016.128-.128v-.656c0-.112-.016-.128-.128-.128-.08,0-.576.032-2.048.032H202.48V-11.2a5.339,5.339,0,0,1,.1-1.488.853.853,0,0,0,.112-.32c0-.064-.1-.128-.224-.144-.3-.032-.624-.064-1.024-.08a10.048,10.048,0,0,1,.112,2.048v.96h-1.024c-1.472,0-1.968-.032-2.064-.032-.112,0-.128.016-.128.128v.656c0,.112.016.128.128.128.1,0,.592-.032,2.064-.032h1.024V-6.8h-1.44c-1.584,0-2.1-.032-2.192-.032-.112,0-.112.016-.112.128v.64c0,.128,0,.144.112.144.1,0,.608-.032,2.192-.032h1.1A13.567,13.567,0,0,1,195.792-.88a1.881,1.881,0,0,1,.512.5c.112.16.16.224.24.224.048,0,.112-.048.224-.112A13.71,13.71,0,0,0,201.6-5.248c-.032,2.992-.1,5.968-.1,6.224,0,.112.016.128.128.128h.768c.112,0,.128-.016.128-.128,0-.256-.08-3.248-.1-6.336a14.637,14.637,0,0,0,4.3,4.864c.112.08.176.128.224.128.064,0,.112-.064.192-.224a2.168,2.168,0,0,1,.448-.64,13.659,13.659,0,0,1-4.848-4.72Zm-7.344-3.072c0-1.728.032-2.224.032-2.3,0-.112-.016-.128-.128-.128s-.336.032-1.216.032h-1.2c-.9,0-1.152-.032-1.232-.032-.112,0-.128.016-.128.128,0,.1.032.624.032,2.752v2.24c0,3.136-.032,3.632-.032,3.728,0,.112.016.128.128.128h.688c.112,0,.128-.016.128-.128V-4.16h2.032v.96c0,.112.016.128.128.128h.672c.112,0,.128-.016.128-.128,0-.08-.032-.56-.032-3.488Zm-.9,3.984h-2.032v-5.52h2.032ZM220.112-10.1a4,4,0,0,1,4.128,4.048c0,2.672-1.824,4.384-4.992,5.008a1.86,1.86,0,0,1,.624.592.317.317,0,0,0,.416.176c3.472-.88,5.088-2.976,5.088-5.584,0-3.056-2.128-5.152-5.712-5.152a6.822,6.822,0,0,0-4.8,1.776,5.811,5.811,0,0,0-1.856,4.144c0,2.32,1.136,3.632,2.336,3.632A2.668,2.668,0,0,0,217.7-3.1a17.861,17.861,0,0,0,2.112-6.992Zm-1.424.064a16.989,16.989,0,0,1-1.872,6.256c-.464.816-.944,1.168-1.488,1.168-.576,0-1.3-.752-1.3-2.5a4.961,4.961,0,0,1,1.536-3.456A5.391,5.391,0,0,1,218.688-10.032Zm12.64,7.456a2.147,2.147,0,0,1,.88.416.346.346,0,0,0,.5-.064,16.533,16.533,0,0,0,3.616-5.264,2.723,2.723,0,0,1,.56-.912c.144-.144.192-.32-.032-.448a6.252,6.252,0,0,0-1.264-.528,5.067,5.067,0,0,1-.512,1.808A13.6,13.6,0,0,1,231.328-2.576Zm8.256-6.16A20.341,20.341,0,0,1,243.552-2.7c.064.144.112.176.256.1a5.569,5.569,0,0,0,.752-.5c.144-.1.144-.192.064-.336a21.164,21.164,0,0,0-4-5.744c-.128-.128-.192-.112-.336-.032C240.128-9.12,239.856-8.928,239.584-8.736ZM241.5-10.8a6.908,6.908,0,0,1,1.856,2.048.128.128,0,0,0,.208.032l.464-.384a.116.116,0,0,0,.032-.176,7.765,7.765,0,0,0-1.808-1.936.126.126,0,0,0-.176,0Zm1.408-1.072a7.642,7.642,0,0,1,1.84,2c.064.1.128.1.192.032l.432-.384c.08-.064.1-.112.048-.192a9.2,9.2,0,0,0-1.824-1.872c-.064-.048-.112-.032-.176.016Zm16.032,1.248c.976,0,1.648.032,2.384.032.176.016.208-.032.208-.208a5.407,5.407,0,0,0,0-.72c0-.144-.032-.192-.176-.192-.768.048-1.472.08-2.48.08H256.4a22.232,22.232,0,0,1-2.608-.112,8.619,8.619,0,0,0,.08.96c.016.176.048.24.192.224.7-.048,1.424-.064,2.272-.064ZM261.1-7.3a13.157,13.157,0,0,1-6.96,7.12,2.871,2.871,0,0,1,.9.5c.128.128.24.128.432.032a13.953,13.953,0,0,0,6.752-7.216,1.239,1.239,0,0,1,.368-.544c.176-.128.192-.224.032-.432a3.376,3.376,0,0,0-.592-.576c-.16-.128-.24-.112-.432-.016a1.786,1.786,0,0,1-.784.112h-5.728c-1.008,0-1.84-.032-2.656-.112a7.41,7.41,0,0,0,.112,1.008c.032.16.1.224.24.208.656-.064,1.36-.08,2.256-.08Zm10.384-2.784a16.612,16.612,0,0,1,3.04,2.368c.112.112.16.1.256-.016a6.459,6.459,0,0,0,.544-.688c.08-.128.064-.192-.048-.3a14.761,14.761,0,0,0-2.88-2.128.193.193,0,0,0-.288.032C271.936-10.624,271.7-10.336,271.488-10.08Zm.384,8.4a6.007,6.007,0,0,0,.784,1.088.262.262,0,0,0,.432.016,5.965,5.965,0,0,1,.88-.624,33.227,33.227,0,0,0,4.8-3.12A29.535,29.535,0,0,0,282.656-8c.192-.224.208-.352.112-.56a4.789,4.789,0,0,1-.272-1.056,24.97,24.97,0,0,1-4.32,4.3,27.159,27.159,0,0,1-4.624,2.976A8.926,8.926,0,0,1,271.872-1.68ZM293.6-10.736c-.992,0-1.7,0-2.48-.064a6.2,6.2,0,0,0,.1,1.024c.032.128.048.176.192.176.72-.048,1.408-.1,2.3-.1h4.816a20.114,20.114,0,0,1-3.04,4.288A20.688,20.688,0,0,1,289.6-1.072a2.737,2.737,0,0,1,.832.576c.128.144.224.128.4.032a24.462,24.462,0,0,0,5.712-4.464A29.238,29.238,0,0,1,300.96-.864c.112.128.176.128.288.032a6.52,6.52,0,0,0,.576-.576c.128-.16.128-.208-.016-.336a32.772,32.772,0,0,0-4.592-4.016,29.065,29.065,0,0,0,2.368-3.44,2.113,2.113,0,0,1,.464-.592c.144-.128.176-.24.08-.368a4.236,4.236,0,0,0-.656-.656.274.274,0,0,0-.32-.048,1.673,1.673,0,0,1-.912.128Zm25.152-.832a6.908,6.908,0,0,1,1.856,2.048.128.128,0,0,0,.208.032l.464-.384a.116.116,0,0,0,.032-.176,7.764,7.764,0,0,0-1.808-1.936c-.064-.048-.1-.064-.16-.016Zm1.408-1.072a7.642,7.642,0,0,1,1.84,2c.064.1.128.1.192.032l.432-.384c.08-.064.1-.112.048-.192a9.2,9.2,0,0,0-1.824-1.872c-.064-.048-.112-.032-.176.016Zm-7.536,4.08c-.752.112-1.376.208-2.256.3a10.838,10.838,0,0,1-1.664.08,6.089,6.089,0,0,0,.368,1.088c.1.192.24.192.416.08a2.326,2.326,0,0,1,.7-.208c.8-.144,1.456-.256,2.112-.352a33.973,33.973,0,0,1-3.072,6.816c-.048.1-.064.176.032.256a4.5,4.5,0,0,0,.64.432.192.192,0,0,0,.272-.08,43.473,43.473,0,0,0,3.264-7.568,11.3,11.3,0,0,1,1.728-.176c.864,0,1.1.448,1.1,1.7a12.088,12.088,0,0,1-.72,4.5c-.3.672-.608.832-1.072.832a4.66,4.66,0,0,1-1.856-.448,2.837,2.837,0,0,1,.192.96.261.261,0,0,0,.192.272,4.2,4.2,0,0,0,1.632.288,1.914,1.914,0,0,0,1.824-1.264,13.279,13.279,0,0,0,.88-5.12c0-1.92-.688-2.624-2.08-2.624a14.726,14.726,0,0,0-1.552.112c.24-.784.448-1.536.688-2.32a1.084,1.084,0,0,1,.272-.528.237.237,0,0,0-.064-.416,6.719,6.719,0,0,0-1.248-.432,5.5,5.5,0,0,1-.144,1.536C313.008-9.952,312.832-9.312,312.624-8.56Zm5.664-.48a8.892,8.892,0,0,1,2.56,4.048c.032.16.144.176.272.1a3.575,3.575,0,0,0,.656-.432c.1-.08.08-.16.048-.272a9.123,9.123,0,0,0-2.576-3.872.2.2,0,0,0-.24-.064A7.2,7.2,0,0,0,318.288-9.04Zm17.04,1.9c.128-.7.224-1.424.3-2.128h3.68c1.584,0,2.112.032,2.208.032s.112-.016.112-.144v-.7c0-.112-.016-.128-.112-.128s-.624.032-2.208.032h-3.6c.032-.368.064-.752.08-1.1a4.162,4.162,0,0,1,.128-1.184.96.96,0,0,0,.112-.32c0-.1-.1-.16-.224-.192-.272-.048-.624-.08-1.008-.112a10.484,10.484,0,0,1,.048,1.888c-.016.336-.032.672-.064,1.024-1.536,0-2.048-.032-2.128-.032-.112,0-.128.016-.128.128v.7c0,.128.016.144.128.144.08,0,.592-.032,2.048-.032a23.716,23.716,0,0,1-.848,4.48A11.448,11.448,0,0,1,330.832.288a1.424,1.424,0,0,1,.48.416c.1.128.16.192.224.192s.112-.048.208-.16a13.283,13.283,0,0,0,2.944-5.1c.08-.288.176-.592.256-.928A11.572,11.572,0,0,0,336.8-2.128a10.948,10.948,0,0,1-4.048,2.48,1.915,1.915,0,0,1,.48.528c.08.144.128.208.208.208a.863.863,0,0,0,.256-.08,12.464,12.464,0,0,0,3.728-2.448A11.847,11.847,0,0,0,340.752.848a.686.686,0,0,0,.24.08c.1,0,.128-.08.224-.24a2.054,2.054,0,0,1,.448-.576,11.253,11.253,0,0,1-3.616-2.24,11.425,11.425,0,0,0,1.968-3.632,1.228,1.228,0,0,1,.3-.576.233.233,0,0,0,.112-.208c0-.1-.048-.176-.3-.432-.256-.224-.336-.272-.432-.272a.552.552,0,0,0-.208.048.729.729,0,0,1-.368.064Zm3.856.848A10.571,10.571,0,0,1,337.392-2.8a11.144,11.144,0,0,1-2-3.488ZM330.448-9.12c1.056,0,1.392.032,1.472.032.112,0,.128-.016.128-.128v-.672c0-.112-.016-.128-.128-.128-.08,0-.416.032-1.472.032V-11.3a4.521,4.521,0,0,1,.08-1.392.748.748,0,0,0,.1-.3c0-.064-.08-.128-.192-.144-.32-.032-.64-.064-1.04-.08a10.022,10.022,0,0,1,.112,1.936v1.3h-.576c-1.12,0-1.44-.032-1.536-.032-.112,0-.128.016-.128.128v.672c0,.112.016.128.128.128.1,0,.416-.032,1.536-.032h.576V-5.6c-.336.128-.656.224-.944.32a10.2,10.2,0,0,1-1.424.384,9.041,9.041,0,0,0,.3.928c.048.112.1.144.16.144a.317.317,0,0,0,.208-.1,1.669,1.669,0,0,1,.592-.3c.368-.128.736-.256,1.1-.4V-.736c0,.544-.144.72-.576.72A10.16,10.16,0,0,1,327.68-.08a2.18,2.18,0,0,1,.3.7c.064.3.08.32.4.32,1.04.016,1.344-.048,1.664-.272.3-.24.416-.528.416-1.248,0-.624-.016-1.568-.016-2.448V-5.008c.608-.256,1.2-.512,1.728-.768.288-.144.3-.16.288-.48a2.672,2.672,0,0,1,.032-.64,21.592,21.592,0,0,1-2.048.928Zm23.168-.512c0-.112-.016-.128-.128-.128-.064,0-.256.016-.672.032v-.752c0-1.12.032-1.568.032-1.664,0-.112-.016-.128-.128-.128-.08,0-.576.032-1.808.032h-1.888c-1.216,0-1.584-.032-1.664-.032-.128,0-.144.016-.144.128v.624c0,.112.016.128.144.128.08,0,.448-.032,1.664-.032h.208c-.016.64-.032,1.2-.064,1.7h-.7c-1.424,0-1.9-.032-1.984-.032-.112,0-.128.016-.128.128v.624c0,.112.016.128.128.128.08,0,.56-.032,1.984-.032h.64a14.719,14.719,0,0,1-.256,1.776h-.08c-1.056,0-1.376-.032-1.472-.032-.112,0-.128.016-.128.128v.608c0,.128.016.144.128.144.08,0,.4-.032,1.344-.032a9.347,9.347,0,0,1-2.432,4.16,1.557,1.557,0,0,1,.464.5c.08.128.128.192.176.192s.1-.048.192-.16a13.56,13.56,0,0,0,1.376-1.888v1.648c0,2.112-.032,2.544-.032,2.64,0,.112.016.128.144.128h.656c.112,0,.128-.016.128-.128v-.96h2.72v.56c0,.112.016.128.144.128h.656c.112,0,.128-.016.128-.128,0-.1-.032-.432-.032-2.512v-.992c0-1.024.032-1.392.032-1.472,0-.112-.016-.128-.128-.128-.08,0-.512.032-1.52.032h-2.3a11.966,11.966,0,0,0,.544-1.616h1.36c1.232,0,1.728.032,1.808.032.112,0,.128-.016.128-.144,0-.08-.032-.528-.032-1.632V-8.9c.416,0,.608.016.672.016.112,0,.128-.016.128-.128Zm-1.584,8.624h-2.72v-2.88h2.72Zm-.112-6.128h-2.176A16.884,16.884,0,0,0,350-8.912h1.92Zm0-2.592h-1.84c.032-.512.064-1.072.08-1.7h1.76Zm8.912,6.144c0-.112-.016-.128-.144-.128-.064,0-.56.032-2.032.032H357.6V-6.208h.5c1.328,0,1.744.032,1.84.032.112,0,.128-.016.128-.144v-.64c0-.112-.016-.128-.128-.128-.1,0-.512.032-1.84.032h-.5V-9.2h.816c1.424,0,1.888.032,1.968.032.112,0,.128-.016.128-.128v-.656c0-.112-.016-.128-.128-.128-.08,0-.544.032-1.968.032h-.08a22.174,22.174,0,0,0,1.04-1.968,1.7,1.7,0,0,1,.288-.432c.112-.112.16-.16.16-.24s-.064-.144-.176-.208a4.877,4.877,0,0,0-.912-.352,2.761,2.761,0,0,1-.208.816,21.685,21.685,0,0,1-1.1,2.384H356.08c-1.424,0-1.888-.032-1.968-.032-.112,0-.128.016-.128.128V-9.3c0,.112.016.128.128.128.08,0,.544-.032,1.968-.032h.592v2.144h-.5c-1.328,0-1.744-.032-1.824-.032-.112,0-.128.016-.128.128v.64c0,.128.016.144.128.144.08,0,.5-.032,1.824-.032h.5V-3.68h-.928c-1.456,0-1.952-.032-2.032-.032-.112,0-.128.016-.128.128v.672c0,.112.016.128.128.128.08,0,.576-.032,2.032-.032h.928v1.408c0,1.616-.032,2.3-.032,2.4,0,.112.016.112.128.112h.736c.112,0,.128,0,.128-.112,0-.08-.032-.784-.032-2.4V-2.816h1.072c1.456,0,1.952.032,2.016.032.128,0,.144-.016.144-.128Zm-6.256-9.28c-.16.08-.176.1-.112.208a9.345,9.345,0,0,1,1.024,1.984c.048.144.048.144.272.048l.448-.208c.16-.08.192-.112.144-.224a9.6,9.6,0,0,0-1.072-1.968c-.064-.1-.112-.1-.24-.048Z" transform="translate(812 1926)" fill="#653333"/><path d="M251.029,779.718a17.212,17.212,0,0,0-10.153-10.1c-5.132-1.8-10.481-.778-15.56.624-1.7,1.18-1.51-6.426.532-8.3,1.154-1.061,4.686-4.76,2.033-4.87-2.2-.091-4.8,2.644-5.816,4.363a6.027,6.027,0,0,0-.73,2.011,8.593,8.593,0,0,0-8.742-2.113c.415,7.085,5.179,8.259,8.814,7.482.036.454.065.9.077,1.343-1.22-.2-2.425-.657-3.64-.909a27.506,27.506,0,0,0-5.511-.61,17.322,17.322,0,0,0-10.029,3.012c-5.7,4.013-7.925,11.015-7.829,17.744a36.189,36.189,0,0,0,6.723,20.183,29.127,29.127,0,0,0,6.541,7.032,18.237,18.237,0,0,0,8.423,3.139,12.9,12.9,0,0,0,3.926-.019c1.134-.184,2.2-.663,3.32-.853.85-.144,2.048.525,2.869.708a12.835,12.835,0,0,0,4.27.218,19.26,19.26,0,0,0,12.8-6.9C250.908,804.21,255.412,790.91,251.029,779.718Z" transform="translate(535.527 1125.932)" fill="#b63333"/><path d="M-2.606-7.113A9.443,9.443,0,0,1-3.93-1.635,4.476,4.476,0,0,1-7.833.234,4.52,4.52,0,0,1-11.712-1.6a9.093,9.093,0,0,1-1.383-5.338V-10a9.269,9.269,0,0,1,1.336-5.449,4.51,4.51,0,0,1,3.9-1.852A4.533,4.533,0,0,1-3.989-15.51a8.932,8.932,0,0,1,1.383,5.268Zm-1.406-3.059a8.329,8.329,0,0,0-.955-4.43,3.193,3.193,0,0,0-2.889-1.5,3.2,3.2,0,0,0-2.859,1.465,8.059,8.059,0,0,0-.984,4.324v3.352A8.314,8.314,0,0,0-10.71-2.5,3.209,3.209,0,0,0-7.833-.949,3.161,3.161,0,0,0-4.991-2.461a8.347,8.347,0,0,0,.979-4.43ZM9.333,0H7.927V-15.375L3.286-13.652v-1.312L9.1-17.121h.234Z" transform="translate(759 1928)" fill="#fff"/><path d="M251.029,779.718a17.212,17.212,0,0,0-10.153-10.1c-5.132-1.8-10.481-.778-15.56.624-1.7,1.18-1.51-6.426.532-8.3,1.154-1.061,4.686-4.76,2.033-4.87-2.2-.091-4.8,2.644-5.816,4.363a6.027,6.027,0,0,0-.73,2.011,8.593,8.593,0,0,0-8.742-2.113c.415,7.085,5.179,8.259,8.814,7.482.036.454.065.9.077,1.343-1.22-.2-2.425-.657-3.64-.909a27.506,27.506,0,0,0-5.511-.61,17.322,17.322,0,0,0-10.029,3.012c-5.7,4.013-7.925,11.015-7.829,17.744a36.189,36.189,0,0,0,6.723,20.183,29.127,29.127,0,0,0,6.541,7.032,18.237,18.237,0,0,0,8.423,3.139,12.9,12.9,0,0,0,3.926-.019c1.134-.184,2.2-.663,3.32-.853.85-.144,2.048.525,2.869.708a12.835,12.835,0,0,0,4.27.218,19.26,19.26,0,0,0,12.8-6.9C250.908,804.21,255.412,790.91,251.029,779.718Z" transform="translate(535.527 1218.932)" fill="#b63333"/><path d="M-2.606-7.113A9.443,9.443,0,0,1-3.93-1.635,4.476,4.476,0,0,1-7.833.234,4.52,4.52,0,0,1-11.712-1.6a9.093,9.093,0,0,1-1.383-5.338V-10a9.269,9.269,0,0,1,1.336-5.449,4.51,4.51,0,0,1,3.9-1.852A4.533,4.533,0,0,1-3.989-15.51a8.932,8.932,0,0,1,1.383,5.268Zm-1.406-3.059a8.329,8.329,0,0,0-.955-4.43,3.193,3.193,0,0,0-2.889-1.5,3.2,3.2,0,0,0-2.859,1.465,8.059,8.059,0,0,0-.984,4.324v3.352A8.314,8.314,0,0,0-10.71-2.5,3.209,3.209,0,0,0-7.833-.949,3.161,3.161,0,0,0-4.991-2.461a8.347,8.347,0,0,0,.979-4.43ZM13.493,0H2.805V-1.078L8.653-7.711a15.347,15.347,0,0,0,2.016-2.766,4.611,4.611,0,0,0,.563-2.121,3.448,3.448,0,0,0-.949-2.561A3.544,3.544,0,0,0,7.669-16.1,3.688,3.688,0,0,0,4.886-15a3.951,3.951,0,0,0-1.061,2.859H2.43a5.36,5.36,0,0,1,.65-2.625,4.679,4.679,0,0,1,1.852-1.857A5.5,5.5,0,0,1,7.669-17.3a5.159,5.159,0,0,1,3.662,1.23,4.362,4.362,0,0,1,1.318,3.352,5.688,5.688,0,0,1-.744,2.613A19.425,19.425,0,0,1,9.286-6.562L4.528-1.184h8.965Z" transform="translate(759 2021)" fill="#fff"/><path d="M2-7.248A11.214,11.214,0,0,1,4.944-5.632c.128.112.208.1.3-.032a4.911,4.911,0,0,0,.416-.688.22.22,0,0,0-.08-.336A12.66,12.66,0,0,0,2.768-8.144a.213.213,0,0,0-.272.112C2.384-7.872,2.208-7.552,2-7.248Zm1.888-3.68A10.5,10.5,0,0,1,6.752-9.12c.128.112.192.144.288.032A5.175,5.175,0,0,0,7.5-9.776c.08-.144.1-.208-.048-.32A12.958,12.958,0,0,0,4.672-11.76c-.144-.064-.192-.064-.288.08C4.224-11.456,4.048-11.152,3.888-10.928ZM3.3-1.28A10.065,10.065,0,0,0,4.048-.208c.144.16.3.192.448.048A2.981,2.981,0,0,1,5.264-.7,37.649,37.649,0,0,0,9.936-3.7a26.761,26.761,0,0,0,4.224-3.92.349.349,0,0,0,.08-.432,3.725,3.725,0,0,1-.3-1.04,27.866,27.866,0,0,1-4.56,4.432A29.118,29.118,0,0,1,4.976-1.9,6.8,6.8,0,0,1,3.3-1.28ZM25.808-5.488l.848,3.28c.224.864.4,1.68.624,2.608.048.192.128.192.272.16a3.558,3.558,0,0,0,.624-.192C28.32.32,28.352.256,28.3.1c-.256-.912-.48-1.712-.7-2.592L26.768-5.76l4.064-1.072a9.341,9.341,0,0,1-2,2.9,2.223,2.223,0,0,1,.768.256c.16.08.24.064.384-.1A13.43,13.43,0,0,0,31.84-6.72a.986.986,0,0,1,.288-.368.258.258,0,0,0,.032-.4,3.853,3.853,0,0,0-.672-.5c-.144-.08-.256-.112-.368,0a2.071,2.071,0,0,1-.8.352l-3.792.992-.352-1.472A2.175,2.175,0,0,1,26.1-9.12c.048-.144,0-.256-.208-.272a9.7,9.7,0,0,0-1.3.064,4.982,4.982,0,0,1,.592,1.5l.384,1.472L24.208-6a20.337,20.337,0,0,1-2.192.432,7.493,7.493,0,0,0,.368.912c.1.176.16.16.368.08.432-.16,1.088-.384,1.744-.56Zm19.36-3.824-1.824.3a25.058,25.058,0,0,1-2.608.32c.064.256.208.752.288.96.048.128.1.16.24.128.576-.16,1.376-.32,2.24-.464l1.872-.3.56,2.656-2.64.448c-1.008.176-1.824.3-2.72.384.08.3.192.672.288.944.048.16.128.192.288.144.7-.176,1.424-.352,2.368-.512l2.608-.448.48,2.256c.192.912.384,1.872.512,2.576.016.144.08.192.24.16a4.545,4.545,0,0,0,.768-.176c.128-.048.16-.112.128-.256-.192-.752-.416-1.648-.608-2.576L47.184-4.96l2.64-.48c.864-.16,1.7-.3,2.336-.4.112-.016.176-.1.16-.24-.048-.24-.1-.464-.16-.7-.032-.112-.064-.144-.208-.112-.656.176-1.408.336-2.3.5l-2.672.48-.544-2.608L48.3-8.864c.736-.128,1.68-.288,2.432-.416.144-.016.176-.064.16-.176a6.577,6.577,0,0,0-.176-.752c-.032-.1-.064-.128-.176-.112-.768.192-1.664.352-2.464.5l-1.856.336-.256-1.36A3.176,3.176,0,0,1,45.9-12.16c.032-.144-.032-.256-.256-.288a6.369,6.369,0,0,0-1.344.016,5.65,5.65,0,0,1,.576,1.712ZM59.6-7.248a11.214,11.214,0,0,1,2.944,1.616c.128.112.208.1.3-.032a4.911,4.911,0,0,0,.416-.688.22.22,0,0,0-.08-.336,12.66,12.66,0,0,0-2.816-1.456.213.213,0,0,0-.272.112C59.984-7.872,59.808-7.552,59.6-7.248Zm1.888-3.68A10.5,10.5,0,0,1,64.352-9.12c.128.112.192.144.288.032a5.175,5.175,0,0,0,.464-.688c.08-.144.1-.208-.048-.32a12.958,12.958,0,0,0-2.784-1.664c-.144-.064-.192-.064-.288.08C61.824-11.456,61.648-11.152,61.488-10.928ZM60.9-1.28a10.065,10.065,0,0,0,.752,1.072c.144.16.3.192.448.048A2.981,2.981,0,0,1,62.864-.7,37.649,37.649,0,0,0,67.536-3.7a26.76,26.76,0,0,0,4.224-3.92.349.349,0,0,0,.08-.432,3.725,3.725,0,0,1-.3-1.04,27.866,27.866,0,0,1-4.56,4.432,29.118,29.118,0,0,1-4.4,2.752A6.8,6.8,0,0,1,60.9-1.28ZM83.408-5.488l.848,3.28c.224.864.4,1.68.624,2.608.048.192.128.192.272.16a3.558,3.558,0,0,0,.624-.192C85.92.32,85.952.256,85.9.1c-.256-.912-.48-1.712-.7-2.592L84.368-5.76l4.064-1.072a9.341,9.341,0,0,1-2,2.9,2.223,2.223,0,0,1,.768.256c.16.08.24.064.384-.1A13.43,13.43,0,0,0,89.44-6.72a.986.986,0,0,1,.288-.368.258.258,0,0,0,.032-.4,3.853,3.853,0,0,0-.672-.5c-.144-.08-.256-.112-.368,0a2.071,2.071,0,0,1-.8.352l-3.792.992-.352-1.472A2.176,2.176,0,0,1,83.7-9.12c.048-.144,0-.256-.208-.272a9.7,9.7,0,0,0-1.3.064,4.982,4.982,0,0,1,.592,1.5l.384,1.472L81.808-6a20.337,20.337,0,0,1-2.192.432,7.492,7.492,0,0,0,.368.912c.1.176.16.16.368.08.432-.16,1.088-.384,1.744-.56Zm19.36-3.824-1.824.3a25.058,25.058,0,0,1-2.608.32c.064.256.208.752.288.96.048.128.1.16.24.128.576-.16,1.376-.32,2.24-.464l1.872-.3.56,2.656-2.64.448c-1.008.176-1.824.3-2.72.384.08.3.192.672.288.944.048.16.128.192.288.144.7-.176,1.424-.352,2.368-.512l2.608-.448.48,2.256c.192.912.384,1.872.512,2.576.016.144.08.192.24.16a4.545,4.545,0,0,0,.768-.176c.128-.048.16-.112.128-.256-.192-.752-.416-1.648-.608-2.576l-.464-2.192,2.64-.48c.864-.16,1.7-.3,2.336-.4.112-.016.176-.1.16-.24-.048-.24-.1-.464-.16-.7-.032-.112-.064-.144-.208-.112-.656.176-1.408.336-2.3.5l-2.672.48-.544-2.608,1.872-.336c.736-.128,1.68-.288,2.432-.416.144-.016.176-.064.16-.176a6.576,6.576,0,0,0-.176-.752c-.032-.1-.064-.128-.176-.112-.768.192-1.664.352-2.464.5l-1.856.336-.256-1.36a3.176,3.176,0,0,1-.064-1.312c.032-.144-.032-.256-.256-.288a6.369,6.369,0,0,0-1.344.016,5.65,5.65,0,0,1,.576,1.712Zm21.344-.784a4,4,0,0,1,4.128,4.048c0,2.672-1.824,4.384-4.992,5.008a1.86,1.86,0,0,1,.624.592.317.317,0,0,0,.416.176c3.472-.88,5.088-2.976,5.088-5.584,0-3.056-2.128-5.152-5.712-5.152a6.822,6.822,0,0,0-4.8,1.776,5.811,5.811,0,0,0-1.856,4.144c0,2.32,1.136,3.632,2.336,3.632A2.668,2.668,0,0,0,121.7-3.1a17.861,17.861,0,0,0,2.112-6.992Zm-1.424.064a16.989,16.989,0,0,1-1.872,6.256c-.464.816-.944,1.168-1.488,1.168-.576,0-1.3-.752-1.3-2.5a4.961,4.961,0,0,1,1.536-3.456A5.391,5.391,0,0,1,122.688-10.032ZM144.224-3.76c1.488,0,2.064.032,2.16.032.112,0,.128-.016.128-.128,0-.08-.032-.48-.032-1.5V-7.2c0-1.04.032-1.424.032-1.52,0-.112-.016-.128-.128-.128-.1,0-.672.032-2.16.032h-1.456v-.608a1.8,1.8,0,0,1,.08-.736.679.679,0,0,0,.1-.3c0-.064-.064-.112-.192-.128a9.8,9.8,0,0,0-1.008-.1,5.984,5.984,0,0,1,.112,1.376v.5H140.5c-1.488,0-2.16-.032-2.24-.032-.112,0-.128.016-.128.128,0,.1.032.7.032,2.128V-.256c-.224.048-.432.08-.656.112-.624.1-1.12.16-1.712.208a6.25,6.25,0,0,0,.272.976c.048.112.1.16.16.16a.292.292,0,0,0,.176-.08A1.821,1.821,0,0,1,137.056.9c1.728-.32,3.472-.672,5.536-1.2.3-.08.32-.064.32-.4a2.254,2.254,0,0,1,.08-.56c-1.36.336-2.592.608-3.888.848V-3.76h2.336c1.584,2.848,3.7,3.872,7.184,4.848.3.08.336.1.464-.192A2.024,2.024,0,0,1,149.5.272a16.687,16.687,0,0,1-4.5-1.536A26.21,26.21,0,0,0,147.184-2.8a1.71,1.71,0,0,1,.528-.3c.112-.032.192-.08.192-.16a.272.272,0,0,0-.128-.208,7.838,7.838,0,0,0-.816-.576,2.823,2.823,0,0,1-.5.624,13.745,13.745,0,0,1-2.224,1.68,6.706,6.706,0,0,1-1.824-2.016Zm1.344-.784H139.1V-5.952h6.464Zm0-2.176H139.1V-8.032h6.464Zm4.448-2.032A15.907,15.907,0,0,1,142.9-12.9a.443.443,0,0,1,.128-.08.154.154,0,0,0,.1-.144c0-.064-.08-.128-.208-.16a7.97,7.97,0,0,0-1.008-.208,2.664,2.664,0,0,1-.5.784,14.435,14.435,0,0,1-6.544,4.24,1.9,1.9,0,0,1,.448.544c.16.272.176.3.448.192a15.573,15.573,0,0,0,6.576-4.624,16.3,16.3,0,0,0,6.8,4.432c.3.1.3.1.448-.208A1.993,1.993,0,0,1,150.016-8.752Zm15.888-1.92c1.6,0,2.144.032,2.224.032.112,0,.128-.016.128-.128v-.624c0-.112-.016-.128-.128-.128-.08,0-.624.032-2.224.032h-1.84c-.016-.208-.016-.416-.016-.624a2.094,2.094,0,0,1,.032-.672.754.754,0,0,0,.064-.272c0-.08-.064-.128-.176-.144-.32-.048-.672-.08-1.008-.1a7.105,7.105,0,0,1,.16,1.168l.048.64H158.48c-1.6,0-2.16-.032-2.256-.032-.112,0-.128.016-.128.128,0,.08.032.544.032,1.68a14.667,14.667,0,0,1-.352,3.568,6.162,6.162,0,0,1-1.248,2.512,1.8,1.8,0,0,1,.576.336c.128.112.192.16.24.16s.1-.064.176-.192a7.455,7.455,0,0,0,1.2-2.752,19.331,19.331,0,0,0,.32-3.168v-1.424h6.208A14.336,14.336,0,0,0,164.512-6a9.421,9.421,0,0,1-2.336,1.968,1.6,1.6,0,0,1,.464.32c.112.112.176.16.256.16.064,0,.128-.048.256-.128a9.861,9.861,0,0,0,1.792-1.584c.672,1.008,1.5,1.744,2.224,1.744.9,0,1.328-.528,1.664-1.856.08-.288.064-.32-.208-.48a1.88,1.88,0,0,1-.48-.4c-.24,1.2-.4,1.808-.976,1.808-.416,0-1.088-.624-1.648-1.536a12.857,12.857,0,0,0,1.328-2.528,1.652,1.652,0,0,1,.224-.432c.064-.08.112-.128.112-.208,0-.064-.048-.112-.16-.16a4.654,4.654,0,0,0-.8-.288,4.812,4.812,0,0,1-.224.944,8.623,8.623,0,0,1-.912,1.856,14.585,14.585,0,0,1-.944-3.872ZM162.176-6.64c0-.7.032-.928.032-1.008,0-.112-.016-.128-.128-.128-.1,0-.4.032-1.36.032h-1.312c-.976,0-1.28-.032-1.36-.032-.112,0-.128.016-.128.128,0,.08.032.3.032,1.008V-5.7c0,.7-.032.928-.032,1.008,0,.112.016.128.128.128.08,0,.384-.032,1.36-.032h1.312c.96,0,1.264.032,1.36.032.112,0,.128-.016.128-.128,0-.08-.032-.3-.032-1.008Zm-.784,1.312h-2.656V-6.992h2.656Zm-1.936,3.312a1.8,1.8,0,0,1,.08-.7.521.521,0,0,0,.064-.208c0-.064-.048-.128-.176-.144a7.465,7.465,0,0,0-.96-.1,7.963,7.963,0,0,1,.064,1.3V-.32a.91.91,0,0,0,.72,1.04A11.282,11.282,0,0,0,161.6.864a8.317,8.317,0,0,0,2.976-.3c.4-.176.736-.544.88-1.536.048-.272.032-.32-.256-.416a2.548,2.548,0,0,1-.624-.32c-.048.768-.176,1.264-.56,1.472a6.727,6.727,0,0,1-2.432.256A9.428,9.428,0,0,1,159.856-.1c-.32-.064-.4-.256-.4-.624Zm3.088-7.44c0-.128-.016-.144-.128-.144-.08,0-.432.032-1.488.032h-1.616c-1.072,0-1.408-.032-1.5-.032s-.112.016-.112.144v.592c0,.112.016.128.112.128s.432-.032,1.5-.032h1.616c1.056,0,1.424.032,1.488.032.112,0,.128-.016.128-.128Zm-5.76,6.608c-.208-.08-.256-.064-.3.064a7.168,7.168,0,0,1-1.648,2.608c-.1.1-.08.128.112.272l.4.288a.4.4,0,0,0,.176.08c.032,0,.064-.032.112-.08a8.946,8.946,0,0,0,1.728-2.848c.032-.112.016-.144-.16-.224Zm9.264.1c-.192.112-.192.128-.112.224A11.484,11.484,0,0,1,167.664.016c.064.112.112.112.288.016l.464-.24c.16-.08.176-.144.112-.256a11.039,11.039,0,0,0-1.808-2.5c-.1-.1-.128-.112-.288-.016Zm-5.2-.7c-.16.112-.176.16-.08.24a9.543,9.543,0,0,1,1.552,1.648c.08.128.128.112.3-.016l.368-.256c.16-.112.176-.144.112-.24A9.747,9.747,0,0,0,161.472-3.7c-.112-.1-.144-.1-.3.016Zm4.144-9.552c-.144.112-.16.16-.048.24a7.092,7.092,0,0,1,1.424,1.184c.1.112.144.08.3-.064l.288-.24c.128-.112.16-.144.064-.24a7.141,7.141,0,0,0-1.472-1.136c-.08-.064-.112-.064-.224.016Zm19.36,1.44a6.908,6.908,0,0,1,1.856,2.048.128.128,0,0,0,.208.032l.464-.384a.116.116,0,0,0,.032-.176,7.765,7.765,0,0,0-1.808-1.936c-.064-.048-.1-.064-.16-.016Zm1.408-1.072a7.642,7.642,0,0,1,1.84,2c.064.1.128.1.192.032l.432-.384c.08-.064.1-.112.048-.192a9.2,9.2,0,0,0-1.824-1.872c-.064-.048-.112-.032-.176.016Zm-7.536,4.08c-.752.112-1.376.208-2.256.3a10.838,10.838,0,0,1-1.664.08,6.092,6.092,0,0,0,.368,1.088c.1.192.24.192.416.08a2.326,2.326,0,0,1,.7-.208c.8-.144,1.456-.256,2.112-.352a33.972,33.972,0,0,1-3.072,6.816c-.048.1-.064.176.032.256a4.506,4.506,0,0,0,.64.432.192.192,0,0,0,.272-.08,43.475,43.475,0,0,0,3.264-7.568,11.3,11.3,0,0,1,1.728-.176c.864,0,1.1.448,1.1,1.7a12.089,12.089,0,0,1-.72,4.5c-.3.672-.608.832-1.072.832a4.661,4.661,0,0,1-1.856-.448,2.837,2.837,0,0,1,.192.96.261.261,0,0,0,.192.272,4.2,4.2,0,0,0,1.632.288,1.914,1.914,0,0,0,1.824-1.264,13.278,13.278,0,0,0,.88-5.12c0-1.92-.688-2.624-2.08-2.624a14.726,14.726,0,0,0-1.552.112c.24-.784.448-1.536.688-2.32a1.084,1.084,0,0,1,.272-.528.237.237,0,0,0-.064-.416,6.719,6.719,0,0,0-1.248-.432,5.5,5.5,0,0,1-.144,1.536C178.608-9.952,178.432-9.312,178.224-8.56Zm5.664-.48a8.892,8.892,0,0,1,2.56,4.048c.032.16.144.176.272.1a3.576,3.576,0,0,0,.656-.432c.1-.08.08-.16.048-.272a9.124,9.124,0,0,0-2.576-3.872.2.2,0,0,0-.24-.064A7.2,7.2,0,0,0,183.888-9.04Zm18.56-.9c0-1.072.032-1.456.032-1.536,0-.112-.016-.128-.128-.128-.1,0-.432.032-1.568.032h-.864c.128-.256.272-.576.384-.848a.811.811,0,0,1,.192-.352c.064-.064.112-.112.112-.176,0-.08-.048-.128-.16-.16a8.2,8.2,0,0,0-.944-.192,2.6,2.6,0,0,1-.16.752c-.112.352-.224.656-.352.976-1.008,0-1.344-.032-1.424-.032-.112,0-.128.016-.128.128,0,.08.016.464.016,1.536v2.32c0,1.072-.016,1.456-.016,1.536,0,.112.016.128.128.128.08,0,.432-.032,1.568-.032h1.648c1.136,0,1.472.032,1.568.032.112,0,.128-.016.128-.128,0-.08-.032-.464-.032-1.536Zm-.864,3.216H198.32V-8.48h3.264Zm0-2.48H198.32v-1.632h3.264Zm2.96,5.792c1.52,0,2.032.032,2.128.032.112,0,.128-.016.128-.128V-4.16c0-.112-.016-.128-.128-.128-.1,0-.608.032-2.128.032h-4.16a2.825,2.825,0,0,1,.08-.784,2.262,2.262,0,0,0,.1-.352c0-.064-.1-.112-.208-.128a9.251,9.251,0,0,0-1.04-.1,7.688,7.688,0,0,1,.112,1.36h-3.952c-1.52,0-2.032-.032-2.128-.032-.112,0-.128.016-.128.128V-3.5c0,.112.016.128.128.128.1,0,.608-.032,2.128-.032h3.264a13.173,13.173,0,0,1-5.952,3.264,2.438,2.438,0,0,1,.464.576c.1.176.128.24.208.24a1.027,1.027,0,0,0,.256-.08,12.569,12.569,0,0,0,5.76-3.776c0,2.288-.1,3.856-.1,4.16,0,.112.016.128.128.128h.784c.112,0,.128-.016.128-.128,0-.3-.08-1.9-.08-4.176a13.475,13.475,0,0,0,6,3.776,1.027,1.027,0,0,0,.256.08c.08,0,.128-.08.208-.256a2.845,2.845,0,0,1,.448-.608,13.514,13.514,0,0,1-6.208-3.2Zm-7.792-4.56a5.466,5.466,0,0,1-.144-.608,14.842,14.842,0,0,1-2.448,1.552,6.743,6.743,0,0,1-1.056.448,5.807,5.807,0,0,0,.464.9c.064.1.112.112.176.112s.128-.064.176-.128a2.618,2.618,0,0,1,.512-.4,21.223,21.223,0,0,0,2.16-1.392C196.832-7.664,196.832-7.664,196.752-7.968ZM203.2-8c-.128.16-.112.208,0,.256a18.38,18.38,0,0,1,3.008,1.968c.112.1.144.08.272-.128l.272-.416c.112-.16.112-.192.016-.272a24.355,24.355,0,0,0-3.056-1.872c-.112-.064-.144-.048-.24.1Zm3.248-3.616c0-.064-.032-.112-.144-.224a4.464,4.464,0,0,0-.7-.512,3.118,3.118,0,0,1-.32.512,11.237,11.237,0,0,1-2.128,1.984,1.647,1.647,0,0,1,.448.352c.112.144.16.208.224.208.048,0,.112-.048.224-.144a15.948,15.948,0,0,0,1.888-1.728,1.129,1.129,0,0,1,.336-.272C206.384-11.488,206.448-11.536,206.448-11.616Zm-12.8-.048c-.144.144-.16.176-.048.24a11.723,11.723,0,0,1,2.032,1.776c.1.112.1.08.256-.08l.336-.352c.16-.16.144-.192.064-.272a11.477,11.477,0,0,0-2.08-1.712c-.1-.08-.1-.064-.24.08Zm22.016-.736a8.81,8.81,0,0,1,.128,2.416c-.08,2.256-.224,4.864-.224,7.136,0,2.352.976,3.216,2.784,3.216a8.9,8.9,0,0,0,6.1-2.688c.144-.128.192-.208.192-.3a.814.814,0,0,0-.064-.224,3.786,3.786,0,0,1-.272-.928,8.222,8.222,0,0,1-5.76,3.056c-1.392,0-1.888-.544-1.888-2.336,0-2.208.1-4.4.24-6.816a9.118,9.118,0,0,1,.192-1.648,1.221,1.221,0,0,0,.128-.416c0-.112-.08-.192-.256-.24A6.357,6.357,0,0,0,215.664-12.4ZM239.04-9.328a9.011,9.011,0,0,0-3.664,1.136c-.128-.512-.272-1.184-.4-1.872a3.39,3.39,0,0,1-.064-.752c.016-.176,0-.272-.192-.336a4.84,4.84,0,0,0-1.152-.16,6.854,6.854,0,0,1,.464,1.488c.16.7.352,1.536.512,2.16a5.714,5.714,0,0,0-2.288,4.3c0,1.616.864,2.3,1.68,2.3.864,0,1.76-.592,2.768-1.776a10.111,10.111,0,0,0,.688.816.212.212,0,0,0,.3.032,2.359,2.359,0,0,0,.528-.528,8.495,8.495,0,0,1-.9-1.1,27.605,27.605,0,0,0,2.48-4.88,3.4,3.4,0,0,1,3.664,3.52c0,2.3-2.016,3.728-4.88,4.24a2.037,2.037,0,0,1,.672.592.326.326,0,0,0,.416.16c2.688-.624,4.88-2.112,4.88-4.96,0-2.48-1.712-4.192-4.48-4.368.256-.688.416-1.088.56-1.472a1.753,1.753,0,0,1,.32-.624c.128-.16.144-.32-.064-.448a4.472,4.472,0,0,0-1.232-.48,3.318,3.318,0,0,1-.08,1.184A13.379,13.379,0,0,1,239.04-9.328Zm-3.456,1.984a7.546,7.546,0,0,1,3.152-1.12,24.61,24.61,0,0,1-1.952,4A15.6,15.6,0,0,1,235.584-7.344Zm-.784.608a16.146,16.146,0,0,0,1.344,3.072c-.9,1.168-1.568,1.552-2.144,1.552-.432,0-.784-.5-.784-1.328A4.83,4.83,0,0,1,234.8-6.736Zm20.72.688c1.6-1.632,2.672-2.752,4.1-4.256a1.735,1.735,0,0,1,.752-.56.331.331,0,0,0,.24-.3.432.432,0,0,0-.112-.272,3.942,3.942,0,0,0-.688-.672.48.48,0,0,0-.288-.128.493.493,0,0,0-.224.112,1.671,1.671,0,0,1-.5.144c-1.408.272-2.72.448-3.984.576a5.964,5.964,0,0,1-1.408-.016,5.062,5.062,0,0,0,.384,1.1.283.283,0,0,0,.256.192.951.951,0,0,0,.3-.08,2.6,2.6,0,0,1,.56-.144c1.424-.272,2.672-.512,4-.72-1.232,1.456-2.192,2.48-3.12,3.488a43.568,43.568,0,0,1-3.616,3.568c-.112.1-.128.16-.064.24a7.381,7.381,0,0,0,.592.64c.112.112.192.1.32-.032a15.382,15.382,0,0,1,1.408-1.312,7.371,7.371,0,0,1,4.4-1.808A2.592,2.592,0,0,1,261.6-3.664a2.951,2.951,0,0,1-2.336,2.912,2.709,2.709,0,0,0-2.72-2.288,1.745,1.745,0,0,0-1.872,1.632c0,1.024.864,1.888,2.784,1.888,3.392,0,5.28-1.728,5.28-4.112a3.4,3.4,0,0,0-3.728-3.5A6.246,6.246,0,0,0,255.568-6Zm2.768,5.52a5.8,5.8,0,0,1-1.04.08c-1.072,0-1.648-.448-1.648-.976,0-.5.464-.752.976-.752A1.856,1.856,0,0,1,258.288-.528Z" transform="translate(812 2019)" fill="#653333"/><path d="M251.029,779.718a17.212,17.212,0,0,0-10.153-10.1c-5.132-1.8-10.481-.778-15.56.624-1.7,1.18-1.51-6.426.532-8.3,1.154-1.061,4.686-4.76,2.033-4.87-2.2-.091-4.8,2.644-5.816,4.363a6.027,6.027,0,0,0-.73,2.011,8.593,8.593,0,0,0-8.742-2.113c.415,7.085,5.179,8.259,8.814,7.482.036.454.065.9.077,1.343-1.22-.2-2.425-.657-3.64-.909a27.506,27.506,0,0,0-5.511-.61,17.322,17.322,0,0,0-10.029,3.012c-5.7,4.013-7.925,11.015-7.829,17.744a36.189,36.189,0,0,0,6.723,20.183,29.127,29.127,0,0,0,6.541,7.032,18.237,18.237,0,0,0,8.423,3.139,12.9,12.9,0,0,0,3.926-.019c1.134-.184,2.2-.663,3.32-.853.85-.144,2.048.525,2.869.708a12.835,12.835,0,0,0,4.27.218,19.26,19.26,0,0,0,12.8-6.9C250.908,804.21,255.412,790.91,251.029,779.718Z" transform="translate(535.527 1311.932)" fill="#b63333"/><path d="M-2.606-7.113A9.443,9.443,0,0,1-3.93-1.635,4.476,4.476,0,0,1-7.833.234,4.52,4.52,0,0,1-11.712-1.6a9.093,9.093,0,0,1-1.383-5.338V-10a9.269,9.269,0,0,1,1.336-5.449,4.51,4.51,0,0,1,3.9-1.852A4.533,4.533,0,0,1-3.989-15.51a8.932,8.932,0,0,1,1.383,5.268Zm-1.406-3.059a8.329,8.329,0,0,0-.955-4.43,3.193,3.193,0,0,0-2.889-1.5,3.2,3.2,0,0,0-2.859,1.465,8.059,8.059,0,0,0-.984,4.324v3.352A8.314,8.314,0,0,0-10.71-2.5,3.209,3.209,0,0,0-7.833-.949,3.161,3.161,0,0,0-4.991-2.461a8.347,8.347,0,0,0,.979-4.43Zm9.935.879H7.376a4.876,4.876,0,0,0,2.109-.428,3.216,3.216,0,0,0,1.377-1.172,3.123,3.123,0,0,0,.475-1.717,3.469,3.469,0,0,0-.926-2.566,3.6,3.6,0,0,0-2.66-.926,3.812,3.812,0,0,0-2.689.967,3.3,3.3,0,0,0-1.049,2.549H2.606a4.559,4.559,0,0,1,.668-2.42A4.489,4.489,0,0,1,5.126-16.7a5.74,5.74,0,0,1,2.625-.6,5.1,5.1,0,0,1,3.656,1.266,4.549,4.549,0,0,1,1.336,3.469,3.693,3.693,0,0,1-.779,2.268A4.67,4.67,0,0,1,9.825-8.742a4.39,4.39,0,0,1,2.414,1.529,4.159,4.159,0,0,1,.82,2.584A4.6,4.6,0,0,1,11.63-1.1,5.37,5.37,0,0,1,7.809.234,6.382,6.382,0,0,1,5.014-.375,4.652,4.652,0,0,1,3.046-2.08a4.645,4.645,0,0,1-.7-2.549H3.755A3.41,3.41,0,0,0,4.891-1.975,4.19,4.19,0,0,0,7.809-.949a4.027,4.027,0,0,0,2.83-.932,3.486,3.486,0,0,0,1.014-2.7,3.191,3.191,0,0,0-1.1-2.613,4.978,4.978,0,0,0-3.229-.9H5.923Z" transform="translate(759 2114)" fill="#fff"/><path d="M5.92-10.32c0-1.472.032-2.064.032-2.144,0-.112-.016-.128-.128-.128-.1,0-.384.032-1.392.032H3.184c-.992,0-1.3-.032-1.392-.032-.112,0-.128.016-.128.128,0,.1.032.672.032,2.144v5.152c0,1.472-.032,2.048-.032,2.144,0,.112.016.112.128.112.1,0,.4-.016,1.392-.016H4.432c1.008,0,1.3.032,1.392.032.112,0,.128-.016.128-.128,0-.1-.032-.672-.032-2.144ZM5.056-3.728H2.56V-5.952h2.5Zm0-3.008H2.56V-8.864h2.5Zm0-2.912H2.56V-11.76h2.5ZM15.072-7.024c0-.1-.016-.112-.128-.112-.08,0-.592.032-2.112.032H9.1c-1.52,0-2.016-.032-2.1-.032-.112,0-.128.016-.128.112v.688c0,.112.016.128.128.128.08,0,.576-.032,2.1-.032h1.488V-.928c0,.688-.24.816-.864.816A7.5,7.5,0,0,1,8.5-.208a2.4,2.4,0,0,1,.272.736c.064.32.08.336.4.336C10.432.88,10.88.784,11.184.528c.3-.24.416-.56.416-1.3,0-.448-.016-1.136-.016-1.872v-3.6h1.248c1.52,0,2.032.032,2.112.032.112,0,.128-.016.128-.128Zm-.192-3.424c0-.32.032-.5.032-.576,0-.112-.016-.128-.112-.128s-.624.032-2.144.032H11.232v-.624a3.785,3.785,0,0,1,.1-1.056.652.652,0,0,0,.08-.288c0-.064-.064-.112-.192-.128a9.94,9.94,0,0,0-1.056-.1,7.652,7.652,0,0,1,.112,1.584v.608H9.04c-1.52,0-2.032-.032-2.112-.032-.112,0-.128.016-.128.128,0,.08.032.256.032.64v.368c0,1.1-.032,1.248-.032,1.328,0,.128.016.128.128.128H7.6c.128,0,.144,0,.144-.128v-1.568h6.208v1.568c0,.128.016.128.128.128h.72c.1,0,.112,0,.112-.128,0-.08-.032-.224-.032-1.328ZM3.424-1.936c0-.048-.048-.112-.16-.16a5.394,5.394,0,0,0-.816-.272,2.286,2.286,0,0,1-.16.608A6.242,6.242,0,0,1,.72.592a1.863,1.863,0,0,1,.544.3.468.468,0,0,0,.224.128c.08,0,.144-.064.256-.192A8.5,8.5,0,0,0,3.1-1.392a.95.95,0,0,1,.224-.368C3.392-1.824,3.424-1.856,3.424-1.936Zm1.152-.176c-.208.1-.208.128-.16.24A17.43,17.43,0,0,0,5.616.24c.1.144.16.224.224.224A.306.306,0,0,0,6.032.352a2,2,0,0,1,.592-.368,8.857,8.857,0,0,1-1.44-2.208c-.048-.112-.08-.112-.272-.032ZM31.44-8.224c1.616,0,2.144.032,2.24.032.112,0,.128-.016.128-.112v-.64c0-.112-.016-.128-.128-.128-.1,0-.624.032-2.24.032H30.1a1.739,1.739,0,0,1,.08-.624.762.762,0,0,0,.08-.224c0-.08-.064-.128-.176-.144A6.667,6.667,0,0,0,29.1-10.1c.048.336.08.752.1,1.056H23.952c-1.616,0-2.192-.032-2.272-.032-.112,0-.128.016-.128.128,0,.1.032.672.032,2.1a17.7,17.7,0,0,1-.4,4.336A7.826,7.826,0,0,1,19.84.416a1.812,1.812,0,0,1,.56.416c.1.1.144.144.208.144.048,0,.112-.064.192-.176a8.76,8.76,0,0,0,1.344-3.12,21.937,21.937,0,0,0,.368-4.48V-8.224h6.72a18.634,18.634,0,0,0,1.056,5.792,9.77,9.77,0,0,1-3.2,3.056,2.407,2.407,0,0,1,.576.384c.112.1.176.16.24.16s.128-.048.256-.144a11.006,11.006,0,0,0,2.512-2.512C31.376.032,32.192.96,33.04.96c.976,0,1.248-.784,1.408-2.1.032-.3,0-.32-.24-.464a3.172,3.172,0,0,1-.528-.416C33.6-.992,33.5-.064,33.024-.064c-.544,0-1.216-.992-1.76-2.32A17.006,17.006,0,0,0,32.608-5.44a3.055,3.055,0,0,1,.336-.768.47.47,0,0,0,.16-.3c0-.1-.08-.16-.224-.208-.256-.1-.512-.16-.832-.256a6.6,6.6,0,0,1-.336,1.488,13.508,13.508,0,0,1-.832,2.032,18.019,18.019,0,0,1-.768-4.768Zm-2.784,1.2c0-.128-.016-.144-.144-.144-.08,0-.432.032-1.584.032H25.184c-1.168,0-1.552-.032-1.632-.032-.112,0-.128.016-.128.144,0,.08.032.5.032,1.728v3.6c0,1.232-.032,1.648-.032,1.744,0,.112.016.128.128.128h.576c.112,0,.128-.016.128-.128V-.688h2.432c1.168,0,1.5.032,1.584.032.128,0,.144-.016.144-.128v-.528c0-.112-.016-.128-.144-.128-.08,0-.416.032-1.584.032V-2.672h.176c1.04,0,1.392.032,1.472.032.112,0,.128-.016.128-.128,0-.1-.032-.3-.032-.9v-.592c0-.624.032-.832.032-.928,0-.112-.016-.112-.128-.112-.08,0-.432.016-1.472.016H26.7V-6.416h.224c1.152,0,1.5.032,1.584.032.128,0,.144-.016.144-.128ZM27.648-3.36H24.256V-4.592h3.392ZM25.92-1.408H24.256V-2.672H25.92Zm0-3.872H24.256V-6.416H25.92Zm8.256-6.48c0-.1-.016-.112-.128-.112-.1,0-.592.016-2.1.016H29.744v-.08a2.615,2.615,0,0,1,.08-.928.477.477,0,0,0,.08-.224c0-.064-.08-.112-.176-.128a7.437,7.437,0,0,0-.992-.1,6.24,6.24,0,0,1,.112,1.456h-3.44a2.837,2.837,0,0,1,.1-1.008.438.438,0,0,0,.064-.224c0-.064-.064-.112-.176-.128a7.168,7.168,0,0,0-.976-.1,7.526,7.526,0,0,1,.1,1.456H22.448c-1.488,0-2-.016-2.08-.016-.112,0-.128.016-.128.112v.624c0,.128.016.144.128.144.08,0,.592-.032,2.08-.032h2.064c-.016.656-.032.928-.032,1.008,0,.1.016.112.128.112h.7c.112,0,.128-.016.128-.112,0-.064-.032-.352-.032-1.008h3.44c-.016.336-.032.5-.032.56,0,.112.016.128.128.128h.7c.112,0,.112-.016.112-.128,0-.064-.016-.224-.016-.56h2.208c1.5,0,2,.032,2.1.032.112,0,.128-.016.128-.144ZM30.912-10.4c-.1.08-.1.112,0,.176a7.227,7.227,0,0,1,1.28,1.072c.08.08.112.08.24-.016l.336-.272c.112-.1.112-.128.032-.224a6.736,6.736,0,0,0-1.328-1.024c-.112-.064-.128-.064-.24.032ZM53.648-.352c0-.112-.016-.128-.128-.128-.08,0-.624.032-2.24.032H49.216V-4.336h1.2c1.488,0,1.968.032,2.048.032.112,0,.128-.016.128-.128v-.656c0-.112-.016-.128-.128-.128-.08,0-.56.032-2.048.032h-1.2V-8.592h1.7c1.472,0,1.968.032,2.048.032.112,0,.128-.016.128-.128v-.656c0-.112-.016-.128-.128-.128-.08,0-.576.032-2.048.032h-1.7v-1.7a7.15,7.15,0,0,1,.112-1.648,1.188,1.188,0,0,0,.064-.288c0-.064-.08-.112-.192-.128a8.877,8.877,0,0,0-1.056-.1,12.43,12.43,0,0,1,.128,2.192V-9.44H46.048c.192-.544.336-1.056.448-1.5a1.23,1.23,0,0,1,.192-.464.317.317,0,0,0,.1-.208c0-.064-.032-.112-.192-.176a5.68,5.68,0,0,0-.944-.256,6.125,6.125,0,0,1-.064.848,13.3,13.3,0,0,1-2.016,4.752,2.144,2.144,0,0,1,.64.256.444.444,0,0,0,.208.1c.064,0,.1-.064.192-.208a15.241,15.241,0,0,0,1.136-2.288h2.528v3.408H47.056c-1.488,0-1.968-.032-2.064-.032-.112,0-.128.016-.128.128v.656c0,.112.016.128.128.128.1,0,.576-.032,2.064-.032h1.216V-.448h-2.32c-1.632,0-2.16-.032-2.24-.032-.112,0-.128.016-.128.128V.32c0,.128.016.144.128.144.08,0,.608-.032,2.24-.032H51.28c1.616,0,2.16.032,2.24.032.112,0,.128-.016.128-.144ZM41.28-1.824c0,1.888-.032,2.72-.032,2.8,0,.112.016.128.128.128h.752c.112,0,.128-.016.128-.128,0-.08-.032-.912-.032-2.816v-9.3a6.141,6.141,0,0,1,.112-1.648,1.371,1.371,0,0,0,.064-.288c0-.064-.08-.112-.192-.128a6.609,6.609,0,0,0-1.056-.08A10.671,10.671,0,0,1,41.28-11.1ZM40.048-9.872c-.208-.064-.224-.048-.24.064a10.156,10.156,0,0,1-.672,3.152c-.08.192-.016.192.176.256l.4.144c.16.064.192.048.224-.032a11.773,11.773,0,0,0,.7-3.28c.016-.112,0-.128-.176-.176Zm2.816-.176c-.208.08-.224.1-.176.208a13.872,13.872,0,0,1,.576,2.208c.016.128.064.128.272.048l.352-.144c.176-.064.192-.1.16-.208a17.532,17.532,0,0,0-.64-2.192c-.032-.1-.1-.1-.224-.048Zm26.288-1.52A6.908,6.908,0,0,1,71.008-9.52a.128.128,0,0,0,.208.032l.464-.384a.116.116,0,0,0,.032-.176A7.764,7.764,0,0,0,69.9-11.984c-.064-.048-.1-.064-.16-.016ZM70.56-12.64a7.642,7.642,0,0,1,1.84,2c.064.1.128.1.192.032l.432-.384c.08-.064.1-.112.048-.192a9.2,9.2,0,0,0-1.824-1.872c-.064-.048-.112-.032-.176.016ZM63.024-8.56c-.752.112-1.376.208-2.256.3a10.838,10.838,0,0,1-1.664.08,6.091,6.091,0,0,0,.368,1.088c.1.192.24.192.416.08a2.326,2.326,0,0,1,.7-.208c.8-.144,1.456-.256,2.112-.352A33.973,33.973,0,0,1,59.632-.752c-.048.1-.064.176.032.256a4.505,4.505,0,0,0,.64.432.192.192,0,0,0,.272-.08A43.474,43.474,0,0,0,63.84-7.712a11.3,11.3,0,0,1,1.728-.176c.864,0,1.1.448,1.1,1.7a12.089,12.089,0,0,1-.72,4.5c-.3.672-.608.832-1.072.832a4.661,4.661,0,0,1-1.856-.448,2.837,2.837,0,0,1,.192.96.261.261,0,0,0,.192.272A4.2,4.2,0,0,0,65.04.208a1.914,1.914,0,0,0,1.824-1.264,13.279,13.279,0,0,0,.88-5.12c0-1.92-.688-2.624-2.08-2.624a14.726,14.726,0,0,0-1.552.112c.24-.784.448-1.536.688-2.32a1.084,1.084,0,0,1,.272-.528.237.237,0,0,0-.064-.416,6.719,6.719,0,0,0-1.248-.432,5.5,5.5,0,0,1-.144,1.536C63.408-9.952,63.232-9.312,63.024-8.56Zm5.664-.48a8.892,8.892,0,0,1,2.56,4.048c.032.16.144.176.272.1a3.576,3.576,0,0,0,.656-.432c.1-.08.08-.16.048-.272a9.123,9.123,0,0,0-2.576-3.872.2.2,0,0,0-.24-.064A7.2,7.2,0,0,0,68.688-9.04Zm15.36.272c0-1.024,0-1.872.032-2.384a2.147,2.147,0,0,1,.16-.832c.08-.16.064-.288-.128-.352a6.516,6.516,0,0,0-1.264-.208,5,5,0,0,1,.144,1.312c0,.752.016,1.744.016,2.448.016,1.84.128,3.7.288,5.2A11.471,11.471,0,0,0,81.568-3.7c-1.7,0-3.1.848-3.1,2.128,0,1.184,1.088,2,3.056,2,1.808,0,2.864-.992,2.88-2.32.016-.192.016-.352.016-.448A14.688,14.688,0,0,1,88.352-.3c.08.048.112.032.176-.032a3.037,3.037,0,0,0,.48-.784c.032-.1.016-.144-.08-.208a17.08,17.08,0,0,0-4.56-2.064,40.085,40.085,0,0,1-.3-4.336,20.6,20.6,0,0,0,4.208-.784c.064-.016.112-.048.1-.16a5.33,5.33,0,0,0-.256-.816.112.112,0,0,0-.144-.064A16.867,16.867,0,0,1,84.048-8.768Zm-.72,6.176a2.483,2.483,0,0,1,.016.368c0,1.072-.736,1.664-1.952,1.664C80.16-.56,79.408-.9,79.408-1.6c0-.656.768-1.184,2.128-1.184A9,9,0,0,1,83.328-2.592ZM104.64-12.656a3.755,3.755,0,0,1-.7.992c-1.424,1.44-3.168,3.136-4.464,4.512a1.48,1.48,0,0,0-.56,1.04A1.252,1.252,0,0,0,99.536-5.1,42.576,42.576,0,0,1,105.568.32c.112.144.176.128.3.032a7.233,7.233,0,0,0,.608-.608c.128-.16.1-.192-.016-.32a51.644,51.644,0,0,0-6.176-5.28c-.144-.1-.208-.176-.208-.288a.6.6,0,0,1,.224-.4c1.2-1.28,3.152-3.088,4.72-4.512a1.921,1.921,0,0,1,.592-.416.237.237,0,0,0,.16-.208.338.338,0,0,0-.112-.208A7.394,7.394,0,0,0,104.64-12.656Zm15.1,3.536a20.335,20.335,0,0,1-3.328.128,4.133,4.133,0,0,0,.1.752c.032.16.1.24.3.24a21.975,21.975,0,0,0,2.928-.176c0,1.1,0,2.288.016,3.424-.976.56-1.888,1.072-2.592,1.408a7.448,7.448,0,0,1-1.552.56,5.979,5.979,0,0,0,.5.976c.08.112.144.176.24.176a.373.373,0,0,0,.224-.112c.144-.1.3-.208.544-.352A12.038,12.038,0,0,1,119.44-.3c.384.416.464.576.608.576A3.466,3.466,0,0,0,120.72.16c.16-.048.176-.144.176-.368,0-.256-.064-.768-.1-1.52-.048-.992-.08-1.872-.08-2.448A9.371,9.371,0,0,1,124.7-5.52c1.424,0,2.208.768,2.208,1.936,0,1.328-.976,1.968-2.256,1.968a4.024,4.024,0,0,1-1.712-.336,2.13,2.13,0,0,1,.256.736c.016.256.064.368.224.416a4.127,4.127,0,0,0,1.28.192c2.016,0,3.328-1.008,3.328-2.944A2.828,2.828,0,0,0,124.9-6.384a9.737,9.737,0,0,0-4.176,1.216c-.016-1.056-.016-2.112.016-3.152a15.776,15.776,0,0,0,2.5-.656c.128-.048.176-.064.176-.208a4.773,4.773,0,0,0-.064-.672c-.016-.144-.08-.16-.208-.112a15.15,15.15,0,0,1-2.352.672c.016-.512.032-.96.064-1.392a1.691,1.691,0,0,1,.192-.816.426.426,0,0,0,.08-.208.25.25,0,0,0-.192-.24,6.1,6.1,0,0,0-1.28-.24,6.958,6.958,0,0,1,.128,1.5C119.776-10.144,119.76-9.7,119.744-9.12Zm.016,5.392c.048.88.064,1.584.1,2.272,0,.144-.048.176-.16.112-.672-.368-1.216-.7-1.984-1.152C118.48-2.96,119.024-3.312,119.76-3.728Zm5.392-5.856a5.614,5.614,0,0,1,3.056,1.744.127.127,0,0,0,.208,0,4.848,4.848,0,0,0,.512-.656.137.137,0,0,0,0-.208,5.717,5.717,0,0,0-3.168-1.68c-.112-.016-.16.016-.224.128A5.6,5.6,0,0,0,125.152-9.584ZM135.7-10.928a6.79,6.79,0,0,1,.128,1.536,35.11,35.11,0,0,0,.288,4.464c.352,2.512,1.36,4.368,2.7,4.368,1.072,0,1.936-1.216,2.384-2.512a.357.357,0,0,0-.128-.4,2.034,2.034,0,0,1-.528-.8c-.464,1.488-1.072,2.512-1.712,2.512-.768,0-1.456-1.376-1.7-3.264a25.548,25.548,0,0,1-.224-3.632,5.5,5.5,0,0,1,.128-1.472,1.188,1.188,0,0,0,.064-.288c0-.064-.048-.128-.144-.176A4.4,4.4,0,0,0,135.7-10.928Zm8.192,2A9.322,9.322,0,0,1,146.9-3.376a.147.147,0,0,0,.208.128,3.167,3.167,0,0,0,.736-.368.183.183,0,0,0,.112-.208,9.7,9.7,0,0,0-3.12-5.536c-.064-.064-.144-.048-.24,0A6.538,6.538,0,0,0,143.888-8.928ZM157.1-12.4a8.81,8.81,0,0,1,.128,2.416c-.08,2.256-.224,4.864-.224,7.136,0,2.352.976,3.216,2.784,3.216a8.9,8.9,0,0,0,6.1-2.688c.144-.128.192-.208.192-.3a.814.814,0,0,0-.064-.224,3.786,3.786,0,0,1-.272-.928,8.222,8.222,0,0,1-5.76,3.056c-1.392,0-1.888-.544-1.888-2.336,0-2.208.1-4.4.24-6.816a9.118,9.118,0,0,1,.192-1.648,1.221,1.221,0,0,0,.128-.416c0-.112-.08-.192-.256-.24A6.357,6.357,0,0,0,157.1-12.4ZM174.1-10.928a6.79,6.79,0,0,1,.128,1.536,35.11,35.11,0,0,0,.288,4.464c.352,2.512,1.36,4.368,2.7,4.368,1.072,0,1.936-1.216,2.384-2.512a.357.357,0,0,0-.128-.4,2.034,2.034,0,0,1-.528-.8c-.464,1.488-1.072,2.512-1.712,2.512-.768,0-1.456-1.376-1.7-3.264a25.548,25.548,0,0,1-.224-3.632,5.5,5.5,0,0,1,.128-1.472,1.188,1.188,0,0,0,.064-.288c0-.064-.048-.128-.144-.176A4.4,4.4,0,0,0,174.1-10.928Zm8.192,2A9.322,9.322,0,0,1,185.3-3.376a.147.147,0,0,0,.208.128,3.167,3.167,0,0,0,.736-.368.183.183,0,0,0,.112-.208,9.7,9.7,0,0,0-3.12-5.536c-.064-.064-.144-.048-.24,0A6.538,6.538,0,0,0,182.288-8.928Zm13.6-3.536a8.748,8.748,0,0,1-.144,1.776,29.648,29.648,0,0,0-.368,3.76,9.554,9.554,0,0,0,.4,2.992c.032.1.08.16.16.16.272-.032.624-.08.768-.112.1-.032.128-.08.112-.224a1.28,1.28,0,0,1,.112-.512,16.354,16.354,0,0,1,1.008-2.112.338.338,0,0,0,.016-.432,2.27,2.27,0,0,1-.32-.656c-.368.72-.848,1.632-1.184,2.3a11.122,11.122,0,0,1-.064-1.808,23.9,23.9,0,0,1,.48-3.68,1.509,1.509,0,0,1,.288-.624.4.4,0,0,0,.064-.208c0-.1-.064-.16-.208-.24A4.537,4.537,0,0,0,195.888-12.464Zm5.008.1a6.662,6.662,0,0,1,.32,1.68c.1,1.184.16,2.7.16,3.808a7.43,7.43,0,0,1-1.312,4.848A7.483,7.483,0,0,1,197.28.16a2.377,2.377,0,0,1,.816.448.3.3,0,0,0,.416.032,8.208,8.208,0,0,0,2.64-2.32,8.663,8.663,0,0,0,1.312-5.248c0-1.136-.064-2.464-.192-4.24a2.694,2.694,0,0,1,.032-.752c.032-.16,0-.272-.24-.32A5.64,5.64,0,0,0,200.9-12.368ZM214.96-4.8c.944-1.68,2.016-3.728,3.12-5.792a2.07,2.07,0,0,1,.48-.656.277.277,0,0,0-.032-.464,5.849,5.849,0,0,0-1.152-.608,7.032,7.032,0,0,1-.624,1.84c-1.1,2.352-2.8,5.728-4.864,9.76-.064.112-.064.192.032.272a3.136,3.136,0,0,0,.7.416c.144.064.224.048.288-.112A17.972,17.972,0,0,1,214.88-3.68a3.071,3.071,0,0,1,2.208-1.376c.848,0,1.216.624,1.392,2.24.208,1.952.752,2.9,2.288,2.9a3.454,3.454,0,0,0,2.8-1.408A7.27,7.27,0,0,0,224.832-3.5c.064-.192.048-.32-.08-.416a2.049,2.049,0,0,1-.576-.848,7.717,7.717,0,0,1-1.344,2.64,2.555,2.555,0,0,1-2.048,1.1c-.9,0-1.152-.784-1.28-2.144-.16-1.616-.672-2.768-2.256-2.768a3.26,3.26,0,0,0-2.256,1.168Zm18.032-.064a3.329,3.329,0,0,0-.656,1.888c0,2.064,1.856,3.008,4.976,3.008a23.1,23.1,0,0,0,4.848-.416c.16-.032.224-.08.208-.208a8.048,8.048,0,0,0-.144-.832c-.032-.128-.08-.144-.224-.112a19.9,19.9,0,0,1-4.592.464c-2.624,0-4.1-.64-4.1-1.952a2.536,2.536,0,0,1,.432-1.248c.064-.1.048-.16-.048-.208C233.472-4.608,233.216-4.752,232.992-4.864Zm.448-5.968c-.016.272-.032.608-.032.816,0,.16.048.208.144.224A16.69,16.69,0,0,0,236.8-9.5c.5,0,1.2-.016,1.728-.064a20.971,20.971,0,0,0-2.752,1.6,1.794,1.794,0,0,1,.656.32.363.363,0,0,0,.448-.032A10.6,10.6,0,0,1,241.024-9.5c.16-.016.224-.064.224-.24a4.636,4.636,0,0,0-.048-.72c-.016-.112-.08-.16-.224-.144-1.1.1-2.384.144-3.536.144A19.031,19.031,0,0,1,233.44-10.832Zm7.536-1.264a6.908,6.908,0,0,1,1.856,2.048.128.128,0,0,0,.208.032l.464-.384a.116.116,0,0,0,.032-.176,7.764,7.764,0,0,0-1.808-1.936.126.126,0,0,0-.176,0Zm1.408-1.072a7.642,7.642,0,0,1,1.84,2c.064.1.128.1.192.032l.432-.384c.08-.064.1-.112.048-.192a9.2,9.2,0,0,0-1.824-1.872c-.064-.048-.112-.032-.176.016Zm17.008,1.6a6.908,6.908,0,0,1,1.856,2.048.128.128,0,0,0,.208.032l.464-.384a.116.116,0,0,0,.032-.176,7.764,7.764,0,0,0-1.808-1.936c-.064-.048-.1-.064-.16-.016ZM260.8-12.64a7.642,7.642,0,0,1,1.84,2c.064.1.128.1.192.032l.432-.384c.08-.064.1-.112.048-.192a9.2,9.2,0,0,0-1.824-1.872c-.064-.048-.112-.032-.176.016Zm-7.536,4.08c-.752.112-1.376.208-2.256.3a10.838,10.838,0,0,1-1.664.08,6.092,6.092,0,0,0,.368,1.088c.1.192.24.192.416.08a2.326,2.326,0,0,1,.7-.208c.8-.144,1.456-.256,2.112-.352a33.972,33.972,0,0,1-3.072,6.816c-.048.1-.064.176.032.256a4.506,4.506,0,0,0,.64.432.192.192,0,0,0,.272-.08,43.475,43.475,0,0,0,3.264-7.568,11.3,11.3,0,0,1,1.728-.176c.864,0,1.1.448,1.1,1.7a12.088,12.088,0,0,1-.72,4.5c-.3.672-.608.832-1.072.832a4.661,4.661,0,0,1-1.856-.448,2.837,2.837,0,0,1,.192.96.261.261,0,0,0,.192.272,4.2,4.2,0,0,0,1.632.288A1.914,1.914,0,0,0,257.1-1.056a13.279,13.279,0,0,0,.88-5.12c0-1.92-.688-2.624-2.08-2.624a14.726,14.726,0,0,0-1.552.112c.24-.784.448-1.536.688-2.32a1.084,1.084,0,0,1,.272-.528.237.237,0,0,0-.064-.416A6.719,6.719,0,0,0,254-12.384a5.5,5.5,0,0,1-.144,1.536C253.648-9.952,253.472-9.312,253.264-8.56Zm5.664-.48a8.892,8.892,0,0,1,2.56,4.048c.032.16.144.176.272.1a3.576,3.576,0,0,0,.656-.432c.1-.08.08-.16.048-.272a9.123,9.123,0,0,0-2.576-3.872.2.2,0,0,0-.24-.064A7.2,7.2,0,0,0,258.928-9.04Zm20.88,3.968c1.5,0,2,.032,2.1.032.112,0,.128-.016.128-.128v-.688c0-.112-.016-.128-.128-.128-.1,0-.592.032-2.1.032h-7.9V-7.344h5.6c1.536,0,2.016.032,2.112.032.112,0,.128-.016.128-.128V-8.1c0-.112-.016-.128-.128-.128-.1,0-.576.032-2.112.032h-5.6V-9.424h5.6c1.536,0,2.032.032,2.128.032.112,0,.128-.016.128-.128v-.656c0-.112-.016-.128-.128-.128-.1,0-.592.032-2.128.032h-5.6V-11.6h6.272c1.6,0,2.128.032,2.224.032.112,0,.128-.016.128-.128v-.688c0-.112-.016-.128-.128-.128-.1,0-.624.032-2.224.032h-4.912c-1.584,0-2.16-.032-2.224-.032-.112,0-.128.016-.128.128,0,.08.032.576.032,1.792v4.64h-.7c-1.488,0-2-.032-2.08-.032-.112,0-.128.016-.128.128v.688c0,.112.016.128.128.128.08,0,.592-.032,2.08-.032h.7V-.5l-.9.224c-.608.144-1.072.224-1.712.32a6.7,6.7,0,0,0,.352.944c.064.112.1.144.16.144.08,0,.112-.048.176-.1a2,2,0,0,1,.608-.24,49.746,49.746,0,0,0,5.2-1.584c.3-.112.336-.128.336-.448a2.533,2.533,0,0,1,.048-.592c-1.232.448-2.256.768-3.312,1.072v-4.32h1.968c1.264,2.992,4,4.96,7.568,5.92.3.08.336.064.5-.24a2.361,2.361,0,0,1,.432-.592A13.761,13.761,0,0,1,277.6-1.92a21.537,21.537,0,0,0,2.032-1.472,1.446,1.446,0,0,1,.528-.3c.128-.032.192-.08.192-.16,0-.064-.032-.112-.112-.192a7.489,7.489,0,0,0-.8-.576,2.4,2.4,0,0,1-.448.592,17.679,17.679,0,0,1-2.032,1.616,7.6,7.6,0,0,1-2.128-2.656Zm16.032-7.584a3.755,3.755,0,0,1-.7.992c-1.424,1.44-3.168,3.136-4.464,4.512a1.48,1.48,0,0,0-.56,1.04,1.252,1.252,0,0,0,.624,1.008A42.577,42.577,0,0,1,296.768.32c.112.144.176.128.3.032a7.235,7.235,0,0,0,.608-.608c.128-.16.1-.192-.016-.32a51.645,51.645,0,0,0-6.176-5.28c-.144-.1-.208-.176-.208-.288a.6.6,0,0,1,.224-.4c1.2-1.28,3.152-3.088,4.72-4.512a1.921,1.921,0,0,1,.592-.416.237.237,0,0,0,.16-.208.338.338,0,0,0-.112-.208A7.4,7.4,0,0,0,295.84-12.656ZM318-5.952c1.584,0,2.1.032,2.192.032.112,0,.128-.016.128-.144V-6.7c0-.112-.016-.128-.128-.128-.1,0-.608.032-2.192.032h-2.08V-9.376h1.456c1.472,0,1.968.032,2.048.032.112,0,.128-.016.128-.128v-.656c0-.112-.016-.128-.128-.128-.08,0-.576.032-2.048.032H315.92V-11.2a5.341,5.341,0,0,1,.1-1.488.853.853,0,0,0,.112-.32c0-.064-.1-.128-.224-.144-.3-.032-.624-.064-1.024-.08a10.048,10.048,0,0,1,.112,2.048v.96h-1.024c-1.472,0-1.968-.032-2.064-.032-.112,0-.128.016-.128.128v.656c0,.112.016.128.128.128.1,0,.592-.032,2.064-.032h1.024V-6.8h-1.44c-1.584,0-2.1-.032-2.192-.032-.112,0-.112.016-.112.128v.64c0,.128,0,.144.112.144.1,0,.608-.032,2.192-.032h1.1A13.567,13.567,0,0,1,309.232-.88a1.88,1.88,0,0,1,.512.5c.112.16.16.224.24.224.048,0,.112-.048.224-.112a13.71,13.71,0,0,0,4.832-4.976c-.032,2.992-.1,5.968-.1,6.224,0,.112.016.128.128.128h.768c.112,0,.128-.016.128-.128,0-.256-.08-3.248-.1-6.336a14.636,14.636,0,0,0,4.3,4.864c.112.08.176.128.224.128.064,0,.112-.064.192-.224a2.168,2.168,0,0,1,.448-.64,13.659,13.659,0,0,1-4.848-4.72Zm-7.344-3.072c0-1.728.032-2.224.032-2.3,0-.112-.016-.128-.128-.128s-.336.032-1.216.032h-1.2c-.9,0-1.152-.032-1.232-.032-.112,0-.128.016-.128.128,0,.1.032.624.032,2.752v2.24c0,3.136-.032,3.632-.032,3.728,0,.112.016.128.128.128h.688c.112,0,.128-.016.128-.128V-4.16h2.032v.96c0,.112.016.128.128.128h.672c.112,0,.128-.016.128-.128,0-.08-.032-.56-.032-3.488Zm-.9,3.984h-2.032v-5.52h2.032ZM329.5-12.784a5.414,5.414,0,0,1,.128,1.408c-.032.944-.032,1.536-.064,2.16-.928.272-1.568.432-2.256.624a6.507,6.507,0,0,1-1.056.16,6.309,6.309,0,0,0,.448.88c.112.144.176.224.272.208.128-.016.32-.208.672-.336.544-.192,1.28-.432,1.9-.608,0,.384-.032.88-.048,1.408-1.216,1.712-2.368,3.248-3.568,4.688-.08.1-.1.176-.016.256a6.736,6.736,0,0,0,.592.576c.1.064.176.048.272-.064.9-1.264,1.76-2.528,2.72-3.872-.016,2.128-.032,3.824-.064,5.792,0,.112.032.144.128.144.288,0,.7-.016.848-.032.08-.016.128-.048.128-.144-.032-2.1-.064-4.08-.048-6.112a7.1,7.1,0,0,1,4.848-2.224,2.564,2.564,0,0,1,2.672,2.8,3.464,3.464,0,0,1-.976,2.432A6.662,6.662,0,0,1,333.7-.864a2.474,2.474,0,0,1,.768.576.36.36,0,0,0,.464.112c2.912-.864,4.24-2.864,4.24-4.832a3.585,3.585,0,0,0-3.808-3.776A7.474,7.474,0,0,0,330.5-6.736c0-.288,0-.544.016-.9a8.862,8.862,0,0,1,.784-1.152c.144-.16.208-.24.208-.336a.6.6,0,0,0-.208-.352c-.144-.144-.24-.208-.3-.208a.173.173,0,0,0-.112.048.938.938,0,0,1-.256.128c.032-.768.08-1.328.112-2.048a2.381,2.381,0,0,1,.144-.624c.08-.192.064-.336-.112-.4A5.935,5.935,0,0,0,329.5-12.784Zm20.352-.1a8.731,8.731,0,0,0-.32.864.154.154,0,0,0,.1.208A22.409,22.409,0,0,0,353.7-10.5a.183.183,0,0,0,.208-.112,5.686,5.686,0,0,0,.24-.736c.032-.16.016-.208-.128-.24A25.935,25.935,0,0,1,349.856-12.88Zm-3.04,4.928a6.777,6.777,0,0,0,.416,1.1c.064.128.128.192.208.192a.6.6,0,0,0,.288-.08,4.127,4.127,0,0,1,.656-.224c1.36-.288,2.7-.56,4.416-.912-1.568,1.7-2.752,3.008-3.76,4.064-.72.736-1.872,1.92-3.056,3.12a.206.206,0,0,0-.032.288,7.307,7.307,0,0,0,.624.56.193.193,0,0,0,.256-.016c.72-.848,1.664-1.968,2.48-2.752a2.775,2.775,0,0,1,1.808-.928c.736,0,1.008.608,1.232,1.744.32,1.6,1.024,2.112,3.328,2.112a13.671,13.671,0,0,0,2.288-.208c.144-.016.208-.064.208-.176a5.351,5.351,0,0,0-.064-.784c-.016-.144-.064-.192-.192-.16a13.207,13.207,0,0,1-2.368.24c-1.728,0-2.032-.24-2.336-1.744-.224-1.152-.864-1.776-1.7-1.776a2.155,2.155,0,0,0-.944.224c1.136-1.2,2.224-2.368,3.376-3.536a2.4,2.4,0,0,1,.56-.416.291.291,0,0,0,.176-.256.4.4,0,0,0-.112-.24,4.374,4.374,0,0,0-.592-.512c-.08-.048-.112-.08-.176-.08a.279.279,0,0,0-.192.064,1.681,1.681,0,0,1-.5.192c-.736.176-1.7.368-2.976.576A18.574,18.574,0,0,1,346.816-7.952Zm22.144,1.9c1.6-1.632,2.672-2.752,4.1-4.256a1.735,1.735,0,0,1,.752-.56.331.331,0,0,0,.24-.3.432.432,0,0,0-.112-.272,3.942,3.942,0,0,0-.688-.672.48.48,0,0,0-.288-.128.493.493,0,0,0-.224.112,1.671,1.671,0,0,1-.5.144c-1.408.272-2.72.448-3.984.576a5.964,5.964,0,0,1-1.408-.016,5.062,5.062,0,0,0,.384,1.1.283.283,0,0,0,.256.192.951.951,0,0,0,.3-.08,2.6,2.6,0,0,1,.56-.144c1.424-.272,2.672-.512,4-.72-1.232,1.456-2.192,2.48-3.12,3.488a43.563,43.563,0,0,1-3.616,3.568c-.112.1-.128.16-.064.24a7.378,7.378,0,0,0,.592.64c.112.112.192.1.32-.032a15.378,15.378,0,0,1,1.408-1.312,7.371,7.371,0,0,1,4.4-1.808,2.592,2.592,0,0,1,2.768,2.624A2.951,2.951,0,0,1,372.7-.752a2.709,2.709,0,0,0-2.72-2.288,1.745,1.745,0,0,0-1.872,1.632c0,1.024.864,1.888,2.784,1.888,3.392,0,5.28-1.728,5.28-4.112a3.4,3.4,0,0,0-3.728-3.5A6.246,6.246,0,0,0,369.008-6Zm2.768,5.52a5.8,5.8,0,0,1-1.04.08c-1.072,0-1.648-.448-1.648-.976,0-.5.464-.752.976-.752A1.856,1.856,0,0,1,371.728-.528Z" transform="translate(812 2112)" fill="#653333"/></g></svg>