<svg xmlns="http://www.w3.org/2000/svg" width="64.735" height="33.451" viewBox="0 0 64.735 33.451">
  <g id="グループ_520" data-name="グループ 520" transform="translate(-430.466 -205.786)">
    <g id="グループ_519" data-name="グループ 519">
      <path id="パス_492" data-name="パス 492" d="M450.192,218.947a104.956,104.956,0,0,0-15.572,2.574c1.13,4.906,1.7,7.359,2.826,12.264-.4.093-.6.14-1.005.237-2.389-9.955-3.584-14.932-5.975-24.887a115.9,115.9,0,0,1,20.779-3.349l.08.946a115.09,115.09,0,0,0-19.414,3.038c.995,4.317,1.493,6.475,2.488,10.792a105.8,105.8,0,0,1,15.693-2.594Z" fill="#520000"/>
      <path id="パス_493" data-name="パス 493" d="M471.738,231.236c.1-1.227.144-1.84.241-3.067a6.924,6.924,0,0,1-2.863,2.32,10.273,10.273,0,0,1-4.459.767,6.967,6.967,0,0,1-5.078-1.785,7.777,7.777,0,0,1-1.973-5.231l-.54-12.24c.479-.021.718-.031,1.2-.048l.43,12.28a6.681,6.681,0,0,0,1.669,4.533,5.839,5.839,0,0,0,4.272,1.541,9,9,0,0,0,4.881-1.106,5.956,5.956,0,0,0,2.664-3.589c.418-5.335.626-8,1.044-13.336.486.038.73.058,1.216.1-.663,7.579-.995,11.369-1.659,18.947C472.364,231.286,472.155,231.269,471.738,231.236Z" fill="#520000"/>
      <path id="パス_494" data-name="パス 494" d="M483.456,213.478c-1.322,8.411-1.983,12.617-3.306,21.029a5.641,5.641,0,0,1-1.959,3.775,5.2,5.2,0,0,1-3.894.907,4.825,4.825,0,0,1-1.7-.523c.055-.362.082-.543.137-.9a5.175,5.175,0,0,0,1.662.485,4.118,4.118,0,0,0,3.205-.783,4.756,4.756,0,0,0,1.549-3.109l3.115-21.057C482.744,213.367,482.982,213.4,483.456,213.478Zm-.846-6.136a.854.854,0,0,1,.469-.633,1.424,1.424,0,0,1,.944-.152,1.474,1.474,0,0,1,.868.43.845.845,0,0,1,.268.747.831.831,0,0,1-.487.615,1.514,1.514,0,0,1-.945.137,1.465,1.465,0,0,1-.849-.412A.844.844,0,0,1,482.61,207.342Z" fill="#520000"/>
      <path id="パス_495" data-name="パス 495" d="M492.656,209.17a.854.854,0,0,1,.516-.6,1.442,1.442,0,0,1,.956-.081,1.49,1.49,0,0,1,.837.494.846.846,0,0,1,.214.765.831.831,0,0,1-.533.577,1.521,1.521,0,0,1-.956.066,1.469,1.469,0,0,1-.819-.474A.839.839,0,0,1,492.656,209.17Zm-3.843,24.724c-.4-.1-.6-.141-1.006-.232l4.18-18.554c.47.106.7.16,1.175.27C491.422,222.784,490.552,226.488,488.813,233.894Z" fill="#520000"/>
    </g>
  </g>
</svg>
