<svg xmlns="http://www.w3.org/2000/svg" width="552.22" height="248.819" viewBox="0 0 552.22 248.819"><g transform="translate(-730 -1883)"><path d="M2.48-8.86A14.017,14.017,0,0,1,6.16-6.84c.16.14.26.12.38-.04a6.139,6.139,0,0,0,.52-.86.275.275,0,0,0-.1-.42A15.825,15.825,0,0,0,3.44-9.98a.266.266,0,0,0-.34.14C2.96-9.64,2.74-9.24,2.48-8.86Zm2.36-4.6A13.119,13.119,0,0,1,8.42-11.2c.16.14.24.18.36.04a6.469,6.469,0,0,0,.58-.86c.1-.18.12-.26-.06-.4A16.2,16.2,0,0,0,5.82-14.5c-.18-.08-.24-.08-.36.1C5.26-14.12,5.04-13.74,4.84-13.46ZM4.1-1.4A12.582,12.582,0,0,0,5.04-.06c.18.2.38.24.56.06a3.727,3.727,0,0,1,.96-.68A47.062,47.062,0,0,0,12.4-4.42a33.451,33.451,0,0,0,5.28-4.9.436.436,0,0,0,.1-.54,4.656,4.656,0,0,1-.38-1.3,34.833,34.833,0,0,1-5.7,5.54A36.4,36.4,0,0,1,6.2-2.18,8.5,8.5,0,0,1,4.1-1.4Zm9.34-13.34a8.635,8.635,0,0,1,2.32,2.56.16.16,0,0,0,.26.04l.58-.48a.144.144,0,0,0,.04-.22,9.706,9.706,0,0,0-2.26-2.42.157.157,0,0,0-.22,0Zm1.76-1.34a9.553,9.553,0,0,1,2.3,2.5c.08.12.16.12.24.04l.54-.48c.1-.08.12-.14.06-.24a11.5,11.5,0,0,0-2.28-2.34c-.08-.06-.14-.04-.22.02ZM36.48-2.2l.72-4.86c.04-.44.1-.6.28-.76a.311.311,0,0,0,.04-.48,3.565,3.565,0,0,0-.74-.72.36.36,0,0,0-.42-.02,1.357,1.357,0,0,1-.8.16H32.64c-.84,0-1.68-.02-2.8-.12.02.36.06.84.1,1.1.02.22.1.26.3.24.66-.04,1.58-.06,2.34-.06h3.38L35.2-2.18H30.42c-.92,0-1.74,0-2.86-.08a5.5,5.5,0,0,0,.08,1.04c.02.24.06.32.28.3.86-.08,1.76-.1,2.56-.1h6.98c.94,0,1.76.02,2.7.04.22,0,.26,0,.28-.26v-.72c-.02-.24-.08-.28-.32-.26-.86,0-1.66.02-2.54.02Zm24.5-4.5c1.34,0,2.82,0,4.32.04.24.02.3-.02.3-.24a9.02,9.02,0,0,0,0-1.04c0-.22-.06-.26-.3-.24-1.52.04-3,.06-4.38.06H54.78a36.529,36.529,0,0,1-4.42-.18,11.822,11.822,0,0,0,.2,1.52c.06.2.16.28.34.28a16.361,16.361,0,0,1,2.7-.2ZM74.5-9.06a14.017,14.017,0,0,1,3.68,2.02c.16.14.26.12.38-.04a6.139,6.139,0,0,0,.52-.86.275.275,0,0,0-.1-.42,15.825,15.825,0,0,0-3.52-1.82.266.266,0,0,0-.34.14C74.98-9.84,74.76-9.44,74.5-9.06Zm2.36-4.6a13.119,13.119,0,0,1,3.58,2.26c.16.14.24.18.36.04a6.469,6.469,0,0,0,.58-.86c.1-.18.12-.26-.06-.4a16.2,16.2,0,0,0-3.48-2.08c-.18-.08-.24-.08-.36.1C77.28-14.32,77.06-13.94,76.86-13.66ZM76.12-1.6a12.582,12.582,0,0,0,.94,1.34c.18.2.38.24.56.06a3.727,3.727,0,0,1,.96-.68,47.062,47.062,0,0,0,5.84-3.74,33.45,33.45,0,0,0,5.28-4.9.436.436,0,0,0,.1-.54,4.656,4.656,0,0,1-.38-1.3,34.832,34.832,0,0,1-5.7,5.54,36.4,36.4,0,0,1-5.5,3.44A8.5,8.5,0,0,1,76.12-1.6Zm32.86-5.1c1.34,0,2.82,0,4.32.04.24.02.3-.02.3-.24a9.02,9.02,0,0,0,0-1.04c0-.22-.06-.26-.3-.24-1.52.04-3,.06-4.38.06h-6.14a36.529,36.529,0,0,1-4.42-.18,11.824,11.824,0,0,0,.2,1.52c.06.2.16.28.34.28a16.361,16.361,0,0,1,2.7-.2Zm23.52-5.64c-3.14,1.66-4.88,3.98-4.88,6.8,0,4.04,3.64,5.48,7.02,5.78.22.02.28-.06.32-.28a5.983,5.983,0,0,0,.12-.96c0-.16-.06-.2-.32-.22-2.92-.24-5.82-1.22-5.82-4.54,0-2.68,2.24-5.14,5.16-6.3a8.28,8.28,0,0,1,2.92-.6c.2-.02.26-.06.26-.24a5.687,5.687,0,0,0-.12-1c-.04-.12-.14-.18-.34-.16-5.36.66-9.42,1.26-12.4,1.74a15.642,15.642,0,0,1-2.48.24,11.074,11.074,0,0,0,.56,1.42.339.339,0,0,0,.28.18,1.11,1.11,0,0,0,.38-.14,4.3,4.3,0,0,1,1.2-.34c2.52-.52,5.12-.94,8.12-1.42Zm1.68,3.32a8.635,8.635,0,0,1,2.32,2.56.16.16,0,0,0,.26.04l.58-.48a.144.144,0,0,0,.04-.22,9.706,9.706,0,0,0-2.26-2.42.155.155,0,0,0-.2-.02Zm1.76-1.34a9.553,9.553,0,0,1,2.3,2.5c.08.12.16.12.24.04l.54-.48c.1-.08.12-.14.06-.24a11.5,11.5,0,0,0-2.28-2.34c-.08-.06-.14-.04-.22.02Zm26.86-1.98c0-.14-.02-.16-.16-.16-.12,0-.74.04-2.6.04h-1.22v-1.66a5.471,5.471,0,0,1,.12-1.8.6.6,0,0,0,.1-.3c0-.1-.1-.16-.24-.18-.38-.04-.84-.08-1.36-.1a11.57,11.57,0,0,1,.14,2.4v1.64h-7.22V-14.1a5.649,5.649,0,0,1,.1-1.74.935.935,0,0,0,.12-.38c0-.08-.1-.16-.24-.18-.42-.04-.9-.08-1.38-.1a12.182,12.182,0,0,1,.16,2.42v1.62h-1.16c-1.88,0-2.5-.04-2.6-.04-.14,0-.16.02-.16.16v.86c0,.16.02.18.16.18.1,0,.72-.04,2.6-.04h1.16v6.56c0,4.02-.04,5.8-.04,5.9,0,.14.02.16.16.16h.96c.14,0,.16-.02.16-.16V-.28h7.22V1c0,.14.02.16.16.16h.96c.14,0,.16-.02.16-.16,0-.12-.04-1.9-.04-5.92v-6.42h1.22c1.86,0,2.48.04,2.6.04.14,0,.16-.02.16-.18ZM157.58-1.36h-7.22V-5.98h7.22Zm0-5.7h-7.22v-4.28h7.22Zm20.08-4.76a33.477,33.477,0,0,1-3.92.46,16.35,16.35,0,0,1-1.98,0,6.079,6.079,0,0,0,.22,1.04c.06.16.1.24.24.24.5.02,1.1-.02,1.7-.06,1.38-.1,2.76-.24,4.3-.5a17.588,17.588,0,0,0,3.08,4.62,9.908,9.908,0,0,0-4.24-.9c-2.76,0-4.96,1.16-4.96,3.48,0,2.68,3.08,3.86,6.74,3.86.88,0,1.94-.06,2.3-.1.16-.04.2-.06.26-.2a6.772,6.772,0,0,0,.26-1.3,15.809,15.809,0,0,1-2.88.24c-2.92,0-5.4-.76-5.4-2.6,0-1.42,1.32-2.28,3.72-2.28a9.5,9.5,0,0,1,4.54,1.08c.24.14.46.26.72.44.12.08.16.12.24.12s.16-.08.26-.2c.14-.2.38-.56.52-.8a.4.4,0,0,0,.06-.22c0-.06-.04-.12-.14-.18a3.268,3.268,0,0,1-.54-.44,19.041,19.041,0,0,1-3.32-4.88c1.62-.38,3.08-.78,4.32-1.2.1-.04.12-.12.1-.26a4.2,4.2,0,0,0-.26-.88c-.06-.14-.16-.14-.28-.1a34.918,34.918,0,0,1-4.38,1.28c-.26-.62-.44-1.08-.66-1.68a6.824,6.824,0,0,1-.36-1.34,2.42,2.42,0,0,1-.02-.52c0-.18-.14-.3-.42-.3a12.239,12.239,0,0,0-1.58.18,4.814,4.814,0,0,1,.84,1.56C177.1-13.22,177.32-12.66,177.66-11.82Zm20.94-3.84a7.348,7.348,0,0,1,.44,1.96,35.743,35.743,0,0,0,1.06,5.12c-2.54,1.54-3.9,3.02-3.9,4.94,0,2.74,2.5,3.5,5.96,3.5a44.506,44.506,0,0,0,5.32-.28c.22-.02.3-.1.28-.28a8.7,8.7,0,0,0-.12-1.04c-.04-.16-.1-.2-.28-.18a38.434,38.434,0,0,1-5.14.42c-3.02.02-4.7-.42-4.7-2.2,0-1.4.94-2.44,2.96-3.62,1.36-.78,3.08-1.6,4.54-2.28a7.6,7.6,0,0,1,1.76-.64c.36-.04.4-.32.24-.56A8.489,8.489,0,0,0,206-11.92a3.243,3.243,0,0,1-1.16.92c-1.18.66-2.38,1.22-3.56,1.8a26.784,26.784,0,0,1-.78-4.04c-.06-.44-.1-.84-.12-1.28,0-.32.1-.5.1-.7a.289.289,0,0,0-.24-.26A9.114,9.114,0,0,0,198.6-15.66Zm26.82.16c0-.14-.02-.16-.16-.16-.1,0-.64.04-2.32.04h-3.26c-1.68,0-2.2-.04-2.3-.04-.14,0-.16.02-.16.16v.76c0,.14.02.16.16.16.1,0,.62-.04,2.3-.04h.22v2.44c-1.36,0-1.84-.04-1.94-.04-.14,0-.16.02-.16.16,0,.12.04.94.04,4.2v3.38c0,4.52-.04,5.3-.04,5.42s.02.14.16.14h.72c.14,0,.16-.02.16-.14V-.86h4.8V-.2c0,.14.02.16.16.16h.7c.14,0,.16-.02.16-.16,0-.1-.04-.68-.04-4.98v-3.4c0-2.62.04-3.36.04-3.48,0-.14-.02-.16-.16-.16-.12,0-.6.04-1.9.04v-2.44h.34c1.68,0,2.22.04,2.32.04.14,0,.16-.02.16-.16ZM223.64-4.62h-4.8v-1.5a1.9,1.9,0,0,1,.46.4c.08.1.14.14.18.14s.1-.06.18-.18a6.419,6.419,0,0,0,.98-2.78c.04-.48.1-1.48.12-2.74h.98v3.42a1.32,1.32,0,0,0,.38,1.14,1.531,1.531,0,0,0,1.04.28h.48Zm0,2.74h-4.8V-3.62h4.8Zm-3.74-9.4c0,.76-.02,1.58-.1,2.4a4.787,4.787,0,0,1-.96,2.74v-5.14Zm3.74,3.86h-.34c-.32,0-.46-.06-.58-.22a1.435,1.435,0,0,1-.14-.78v-2.86h1.06Zm-1.9-4.76h-.98v-2.44h.98ZM229-6.48l.3-.58a3.08,3.08,0,0,1,.44-.66c.1-.1.18-.16.18-.28,0-.08-.04-.14-.24-.22a5.916,5.916,0,0,0-1-.32,4.084,4.084,0,0,1-.46,1.42,11.244,11.244,0,0,1-3.44,4.14,1.8,1.8,0,0,1,.5.44c.12.18.18.26.26.26s.16-.06.3-.18a13.481,13.481,0,0,0,1.84-1.9,10.1,10.1,0,0,0,1.66,2.42A11.684,11.684,0,0,1,224.24.5a1.863,1.863,0,0,1,.5.66c.1.22.14.3.26.3a1.465,1.465,0,0,0,.32-.08,12.922,12.922,0,0,0,4.82-2.56,13.213,13.213,0,0,0,4.42,2.36,1.706,1.706,0,0,0,.3.08c.1,0,.16-.08.24-.32a2.437,2.437,0,0,1,.48-.84,12.978,12.978,0,0,1-4.64-2.04,12.513,12.513,0,0,0,2.04-2.98,1.384,1.384,0,0,1,.36-.54c.12-.08.2-.16.2-.26,0-.12-.12-.28-.34-.5-.28-.28-.4-.38-.54-.38a.38.38,0,0,0-.18.06.967.967,0,0,1-.42.06Zm3.04.94a9.736,9.736,0,0,1-1.92,2.9,9.41,9.41,0,0,1-1.82-2.6l.18-.3ZM231.4-15c-.18.14-.2.18-.08.3a10.772,10.772,0,0,1,1.18,1.16c-1.56.16-2.92.28-4.42.38.36-.66.6-1.14.92-1.76a4.463,4.463,0,0,1,.46-.78c.1-.1.18-.16.18-.28s-.08-.18-.28-.26a6.662,6.662,0,0,0-1.06-.34,5.4,5.4,0,0,1-.36,1.34,19.7,19.7,0,0,1-1.02,2.14,12.632,12.632,0,0,1-1.74-.02,9.761,9.761,0,0,0,.24,1.1c.04.14.12.22.2.22a.531.531,0,0,0,.28-.1,1.925,1.925,0,0,1,.78-.14c2.46-.18,4.34-.36,6.52-.64.26.36.5.72.74,1.08.06.08.08.12.14.12s.12-.04.24-.12l.44-.28c.22-.16.22-.2.12-.34a15.132,15.132,0,0,0-2.82-3.06c-.1-.1-.14-.12-.3,0Zm.12,4.52a2.173,2.173,0,0,1,.1-.88.426.426,0,0,0,.08-.24c0-.08-.06-.16-.2-.18l-1.12-.12a8.341,8.341,0,0,1,.08,1.44v1.04c0,.62.16.94.44,1.1a3.188,3.188,0,0,0,1.72.26,3.333,3.333,0,0,0,1.7-.24c.38-.18.62-.66.76-1.5.04-.3.04-.36-.26-.5a2.258,2.258,0,0,1-.62-.42c-.08.96-.18,1.36-.5,1.52a2.2,2.2,0,0,1-1.08.14c-.56,0-.76-.02-.94-.16-.16-.12-.16-.32-.16-.54Zm-2.66-.7c0-.08-.06-.12-.26-.2-.26-.08-.6-.16-1-.24a2.586,2.586,0,0,1-.16,1.04,3.83,3.83,0,0,1-2.72,2.66,2.108,2.108,0,0,1,.48.54c.14.24.2.32.3.32a.578.578,0,0,0,.28-.1,5,5,0,0,0,2.68-3.1,2.1,2.1,0,0,1,.32-.7A.255.255,0,0,0,228.86-11.18ZM255.7-7.44c1.98,0,2.62.04,2.74.04.14,0,.16-.02.16-.18v-.8c0-.14-.02-.16-.16-.16-.12,0-.76.04-2.74.04h-2.6v-3.22h1.82c1.84,0,2.46.04,2.56.04.14,0,.16-.02.16-.16v-.82c0-.14-.02-.16-.16-.16-.1,0-.72.04-2.56.04H253.1V-14a6.675,6.675,0,0,1,.12-1.86,1.067,1.067,0,0,0,.14-.4c0-.08-.12-.16-.28-.18-.38-.04-.78-.08-1.28-.1a12.56,12.56,0,0,1,.14,2.56v1.2h-1.28c-1.84,0-2.46-.04-2.58-.04-.14,0-.16.02-.16.16v.82c0,.14.02.16.16.16.12,0,.74-.04,2.58-.04h1.28V-8.5h-1.8c-1.98,0-2.62-.04-2.74-.04-.14,0-.14.02-.14.16v.8c0,.16,0,.18.14.18.12,0,.76-.04,2.74-.04h1.38a16.959,16.959,0,0,1-6.78,6.34,2.351,2.351,0,0,1,.64.62c.14.2.2.28.3.28.06,0,.14-.06.28-.14A17.137,17.137,0,0,0,252-6.56c-.04,3.74-.12,7.46-.12,7.78,0,.14.02.16.16.16H253c.14,0,.16-.02.16-.16,0-.32-.1-4.06-.12-7.92a18.3,18.3,0,0,0,5.38,6.08c.14.1.22.16.28.16.08,0,.14-.08.24-.28a2.71,2.71,0,0,1,.56-.8,17.074,17.074,0,0,1-6.06-5.9Zm-9.18-3.84c0-2.16.04-2.78.04-2.88,0-.14-.02-.16-.16-.16s-.42.04-1.52.04h-1.5c-1.12,0-1.44-.04-1.54-.04-.14,0-.16.02-.16.16,0,.12.04.78.04,3.44v2.8c0,3.92-.04,4.54-.04,4.66,0,.14.02.16.16.16h.86c.14,0,.16-.02.16-.16V-5.2h2.54V-4c0,.14.02.16.16.16h.84c.14,0,.16-.02.16-.16,0-.1-.04-.7-.04-4.36ZM245.4-6.3h-2.54v-6.9h2.54Zm29.74-6.32a5,5,0,0,1,5.16,5.06c0,3.34-2.28,5.48-6.24,6.26a2.325,2.325,0,0,1,.78.74.4.4,0,0,0,.52.22c4.34-1.1,6.36-3.72,6.36-6.98,0-3.82-2.66-6.44-7.14-6.44a8.527,8.527,0,0,0-6,2.22,7.263,7.263,0,0,0-2.32,5.18c0,2.9,1.42,4.54,2.92,4.54,1.18,0,2.08-.6,2.94-2.06a22.327,22.327,0,0,0,2.64-8.74Zm-1.78.08a21.236,21.236,0,0,1-2.34,7.82c-.58,1.02-1.18,1.46-1.86,1.46-.72,0-1.62-.94-1.62-3.12a6.2,6.2,0,0,1,1.92-4.32A6.739,6.739,0,0,1,273.36-12.54Zm15.8,9.32a2.684,2.684,0,0,1,1.1.52.432.432,0,0,0,.62-.08,20.666,20.666,0,0,0,4.52-6.58,3.4,3.4,0,0,1,.7-1.14c.18-.18.24-.4-.04-.56a7.815,7.815,0,0,0-1.58-.66,6.334,6.334,0,0,1-.64,2.26A17.006,17.006,0,0,1,289.16-3.22Zm10.32-7.7a25.427,25.427,0,0,1,4.96,7.54c.08.18.14.22.32.12a6.961,6.961,0,0,0,.94-.62c.18-.12.18-.24.08-.42a26.454,26.454,0,0,0-5-7.18c-.16-.16-.24-.14-.42-.04C300.16-11.4,299.82-11.16,299.48-10.92Zm2.4-2.58a8.635,8.635,0,0,1,2.32,2.56.16.16,0,0,0,.26.04l.58-.48a.144.144,0,0,0,.04-.22,9.705,9.705,0,0,0-2.26-2.42.157.157,0,0,0-.22,0Zm1.76-1.34a9.553,9.553,0,0,1,2.3,2.5c.08.12.16.12.24.04l.54-.48c.1-.08.12-.14.06-.24a11.5,11.5,0,0,0-2.28-2.34c-.08-.06-.14-.04-.22.02Zm20.04,1.56c1.22,0,2.06.04,2.98.04.22.02.26-.04.26-.26a6.759,6.759,0,0,0,0-.9c0-.18-.04-.24-.22-.24-.96.06-1.84.1-3.1.1h-3.1a27.791,27.791,0,0,1-3.26-.14,10.771,10.771,0,0,0,.1,1.2c.02.22.06.3.24.28.88-.06,1.78-.08,2.84-.08Zm2.7,4.16a16.446,16.446,0,0,1-8.7,8.9A3.588,3.588,0,0,1,318.8.4c.16.16.3.16.54.04a17.441,17.441,0,0,0,8.44-9.02,1.549,1.549,0,0,1,.46-.68c.22-.16.24-.28.04-.54a4.222,4.222,0,0,0-.74-.72c-.2-.16-.3-.14-.54-.02a2.233,2.233,0,0,1-.98.14h-7.16c-1.26,0-2.3-.04-3.32-.14a9.261,9.261,0,0,0,.14,1.26c.04.2.12.28.3.26.82-.08,1.7-.1,2.82-.1Zm12.98-3.48a20.765,20.765,0,0,1,3.8,2.96c.14.14.2.12.32-.02a8.069,8.069,0,0,0,.68-.86c.1-.16.08-.24-.06-.38a18.451,18.451,0,0,0-3.6-2.66.241.241,0,0,0-.36.04C339.92-13.28,339.62-12.92,339.36-12.6Zm.48,10.5a7.507,7.507,0,0,0,.98,1.36.327.327,0,0,0,.54.02,7.458,7.458,0,0,1,1.1-.78,41.533,41.533,0,0,0,6-3.9,36.921,36.921,0,0,0,4.86-4.6c.24-.28.26-.44.14-.7a5.988,5.988,0,0,1-.34-1.32,31.213,31.213,0,0,1-5.4,5.38,33.949,33.949,0,0,1-5.78,3.72A11.157,11.157,0,0,1,339.84-2.1ZM367-13.42c-1.24,0-2.12,0-3.1-.08a7.746,7.746,0,0,0,.12,1.28c.04.16.06.22.24.22.9-.06,1.76-.12,2.88-.12h6.02a25.14,25.14,0,0,1-3.8,5.36A25.859,25.859,0,0,1,362-1.34a3.421,3.421,0,0,1,1.04.72c.16.18.28.16.5.04a30.577,30.577,0,0,0,7.14-5.58,36.55,36.55,0,0,1,5.52,5.08c.14.16.22.16.36.04a8.154,8.154,0,0,0,.72-.72c.16-.2.16-.26-.02-.42a40.965,40.965,0,0,0-5.74-5.02,36.334,36.334,0,0,0,2.96-4.3,2.641,2.641,0,0,1,.58-.74c.18-.16.22-.3.1-.46a5.3,5.3,0,0,0-.82-.82.342.342,0,0,0-.4-.06,2.092,2.092,0,0,1-1.14.16Zm31.44-1.04a8.635,8.635,0,0,1,2.32,2.56.16.16,0,0,0,.26.04l.58-.48a.144.144,0,0,0,.04-.22,9.706,9.706,0,0,0-2.26-2.42c-.08-.06-.12-.08-.2-.02Zm1.76-1.34a9.552,9.552,0,0,1,2.3,2.5c.08.12.16.12.24.04l.54-.48c.1-.08.12-.14.06-.24a11.5,11.5,0,0,0-2.28-2.34c-.08-.06-.14-.04-.22.02Zm-9.42,5.1c-.94.14-1.72.26-2.82.38a13.547,13.547,0,0,1-2.08.1,7.612,7.612,0,0,0,.46,1.36c.12.24.3.24.52.1a2.908,2.908,0,0,1,.88-.26c1-.18,1.82-.32,2.64-.44a42.467,42.467,0,0,1-3.84,8.52c-.06.12-.08.22.04.32a5.631,5.631,0,0,0,.8.54.24.24,0,0,0,.34-.1,54.341,54.341,0,0,0,4.08-9.46,14.128,14.128,0,0,1,2.16-.22c1.08,0,1.38.56,1.38,2.12a15.111,15.111,0,0,1-.9,5.62c-.38.84-.76,1.04-1.34,1.04a5.826,5.826,0,0,1-2.32-.56,3.546,3.546,0,0,1,.24,1.2.326.326,0,0,0,.24.34,5.253,5.253,0,0,0,2.04.36,2.392,2.392,0,0,0,2.28-1.58,16.6,16.6,0,0,0,1.1-6.4c0-2.4-.86-3.28-2.6-3.28a18.408,18.408,0,0,0-1.94.14c.3-.98.56-1.92.86-2.9a1.355,1.355,0,0,1,.34-.66.3.3,0,0,0-.08-.52,8.4,8.4,0,0,0-1.56-.54,6.88,6.88,0,0,1-.18,1.92C391.26-12.44,391.04-11.64,390.78-10.7Zm7.08-.6a11.114,11.114,0,0,1,3.2,5.06c.04.2.18.22.34.12a4.469,4.469,0,0,0,.82-.54c.12-.1.1-.2.06-.34a11.4,11.4,0,0,0-3.22-4.84.255.255,0,0,0-.3-.08A9,9,0,0,0,397.86-11.3Zm21.3,2.38c.16-.88.28-1.78.38-2.66h4.6c1.98,0,2.64.04,2.76.04s.14-.02.14-.18v-.88c0-.14-.02-.16-.14-.16s-.78.04-2.76.04h-4.5c.04-.46.08-.94.1-1.38a5.2,5.2,0,0,1,.16-1.48,1.2,1.2,0,0,0,.14-.4c0-.12-.12-.2-.28-.24-.34-.06-.78-.1-1.26-.14a13.107,13.107,0,0,1,.06,2.36c-.02.42-.04.84-.08,1.28-1.92,0-2.56-.04-2.66-.04-.14,0-.16.02-.16.16v.88c0,.16.02.18.16.18.1,0,.74-.04,2.56-.04a29.648,29.648,0,0,1-1.06,5.6A14.31,14.31,0,0,1,413.54.36a1.781,1.781,0,0,1,.6.52c.12.16.2.24.28.24s.14-.06.26-.2a16.6,16.6,0,0,0,3.68-6.38c.1-.36.22-.74.32-1.16A14.465,14.465,0,0,0,421-2.66a13.686,13.686,0,0,1-5.06,3.1,2.394,2.394,0,0,1,.6.66c.1.18.16.26.26.26a1.078,1.078,0,0,0,.32-.1,15.58,15.58,0,0,0,4.66-3.06,14.808,14.808,0,0,0,4.16,2.86.857.857,0,0,0,.3.1c.12,0,.16-.1.28-.3a2.567,2.567,0,0,1,.56-.72,14.066,14.066,0,0,1-4.52-2.8,14.281,14.281,0,0,0,2.46-4.54,1.535,1.535,0,0,1,.38-.72.291.291,0,0,0,.14-.26c0-.12-.06-.22-.38-.54-.32-.28-.42-.34-.54-.34a.691.691,0,0,0-.26.06.911.911,0,0,1-.46.08Zm4.82,1.06a13.213,13.213,0,0,1-2.24,4.36,13.932,13.932,0,0,1-2.5-4.36ZM413.06-11.4c1.32,0,1.74.04,1.84.04.14,0,.16-.02.16-.16v-.84c0-.14-.02-.16-.16-.16-.1,0-.52.04-1.84.04v-1.64a5.649,5.649,0,0,1,.1-1.74.935.935,0,0,0,.12-.38c0-.08-.1-.16-.24-.18-.4-.04-.8-.08-1.3-.1a12.529,12.529,0,0,1,.14,2.42v1.62h-.72c-1.4,0-1.8-.04-1.92-.04-.14,0-.16.02-.16.16v.84c0,.14.02.16.16.16.12,0,.52-.04,1.92-.04h.72V-7c-.42.16-.82.28-1.18.4a12.753,12.753,0,0,1-1.78.48,11.3,11.3,0,0,0,.38,1.16c.06.14.12.18.2.18a.4.4,0,0,0,.26-.12,2.085,2.085,0,0,1,.74-.38c.46-.16.92-.32,1.38-.5V-.92c0,.68-.18.9-.72.9A12.7,12.7,0,0,1,409.6-.1a2.724,2.724,0,0,1,.38.88c.08.38.1.4.5.4,1.3.02,1.68-.06,2.08-.34.38-.3.52-.66.52-1.56,0-.78-.02-1.96-.02-3.06V-6.26c.76-.32,1.5-.64,2.16-.96.36-.18.38-.2.36-.6a3.341,3.341,0,0,1,.04-.8,26.983,26.983,0,0,1-2.56,1.16Zm28.96-.64c0-.14-.02-.16-.16-.16-.08,0-.32.02-.84.04v-.94c0-1.4.04-1.96.04-2.08,0-.14-.02-.16-.16-.16-.1,0-.72.04-2.26.04h-2.36c-1.52,0-1.98-.04-2.08-.04-.16,0-.18.02-.18.16v.78c0,.14.02.16.18.16.1,0,.56-.04,2.08-.04h.26c-.02.8-.04,1.5-.08,2.12h-.88c-1.78,0-2.38-.04-2.48-.04-.14,0-.16.02-.16.16v.78c0,.14.02.16.16.16.1,0,.7-.04,2.48-.04h.8a18.4,18.4,0,0,1-.32,2.22h-.1c-1.32,0-1.72-.04-1.84-.04-.14,0-.16.02-.16.16v.76c0,.16.02.18.16.18.1,0,.5-.04,1.68-.04a11.683,11.683,0,0,1-3.04,5.2,1.947,1.947,0,0,1,.58.62c.1.16.16.24.22.24s.12-.06.24-.2a16.947,16.947,0,0,0,1.72-2.36v2.06c0,2.64-.04,3.18-.04,3.3,0,.14.02.16.18.16h.82c.14,0,.16-.02.16-.16V-.24h3.4v.7c0,.14.02.16.18.16h.82c.14,0,.16-.02.16-.16,0-.12-.04-.54-.04-3.14V-3.92c0-1.28.04-1.74.04-1.84,0-.14-.02-.16-.16-.16-.1,0-.64.04-1.9.04h-2.88a14.958,14.958,0,0,0,.68-2.02h1.7c1.54,0,2.16.04,2.26.04.14,0,.16-.02.16-.18,0-.1-.04-.66-.04-2.04v-1.04c.52,0,.76.02.84.02.14,0,.16-.02.16-.16ZM440.04-1.26h-3.4v-3.6h3.4Zm-.14-7.66h-2.72a21.1,21.1,0,0,0,.32-2.22h2.4Zm0-3.24h-2.3c.04-.64.08-1.34.1-2.12h2.2Zm11.14,7.68c0-.14-.02-.16-.18-.16-.08,0-.7.04-2.54.04H447V-7.76h.62c1.66,0,2.18.04,2.3.04.14,0,.16-.02.16-.18v-.8c0-.14-.02-.16-.16-.16-.12,0-.64.04-2.3.04H447V-11.5h1.02c1.78,0,2.36.04,2.46.04.14,0,.16-.02.16-.16v-.82c0-.14-.02-.16-.16-.16-.1,0-.68.04-2.46.04h-.1a27.722,27.722,0,0,0,1.3-2.46,2.12,2.12,0,0,1,.36-.54c.14-.14.2-.2.2-.3s-.08-.18-.22-.26a6.1,6.1,0,0,0-1.14-.44,3.451,3.451,0,0,1-.26,1.02,27.1,27.1,0,0,1-1.38,2.98H445.1c-1.78,0-2.36-.04-2.46-.04-.14,0-.16.02-.16.16v.82c0,.14.02.16.16.16.1,0,.68-.04,2.46-.04h.74v2.68h-.62c-1.66,0-2.18-.04-2.28-.04-.14,0-.16.02-.16.16v.8c0,.16.02.18.16.18.1,0,.62-.04,2.28-.04h.62V-4.6h-1.16c-1.82,0-2.44-.04-2.54-.04-.14,0-.16.02-.16.16v.84c0,.14.02.16.16.16.1,0,.72-.04,2.54-.04h1.16v1.76c0,2.02-.04,2.88-.04,3,0,.14.02.14.16.14h.92c.14,0,.16,0,.16-.14,0-.1-.04-.98-.04-3V-3.52h1.34c1.82,0,2.44.04,2.52.04.16,0,.18-.02.18-.16Zm-7.82-11.6c-.2.1-.22.12-.14.26a11.68,11.68,0,0,1,1.28,2.48c.06.18.06.18.34.06l.56-.26c.2-.1.24-.14.18-.28a12,12,0,0,0-1.34-2.46c-.08-.12-.14-.12-.3-.06Z" transform="translate(812 1926)" fill="#653333"/><path d="M251.029,779.718a17.212,17.212,0,0,0-10.153-10.1c-5.132-1.8-10.481-.778-15.56.624-1.7,1.18-1.51-6.426.532-8.3,1.154-1.061,4.686-4.76,2.033-4.87-2.2-.091-4.8,2.644-5.816,4.363a6.027,6.027,0,0,0-.73,2.011,8.593,8.593,0,0,0-8.742-2.113c.415,7.085,5.179,8.259,8.814,7.482.036.454.065.9.077,1.343-1.22-.2-2.425-.657-3.64-.909a27.506,27.506,0,0,0-5.511-.61,17.322,17.322,0,0,0-10.029,3.012c-5.7,4.013-7.925,11.015-7.829,17.744a36.189,36.189,0,0,0,6.723,20.183,29.127,29.127,0,0,0,6.541,7.032,18.237,18.237,0,0,0,8.423,3.139,12.9,12.9,0,0,0,3.926-.019c1.134-.184,2.2-.663,3.32-.853.85-.144,2.048.525,2.869.708a12.835,12.835,0,0,0,4.27.218,19.26,19.26,0,0,0,12.8-6.9C250.908,804.21,255.412,790.91,251.029,779.718Z" transform="translate(535.527 1125.932)" fill="#b63333"/><path d="M-2.606-7.113A9.443,9.443,0,0,1-3.93-1.635,4.476,4.476,0,0,1-7.833.234,4.52,4.52,0,0,1-11.712-1.6a9.093,9.093,0,0,1-1.383-5.338V-10a9.269,9.269,0,0,1,1.336-5.449,4.51,4.51,0,0,1,3.9-1.852A4.533,4.533,0,0,1-3.989-15.51a8.932,8.932,0,0,1,1.383,5.268Zm-1.406-3.059a8.329,8.329,0,0,0-.955-4.43,3.193,3.193,0,0,0-2.889-1.5,3.2,3.2,0,0,0-2.859,1.465,8.059,8.059,0,0,0-.984,4.324v3.352A8.314,8.314,0,0,0-10.71-2.5,3.209,3.209,0,0,0-7.833-.949,3.161,3.161,0,0,0-4.991-2.461a8.347,8.347,0,0,0,.979-4.43ZM9.333,0H7.927V-15.375L3.286-13.652v-1.312L9.1-17.121h.234Z" transform="translate(759 1928)" fill="#fff"/><g transform="translate(67 92)"><path d="M251.029,779.718a17.212,17.212,0,0,0-10.153-10.1c-5.132-1.8-10.481-.778-15.56.624-1.7,1.18-1.51-6.426.532-8.3,1.154-1.061,4.686-4.76,2.033-4.87-2.2-.091-4.8,2.644-5.816,4.363a6.027,6.027,0,0,0-.73,2.011,8.593,8.593,0,0,0-8.742-2.113c.415,7.085,5.179,8.259,8.814,7.482.036.454.065.9.077,1.343-1.22-.2-2.425-.657-3.64-.909a27.506,27.506,0,0,0-5.511-.61,17.322,17.322,0,0,0-10.029,3.012c-5.7,4.013-7.925,11.015-7.829,17.744a36.189,36.189,0,0,0,6.723,20.183,29.127,29.127,0,0,0,6.541,7.032,18.237,18.237,0,0,0,8.423,3.139,12.9,12.9,0,0,0,3.926-.019c1.134-.184,2.2-.663,3.32-.853.85-.144,2.048.525,2.869.708a12.835,12.835,0,0,0,4.27.218,19.26,19.26,0,0,0,12.8-6.9C250.908,804.21,255.412,790.91,251.029,779.718Z" transform="translate(468.527 1126.932)" fill="#b63333"/><path d="M-2.606-7.113A9.443,9.443,0,0,1-3.93-1.635,4.476,4.476,0,0,1-7.833.234,4.52,4.52,0,0,1-11.712-1.6a9.093,9.093,0,0,1-1.383-5.338V-10a9.269,9.269,0,0,1,1.336-5.449,4.51,4.51,0,0,1,3.9-1.852A4.533,4.533,0,0,1-3.989-15.51a8.932,8.932,0,0,1,1.383,5.268Zm-1.406-3.059a8.329,8.329,0,0,0-.955-4.43,3.193,3.193,0,0,0-2.889-1.5,3.2,3.2,0,0,0-2.859,1.465,8.059,8.059,0,0,0-.984,4.324v3.352A8.314,8.314,0,0,0-10.71-2.5,3.209,3.209,0,0,0-7.833-.949,3.161,3.161,0,0,0-4.991-2.461a8.347,8.347,0,0,0,.979-4.43ZM13.493,0H2.805V-1.078L8.653-7.711a15.347,15.347,0,0,0,2.016-2.766,4.611,4.611,0,0,0,.563-2.121,3.448,3.448,0,0,0-.949-2.561A3.544,3.544,0,0,0,7.669-16.1,3.688,3.688,0,0,0,4.886-15a3.951,3.951,0,0,0-1.061,2.859H2.43a5.36,5.36,0,0,1,.65-2.625,4.679,4.679,0,0,1,1.852-1.857A5.5,5.5,0,0,1,7.669-17.3a5.159,5.159,0,0,1,3.662,1.23,4.362,4.362,0,0,1,1.318,3.352,5.688,5.688,0,0,1-.744,2.613A19.425,19.425,0,0,1,9.286-6.562L4.528-1.184h8.965Z" transform="translate(692 1929)" fill="#fff"/><path d="M2.5-9.06A14.017,14.017,0,0,1,6.18-7.04c.16.14.26.12.38-.04a6.139,6.139,0,0,0,.52-.86.275.275,0,0,0-.1-.42,15.825,15.825,0,0,0-3.52-1.82.266.266,0,0,0-.34.14C2.98-9.84,2.76-9.44,2.5-9.06Zm2.36-4.6A13.119,13.119,0,0,1,8.44-11.4c.16.14.24.18.36.04a6.469,6.469,0,0,0,.58-.86c.1-.18.12-.26-.06-.4A16.2,16.2,0,0,0,5.84-14.7c-.18-.08-.24-.08-.36.1C5.28-14.32,5.06-13.94,4.86-13.66ZM4.12-1.6A12.582,12.582,0,0,0,5.06-.26c.18.2.38.24.56.06a3.727,3.727,0,0,1,.96-.68,47.062,47.062,0,0,0,5.84-3.74,33.451,33.451,0,0,0,5.28-4.9.436.436,0,0,0,.1-.54,4.656,4.656,0,0,1-.38-1.3,34.833,34.833,0,0,1-5.7,5.54,36.4,36.4,0,0,1-5.5,3.44A8.5,8.5,0,0,1,4.12-1.6ZM32.26-6.86l1.06,4.1c.28,1.08.5,2.1.78,3.26.06.24.16.24.34.2a4.447,4.447,0,0,0,.78-.24c.18-.06.22-.14.16-.34-.32-1.14-.6-2.14-.88-3.24L33.46-7.2l5.08-1.34a11.676,11.676,0,0,1-2.5,3.62A2.779,2.779,0,0,1,37-4.6c.2.1.3.08.48-.12A16.788,16.788,0,0,0,39.8-8.4a1.233,1.233,0,0,1,.36-.46.322.322,0,0,0,.04-.5,4.816,4.816,0,0,0-.84-.62c-.18-.1-.32-.14-.46,0a2.589,2.589,0,0,1-1,.44L33.16-8.3l-.44-1.84a2.719,2.719,0,0,1-.1-1.26c.06-.18,0-.32-.26-.34a12.121,12.121,0,0,0-1.62.08,6.228,6.228,0,0,1,.74,1.88l.48,1.84-1.7.44a25.421,25.421,0,0,1-2.74.54,9.366,9.366,0,0,0,.46,1.14c.12.22.2.2.46.1.54-.2,1.36-.48,2.18-.7Zm24.2-4.78-2.28.38a31.323,31.323,0,0,1-3.26.4c.08.32.26.94.36,1.2.06.16.12.2.3.16.72-.2,1.72-.4,2.8-.58l2.34-.38.7,3.32-3.3.56c-1.26.22-2.28.38-3.4.48.1.38.24.84.36,1.18.06.2.16.24.36.18.88-.22,1.78-.44,2.96-.64l3.26-.56.6,2.82c.24,1.14.48,2.34.64,3.22.02.18.1.24.3.2a5.681,5.681,0,0,0,.96-.22c.16-.06.2-.14.16-.32-.24-.94-.52-2.06-.76-3.22L58.98-6.2l3.3-.6c1.08-.2,2.12-.38,2.92-.5.14-.02.22-.12.2-.3-.06-.3-.12-.58-.2-.88-.04-.14-.08-.18-.26-.14-.82.22-1.76.42-2.88.62l-3.34.6-.68-3.26,2.34-.42c.92-.16,2.1-.36,3.04-.52.18-.02.22-.08.2-.22a8.221,8.221,0,0,0-.22-.94c-.04-.12-.08-.16-.22-.14-.96.24-2.08.44-3.08.62l-2.32.42-.32-1.7a3.97,3.97,0,0,1-.08-1.64c.04-.18-.04-.32-.32-.36a7.961,7.961,0,0,0-1.68.02,7.063,7.063,0,0,1,.72,2.14ZM74.5-9.06a14.017,14.017,0,0,1,3.68,2.02c.16.14.26.12.38-.04a6.139,6.139,0,0,0,.52-.86.275.275,0,0,0-.1-.42,15.825,15.825,0,0,0-3.52-1.82.266.266,0,0,0-.34.14C74.98-9.84,74.76-9.44,74.5-9.06Zm2.36-4.6a13.119,13.119,0,0,1,3.58,2.26c.16.14.24.18.36.04a6.469,6.469,0,0,0,.58-.86c.1-.18.12-.26-.06-.4a16.2,16.2,0,0,0-3.48-2.08c-.18-.08-.24-.08-.36.1C77.28-14.32,77.06-13.94,76.86-13.66ZM76.12-1.6a12.582,12.582,0,0,0,.94,1.34c.18.2.38.24.56.06a3.727,3.727,0,0,1,.96-.68,47.062,47.062,0,0,0,5.84-3.74,33.45,33.45,0,0,0,5.28-4.9.436.436,0,0,0,.1-.54,4.656,4.656,0,0,1-.38-1.3,34.832,34.832,0,0,1-5.7,5.54,36.4,36.4,0,0,1-5.5,3.44A8.5,8.5,0,0,1,76.12-1.6Zm28.14-5.26,1.06,4.1c.28,1.08.5,2.1.78,3.26.06.24.16.24.34.2a4.447,4.447,0,0,0,.78-.24c.18-.06.22-.14.16-.34-.32-1.14-.6-2.14-.88-3.24L105.46-7.2l5.08-1.34a11.676,11.676,0,0,1-2.5,3.62,2.779,2.779,0,0,1,.96.32c.2.1.3.08.48-.12A16.788,16.788,0,0,0,111.8-8.4a1.233,1.233,0,0,1,.36-.46.322.322,0,0,0,.04-.5,4.816,4.816,0,0,0-.84-.62c-.18-.1-.32-.14-.46,0a2.589,2.589,0,0,1-1,.44L105.16-8.3l-.44-1.84a2.719,2.719,0,0,1-.1-1.26c.06-.18,0-.32-.26-.34a12.122,12.122,0,0,0-1.62.08,6.228,6.228,0,0,1,.74,1.88l.48,1.84-1.7.44a25.421,25.421,0,0,1-2.74.54,9.366,9.366,0,0,0,.46,1.14c.12.22.2.2.46.1.54-.2,1.36-.48,2.18-.7Zm24.2-4.78-2.28.38a31.323,31.323,0,0,1-3.26.4c.08.32.26.94.36,1.2.06.16.12.2.3.16.72-.2,1.72-.4,2.8-.58l2.34-.38.7,3.32-3.3.56c-1.26.22-2.28.38-3.4.48.1.38.24.84.36,1.18.06.2.16.24.36.18.88-.22,1.78-.44,2.96-.64l3.26-.56.6,2.82c.24,1.14.48,2.34.64,3.22.02.18.1.24.3.2a5.682,5.682,0,0,0,.96-.22c.16-.06.2-.14.16-.32-.24-.94-.52-2.06-.76-3.22l-.58-2.74,3.3-.6c1.08-.2,2.12-.38,2.92-.5.14-.02.22-.12.2-.3-.06-.3-.12-.58-.2-.88-.04-.14-.08-.18-.26-.14-.82.22-1.76.42-2.88.62l-3.34.6-.68-3.26,2.34-.42c.92-.16,2.1-.36,3.04-.52.18-.02.22-.08.2-.22a8.219,8.219,0,0,0-.22-.94c-.04-.12-.08-.16-.22-.14-.96.24-2.08.44-3.08.62l-2.32.42-.32-1.7a3.97,3.97,0,0,1-.08-1.64c.04-.18-.04-.32-.32-.36a7.961,7.961,0,0,0-1.68.02,7.063,7.063,0,0,1,.72,2.14Zm26.68-.98a5,5,0,0,1,5.16,5.06c0,3.34-2.28,5.48-6.24,6.26a2.325,2.325,0,0,1,.78.74.4.4,0,0,0,.52.22c4.34-1.1,6.36-3.72,6.36-6.98,0-3.82-2.66-6.44-7.14-6.44a8.527,8.527,0,0,0-6,2.22,7.263,7.263,0,0,0-2.32,5.18c0,2.9,1.42,4.54,2.92,4.54,1.18,0,2.08-.6,2.94-2.06a22.326,22.326,0,0,0,2.64-8.74Zm-1.78.08a21.237,21.237,0,0,1-2.34,7.82c-.58,1.02-1.18,1.46-1.86,1.46-.72,0-1.62-.94-1.62-3.12a6.2,6.2,0,0,1,1.92-4.32A6.739,6.739,0,0,1,153.36-12.54ZM180.28-4.7c1.86,0,2.58.04,2.7.04.14,0,.16-.02.16-.16,0-.1-.04-.6-.04-1.88V-9c0-1.3.04-1.78.04-1.9,0-.14-.02-.16-.16-.16-.12,0-.84.04-2.7.04h-1.82v-.76a2.243,2.243,0,0,1,.1-.92.849.849,0,0,0,.12-.38c0-.08-.08-.14-.24-.16a12.247,12.247,0,0,0-1.26-.12,7.48,7.48,0,0,1,.14,1.72v.62h-1.7c-1.86,0-2.7-.04-2.8-.04-.14,0-.16.02-.16.16,0,.12.04.88.04,2.66V-.32c-.28.06-.54.1-.82.14-.78.12-1.4.2-2.14.26a7.813,7.813,0,0,0,.34,1.22c.06.14.12.2.2.2a.365.365,0,0,0,.22-.1,2.276,2.276,0,0,1,.82-.28c2.16-.4,4.34-.84,6.92-1.5.38-.1.4-.08.4-.5a2.816,2.816,0,0,1,.1-.7c-1.7.42-3.24.76-4.86,1.06V-4.7h2.92c1.98,3.56,4.62,4.84,8.98,6.06.38.1.42.12.58-.24a2.529,2.529,0,0,1,.52-.78,20.858,20.858,0,0,1-5.62-1.92,32.761,32.761,0,0,0,2.72-1.92,2.137,2.137,0,0,1,.66-.38c.14-.04.24-.1.24-.2a.341.341,0,0,0-.16-.26,9.8,9.8,0,0,0-1.02-.72,3.53,3.53,0,0,1-.62.78,17.181,17.181,0,0,1-2.78,2.1,8.382,8.382,0,0,1-2.28-2.52Zm1.68-.98h-8.08V-7.44h8.08Zm0-2.72h-8.08v-1.64h8.08Zm5.56-2.54a19.884,19.884,0,0,1-8.9-5.18.554.554,0,0,1,.16-.1.192.192,0,0,0,.12-.18c0-.08-.1-.16-.26-.2a9.964,9.964,0,0,0-1.26-.26,3.331,3.331,0,0,1-.62.98,18.043,18.043,0,0,1-8.18,5.3,2.372,2.372,0,0,1,.56.68c.2.34.22.38.56.24a19.466,19.466,0,0,0,8.22-5.78,20.373,20.373,0,0,0,8.5,5.54c.38.12.38.12.56-.26A2.491,2.491,0,0,1,187.52-10.94Zm19.86-2.4c2,0,2.68.04,2.78.04.14,0,.16-.02.16-.16v-.78c0-.14-.02-.16-.16-.16-.1,0-.78.04-2.78.04h-2.3c-.02-.26-.02-.52-.02-.78a2.616,2.616,0,0,1,.04-.84.942.942,0,0,0,.08-.34c0-.1-.08-.16-.22-.18-.4-.06-.84-.1-1.26-.12a8.881,8.881,0,0,1,.2,1.46l.06.8H198.1c-2,0-2.7-.04-2.82-.04-.14,0-.16.02-.16.16,0,.1.04.68.04,2.1a18.335,18.335,0,0,1-.44,4.46,7.7,7.7,0,0,1-1.56,3.14,2.247,2.247,0,0,1,.72.42c.16.14.24.2.3.2s.12-.08.22-.24a9.318,9.318,0,0,0,1.5-3.44,24.165,24.165,0,0,0,.4-3.96v-1.78h7.76a17.92,17.92,0,0,0,1.58,5.84,11.776,11.776,0,0,1-2.92,2.46,2,2,0,0,1,.58.4c.14.14.22.2.32.2.08,0,.16-.06.32-.16a12.326,12.326,0,0,0,2.24-1.98c.84,1.26,1.88,2.18,2.78,2.18,1.12,0,1.66-.66,2.08-2.32.1-.36.08-.4-.26-.6a2.351,2.351,0,0,1-.6-.5c-.3,1.5-.5,2.26-1.22,2.26-.52,0-1.36-.78-2.06-1.92a16.071,16.071,0,0,0,1.66-3.16,2.066,2.066,0,0,1,.28-.54c.08-.1.14-.16.14-.26,0-.08-.06-.14-.2-.2a5.818,5.818,0,0,0-1-.36,6.018,6.018,0,0,1-.28,1.18,10.779,10.779,0,0,1-1.14,2.32,18.232,18.232,0,0,1-1.18-4.84ZM202.72-8.3c0-.88.04-1.16.04-1.26,0-.14-.02-.16-.16-.16-.12,0-.5.04-1.7.04h-1.64c-1.22,0-1.6-.04-1.7-.04-.14,0-.16.02-.16.16,0,.1.04.38.04,1.26v1.18c0,.88-.04,1.16-.04,1.26,0,.14.02.16.16.16.1,0,.48-.04,1.7-.04h1.64c1.2,0,1.58.04,1.7.04.14,0,.16-.02.16-.16,0-.1-.04-.38-.04-1.26Zm-.98,1.64h-3.32V-8.74h3.32Zm-2.42,4.14a2.247,2.247,0,0,1,.1-.88.652.652,0,0,0,.08-.26c0-.08-.06-.16-.22-.18a9.331,9.331,0,0,0-1.2-.12,9.953,9.953,0,0,1,.08,1.62V-.4a1.138,1.138,0,0,0,.9,1.3,14.1,14.1,0,0,0,2.94.18A10.4,10.4,0,0,0,205.72.7c.5-.22.92-.68,1.1-1.92.06-.34.04-.4-.32-.52a3.185,3.185,0,0,1-.78-.4c-.06.96-.22,1.58-.7,1.84a8.409,8.409,0,0,1-3.04.32,11.785,11.785,0,0,1-2.16-.14c-.4-.08-.5-.32-.5-.78Zm3.86-9.3c0-.16-.02-.18-.16-.18-.1,0-.54.04-1.86.04h-2.02c-1.34,0-1.76-.04-1.88-.04s-.14.02-.14.18v.74c0,.14.02.16.14.16s.54-.04,1.88-.04h2.02c1.32,0,1.78.04,1.86.04.14,0,.16-.02.16-.16Zm-7.2,8.26c-.26-.1-.32-.08-.38.08a8.96,8.96,0,0,1-2.06,3.26c-.12.12-.1.16.14.34l.5.36a.5.5,0,0,0,.22.1c.04,0,.08-.04.14-.1a11.182,11.182,0,0,0,2.16-3.56c.04-.14.02-.18-.2-.28Zm11.58.12c-.24.14-.24.16-.14.28A14.355,14.355,0,0,1,209.58.02c.08.14.14.14.36.02l.58-.3c.2-.1.22-.18.14-.32A13.8,13.8,0,0,0,208.4-3.7c-.12-.12-.16-.14-.36-.02Zm-6.5-.88c-.2.14-.22.2-.1.3a11.929,11.929,0,0,1,1.94,2.06c.1.16.16.14.38-.02l.46-.32c.2-.14.22-.18.14-.3a12.184,12.184,0,0,0-2.04-2.02c-.14-.12-.18-.12-.38.02Zm5.18-11.94c-.18.14-.2.2-.06.3a8.864,8.864,0,0,1,1.78,1.48c.12.14.18.1.38-.08l.36-.3c.16-.14.2-.18.08-.3a8.927,8.927,0,0,0-1.84-1.42c-.1-.08-.14-.08-.28.02Zm24.2,1.8a8.635,8.635,0,0,1,2.32,2.56.16.16,0,0,0,.26.04l.58-.48a.144.144,0,0,0,.04-.22,9.706,9.706,0,0,0-2.26-2.42c-.08-.06-.12-.08-.2-.02Zm1.76-1.34a9.553,9.553,0,0,1,2.3,2.5c.08.12.16.12.24.04l.54-.48c.1-.08.12-.14.06-.24a11.5,11.5,0,0,0-2.28-2.34c-.08-.06-.14-.04-.22.02Zm-9.42,5.1c-.94.14-1.72.26-2.82.38a13.547,13.547,0,0,1-2.08.1,7.614,7.614,0,0,0,.46,1.36c.12.24.3.24.52.1a2.908,2.908,0,0,1,.88-.26c1-.18,1.82-.32,2.64-.44a42.466,42.466,0,0,1-3.84,8.52c-.06.12-.08.22.04.32a5.631,5.631,0,0,0,.8.54.24.24,0,0,0,.34-.1,54.343,54.343,0,0,0,4.08-9.46,14.128,14.128,0,0,1,2.16-.22c1.08,0,1.38.56,1.38,2.12a15.111,15.111,0,0,1-.9,5.62c-.38.84-.76,1.04-1.34,1.04a5.826,5.826,0,0,1-2.32-.56,3.546,3.546,0,0,1,.24,1.2.326.326,0,0,0,.24.34,5.253,5.253,0,0,0,2.04.36,2.392,2.392,0,0,0,2.28-1.58,16.6,16.6,0,0,0,1.1-6.4c0-2.4-.86-3.28-2.6-3.28a18.408,18.408,0,0,0-1.94.14c.3-.98.56-1.92.86-2.9a1.355,1.355,0,0,1,.34-.66.3.3,0,0,0-.08-.52,8.4,8.4,0,0,0-1.56-.54,6.88,6.88,0,0,1-.18,1.92C223.26-12.44,223.04-11.64,222.78-10.7Zm7.08-.6a11.114,11.114,0,0,1,3.2,5.06c.04.2.18.22.34.12a4.469,4.469,0,0,0,.82-.54c.12-.1.1-.2.06-.34a11.4,11.4,0,0,0-3.22-4.84.255.255,0,0,0-.3-.08A9,9,0,0,0,229.86-11.3Zm23.2-1.12c0-1.34.04-1.82.04-1.92,0-.14-.02-.16-.16-.16-.12,0-.54.04-1.96.04H249.9c.16-.32.34-.72.48-1.06a1.014,1.014,0,0,1,.24-.44c.08-.08.14-.14.14-.22,0-.1-.06-.16-.2-.2a10.252,10.252,0,0,0-1.18-.24,3.255,3.255,0,0,1-.2.94c-.14.44-.28.82-.44,1.22-1.26,0-1.68-.04-1.78-.04-.14,0-.16.02-.16.16,0,.1.02.58.02,1.92v2.9c0,1.34-.02,1.82-.02,1.92,0,.14.02.16.16.16.1,0,.54-.04,1.96-.04h2.06c1.42,0,1.84.04,1.96.04.14,0,.16-.02.16-.16,0-.1-.04-.58-.04-1.92ZM251.98-8.4H247.9v-2.2h4.08Zm0-3.1H247.9v-2.04h4.08Zm3.7,7.24c1.9,0,2.54.04,2.66.04.14,0,.16-.02.16-.16V-5.2c0-.14-.02-.16-.16-.16-.12,0-.76.04-2.66.04h-5.2a3.531,3.531,0,0,1,.1-.98,2.826,2.826,0,0,0,.12-.44c0-.08-.12-.14-.26-.16a11.564,11.564,0,0,0-1.3-.12,9.612,9.612,0,0,1,.14,1.7h-4.94c-1.9,0-2.54-.04-2.66-.04-.14,0-.16.02-.16.16v.82c0,.14.02.16.16.16.12,0,.76-.04,2.66-.04h4.08a16.467,16.467,0,0,1-7.44,4.08,3.047,3.047,0,0,1,.58.72c.12.22.16.3.26.3a1.283,1.283,0,0,0,.32-.1,15.712,15.712,0,0,0,7.2-4.72c0,2.86-.12,4.82-.12,5.2,0,.14.02.16.16.16h.98c.14,0,.16-.02.16-.16,0-.38-.1-2.38-.1-5.22a16.844,16.844,0,0,0,7.5,4.72,1.283,1.283,0,0,0,.32.1c.1,0,.16-.1.26-.32a3.556,3.556,0,0,1,.56-.76,16.892,16.892,0,0,1-7.76-4Zm-9.74-5.7a6.838,6.838,0,0,1-.18-.76,18.552,18.552,0,0,1-3.06,1.94,8.428,8.428,0,0,1-1.32.56,7.257,7.257,0,0,0,.58,1.12c.08.12.14.14.22.14s.16-.08.22-.16a3.273,3.273,0,0,1,.64-.5,26.529,26.529,0,0,0,2.7-1.74C246.04-9.58,246.04-9.58,245.94-9.96ZM254-10c-.16.2-.14.26,0,.32a22.976,22.976,0,0,1,3.76,2.46c.14.12.18.1.34-.16l.34-.52c.14-.2.14-.24.02-.34a30.442,30.442,0,0,0-3.82-2.34c-.14-.08-.18-.06-.3.12Zm4.06-4.52c0-.08-.04-.14-.18-.28a5.58,5.58,0,0,0-.88-.64,3.9,3.9,0,0,1-.4.64,14.046,14.046,0,0,1-2.66,2.48,2.059,2.059,0,0,1,.56.44c.14.18.2.26.28.26.06,0,.14-.06.28-.18a19.939,19.939,0,0,0,2.36-2.16,1.411,1.411,0,0,1,.42-.34C257.98-14.36,258.06-14.42,258.06-14.52Zm-16-.06c-.18.18-.2.22-.06.3a14.653,14.653,0,0,1,2.54,2.22c.12.14.12.1.32-.1l.42-.44c.2-.2.18-.24.08-.34a14.346,14.346,0,0,0-2.6-2.14c-.12-.1-.12-.08-.3.1Zm27.52-.92a11.012,11.012,0,0,1,.16,3.02c-.1,2.82-.28,6.08-.28,8.92,0,2.94,1.22,4.02,3.48,4.02a11.131,11.131,0,0,0,7.62-3.36c.18-.16.24-.26.24-.38a1.017,1.017,0,0,0-.08-.28,4.734,4.734,0,0,1-.34-1.16c-2.06,2.28-4.66,3.82-7.2,3.82-1.74,0-2.36-.68-2.36-2.92,0-2.76.12-5.5.3-8.52a11.4,11.4,0,0,1,.24-2.06,1.526,1.526,0,0,0,.16-.52c0-.14-.1-.24-.32-.3A7.946,7.946,0,0,0,269.58-15.5Zm29.22,3.84a11.263,11.263,0,0,0-4.58,1.42c-.16-.64-.34-1.48-.5-2.34a4.235,4.235,0,0,1-.08-.94c.02-.22,0-.34-.24-.42a6.049,6.049,0,0,0-1.44-.2,8.568,8.568,0,0,1,.58,1.86c.2.88.44,1.92.64,2.7a7.143,7.143,0,0,0-2.86,5.38c0,2.02,1.08,2.88,2.1,2.88,1.08,0,2.2-.74,3.46-2.22a12.641,12.641,0,0,0,.86,1.02.265.265,0,0,0,.38.04,2.949,2.949,0,0,0,.66-.66,10.618,10.618,0,0,1-1.12-1.38,34.506,34.506,0,0,0,3.1-6.1,4.255,4.255,0,0,1,4.58,4.4c0,2.88-2.52,4.66-6.1,5.3a2.545,2.545,0,0,1,.84.74.408.408,0,0,0,.52.2c3.36-.78,6.1-2.64,6.1-6.2,0-3.1-2.14-5.24-5.6-5.46.32-.86.52-1.36.7-1.84a2.191,2.191,0,0,1,.4-.78c.16-.2.18-.4-.08-.56a5.59,5.59,0,0,0-1.54-.6,4.147,4.147,0,0,1-.1,1.48A16.725,16.725,0,0,1,298.8-11.66Zm-4.32,2.48a9.432,9.432,0,0,1,3.94-1.4,30.764,30.764,0,0,1-2.44,5A19.5,19.5,0,0,1,294.48-9.18Zm-.98.76a20.183,20.183,0,0,0,1.68,3.84c-1.12,1.46-1.96,1.94-2.68,1.94-.54,0-.98-.62-.98-1.66A6.037,6.037,0,0,1,293.5-8.42Zm25.9.86c2-2.04,3.34-3.44,5.12-5.32a2.169,2.169,0,0,1,.94-.7.414.414,0,0,0,.3-.38.54.54,0,0,0-.14-.34,4.927,4.927,0,0,0-.86-.84.6.6,0,0,0-.36-.16.616.616,0,0,0-.28.14,2.088,2.088,0,0,1-.62.18c-1.76.34-3.4.56-4.98.72a7.455,7.455,0,0,1-1.76-.02,6.328,6.328,0,0,0,.48,1.38.354.354,0,0,0,.32.24,1.189,1.189,0,0,0,.38-.1,3.246,3.246,0,0,1,.7-.18c1.78-.34,3.34-.64,5-.9-1.54,1.82-2.74,3.1-3.9,4.36a54.459,54.459,0,0,1-4.52,4.46c-.14.12-.16.2-.08.3a9.224,9.224,0,0,0,.74.8c.14.14.24.12.4-.04a19.223,19.223,0,0,1,1.76-1.64,9.214,9.214,0,0,1,5.5-2.26A3.241,3.241,0,0,1,327-4.58a3.689,3.689,0,0,1-2.92,3.64,3.386,3.386,0,0,0-3.4-2.86,2.181,2.181,0,0,0-2.34,2.04c0,1.28,1.08,2.36,3.48,2.36,4.24,0,6.6-2.16,6.6-5.14,0-2.6-1.78-4.38-4.66-4.38a7.808,7.808,0,0,0-4.3,1.42Zm3.46,6.9a7.256,7.256,0,0,1-1.3.1c-1.34,0-2.06-.56-2.06-1.22,0-.62.58-.94,1.22-.94A2.32,2.32,0,0,1,322.86-.66Z" transform="translate(745 1927)" fill="#653333"/></g><g transform="translate(67 55)"><path d="M251.029,779.718a17.212,17.212,0,0,0-10.153-10.1c-5.132-1.8-10.481-.778-15.56.624-1.7,1.18-1.51-6.426.532-8.3,1.154-1.061,4.686-4.76,2.033-4.87-2.2-.091-4.8,2.644-5.816,4.363a6.027,6.027,0,0,0-.73,2.011,8.593,8.593,0,0,0-8.742-2.113c.415,7.085,5.179,8.259,8.814,7.482.036.454.065.9.077,1.343-1.22-.2-2.425-.657-3.64-.909a27.506,27.506,0,0,0-5.511-.61,17.322,17.322,0,0,0-10.029,3.012c-5.7,4.013-7.925,11.015-7.829,17.744a36.189,36.189,0,0,0,6.723,20.183,29.127,29.127,0,0,0,6.541,7.032,18.237,18.237,0,0,0,8.423,3.139,12.9,12.9,0,0,0,3.926-.019c1.134-.184,2.2-.663,3.32-.853.85-.144,2.048.525,2.869.708a12.835,12.835,0,0,0,4.27.218,19.26,19.26,0,0,0,12.8-6.9C250.908,804.21,255.412,790.91,251.029,779.718Z" transform="translate(468.527 1256.932)" fill="#b63333"/><path d="M-2.606-7.113A9.443,9.443,0,0,1-3.93-1.635,4.476,4.476,0,0,1-7.833.234,4.52,4.52,0,0,1-11.712-1.6a9.093,9.093,0,0,1-1.383-5.338V-10a9.269,9.269,0,0,1,1.336-5.449,4.51,4.51,0,0,1,3.9-1.852A4.533,4.533,0,0,1-3.989-15.51a8.932,8.932,0,0,1,1.383,5.268Zm-1.406-3.059a8.329,8.329,0,0,0-.955-4.43,3.193,3.193,0,0,0-2.889-1.5,3.2,3.2,0,0,0-2.859,1.465,8.059,8.059,0,0,0-.984,4.324v3.352A8.314,8.314,0,0,0-10.71-2.5,3.209,3.209,0,0,0-7.833-.949,3.161,3.161,0,0,0-4.991-2.461a8.347,8.347,0,0,0,.979-4.43Zm9.935.879H7.376a4.876,4.876,0,0,0,2.109-.428,3.216,3.216,0,0,0,1.377-1.172,3.123,3.123,0,0,0,.475-1.717,3.469,3.469,0,0,0-.926-2.566,3.6,3.6,0,0,0-2.66-.926,3.812,3.812,0,0,0-2.689.967,3.3,3.3,0,0,0-1.049,2.549H2.606a4.559,4.559,0,0,1,.668-2.42A4.489,4.489,0,0,1,5.126-16.7a5.74,5.74,0,0,1,2.625-.6,5.1,5.1,0,0,1,3.656,1.266,4.549,4.549,0,0,1,1.336,3.469,3.693,3.693,0,0,1-.779,2.268A4.67,4.67,0,0,1,9.825-8.742a4.39,4.39,0,0,1,2.414,1.529,4.159,4.159,0,0,1,.82,2.584A4.6,4.6,0,0,1,11.63-1.1,5.37,5.37,0,0,1,7.809.234,6.382,6.382,0,0,1,5.014-.375,4.652,4.652,0,0,1,3.046-2.08a4.645,4.645,0,0,1-.7-2.549H3.755A3.41,3.41,0,0,0,4.891-1.975,4.19,4.19,0,0,0,7.809-.949a4.027,4.027,0,0,0,2.83-.932,3.486,3.486,0,0,0,1.014-2.7,3.191,3.191,0,0,0-1.1-2.613,4.978,4.978,0,0,0-3.229-.9H5.923Z" transform="translate(692 2059)" fill="#fff"/><path d="M7.4-12.9c0-1.84.04-2.58.04-2.68,0-.14-.02-.16-.16-.16-.12,0-.48.04-1.74.04H3.98c-1.24,0-1.62-.04-1.74-.04-.14,0-.16.02-.16.16,0,.12.04.84.04,2.68v6.44c0,1.84-.04,2.56-.04,2.68,0,.14.02.14.16.14.12,0,.5-.02,1.74-.02H5.54c1.26,0,1.62.04,1.74.04.14,0,.16-.02.16-.16,0-.12-.04-.84-.04-2.68ZM6.32-4.66H3.2V-7.44H6.32Zm0-3.76H3.2v-2.66H6.32Zm0-3.64H3.2V-14.7H6.32ZM18.84-8.78c0-.12-.02-.14-.16-.14-.1,0-.74.04-2.64.04H11.38c-1.9,0-2.52-.04-2.62-.04-.14,0-.16.02-.16.14v.86c0,.14.02.16.16.16.1,0,.72-.04,2.62-.04h1.86v6.64c0,.86-.3,1.02-1.08,1.02a9.371,9.371,0,0,1-1.54-.12,3,3,0,0,1,.34.92c.08.4.1.42.5.42,1.58.02,2.14-.1,2.52-.42.38-.3.52-.7.52-1.62,0-.56-.02-1.42-.02-2.34V-7.8h1.56c1.9,0,2.54.04,2.64.04.14,0,.16-.02.16-.16Zm-.24-4.28c0-.4.04-.62.04-.72,0-.14-.02-.16-.14-.16s-.78.04-2.68.04H14.04v-.78A4.731,4.731,0,0,1,14.16-16a.815.815,0,0,0,.1-.36c0-.08-.08-.14-.24-.16a12.425,12.425,0,0,0-1.32-.12,9.565,9.565,0,0,1,.14,1.98v.76H11.3c-1.9,0-2.54-.04-2.64-.04-.14,0-.16.02-.16.16,0,.1.04.32.04.8v.46c0,1.38-.04,1.56-.04,1.66,0,.16.02.16.16.16H9.5c.16,0,.18,0,.18-.16v-1.96h7.76v1.96c0,.16.02.16.16.16h.9c.12,0,.14,0,.14-.16,0-.1-.04-.28-.04-1.66ZM4.28-2.42c0-.06-.06-.14-.2-.2a6.742,6.742,0,0,0-1.02-.34,2.858,2.858,0,0,1-.2.76A7.8,7.8,0,0,1,.9.74a2.328,2.328,0,0,1,.68.38.586.586,0,0,0,.28.16c.1,0,.18-.08.32-.24a10.622,10.622,0,0,0,1.7-2.78,1.187,1.187,0,0,1,.28-.46C4.24-2.28,4.28-2.32,4.28-2.42Zm1.44-.22c-.26.12-.26.16-.2.3A21.787,21.787,0,0,0,7.02.3c.12.18.2.28.28.28A.382.382,0,0,0,7.54.44a2.5,2.5,0,0,1,.74-.46,11.071,11.071,0,0,1-1.8-2.76c-.06-.14-.1-.14-.34-.04ZM39.3-10.28c2.02,0,2.68.04,2.8.04.14,0,.16-.02.16-.14v-.8c0-.14-.02-.16-.16-.16-.12,0-.78.04-2.8.04H37.62a2.173,2.173,0,0,1,.1-.78.952.952,0,0,0,.1-.28c0-.1-.08-.16-.22-.18a8.333,8.333,0,0,0-1.22-.08c.06.42.1.94.12,1.32H29.94c-2.02,0-2.74-.04-2.84-.04-.14,0-.16.02-.16.16,0,.12.04.84.04,2.62a22.126,22.126,0,0,1-.5,5.42A9.782,9.782,0,0,1,24.8.52a2.265,2.265,0,0,1,.7.52c.12.12.18.18.26.18.06,0,.14-.08.24-.22a10.951,10.951,0,0,0,1.68-3.9,27.421,27.421,0,0,0,.46-5.6v-1.78h8.4a23.292,23.292,0,0,0,1.32,7.24,12.213,12.213,0,0,1-4,3.82,3.009,3.009,0,0,1,.72.48c.14.12.22.2.3.2s.16-.06.32-.18a13.758,13.758,0,0,0,3.14-3.14c.88,1.9,1.9,3.06,2.96,3.06,1.22,0,1.56-.98,1.76-2.62.04-.38,0-.4-.3-.58a3.965,3.965,0,0,1-.66-.52c-.1,1.28-.22,2.44-.82,2.44-.68,0-1.52-1.24-2.2-2.9A21.257,21.257,0,0,0,40.76-6.8a3.818,3.818,0,0,1,.42-.96.587.587,0,0,0,.2-.38c0-.12-.1-.2-.28-.26-.32-.12-.64-.2-1.04-.32a8.251,8.251,0,0,1-.42,1.86A16.884,16.884,0,0,1,38.6-4.32a22.523,22.523,0,0,1-.96-5.96Zm-3.48,1.5c0-.16-.02-.18-.18-.18-.1,0-.54.04-1.98.04H31.48c-1.46,0-1.94-.04-2.04-.04-.14,0-.16.02-.16.18,0,.1.04.62.04,2.16v4.5c0,1.54-.04,2.06-.04,2.18,0,.14.02.16.16.16h.72c.14,0,.16-.02.16-.16V-.86h3.04c1.46,0,1.88.04,1.98.04.16,0,.18-.02.18-.16v-.66c0-.14-.02-.16-.18-.16-.1,0-.52.04-1.98.04V-3.34h.22c1.3,0,1.74.04,1.84.04.14,0,.16-.02.16-.16,0-.12-.04-.38-.04-1.12v-.74c0-.78.04-1.04.04-1.16,0-.14-.02-.14-.16-.14-.1,0-.54.02-1.84.02h-.2V-8.02h.28c1.44,0,1.88.04,1.98.04.16,0,.18-.02.18-.16ZM34.56-4.2H30.32V-5.74h4.24ZM32.4-1.76H30.32V-3.34H32.4Zm0-4.84H30.32V-8.02H32.4Zm10.32-8.1c0-.12-.02-.14-.16-.14-.12,0-.74.02-2.62.02H37.18v-.1a3.268,3.268,0,0,1,.1-1.16.6.6,0,0,0,.1-.28c0-.08-.1-.14-.22-.16a9.3,9.3,0,0,0-1.24-.12,7.8,7.8,0,0,1,.14,1.82h-4.3a3.546,3.546,0,0,1,.12-1.26.547.547,0,0,0,.08-.28c0-.08-.08-.14-.22-.16a8.96,8.96,0,0,0-1.22-.12,9.407,9.407,0,0,1,.12,1.82H28.06c-1.86,0-2.5-.02-2.6-.02-.14,0-.16.02-.16.14v.78c0,.16.02.18.16.18.1,0,.74-.04,2.6-.04h2.58c-.02.82-.04,1.16-.04,1.26,0,.12.02.14.16.14h.88c.14,0,.16-.02.16-.14,0-.08-.04-.44-.04-1.26h4.3c-.02.42-.04.62-.04.7,0,.14.02.16.16.16h.88c.14,0,.14-.02.14-.16,0-.08-.02-.28-.02-.7h2.76c1.88,0,2.5.04,2.62.04.14,0,.16-.02.16-.18ZM38.64-13c-.12.1-.12.14,0,.22a9.034,9.034,0,0,1,1.6,1.34c.1.1.14.1.3-.02l.42-.34c.14-.12.14-.16.04-.28a8.42,8.42,0,0,0-1.66-1.28c-.14-.08-.16-.08-.3.04ZM67.06-.44c0-.14-.02-.16-.16-.16-.1,0-.78.04-2.8.04H61.52V-5.42h1.5c1.86,0,2.46.04,2.56.04.14,0,.16-.02.16-.16v-.82c0-.14-.02-.16-.16-.16-.1,0-.7.04-2.56.04h-1.5v-4.26h2.12c1.84,0,2.46.04,2.56.04.14,0,.16-.02.16-.16v-.82c0-.14-.02-.16-.16-.16-.1,0-.72.04-2.56.04H61.52v-2.12a8.937,8.937,0,0,1,.14-2.06,1.484,1.484,0,0,0,.08-.36c0-.08-.1-.14-.24-.16a11.1,11.1,0,0,0-1.32-.12,15.538,15.538,0,0,1,.16,2.74v2.08H57.56c.24-.68.42-1.32.56-1.88a1.537,1.537,0,0,1,.24-.58.4.4,0,0,0,.12-.26c0-.08-.04-.14-.24-.22a7.1,7.1,0,0,0-1.18-.32A7.657,7.657,0,0,1,56.98-14a16.62,16.62,0,0,1-2.52,5.94,2.68,2.68,0,0,1,.8.32.555.555,0,0,0,.26.12c.08,0,.12-.08.24-.26a19.051,19.051,0,0,0,1.42-2.86h3.16v4.26H58.82c-1.86,0-2.46-.04-2.58-.04-.14,0-.16.02-.16.16v.82c0,.14.02.16.16.16.12,0,.72-.04,2.58-.04h1.52V-.56h-2.9c-2.04,0-2.7-.04-2.8-.04-.14,0-.16.02-.16.16V.4c0,.16.02.18.16.18.1,0,.76-.04,2.8-.04H64.1c2.02,0,2.7.04,2.8.04.14,0,.16-.02.16-.18ZM51.6-2.28c0,2.36-.04,3.4-.04,3.5,0,.14.02.16.16.16h.94c.14,0,.16-.02.16-.16,0-.1-.04-1.14-.04-3.52V-13.92a7.676,7.676,0,0,1,.14-2.06,1.714,1.714,0,0,0,.08-.36c0-.08-.1-.14-.24-.16a8.262,8.262,0,0,0-1.32-.1,13.338,13.338,0,0,1,.16,2.72ZM50.06-12.34c-.26-.08-.28-.06-.3.08a12.694,12.694,0,0,1-.84,3.94c-.1.24-.02.24.22.32l.5.18c.2.08.24.06.28-.04a14.717,14.717,0,0,0,.88-4.1c.02-.14,0-.16-.22-.22Zm3.52-.22c-.26.1-.28.12-.22.26a17.34,17.34,0,0,1,.72,2.76c.02.16.08.16.34.06l.44-.18c.22-.08.24-.12.2-.26a21.914,21.914,0,0,0-.8-2.74c-.04-.12-.12-.12-.28-.06Zm32.86-1.9a8.635,8.635,0,0,1,2.32,2.56.16.16,0,0,0,.26.04l.58-.48a.144.144,0,0,0,.04-.22,9.706,9.706,0,0,0-2.26-2.42c-.08-.06-.12-.08-.2-.02ZM88.2-15.8a9.553,9.553,0,0,1,2.3,2.5c.08.12.16.12.24.04l.54-.48c.1-.08.12-.14.06-.24a11.5,11.5,0,0,0-2.28-2.34c-.08-.06-.14-.04-.22.02Zm-9.42,5.1c-.94.14-1.72.26-2.82.38a13.547,13.547,0,0,1-2.08.1,7.614,7.614,0,0,0,.46,1.36c.12.24.3.24.52.1a2.908,2.908,0,0,1,.88-.26c1-.18,1.82-.32,2.64-.44A42.466,42.466,0,0,1,74.54-.94c-.06.12-.08.22.04.32a5.632,5.632,0,0,0,.8.54.24.24,0,0,0,.34-.1A54.343,54.343,0,0,0,79.8-9.64a14.128,14.128,0,0,1,2.16-.22c1.08,0,1.38.56,1.38,2.12a15.111,15.111,0,0,1-.9,5.62c-.38.84-.76,1.04-1.34,1.04a5.826,5.826,0,0,1-2.32-.56,3.546,3.546,0,0,1,.24,1.2.326.326,0,0,0,.24.34A5.253,5.253,0,0,0,81.3.26a2.392,2.392,0,0,0,2.28-1.58,16.6,16.6,0,0,0,1.1-6.4c0-2.4-.86-3.28-2.6-3.28a18.408,18.408,0,0,0-1.94.14c.3-.98.56-1.92.86-2.9a1.355,1.355,0,0,1,.34-.66.3.3,0,0,0-.08-.52,8.4,8.4,0,0,0-1.56-.54,6.879,6.879,0,0,1-.18,1.92C79.26-12.44,79.04-11.64,78.78-10.7Zm7.08-.6a11.115,11.115,0,0,1,3.2,5.06c.04.2.18.22.34.12a4.47,4.47,0,0,0,.82-.54c.12-.1.1-.2.06-.34a11.4,11.4,0,0,0-3.22-4.84.255.255,0,0,0-.3-.08A9,9,0,0,0,85.86-11.3Zm19.2.34c0-1.28,0-2.34.04-2.98a2.684,2.684,0,0,1,.2-1.04c.1-.2.08-.36-.16-.44a8.145,8.145,0,0,0-1.58-.26,6.252,6.252,0,0,1,.18,1.64c0,.94.02,2.18.02,3.06.02,2.3.16,4.62.36,6.5a14.338,14.338,0,0,0-2.16-.14c-2.12,0-3.88,1.06-3.88,2.66,0,1.48,1.36,2.5,3.82,2.5,2.26,0,3.58-1.24,3.6-2.9.02-.24.02-.44.02-.56a18.36,18.36,0,0,1,4.92,2.54c.1.06.14.04.22-.04a3.8,3.8,0,0,0,.6-.98c.04-.12.02-.18-.1-.26a21.35,21.35,0,0,0-5.7-2.58,50.1,50.1,0,0,1-.38-5.42,25.755,25.755,0,0,0,5.26-.98c.08-.02.14-.06.12-.2a6.664,6.664,0,0,0-.32-1.02.14.14,0,0,0-.18-.08A21.083,21.083,0,0,1,105.06-10.96Zm-.9,7.72a3.1,3.1,0,0,1,.02.46c0,1.34-.92,2.08-2.44,2.08-1.54,0-2.48-.42-2.48-1.3,0-.82.96-1.48,2.66-1.48A11.252,11.252,0,0,1,104.16-3.24ZM130.8-15.82a4.694,4.694,0,0,1-.88,1.24c-1.78,1.8-3.96,3.92-5.58,5.64a1.85,1.85,0,0,0-.7,1.3,1.565,1.565,0,0,0,.78,1.26A53.221,53.221,0,0,1,131.96.4c.14.18.22.16.38.04a9.04,9.04,0,0,0,.76-.76c.16-.2.12-.24-.02-.4a64.554,64.554,0,0,0-7.72-6.6c-.18-.12-.26-.22-.26-.36a.754.754,0,0,1,.28-.5c1.5-1.6,3.94-3.86,5.9-5.64a2.4,2.4,0,0,1,.74-.52.3.3,0,0,0,.2-.26.422.422,0,0,0-.14-.26A9.243,9.243,0,0,0,130.8-15.82Zm18.88,4.42a25.419,25.419,0,0,1-4.16.16,5.167,5.167,0,0,0,.12.94c.04.2.12.3.38.3a27.468,27.468,0,0,0,3.66-.22c0,1.38,0,2.86.02,4.28-1.22.7-2.36,1.34-3.24,1.76a9.31,9.31,0,0,1-1.94.7,7.475,7.475,0,0,0,.62,1.22c.1.14.18.22.3.22a.467.467,0,0,0,.28-.14c.18-.12.38-.26.68-.44a15.047,15.047,0,0,1,2.9,2.24c.48.52.58.72.76.72A4.332,4.332,0,0,0,150.9.2c.2-.06.22-.18.22-.46,0-.32-.08-.96-.12-1.9-.06-1.24-.1-2.34-.1-3.06a11.714,11.714,0,0,1,4.98-1.68c1.78,0,2.76.96,2.76,2.42,0,1.66-1.22,2.46-2.82,2.46a5.029,5.029,0,0,1-2.14-.42,2.663,2.663,0,0,1,.32.92c.02.32.08.46.28.52a5.158,5.158,0,0,0,1.6.24c2.52,0,4.16-1.26,4.16-3.68,0-2.02-1.46-3.54-3.92-3.54a12.171,12.171,0,0,0-5.22,1.52c-.02-1.32-.02-2.64.02-3.94a19.72,19.72,0,0,0,3.12-.82c.16-.06.22-.08.22-.26a5.969,5.969,0,0,0-.08-.84c-.02-.18-.1-.2-.26-.14a18.937,18.937,0,0,1-2.94.84c.02-.64.04-1.2.08-1.74a2.114,2.114,0,0,1,.24-1.02.533.533,0,0,0,.1-.26.313.313,0,0,0-.24-.3,7.621,7.621,0,0,0-1.6-.3,8.7,8.7,0,0,1,.16,1.88C149.72-12.68,149.7-12.12,149.68-11.4Zm.02,6.74c.06,1.1.08,1.98.12,2.84,0,.18-.06.22-.2.14-.84-.46-1.52-.88-2.48-1.44C148.1-3.7,148.78-4.14,149.7-4.66Zm6.74-7.32a7.017,7.017,0,0,1,3.82,2.18.159.159,0,0,0,.26,0,6.061,6.061,0,0,0,.64-.82.171.171,0,0,0,0-.26,7.146,7.146,0,0,0-3.96-2.1c-.14-.02-.2.02-.28.16A7,7,0,0,0,156.44-11.98Zm13.18-1.68a8.487,8.487,0,0,1,.16,1.92,43.888,43.888,0,0,0,.36,5.58c.44,3.14,1.7,5.46,3.38,5.46,1.34,0,2.42-1.52,2.98-3.14a.446.446,0,0,0-.16-.5,2.542,2.542,0,0,1-.66-1c-.58,1.86-1.34,3.14-2.14,3.14-.96,0-1.82-1.72-2.12-4.08a31.934,31.934,0,0,1-.28-4.54,6.88,6.88,0,0,1,.16-1.84,1.485,1.485,0,0,0,.08-.36c0-.08-.06-.16-.18-.22A5.5,5.5,0,0,0,169.62-13.66Zm10.24,2.5a11.653,11.653,0,0,1,3.76,6.94.184.184,0,0,0,.26.16,3.96,3.96,0,0,0,.92-.46.229.229,0,0,0,.14-.26,12.127,12.127,0,0,0-3.9-6.92c-.08-.08-.18-.06-.3,0A8.174,8.174,0,0,0,179.86-11.16Zm16.52-4.34a11.013,11.013,0,0,1,.16,3.02c-.1,2.82-.28,6.08-.28,8.92,0,2.94,1.22,4.02,3.48,4.02a11.131,11.131,0,0,0,7.62-3.36c.18-.16.24-.26.24-.38a1.018,1.018,0,0,0-.08-.28,4.734,4.734,0,0,1-.34-1.16c-2.06,2.28-4.66,3.82-7.2,3.82-1.74,0-2.36-.68-2.36-2.92,0-2.76.12-5.5.3-8.52a11.4,11.4,0,0,1,.24-2.06,1.526,1.526,0,0,0,.16-.52c0-.14-.1-.24-.32-.3A7.946,7.946,0,0,0,196.38-15.5Zm21.24,1.84a8.487,8.487,0,0,1,.16,1.92,43.888,43.888,0,0,0,.36,5.58c.44,3.14,1.7,5.46,3.38,5.46,1.34,0,2.42-1.52,2.98-3.14a.446.446,0,0,0-.16-.5,2.542,2.542,0,0,1-.66-1c-.58,1.86-1.34,3.14-2.14,3.14-.96,0-1.82-1.72-2.12-4.08a31.934,31.934,0,0,1-.28-4.54,6.88,6.88,0,0,1,.16-1.84,1.485,1.485,0,0,0,.08-.36c0-.08-.06-.16-.18-.22A5.5,5.5,0,0,0,217.62-13.66Zm10.24,2.5a11.653,11.653,0,0,1,3.76,6.94.184.184,0,0,0,.26.16,3.96,3.96,0,0,0,.92-.46.229.229,0,0,0,.14-.26,12.127,12.127,0,0,0-3.9-6.92c-.08-.08-.18-.06-.3,0A8.174,8.174,0,0,0,227.86-11.16Zm17-4.42a10.935,10.935,0,0,1-.18,2.22,37.059,37.059,0,0,0-.46,4.7,11.943,11.943,0,0,0,.5,3.74c.04.12.1.2.2.2.34-.04.78-.1.96-.14.12-.04.16-.1.14-.28a1.6,1.6,0,0,1,.14-.64,20.444,20.444,0,0,1,1.26-2.64.422.422,0,0,0,.02-.54,2.837,2.837,0,0,1-.4-.82c-.46.9-1.06,2.04-1.48,2.88a13.9,13.9,0,0,1-.08-2.26,29.878,29.878,0,0,1,.6-4.6,1.886,1.886,0,0,1,.36-.78.5.5,0,0,0,.08-.26c0-.12-.08-.2-.26-.3A5.672,5.672,0,0,0,244.86-15.58Zm6.26.12a8.327,8.327,0,0,1,.4,2.1c.12,1.48.2,3.38.2,4.76,0,2.86-.52,4.56-1.64,6.06A9.353,9.353,0,0,1,246.6.2a2.972,2.972,0,0,1,1.02.56.376.376,0,0,0,.52.04,10.26,10.26,0,0,0,3.3-2.9c1.14-1.54,1.64-3.7,1.64-6.56,0-1.42-.08-3.08-.24-5.3a3.366,3.366,0,0,1,.04-.94c.04-.2,0-.34-.3-.4A7.05,7.05,0,0,0,251.12-15.46ZM268.7-6c1.18-2.1,2.52-4.66,3.9-7.24a2.588,2.588,0,0,1,.6-.82.346.346,0,0,0-.04-.58,7.311,7.311,0,0,0-1.44-.76,8.791,8.791,0,0,1-.78,2.3c-1.38,2.94-3.5,7.16-6.08,12.2-.08.14-.08.24.04.34a3.92,3.92,0,0,0,.88.52c.18.08.28.06.36-.14A22.466,22.466,0,0,1,268.6-4.6c1-1.18,1.88-1.72,2.76-1.72,1.06,0,1.52.78,1.74,2.8.26,2.44.94,3.62,2.86,3.62a4.317,4.317,0,0,0,3.5-1.76,9.087,9.087,0,0,0,1.58-2.72c.08-.24.06-.4-.1-.52a2.561,2.561,0,0,1-.72-1.06,9.646,9.646,0,0,1-1.68,3.3,3.194,3.194,0,0,1-2.56,1.38c-1.12,0-1.44-.98-1.6-2.68-.2-2.02-.84-3.46-2.82-3.46a4.075,4.075,0,0,0-2.82,1.46Zm22.54-.08a4.161,4.161,0,0,0-.82,2.36c0,2.58,2.32,3.76,6.22,3.76a28.873,28.873,0,0,0,6.06-.52c.2-.04.28-.1.26-.26a10.065,10.065,0,0,0-.18-1.04c-.04-.16-.1-.18-.28-.14a24.88,24.88,0,0,1-5.74.58c-3.28,0-5.12-.8-5.12-2.44a3.17,3.17,0,0,1,.54-1.56c.08-.12.06-.2-.06-.26C291.84-5.76,291.52-5.94,291.24-6.08Zm.56-7.46c-.02.34-.04.76-.04,1.02,0,.2.06.26.18.28a20.862,20.862,0,0,0,4.06.36c.62,0,1.5-.02,2.16-.08a26.214,26.214,0,0,0-3.44,2,2.243,2.243,0,0,1,.82.4.454.454,0,0,0,.56-.04,13.252,13.252,0,0,1,5.18-2.28c.2-.02.28-.08.28-.3a5.8,5.8,0,0,0-.06-.9c-.02-.14-.1-.2-.28-.18-1.38.12-2.98.18-4.42.18A23.789,23.789,0,0,1,291.8-13.54Zm9.42-1.58a8.635,8.635,0,0,1,2.32,2.56.16.16,0,0,0,.26.04l.58-.48a.144.144,0,0,0,.04-.22,9.705,9.705,0,0,0-2.26-2.42.157.157,0,0,0-.22,0Zm1.76-1.34a9.553,9.553,0,0,1,2.3,2.5c.08.12.16.12.24.04l.54-.48c.1-.08.12-.14.06-.24a11.5,11.5,0,0,0-2.28-2.34c-.08-.06-.14-.04-.22.02Zm21.26,2a8.635,8.635,0,0,1,2.32,2.56.16.16,0,0,0,.26.04l.58-.48a.144.144,0,0,0,.04-.22,9.706,9.706,0,0,0-2.26-2.42c-.08-.06-.12-.08-.2-.02ZM326-15.8a9.552,9.552,0,0,1,2.3,2.5c.08.12.16.12.24.04l.54-.48c.1-.08.12-.14.06-.24a11.5,11.5,0,0,0-2.28-2.34c-.08-.06-.14-.04-.22.02Zm-9.42,5.1c-.94.14-1.72.26-2.82.38a13.547,13.547,0,0,1-2.08.1,7.612,7.612,0,0,0,.46,1.36c.12.24.3.24.52.1a2.908,2.908,0,0,1,.88-.26c1-.18,1.82-.32,2.64-.44a42.467,42.467,0,0,1-3.84,8.52c-.06.12-.08.22.04.32a5.631,5.631,0,0,0,.8.54.24.24,0,0,0,.34-.1,54.341,54.341,0,0,0,4.08-9.46,14.128,14.128,0,0,1,2.16-.22c1.08,0,1.38.56,1.38,2.12a15.111,15.111,0,0,1-.9,5.62c-.38.84-.76,1.04-1.34,1.04a5.826,5.826,0,0,1-2.32-.56,3.546,3.546,0,0,1,.24,1.2.326.326,0,0,0,.24.34,5.253,5.253,0,0,0,2.04.36,2.392,2.392,0,0,0,2.28-1.58,16.6,16.6,0,0,0,1.1-6.4c0-2.4-.86-3.28-2.6-3.28a18.408,18.408,0,0,0-1.94.14c.3-.98.56-1.92.86-2.9a1.355,1.355,0,0,1,.34-.66.3.3,0,0,0-.08-.52,8.4,8.4,0,0,0-1.56-.54,6.88,6.88,0,0,1-.18,1.92C317.06-12.44,316.84-11.64,316.58-10.7Zm7.08-.6a11.114,11.114,0,0,1,3.2,5.06c.04.2.18.22.34.12a4.469,4.469,0,0,0,.82-.54c.12-.1.1-.2.06-.34a11.4,11.4,0,0,0-3.22-4.84.255.255,0,0,0-.3-.08A9,9,0,0,0,323.66-11.3Zm26.1,4.96c1.88,0,2.5.04,2.62.04.14,0,.16-.02.16-.16v-.86c0-.14-.02-.16-.16-.16-.12,0-.74.04-2.62.04h-9.88V-9.18h7c1.92,0,2.52.04,2.64.04.14,0,.16-.02.16-.16v-.82c0-.14-.02-.16-.16-.16-.12,0-.72.04-2.64.04h-7v-1.54h7c1.92,0,2.54.04,2.66.04.14,0,.16-.02.16-.16v-.82c0-.14-.02-.16-.16-.16-.12,0-.74.04-2.66.04h-7V-14.5h7.84c2,0,2.66.04,2.78.04.14,0,.16-.02.16-.16v-.86c0-.14-.02-.16-.16-.16-.12,0-.78.04-2.78.04h-6.14c-1.98,0-2.7-.04-2.78-.04-.14,0-.16.02-.16.16,0,.1.04.72.04,2.24v5.8h-.88c-1.86,0-2.5-.04-2.6-.04-.14,0-.16.02-.16.16v.86c0,.14.02.16.16.16.1,0,.74-.04,2.6-.04h.88V-.62l-1.12.28c-.76.18-1.34.28-2.14.4a8.376,8.376,0,0,0,.44,1.18c.08.14.12.18.2.18.1,0,.14-.06.22-.12a2.5,2.5,0,0,1,.76-.3,62.182,62.182,0,0,0,6.5-1.98c.38-.14.42-.16.42-.56a3.167,3.167,0,0,1,.06-.74c-1.54.56-2.82.96-4.14,1.34v-5.4h2.46c1.58,3.74,5,6.2,9.46,7.4.38.1.42.08.62-.3a2.951,2.951,0,0,1,.54-.74A17.2,17.2,0,0,1,347-2.4a26.919,26.919,0,0,0,2.54-1.84,1.808,1.808,0,0,1,.66-.38c.16-.04.24-.1.24-.2,0-.08-.04-.14-.14-.24a9.362,9.362,0,0,0-1-.72,3,3,0,0,1-.56.74,22.1,22.1,0,0,1-2.54,2.02,9.5,9.5,0,0,1-2.66-3.32Zm20.04-9.48a4.694,4.694,0,0,1-.88,1.24c-1.78,1.8-3.96,3.92-5.58,5.64a1.85,1.85,0,0,0-.7,1.3,1.565,1.565,0,0,0,.78,1.26A53.22,53.22,0,0,1,370.96.4c.14.18.22.16.38.04a9.042,9.042,0,0,0,.76-.76c.16-.2.12-.24-.02-.4a64.557,64.557,0,0,0-7.72-6.6c-.18-.12-.26-.22-.26-.36a.754.754,0,0,1,.28-.5c1.5-1.6,3.94-3.86,5.9-5.64a2.4,2.4,0,0,1,.74-.52.3.3,0,0,0,.2-.26.422.422,0,0,0-.14-.26A9.244,9.244,0,0,0,369.8-15.82Zm27.7,8.38c1.98,0,2.62.04,2.74.04.14,0,.16-.02.16-.18v-.8c0-.14-.02-.16-.16-.16-.12,0-.76.04-2.74.04h-2.6v-3.22h1.82c1.84,0,2.46.04,2.56.04.14,0,.16-.02.16-.16v-.82c0-.14-.02-.16-.16-.16-.1,0-.72.04-2.56.04H394.9V-14a6.676,6.676,0,0,1,.12-1.86,1.066,1.066,0,0,0,.14-.4c0-.08-.12-.16-.28-.18-.38-.04-.78-.08-1.28-.1a12.558,12.558,0,0,1,.14,2.56v1.2h-1.28c-1.84,0-2.46-.04-2.58-.04-.14,0-.16.02-.16.16v.82c0,.14.02.16.16.16.12,0,.74-.04,2.58-.04h1.28V-8.5h-1.8c-1.98,0-2.62-.04-2.74-.04-.14,0-.14.02-.14.16v.8c0,.16,0,.18.14.18.12,0,.76-.04,2.74-.04h1.38a16.959,16.959,0,0,1-6.78,6.34,2.35,2.35,0,0,1,.64.62c.14.2.2.28.3.28.06,0,.14-.06.28-.14a17.137,17.137,0,0,0,6.04-6.22c-.04,3.74-.12,7.46-.12,7.78,0,.14.02.16.16.16h.96c.14,0,.16-.02.16-.16,0-.32-.1-4.06-.12-7.92a18.3,18.3,0,0,0,5.38,6.08c.14.1.22.16.28.16.08,0,.14-.08.24-.28a2.71,2.71,0,0,1,.56-.8,17.074,17.074,0,0,1-6.06-5.9Zm-9.18-3.84c0-2.16.04-2.78.04-2.88,0-.14-.02-.16-.16-.16s-.42.04-1.52.04h-1.5c-1.12,0-1.44-.04-1.54-.04-.14,0-.16.02-.16.16,0,.12.04.78.04,3.44v2.8c0,3.92-.04,4.54-.04,4.66,0,.14.02.16.16.16h.86c.14,0,.16-.02.16-.16V-5.2h2.54V-4c0,.14.02.16.16.16h.84c.14,0,.16-.02.16-.16,0-.1-.04-.7-.04-4.36ZM387.2-6.3h-2.54v-6.9h2.54Zm24.68-9.68a6.766,6.766,0,0,1,.16,1.76c-.04,1.18-.04,1.92-.08,2.7-1.16.34-1.96.54-2.82.78a8.134,8.134,0,0,1-1.32.2,7.889,7.889,0,0,0,.56,1.1c.14.18.22.28.34.26.16-.02.4-.26.84-.42.68-.24,1.6-.54,2.38-.76,0,.48-.04,1.1-.06,1.76-1.52,2.14-2.96,4.06-4.46,5.86-.1.12-.12.22-.02.32a8.42,8.42,0,0,0,.74.72c.12.08.22.06.34-.08,1.12-1.58,2.2-3.16,3.4-4.84-.02,2.66-.04,4.78-.08,7.24,0,.14.04.18.16.18.36,0,.88-.02,1.06-.04.1-.02.16-.06.16-.18-.04-2.62-.08-5.1-.06-7.64,2.16-1.96,4.06-2.78,6.06-2.78a3.2,3.2,0,0,1,3.34,3.5A4.329,4.329,0,0,1,421.3-3.3a8.328,8.328,0,0,1-4.18,2.22,3.092,3.092,0,0,1,.96.72.45.45,0,0,0,.58.14c3.64-1.08,5.3-3.58,5.3-6.04a4.481,4.481,0,0,0-4.76-4.72,9.343,9.343,0,0,0-6.08,2.56c0-.36,0-.68.02-1.12a11.081,11.081,0,0,1,.98-1.44c.18-.2.26-.3.26-.42a.743.743,0,0,0-.26-.44c-.18-.18-.3-.26-.38-.26a.216.216,0,0,0-.14.06,1.173,1.173,0,0,1-.32.16c.04-.96.1-1.66.14-2.56a2.978,2.978,0,0,1,.18-.78c.1-.24.08-.42-.14-.5A7.419,7.419,0,0,0,411.88-15.98Zm25.44-.12a10.916,10.916,0,0,0-.4,1.08.193.193,0,0,0,.12.26,28.012,28.012,0,0,0,5.08,1.64.229.229,0,0,0,.26-.14,7.113,7.113,0,0,0,.3-.92c.04-.2.02-.26-.16-.3A32.417,32.417,0,0,1,437.32-16.1Zm-3.8,6.16a8.471,8.471,0,0,0,.52,1.38c.08.16.16.24.26.24a.755.755,0,0,0,.36-.1,5.159,5.159,0,0,1,.82-.28c1.7-.36,3.38-.7,5.52-1.14-1.96,2.12-3.44,3.76-4.7,5.08-.9.92-2.34,2.4-3.82,3.9a.257.257,0,0,0-.04.36,9.13,9.13,0,0,0,.78.7.241.241,0,0,0,.32-.02c.9-1.06,2.08-2.46,3.1-3.44a3.468,3.468,0,0,1,2.26-1.16c.92,0,1.26.76,1.54,2.18.4,2,1.28,2.64,4.16,2.64a17.089,17.089,0,0,0,2.86-.26c.18-.02.26-.08.26-.22a6.685,6.685,0,0,0-.08-.98c-.02-.18-.08-.24-.24-.2a16.509,16.509,0,0,1-2.96.3c-2.16,0-2.54-.3-2.92-2.18-.28-1.44-1.08-2.22-2.12-2.22a2.694,2.694,0,0,0-1.18.28c1.42-1.5,2.78-2.96,4.22-4.42a3,3,0,0,1,.7-.52.364.364,0,0,0,.22-.32.5.5,0,0,0-.14-.3,5.465,5.465,0,0,0-.74-.64c-.1-.06-.14-.1-.22-.1a.349.349,0,0,0-.24.08,2.1,2.1,0,0,1-.62.24c-.92.22-2.12.46-3.72.72A23.218,23.218,0,0,1,433.52-9.94ZM461.2-7.56c2-2.04,3.34-3.44,5.12-5.32a2.169,2.169,0,0,1,.94-.7.414.414,0,0,0,.3-.38.54.54,0,0,0-.14-.34,4.927,4.927,0,0,0-.86-.84.6.6,0,0,0-.36-.16.616.616,0,0,0-.28.14,2.088,2.088,0,0,1-.62.18c-1.76.34-3.4.56-4.98.72a7.455,7.455,0,0,1-1.76-.02,6.328,6.328,0,0,0,.48,1.38.354.354,0,0,0,.32.24,1.189,1.189,0,0,0,.38-.1,3.246,3.246,0,0,1,.7-.18c1.78-.34,3.34-.64,5-.9-1.54,1.82-2.74,3.1-3.9,4.36a54.459,54.459,0,0,1-4.52,4.46c-.14.12-.16.2-.08.3a9.224,9.224,0,0,0,.74.8c.14.14.24.12.4-.04a19.223,19.223,0,0,1,1.76-1.64,9.214,9.214,0,0,1,5.5-2.26,3.241,3.241,0,0,1,3.46,3.28,3.689,3.689,0,0,1-2.92,3.64,3.386,3.386,0,0,0-3.4-2.86,2.181,2.181,0,0,0-2.34,2.04c0,1.28,1.08,2.36,3.48,2.36,4.24,0,6.6-2.16,6.6-5.14,0-2.6-1.78-4.38-4.66-4.38a7.808,7.808,0,0,0-4.3,1.42Zm3.46,6.9a7.256,7.256,0,0,1-1.3.1c-1.34,0-2.06-.56-2.06-1.22,0-.62.58-.94,1.22-.94A2.32,2.32,0,0,1,464.66-.66Z" transform="translate(745 2057)" fill="#653333"/></g></g></svg>