<svg xmlns="http://www.w3.org/2000/svg" width="745" height="429" viewBox="0 0 745 429"><g transform="translate(-825 -1194)"><g transform="translate(825 1194)" fill="#fefdf9" stroke="#653333" stroke-width="1" opacity="0.805"><rect width="745" height="429" rx="10" stroke="none"/><rect x="0.5" y="0.5" width="744" height="428" rx="9.5" fill="none"/></g><path d="M9.528-17.28a16.858,16.858,0,0,1,5.04,2.688c.192.144.264.144.408-.048a9.851,9.851,0,0,0,.624-1.032.278.278,0,0,0-.1-.384,17.381,17.381,0,0,0-4.9-2.5.266.266,0,0,0-.336.1A12.562,12.562,0,0,0,9.528-17.28ZM8.4-2.184a3.438,3.438,0,0,1,.408,1.56c0,.144.048.24.264.312a8.513,8.513,0,0,0,3.048.48c2.256,0,3.72-1.344,3.72-3.192,0-1.488-.744-2.64-2.64-4.152-1.608-1.3-2.064-1.92-2.064-2.568a2.878,2.878,0,0,1,1.008-1.968c.1-.1.12-.192.024-.288a4.433,4.433,0,0,0-1.056-.816A4.474,4.474,0,0,0,9.624-9.672c0,.936.456,1.824,2.16,3.288,1.752,1.512,2.328,2.136,2.328,3.168,0,1.248-.816,1.8-2.208,1.8A8.141,8.141,0,0,1,8.4-2.184ZM7.008-5.112A8.724,8.724,0,0,1,5.544-3.384,1.674,1.674,0,0,1,4.512-3C4.08-3,3.384-3.5,2.784-5.328c-.048-.144-.144-.168-.264-.1a6.182,6.182,0,0,0-.864.744c-.072.072-.1.12-.048.288.72,2.424,1.92,3.1,2.928,3.1a3.022,3.022,0,0,0,1.7-.672A7.113,7.113,0,0,0,7.512-3.336a.443.443,0,0,0,.12-.336.445.445,0,0,0-.1-.24A4.412,4.412,0,0,1,7.008-5.112Zm10.416-2.88A11.286,11.286,0,0,1,21-3.216c.072.144.192.216.336.144a6.67,6.67,0,0,0,1.032-.744.324.324,0,0,0,.1-.432,11.9,11.9,0,0,0-3.744-4.56c-.1-.072-.168-.048-.312.024C18.12-8.568,17.736-8.256,17.424-7.992ZM35.208-18.48a13.215,13.215,0,0,1,.192,3.624c-.12,3.384-.336,7.3-.336,10.7,0,3.528,1.464,4.824,4.176,4.824A13.357,13.357,0,0,0,48.384-3.36c.216-.192.288-.312.288-.456a1.221,1.221,0,0,0-.1-.336,5.68,5.68,0,0,1-.408-1.392C45.7-2.808,42.576-.96,39.528-.96,37.44-.96,36.7-1.7,36.7-4.632c0-3.24.144-6.432.36-10.056a13.677,13.677,0,0,1,.288-2.472,1.832,1.832,0,0,0,.192-.624c0-.168-.12-.288-.384-.36A9.535,9.535,0,0,0,35.208-18.48Zm8.544,2.688a10.362,10.362,0,0,1,2.784,3.072.192.192,0,0,0,.312.048l.7-.576a.173.173,0,0,0,.048-.264,11.647,11.647,0,0,0-2.712-2.9c-.1-.072-.144-.1-.24-.024ZM45.864-17.4a11.463,11.463,0,0,1,2.76,3c.1.144.192.144.288.048l.648-.576c.12-.1.144-.168.072-.288A13.794,13.794,0,0,0,46.9-18.024c-.1-.072-.168-.048-.264.024Zm25.1,2.256A6,6,0,0,1,77.16-9.072c0,4.008-2.736,6.576-7.488,7.512a2.79,2.79,0,0,1,.936.888.475.475,0,0,0,.624.264c5.208-1.32,7.632-4.464,7.632-8.376,0-4.584-3.192-7.728-8.568-7.728a10.233,10.233,0,0,0-7.2,2.664,8.716,8.716,0,0,0-2.784,6.216c0,3.48,1.7,5.448,3.5,5.448,1.416,0,2.5-.72,3.528-2.472a26.792,26.792,0,0,0,3.168-10.488Zm-2.136.1a25.484,25.484,0,0,1-2.808,9.384c-.7,1.224-1.416,1.752-2.232,1.752-.864,0-1.944-1.128-1.944-3.744a7.441,7.441,0,0,1,2.3-5.184A8.086,8.086,0,0,1,68.832-15.048Zm34.32,4.632c1.536,0,2.9.048,4.3.1.216,0,.312-.072.312-.312V-11.64c0-.288-.048-.384-.264-.384-1.488.1-2.712.12-4.368.12H92.736c-1.344,0-2.544-.024-3.936-.12a13.009,13.009,0,0,0,.144,1.392c.048.288.072.384.336.36,1.008-.072,2.256-.144,3.456-.144h4.9a12.192,12.192,0,0,1-1.248,5.784A9.814,9.814,0,0,1,91.68-.24a4.625,4.625,0,0,1,1.344.792c.216.216.432.12.744-.072a10.859,10.859,0,0,0,4.248-4.512,13.791,13.791,0,0,0,1.44-6.384Zm-3.36-5.3c1.248,0,2.736,0,4.032.048.24,0,.288-.048.288-.336a6.406,6.406,0,0,0,0-.96c0-.24-.048-.336-.264-.312-1.272.072-2.784.072-4.056.072h-4.2c-1.08,0-2.448-.024-3.864-.12.024.456.072,1.008.12,1.392.024.24.072.336.312.312,1.176-.072,2.376-.1,3.432-.1Zm4.536-3.144a12.2,12.2,0,0,1,2.4,3.312.2.2,0,0,0,.312.072l.744-.5a.2.2,0,0,0,.072-.264,12.239,12.239,0,0,0-2.352-3.144c-.1-.072-.168-.1-.24-.048Zm2.256-1.32a11.957,11.957,0,0,1,2.4,3.24c.072.144.144.168.264.072l.7-.528c.12-.1.168-.144.1-.264a11.731,11.731,0,0,0-2.376-3.048.188.188,0,0,0-.264,0ZM129.816-8.04c1.608,0,3.384,0,5.184.048.288.024.36-.024.36-.288a10.822,10.822,0,0,0,0-1.248c0-.264-.072-.312-.36-.288-1.824.048-3.6.072-5.256.072h-7.368a43.834,43.834,0,0,1-5.3-.216,14.186,14.186,0,0,0,.24,1.824c.072.24.192.336.408.336a19.633,19.633,0,0,1,3.24-.24Zm24.5-7.44c.384-.576.6-.936.864-1.392a2.8,2.8,0,0,1,.7-.816c.264-.192.336-.48.048-.672a6.55,6.55,0,0,0-1.7-.816,8.339,8.339,0,0,1-.96,2.376A24.751,24.751,0,0,1,146.4-9.048a4.415,4.415,0,0,1,1.152.672c.216.168.384.12.624-.072a27.242,27.242,0,0,0,5.232-5.568l7.08-.144a26.566,26.566,0,0,1-3.5,5.976,32.229,32.229,0,0,0-3.576-2.256.267.267,0,0,0-.384.072,6.508,6.508,0,0,0-.84.96,25.615,25.615,0,0,1,3.768,2.448,28.432,28.432,0,0,1-9.024,6.744,4.361,4.361,0,0,1,1.344.768c.216.216.384.168.648.024a29.256,29.256,0,0,0,8.328-6.552,25.319,25.319,0,0,1,2.688,2.64c.12.144.192.168.384.024a3.2,3.2,0,0,0,.792-.816c.1-.168.168-.288.024-.432a26.362,26.362,0,0,0-2.88-2.64,34.367,34.367,0,0,0,3.816-6.36,1.845,1.845,0,0,1,.576-.72.411.411,0,0,0,.1-.648,5.45,5.45,0,0,0-1.032-.96.481.481,0,0,0-.648.048c-.192.168-.456.24-1.272.264Z" transform="translate(1147 1301)" fill="#653333"/><path d="M0,0H221.573" transform="translate(1119.5 1318.93)" fill="none" stroke="#3e0000" stroke-width="0.7"/><path d="M12.864-5.664c1.5,0,2,.032,2.08.032.112,0,.128-.016.128-.128V-6.4c0-.112-.016-.128-.128-.128-.08,0-.576.032-2.08.032H8.352V-8.16h2.512c1.616,0,2.16.032,2.256.032.112,0,.128-.016.128-.128V-8.88c0-.112-.016-.128-.128-.128-.1,0-.64.032-2.256.032H8.352v-1.552h3.072c1.616,0,2.16.032,2.256.032.112,0,.128-.016.128-.128v-.64c0-.112-.016-.128-.128-.128-.1,0-.64.032-2.256.032H8.352v-.32a2.891,2.891,0,0,1,.1-1.1.682.682,0,0,0,.1-.288c0-.064-.048-.128-.192-.144a10.263,10.263,0,0,0-1.072-.1,7.033,7.033,0,0,1,.112,1.632v.32H4.544c-1.616,0-2.144-.032-2.224-.032-.128,0-.144.016-.144.128v.64c0,.112.016.128.144.128.08,0,.608-.032,2.224-.032H7.392v1.552H5.216c-1.616,0-2.16-.032-2.24-.032-.128,0-.144.016-.144.128v.624c0,.112.016.128.144.128.08,0,.624-.032,2.24-.032H7.392V-6.5H3.136c-1.5,0-1.984-.032-2.08-.032-.112,0-.128.016-.128.128v.64c0,.112.016.128.128.128.1,0,.576-.032,2.08-.032H6.56A14.238,14.238,0,0,1,.736-2.432a2.055,2.055,0,0,1,.448.512c.16.3.16.3.448.192a17.618,17.618,0,0,0,3.44-1.7V-.256l-.816.144A14.679,14.679,0,0,1,2.464.1c.08.3.176.624.288.928a.2.2,0,0,0,.192.144.277.277,0,0,0,.192-.08A1.888,1.888,0,0,1,3.792.9,52.17,52.17,0,0,0,9.36-.5c.32-.1.32-.1.336-.416a2.148,2.148,0,0,1,.064-.56A37.158,37.158,0,0,1,6-.448V-4.064a13,13,0,0,0,1.76-1.6h.16A10.628,10.628,0,0,0,14.464.784a.806.806,0,0,0,.24.08c.08,0,.112-.064.224-.24A2.637,2.637,0,0,1,15.456,0,9.914,9.914,0,0,1,11.04-2.432a19.954,19.954,0,0,0,1.856-1.5,1.378,1.378,0,0,1,.528-.352c.128-.048.192-.1.192-.192,0-.064-.064-.128-.128-.176a6.646,6.646,0,0,0-.784-.56,2.272,2.272,0,0,1-.432.624A15.152,15.152,0,0,1,10.48-3.024a8.9,8.9,0,0,1-1.616-2.64ZM28.1-7.024V-9.968h4.192a9.614,9.614,0,0,1-1.12,1.84,2.469,2.469,0,0,1,.592.224c.128.064.192.112.256.112s.112-.064.192-.192A14.091,14.091,0,0,0,33.2-9.7a.877.877,0,0,1,.288-.384c.08-.064.112-.112.112-.176,0-.1-.08-.224-.3-.416-.208-.192-.336-.288-.448-.288a.415.415,0,0,0-.16.064.773.773,0,0,1-.336.048H28.1v-.368a5.267,5.267,0,0,1,.08-1.408.966.966,0,0,0,.1-.352c0-.064-.08-.112-.192-.128a9.561,9.561,0,0,0-1.056-.1,9.853,9.853,0,0,1,.112,1.984v.368h-2.5c-1.6,0-2.272-.032-2.368-.032-.112,0-.128.016-.128.128,0,.08.032.784.032,2.4a29.9,29.9,0,0,1-.288,4.576A7.642,7.642,0,0,1,19.9.24,2.146,2.146,0,0,1,20.5.7c.1.1.16.16.208.16.064,0,.112-.064.208-.176a9.394,9.394,0,0,0,1.92-4.256,22.938,22.938,0,0,0,.24-2.576h1.552a11.715,11.715,0,0,0,2.72,3.984A14.983,14.983,0,0,1,22.352.272,1.813,1.813,0,0,1,22.8.864c.08.176.1.256.192.256a1.364,1.364,0,0,0,.24-.064A15.808,15.808,0,0,0,28.08-1.536a15.444,15.444,0,0,0,5.408,2.56.8.8,0,0,0,.224.048c.112,0,.144-.08.224-.272a2.436,2.436,0,0,1,.432-.672,15.013,15.013,0,0,1-5.552-2.3A15,15,0,0,0,31.6-5.808a1,1,0,0,1,.3-.4c.1-.064.128-.112.128-.192s-.1-.208-.32-.432c-.24-.208-.32-.272-.448-.272a.467.467,0,0,0-.144.032.862.862,0,0,1-.352.048Zm-.96,0H23.12c.016-.432.016-.848.016-1.216V-9.968h4Zm3.552.88A12.624,12.624,0,0,1,28.08-2.768,9.364,9.364,0,0,1,25.6-6.144ZM48.928-3.52a8.559,8.559,0,0,0-1.68-.176c-1.36,0-2.464.72-2.464,1.9,0,1.168.992,1.824,2.5,1.824,1.808,0,2.608-.752,2.672-2.16a10.422,10.422,0,0,1,2.24,1.472c.064.064.128.08.192-.016a2.983,2.983,0,0,0,.432-.7c.048-.112.048-.144-.032-.208a11.423,11.423,0,0,0-2.816-1.648c-.08-1.44-.128-2.96-.144-4.832a20.169,20.169,0,0,0,2.64-.384c.064-.016.112-.08.112-.192a4.13,4.13,0,0,0-.064-.64c-.016-.112-.032-.144-.16-.112-.832.16-1.7.288-2.528.368,0-.656,0-1.216.032-1.776a2.231,2.231,0,0,1,.128-.768.438.438,0,0,0,.064-.224c0-.08-.064-.144-.176-.192a5.329,5.329,0,0,0-1.232-.224,5.879,5.879,0,0,1,.16,1.424c0,.64-.016,1.248-.016,1.84a27.01,27.01,0,0,1-3.776,0,6.551,6.551,0,0,0,.064.848c.016.128.08.144.176.144a29.359,29.359,0,0,0,3.568-.016C48.816-6.32,48.864-4.848,48.928-3.52Zm0,1.28c0,.848-.56,1.36-1.7,1.36-.96,0-1.536-.336-1.536-.912,0-.656.592-1.024,1.488-1.024a6.262,6.262,0,0,1,1.744.272Zm-7.376-9.888a6.785,6.785,0,0,1-.08,1.584,36.066,36.066,0,0,0-.688,6A13.8,13.8,0,0,0,41.392.128c.048.128.1.16.208.128a4.251,4.251,0,0,0,.72-.208A.153.153,0,0,0,42.4-.16a2.778,2.778,0,0,1,.016-.72,13.873,13.873,0,0,1,.96-2.528.289.289,0,0,0-.016-.352,2.451,2.451,0,0,1-.368-.656c-.416.944-.784,1.744-1.12,2.608a20.738,20.738,0,0,1-.112-2.768,31.559,31.559,0,0,1,.768-5.9,2.573,2.573,0,0,1,.256-.8.27.27,0,0,0-.1-.432A4.036,4.036,0,0,0,41.552-12.128ZM67.536-4.08H70.5c1.136,0,1.568.032,1.648.032.112,0,.128-.016.128-.128,0-.08-.032-.416-.032-1.344V-7.04c0-.944.032-1.264.032-1.344,0-.112-.016-.128-.128-.128-.08,0-.512.032-1.648.032h-.48c.464-.688.928-1.488,1.2-2a1.32,1.32,0,0,1,.272-.384c.112-.1.192-.128.192-.24s-.064-.192-.272-.416c-.176-.192-.3-.256-.368-.256a.27.27,0,0,0-.16.048.559.559,0,0,1-.336.064H68.688c.048-.112.112-.224.16-.352a1.555,1.555,0,0,1,.352-.592.279.279,0,0,0,.112-.224c0-.064-.064-.112-.16-.144a5.733,5.733,0,0,0-.864-.208A4.272,4.272,0,0,1,68-12.144a10.4,10.4,0,0,1-2.24,3.52,1.62,1.62,0,0,1,.432.336c.112.112.176.16.224.16.064,0,.128-.048.208-.16l.064-.08c0,.1.032.432.032,1.312v5.472c0,1.3.112,1.728.464,2,.384.288.912.4,2.5.4a4.583,4.583,0,0,0,2.608-.48c.416-.336.592-.88.688-1.92.016-.288.016-.288-.24-.4a3.548,3.548,0,0,1-.592-.336C72.08-1.136,71.968-.64,71.68-.4a3.4,3.4,0,0,1-2.016.384c-1.2,0-1.68-.08-1.888-.3-.192-.192-.24-.48-.24-1.424Zm2.88-6.816a16.91,16.91,0,0,1-1.36,2.416h-.512c-1.184,0-1.648-.032-1.744-.032A12.832,12.832,0,0,0,68.336-10.9ZM71.44-4.848H69.856v-2.88H71.44Zm-2.368,0H67.536v-2.88h1.536ZM65.6-10.368c0-.928.032-1.232.032-1.328,0-.112-.016-.128-.128-.128-.1,0-.544.032-1.872.032v-.352a1.474,1.474,0,0,1,.064-.624.682.682,0,0,0,.1-.288c0-.048-.064-.1-.176-.112-.24-.032-.512-.064-.816-.08a3.848,3.848,0,0,1,.112,1.072v.384H61.744v-.3a2.6,2.6,0,0,1,.064-.672c.032-.112.1-.176.1-.288,0-.048-.064-.1-.176-.112a7.788,7.788,0,0,0-.816-.08,4.532,4.532,0,0,1,.112,1.264v.192c-1.312,0-1.728-.032-1.824-.032-.112,0-.128.016-.128.128,0,.1.032.4.032,1.328v1.5c0,.9-.032,1.216-.032,1.3,0,.112.016.128.128.128.1,0,.544-.032,1.888-.032h2.528c1.344,0,1.792.032,1.888.032.112,0,.128-.016.128-.128,0-.08-.032-.4-.032-1.3ZM64.848-8.1H63.616v-1.3h1.232Zm-1.92,0h-1.2v-1.3h1.2Zm-1.888,0H59.856v-1.3H61.04Zm3.808-1.888H63.616v-1.184h1.232Zm-1.92,0h-1.2v-1.184h1.2Zm-1.888,0H59.856v-1.184H61.04Zm4.1,6c0-.64.032-.832.032-.912,0-.112-.016-.128-.128-.128-.08,0-.464.032-1.7.032H61.36c-1.216,0-1.616-.032-1.7-.032-.112,0-.128.016-.128.128,0,.1.032.272.032.912v.64c0,.64-.032.816-.032.912,0,.112.016.128.128.128.08,0,.48-.032,1.7-.032h2c1.216,0,1.6.032,1.68.032.112,0,.128-.016.128-.128,0-.08-.032-.272-.032-.912ZM64.32-2.976H60.384v-1.36H64.32Zm1.632,1.84c-.7.176-1.472.336-2.256.48.128-.224.224-.448.3-.608a.758.758,0,0,1,.192-.3.233.233,0,0,0,.112-.208c0-.064-.048-.1-.176-.144a5.825,5.825,0,0,0-.688-.224,4.561,4.561,0,0,1-.144.656,5.73,5.73,0,0,1-.4.976c-.848.144-1.7.256-2.448.336a16.307,16.307,0,0,1-1.872.128,5.273,5.273,0,0,0,.208.864c.032.08.08.144.144.144A.332.332,0,0,0,59.12.88a1.94,1.94,0,0,1,.672-.128A57.271,57.271,0,0,0,65.584-.272c.32-.064.32-.064.32-.384C65.9-.816,65.936-.976,65.952-1.136ZM66.1-6.48c0-.112-.016-.128-.128-.128-.1,0-.576.032-2.048.032H60.592c-1.472,0-1.952-.032-2.048-.032s-.112.016-.112.128V-5.9c0,.112.016.128.112.128s.576-.032,2.048-.032H63.92c1.472,0,1.952.032,2.048.032.112,0,.128-.016.128-.128Zm-5.76,4.608c-.128.048-.128.1-.08.176A5.129,5.129,0,0,1,60.8-.528c.048.128.08.128.224.08l.384-.144c.144-.064.16-.112.128-.208a5.83,5.83,0,0,0-.576-1.184c-.064-.1-.1-.112-.224-.064ZM82.528-8.256c-.128-.384-.24-.656-.416-1.2-.192-.608-.272-.848-.32-1.056a1.237,1.237,0,0,1-.048-.464c0-.144-.016-.24-.208-.24a7.3,7.3,0,0,0-1.36.144A6.18,6.18,0,0,1,80.944-9.6c.24.64.432,1.184.624,1.76-.8.336-1.344.528-1.952.768A9.919,9.919,0,0,1,78-6.608a5.669,5.669,0,0,0,.672.992.382.382,0,0,0,.272.16.4.4,0,0,0,.24-.128,3.613,3.613,0,0,1,.864-.5c.576-.256,1.12-.5,1.888-.832.944,2.576,1.68,4.832,2.5,7.472.032.1.048.112.144.1A3.048,3.048,0,0,0,85.36.368c.16-.08.16-.128.1-.288-.864-2.528-1.7-4.864-2.592-7.424.976-.416,1.968-.832,3.024-1.184a7.6,7.6,0,0,1,2.544-.464c.88,0,1.856.352,1.856,1.632,0,1.44-1.232,2.064-2.832,2.064a7.987,7.987,0,0,1-1.424-.128,2.9,2.9,0,0,1,.464.912.259.259,0,0,0,.256.16,5.789,5.789,0,0,0,.752.032c2.3,0,3.936-.976,3.936-2.96,0-1.7-1.168-2.672-3.008-2.672a9.008,9.008,0,0,0-3.04.608C84.384-9.008,83.52-8.672,82.528-8.256ZM84.4-12.048a6.626,6.626,0,0,1,1.888,1.7.144.144,0,0,0,.208.048,3.2,3.2,0,0,0,.608-.528.174.174,0,0,0,0-.24,8.235,8.235,0,0,0-1.728-1.52c-.112-.064-.144-.064-.24,0A8.35,8.35,0,0,0,84.4-12.048Zm17.168,3.392c-.752.112-1.376.208-2.256.3a10.837,10.837,0,0,1-1.664.08,6.091,6.091,0,0,0,.368,1.088c.1.192.24.192.416.08a2.326,2.326,0,0,1,.7-.208c.8-.144,1.456-.256,2.112-.352A33.973,33.973,0,0,1,98.176-.848c-.048.1-.064.176.032.256a4.506,4.506,0,0,0,.64.432.192.192,0,0,0,.272-.08,43.475,43.475,0,0,0,3.264-7.568,11.3,11.3,0,0,1,1.728-.176c.864,0,1.1.448,1.1,1.7a12.089,12.089,0,0,1-.72,4.5c-.3.672-.608.832-1.072.832a4.661,4.661,0,0,1-1.856-.448,2.837,2.837,0,0,1,.192.96.261.261,0,0,0,.192.272,4.2,4.2,0,0,0,1.632.288,1.914,1.914,0,0,0,1.824-1.264,13.368,13.368,0,0,0,.88-5.168c0-1.872-.688-2.576-2.08-2.576a14.727,14.727,0,0,0-1.552.112c.24-.784.448-1.536.688-2.32a1.084,1.084,0,0,1,.272-.528.237.237,0,0,0-.064-.416,6.719,6.719,0,0,0-1.248-.432,5.5,5.5,0,0,1-.144,1.536C101.952-10.048,101.776-9.408,101.568-8.656Zm5.744-.48a8.892,8.892,0,0,1,2.56,4.048c.032.16.144.176.272.1a3.576,3.576,0,0,0,.656-.432c.1-.08.08-.16.048-.272a9.124,9.124,0,0,0-2.576-3.872.2.2,0,0,0-.24-.064A7.2,7.2,0,0,0,107.312-9.136ZM124.944-3.2a7.939,7.939,0,0,0-1.6-.192c-1.568,0-2.72.816-2.72,2.016,0,1.328,1.264,1.952,2.48,1.952,2.064,0,2.88-.88,2.864-2.5A9.675,9.675,0,0,1,128.4-.4c.1.08.176.1.256-.016a5.092,5.092,0,0,0,.384-.7c.048-.128.064-.176-.064-.256a13.926,13.926,0,0,0-3.024-1.6,26.976,26.976,0,0,1-.192-2.944,2.467,2.467,0,0,1,.064-.752.826.826,0,0,0,.1-.288c0-.1-.064-.16-.176-.192a5.056,5.056,0,0,0-1.088-.208,4.973,4.973,0,0,1,.1,1.024C124.768-5.472,124.848-4.192,124.944-3.2Zm.016.96a2.172,2.172,0,0,1,.016.384c0,.816-.48,1.5-1.792,1.5-1.056,0-1.648-.336-1.648-1.072,0-.592.576-1.088,1.856-1.088A5.294,5.294,0,0,1,124.96-2.24Zm-3.408-7.568c.16-.56.336-1.152.512-1.728a1.45,1.45,0,0,1,.224-.5.326.326,0,0,0,.128-.24.183.183,0,0,0-.144-.176,6.7,6.7,0,0,0-1.248-.32,4.729,4.729,0,0,1-.128,1.248c-.144.672-.288,1.264-.48,1.872a20.565,20.565,0,0,1-2.176.128c-.336,0-.752-.016-1.264-.064a4.979,4.979,0,0,0,.1.8c.032.16.048.176.192.192.368.032.608.032.848.032.688,0,1.328-.048,2.016-.112A28.127,28.127,0,0,1,117.12-2.72c-.08.128-.08.192.016.272a3.7,3.7,0,0,0,.64.48c.1.064.176.08.256-.048a38.531,38.531,0,0,0,3.216-6.752c.944-.144,1.808-.288,2.672-.464.128-.016.16-.048.144-.192-.016-.208-.048-.5-.08-.688-.016-.1-.064-.128-.208-.1A21.949,21.949,0,0,1,121.552-9.808Zm4.144.864a10.773,10.773,0,0,1,3.264,1.632c.1.064.144.08.224-.032a4.166,4.166,0,0,0,.368-.64c.08-.128.08-.192-.032-.288a11.339,11.339,0,0,0-3.136-1.5c-.144-.048-.192-.032-.272.1C125.984-9.488,125.856-9.216,125.7-8.944Zm23.648,1.328c0-.112-.016-.128-.128-.128-.08,0-.592.032-2.112.032h-4.288v-2.3h2.656c1.616,0,2.176.032,2.256.032.112,0,.128-.016.128-.128V-10.8c0-.112-.016-.128-.128-.128-.08,0-.64.032-2.256.032h-2.656v-.48a5.564,5.564,0,0,1,.1-1.44.878.878,0,0,0,.08-.288c0-.064-.064-.112-.176-.128a9.8,9.8,0,0,0-1.1-.1,10.188,10.188,0,0,1,.112,2v.432h-2.4c-1.616,0-2.176-.032-2.272-.032-.112,0-.128.016-.128.128v.688c0,.112.016.128.128.128.1,0,.656-.032,2.272-.032h2.4v2.3H137.76c-1.52,0-2.016-.032-2.112-.032-.112,0-.128.016-.128.128v.688c0,.112.016.128.128.128.1,0,.592-.032,2.112-.032H140.5c-.048,4.256-1.184,5.856-4.368,7.2a1.848,1.848,0,0,1,.528.48c.128.16.176.224.256.224a.7.7,0,0,0,.24-.1c3.1-1.536,4.256-3.376,4.32-7.808h1.968V-.768c0,.48-.16.672-.72.672a15.127,15.127,0,0,1-1.536-.08,2.272,2.272,0,0,1,.3.72c.08.32.112.32.416.32a4.184,4.184,0,0,0,2.032-.256,1.169,1.169,0,0,0,.5-1.12c0-.32-.016-.912-.016-1.648V-6.832H147.1c1.52,0,2.032.032,2.112.032.112,0,.128-.016.128-.128Zm-3.1,2.08c-.224.1-.24.128-.192.24a15.425,15.425,0,0,0,2.208,3.648c.112.128.16.208.208.208s.1-.064.208-.192a2.67,2.67,0,0,1,.608-.464,12.143,12.143,0,0,1-2.4-3.584c-.032-.08-.064-.1-.208-.032Zm-7.472.256a.224.224,0,0,0-.144-.176,6.953,6.953,0,0,0-.9-.32,4.093,4.093,0,0,1-.4,1.184A7.691,7.691,0,0,1,135.6-2.256a1.97,1.97,0,0,1,.592.32c.128.1.192.16.24.16.064,0,.112-.064.224-.192a9.731,9.731,0,0,0,1.712-2.64,1.019,1.019,0,0,1,.24-.416A.383.383,0,0,0,138.768-5.28Zm17.888,2.224A2.247,2.247,0,0,0,154.4-.832a2.247,2.247,0,0,0,2.256,2.224,2.247,2.247,0,0,0,2.256-2.224A2.247,2.247,0,0,0,156.656-3.056Zm0,.8A1.417,1.417,0,0,1,158.08-.832,1.417,1.417,0,0,1,156.656.592a1.427,1.427,0,0,1-1.424-1.424A1.427,1.427,0,0,1,156.656-2.256ZM185.632-4.08c1.5,0,2,.032,2.08.032.112,0,.128-.016.128-.144v-.672c0-.112-.016-.112-.128-.112-.08,0-.576.032-2.08.032h-4.48V-6.416h2.176c1.584,0,2.144.032,2.24.032.112,0,.128-.016.128-.128,0-.08-.032-.48-.032-1.584V-10.7c0-1.1.032-1.5.032-1.6,0-.112-.016-.128-.128-.128-.1,0-.656.032-2.24.032h-5.056c-1.568,0-2.144-.032-2.224-.032-.112,0-.128.016-.128.128,0,.1.032.5.032,1.6V-8.1c0,1.1-.032,1.5-.032,1.584,0,.112.016.128.128.128.08,0,.656-.032,2.224-.032h1.936v1.472h-4.176c-1.5,0-2-.032-2.08-.032-.112,0-.128,0-.128.112v.672c0,.128.016.144.128.144.08,0,.576-.032,2.08-.032h3.536a13.235,13.235,0,0,1-6,3.792,1.959,1.959,0,0,1,.48.544c.16.256.16.272.464.16A12.489,12.489,0,0,0,180.256-3.7c-.016,2.448-.112,4.352-.112,4.736,0,.112.016.128.144.128h.784c.112,0,.128-.016.128-.128,0-.384-.1-2.32-.1-4.784a12.8,12.8,0,0,0,6.048,4.08c.288.112.32.112.464-.176a2.126,2.126,0,0,1,.464-.64,13.773,13.773,0,0,1-6.32-3.6Zm-.912-3.152h-3.568V-9.04h3.568Zm0-2.608h-3.568v-1.744h3.568Zm-4.512,2.608H176.9V-9.04h3.312Zm0-2.608H176.9v-1.744h3.312Zm26.08,1.984c0-1.792.032-2.592.032-2.672,0-.112-.016-.128-.128-.128-.08,0-.64.032-2.224.032h-3.616c.064-.416.112-.848.144-1.328a2.072,2.072,0,0,1,.128-.784.521.521,0,0,0,.064-.224c0-.08-.1-.128-.256-.16a9.241,9.241,0,0,0-.928-.112,10.548,10.548,0,0,1,.032,1.792c-.016.288-.048.56-.08.816h-3.3c-1.584,0-2.128-.032-2.224-.032-.112,0-.128.016-.128.128,0,.08.032.8.032,2.592v6.272c0,1.792-.032,2.5-.032,2.576,0,.112.016.128.128.128h.784c.1,0,.112-.016.112-.128,0-.08-.032-.8-.032-2.464V-9.776h4.448c-.5,1.584-1.712,2.8-3.968,3.68a1.834,1.834,0,0,1,.5.544c.1.144.128.208.208.208a.639.639,0,0,0,.256-.1,7.017,7.017,0,0,0,3.728-3.68,7.739,7.739,0,0,0,3.824,3.6.686.686,0,0,0,.24.08c.064,0,.112-.064.192-.256a1.932,1.932,0,0,1,.432-.608,6.965,6.965,0,0,1-4.16-3.472h4.832V-.72c0,.464-.192.64-.624.64a12.843,12.843,0,0,1-1.536-.08,2.369,2.369,0,0,1,.3.752c.08.3.08.3.4.3,1.264,0,1.792-.1,2.048-.3a1.232,1.232,0,0,0,.4-1.056c0-.512-.032-1.28-.032-2.56Zm-1.808,5.7a6.708,6.708,0,0,1-4.144-3.552,3.645,3.645,0,0,1,.224-.832.377.377,0,0,0,.08-.208c0-.08-.048-.144-.224-.176a5.942,5.942,0,0,0-.88-.144,6.317,6.317,0,0,1-.192,1.584c-.352,1.472-1.552,2.768-4.016,3.616a1.956,1.956,0,0,1,.544.544c.1.144.144.208.224.208a.639.639,0,0,0,.256-.1,6.472,6.472,0,0,0,3.664-3.392A7.746,7.746,0,0,0,203.6-1.392a.557.557,0,0,0,.224.1c.08,0,.112-.064.192-.256A1.805,1.805,0,0,1,204.48-2.16Zm17.248-1.36a8.559,8.559,0,0,0-1.68-.176c-1.36,0-2.464.72-2.464,1.9,0,1.168.992,1.824,2.5,1.824,1.808,0,2.608-.752,2.672-2.16a10.422,10.422,0,0,1,2.24,1.472c.064.064.128.08.192-.016a2.983,2.983,0,0,0,.432-.7c.048-.112.048-.144-.032-.208a11.423,11.423,0,0,0-2.816-1.648c-.08-1.44-.128-2.96-.144-4.832a20.169,20.169,0,0,0,2.64-.384c.064-.016.112-.08.112-.192a4.13,4.13,0,0,0-.064-.64c-.016-.112-.032-.144-.16-.112-.832.16-1.7.288-2.528.368,0-.656,0-1.216.032-1.776a2.231,2.231,0,0,1,.128-.768.437.437,0,0,0,.064-.224c0-.08-.064-.144-.176-.192a5.329,5.329,0,0,0-1.232-.224,5.879,5.879,0,0,1,.16,1.424c0,.64-.016,1.248-.016,1.84a27.01,27.01,0,0,1-3.776,0,6.552,6.552,0,0,0,.064.848c.016.128.08.144.176.144a29.359,29.359,0,0,0,3.568-.016C221.616-6.32,221.664-4.848,221.728-3.52Zm0,1.28c0,.848-.56,1.36-1.7,1.36-.96,0-1.536-.336-1.536-.912,0-.656.592-1.024,1.488-1.024a6.262,6.262,0,0,1,1.744.272Zm-7.376-9.888a6.785,6.785,0,0,1-.08,1.584,36.066,36.066,0,0,0-.688,6,13.8,13.8,0,0,0,.608,4.672c.048.128.1.16.208.128a4.251,4.251,0,0,0,.72-.208.153.153,0,0,0,.08-.208,2.778,2.778,0,0,1,.016-.72,13.873,13.873,0,0,1,.96-2.528.289.289,0,0,0-.016-.352,2.451,2.451,0,0,1-.368-.656c-.416.944-.784,1.744-1.12,2.608a20.737,20.737,0,0,1-.112-2.768,31.558,31.558,0,0,1,.768-5.9,2.572,2.572,0,0,1,.256-.8.27.27,0,0,0-.1-.432A4.036,4.036,0,0,0,214.352-12.128ZM245.68.128a7.7,7.7,0,0,1-3.472-1.76A6,6,0,0,1,240.336-4.8c.032-.208.048-.432.08-.72a2.545,2.545,0,0,1,.048-.656.82.82,0,0,0,.112-.288c0-.1-.08-.144-.208-.176-.288-.048-.624-.1-.992-.128a7.848,7.848,0,0,1,.064,1.216A5.817,5.817,0,0,1,238.368-2.1c-.928,1.232-2.3,1.824-4.24,2.288a1.8,1.8,0,0,1,.464.576c.16.288.176.272.48.176a7.317,7.317,0,0,0,3.856-2.272,5.839,5.839,0,0,0,1.056-2.144,7.2,7.2,0,0,0,1.728,2.656,8.586,8.586,0,0,0,3.12,1.808c.3.1.3.1.432-.208A2.2,2.2,0,0,1,245.68.128Zm-.208-6.688a7.692,7.692,0,0,1-3.3-1.648,5.426,5.426,0,0,1-1.824-3.072,5.817,5.817,0,0,0,.064-.624,3.247,3.247,0,0,1,.048-.64.888.888,0,0,0,.112-.3c0-.1-.08-.16-.208-.176-.32-.048-.624-.08-1.008-.112a7.562,7.562,0,0,1,.08,1.2,5.607,5.607,0,0,1-1.008,3.424,6.072,6.072,0,0,1-3.5,2.128,1.757,1.757,0,0,1,.48.544c.176.272.176.272.464.16a6.676,6.676,0,0,0,3.184-2.192,5.531,5.531,0,0,0,.96-2.048,5.948,5.948,0,0,0,1.7,2.5,8.8,8.8,0,0,0,2.912,1.664c.288.112.288.112.432-.192A2.278,2.278,0,0,1,245.472-6.56Zm-11.1,2.976c.1-.288.1-.288-.144-.5a3.638,3.638,0,0,1-.512-.48,24.616,24.616,0,0,1-1.5,3.632,6.993,6.993,0,0,1-.848,1.3,8.222,8.222,0,0,0,.752.56.523.523,0,0,0,.24.1c.08,0,.128-.08.16-.192A4.631,4.631,0,0,1,232.8.144C233.344-.976,233.872-2.256,234.368-3.584Zm-2.976-4.832c-.128.16-.144.192-.032.256A10.373,10.373,0,0,1,233.5-6.432c.112.112.144.1.224-.016l.384-.512c.128-.16.128-.176.048-.256a12.5,12.5,0,0,0-2.224-1.68c-.1-.064-.128-.064-.224.064Zm.864-3.984c-.144.16-.16.176-.048.256a14.232,14.232,0,0,1,2.144,1.856c.064.064.08.08.208-.064l.352-.464c.128-.144.128-.176.048-.256a12.52,12.52,0,0,0-2.144-1.776c-.08-.064-.128-.048-.24.08Zm5.088.688c-.224-.112-.24-.112-.272-.016a6.4,6.4,0,0,1-1.552,2.272c-.1.08-.064.128.1.24l.416.256c.144.1.192.1.272.016a7.2,7.2,0,0,0,1.568-2.368c.048-.128.048-.128-.144-.224ZM237.3-5.088c-.224-.112-.24-.112-.272-.016a6.3,6.3,0,0,1-1.536,2.256c-.1.08-.08.112.1.24l.4.256c.144.1.192.1.272.016a7.084,7.084,0,0,0,1.552-2.352c.048-.128.048-.128-.144-.224Zm7.328-6.3a.165.165,0,0,0-.112-.176,5.022,5.022,0,0,0-.88-.368,2.229,2.229,0,0,1-.352.7,6.857,6.857,0,0,1-1.392,1.552,1.475,1.475,0,0,1,.544.288c.112.112.16.16.224.16s.112-.048.24-.176a9.834,9.834,0,0,0,1.248-1.456,1.083,1.083,0,0,1,.32-.336C244.576-11.264,244.624-11.312,244.624-11.392Zm-.272,6.736a.165.165,0,0,0-.112-.176,5.022,5.022,0,0,0-.88-.368,2.631,2.631,0,0,1-.368.736,5.39,5.39,0,0,1-1.248,1.36,1.475,1.475,0,0,1,.544.288c.112.112.16.16.208.16.064,0,.128-.064.256-.176a7.851,7.851,0,0,0,1.12-1.3,1.083,1.083,0,0,1,.32-.336C244.3-4.528,244.352-4.576,244.352-4.656Zm7.5-6.272a6.79,6.79,0,0,1,.128,1.536,35.11,35.11,0,0,0,.288,4.464c.352,2.512,1.36,4.368,2.7,4.368,1.072,0,1.936-1.216,2.384-2.512a.357.357,0,0,0-.128-.4,2.034,2.034,0,0,1-.528-.8c-.464,1.488-1.072,2.512-1.712,2.512-.768,0-1.456-1.376-1.7-3.264a25.548,25.548,0,0,1-.224-3.632,5.5,5.5,0,0,1,.128-1.472,1.188,1.188,0,0,0,.064-.288c0-.064-.048-.128-.144-.176A4.4,4.4,0,0,0,251.856-10.928Zm8.192,2a9.322,9.322,0,0,1,3.008,5.552.147.147,0,0,0,.208.128A3.167,3.167,0,0,0,264-3.616a.183.183,0,0,0,.112-.208,9.7,9.7,0,0,0-3.12-5.536c-.064-.064-.144-.048-.24,0A6.54,6.54,0,0,0,260.048-8.928Zm23.888.016c0-.112-.016-.128-.128-.128-.08,0-.576.032-2.048.032h-2.352v-1.52h1.136c1.632,0,2.144.032,2.24.032.112,0,.128-.016.128-.144v-.608c0-.112-.016-.128-.128-.128-.1,0-.608.032-2.24.032h-1.136v-.16a4.919,4.919,0,0,1,.08-1.264.924.924,0,0,0,.1-.272c0-.064-.08-.128-.176-.144-.336-.032-.64-.048-1.04-.064a7.653,7.653,0,0,1,.112,1.744v.16h-3.5v-.16a4.42,4.42,0,0,1,.08-1.28.562.562,0,0,0,.1-.256c0-.064-.08-.128-.192-.144-.336-.032-.64-.048-1.024-.064a7.487,7.487,0,0,1,.112,1.744v.16h-.9c-1.616,0-2.144-.032-2.224-.032-.128,0-.144.016-.144.128v.608c0,.128.016.144.144.144.08,0,.608-.032,2.224-.032h.9v1.52h-2.176c-1.472,0-1.968-.032-2.048-.032-.112,0-.128.016-.128.128V-8.3c0,.112.016.128.128.128.08,0,.576-.032,2.048-.032h4.368v1.3h-2.08c-1.6,0-2.16-.032-2.256-.032-.112,0-.128.016-.128.128,0,.1.032.448.032,1.5v2.128c0,1.04-.032,1.408-.032,1.488,0,.112.016.128.128.128.1,0,.656-.032,2.256-.032h5.264c1.6,0,2.176.032,2.272.032.112,0,.128-.016.128-.128,0-.08-.032-.448-.032-1.488V-5.312c0-1.056.032-1.408.032-1.5,0-.112-.016-.128-.128-.128-.1,0-.672.032-2.272.032h-2.272v-1.3h4.608c1.472,0,1.968.032,2.048.032.112,0,.128-.016.128-.128Zm-3.072,6.56h-3.712v-1.6h3.712Zm-4.624,0h-3.5v-1.6h3.5Zm4.624-2.32h-3.712V-6.16h3.712ZM278.48-9.008h-3.5v-1.52h3.5Zm-2.24,4.336h-3.5V-6.16h3.5ZM275.184-.7c0-.08-.048-.144-.16-.208a5.614,5.614,0,0,0-.768-.4,3.119,3.119,0,0,1-.64.464A11.475,11.475,0,0,1,269.952.32a2.428,2.428,0,0,1,.416.56c.1.192.128.256.224.256a1.017,1.017,0,0,0,.24-.048,13.184,13.184,0,0,0,3.68-1.424,2.033,2.033,0,0,1,.48-.224C275.1-.576,275.184-.64,275.184-.7Zm3.44-.224c-.176.128-.208.176-.1.256a11.318,11.318,0,0,0,4.144,1.76,1.835,1.835,0,0,0,.224.032c.112,0,.144-.064.24-.24a2.092,2.092,0,0,1,.432-.544,10.624,10.624,0,0,1-4.272-1.6c-.08-.048-.112-.048-.256.064Zm13.3-3.36h6.944c1.616,0,2.192.032,2.272.032.112,0,.128-.016.128-.128,0-.1-.032-.4-.032-1.328V-7.28c0-.928.032-1.232.032-1.328,0-.112-.016-.128-.128-.128-.08,0-.656.032-2.272.032h-2.24a20.533,20.533,0,0,0,1.568-1.824,1.312,1.312,0,0,1,.4-.4c.128-.064.208-.144.208-.24s-.08-.176-.32-.384c-.256-.224-.352-.272-.432-.272a.238.238,0,0,0-.144.032.651.651,0,0,1-.352.048H294.1l.256-.368a1.366,1.366,0,0,1,.352-.432c.08-.048.16-.128.16-.208,0-.064-.032-.128-.176-.192a7.2,7.2,0,0,0-.96-.288,3.7,3.7,0,0,1-.48,1.088A12.572,12.572,0,0,1,288.7-7.952a1.977,1.977,0,0,1,.432.512c.1.16.128.224.192.224.048,0,.112-.048.224-.112q.768-.5,1.392-1.008c0,.208.016.528.016,1.056v5.648c0,1.3.384,1.776,1.056,1.984a18.135,18.135,0,0,0,4.64.336c2.832,0,4.592-.128,5.232-.624.576-.416.8-1.04.9-2.272.032-.3.032-.32-.272-.416a2.412,2.412,0,0,1-.7-.352c-.08,1.3-.112,1.872-.624,2.24-.544.384-2.1.48-4.64.48a20.558,20.558,0,0,1-3.808-.192c-.688-.16-.816-.528-.816-1.488Zm8.352-.832h-3.824V-7.888h3.824Zm-4.768,0H291.92V-7.888H295.5Zm1.824-5.824A19.493,19.493,0,0,1,295.5-8.7h-2.176c-1.024,0-1.6,0-1.92-.016a13.831,13.831,0,0,0,2.112-2.224Zm12.928,7.888A2.247,2.247,0,0,0,308-.832a2.247,2.247,0,0,0,2.256,2.224,2.247,2.247,0,0,0,2.256-2.224A2.247,2.247,0,0,0,310.256-3.056Zm0,.8A1.417,1.417,0,0,1,311.68-.832,1.417,1.417,0,0,1,310.256.592a1.427,1.427,0,0,1-1.424-1.424A1.427,1.427,0,0,1,310.256-2.256Z" transform="translate(1136 1380)" fill="#653333"/><path d="M3,0H84a3,3,0,0,1,3,3V27a3,3,0,0,1-3,3H3a3,3,0,0,1-3-3V3A3,3,0,0,1,3,0Z" transform="translate(1030 1360)" fill="#b63333" opacity="0.898"/><path d="M2.52-1.62C2.52-.375,2.835.2,3.465.45c.66.315,1.905.42,4.56.42C11.1.87,12.525.72,13.11.3c.6-.39.885-1,.99-2.19.045-.45.06-.48-.42-.585a4.432,4.432,0,0,1-1.17-.435c-.06,1.08-.075,1.56-.51,1.89S10.605-.6,7.95-.6A16.632,16.632,0,0,1,4.695-.765C4.2-.9,4.08-1.185,4.08-1.92V-3.69h6.375c1.47,0,1.995.03,2.085.03.15,0,.165-.015.165-.165,0-.09-.03-.45-.03-1.32v-1.8c0-.855.03-1.2.03-1.29,0-.15-.015-.165-.165-.165-.09,0-.615.03-2.085.03H8.685c.39-.4.72-.795,1.14-1.3a1.832,1.832,0,0,1,.465-.465c.15-.075.24-.135.24-.27s-.075-.225-.42-.525c-.375-.3-.5-.375-.6-.375a.589.589,0,0,0-.21.045.741.741,0,0,1-.36.045H6.06l.045-.06a1.582,1.582,0,0,1,.375-.5.311.311,0,0,0,.165-.24c0-.105-.06-.18-.21-.24-.42-.105-.9-.21-1.455-.3a5.386,5.386,0,0,1-.48.99A11.515,11.515,0,0,1,.51-7.95a2.644,2.644,0,0,1,.57.915c.09.24.15.36.24.36s.165-.075.33-.18c.3-.2.6-.39.87-.6ZM11.1-5.04H8.28v-2H11.1Zm-7.02,0v-2H6.75v2ZM3.66-8.37a11.8,11.8,0,0,0,1.53-1.6h3a15.212,15.212,0,0,1-1.305,1.6Z" transform="translate(1066 1381)" fill="#fff"/><path d="M2.3-9.312a2.045,2.045,0,0,1,2.048-1.68A1.776,1.776,0,0,1,6.272-9.12c0,1.328-.832,2.144-2.48,2.144h-.8V-5.84h.9c1.776,0,2.624.88,2.624,2.384A2.07,2.07,0,0,1,4.384-1.168,2.183,2.183,0,0,1,2.1-2.88L.816-2.4A3.393,3.393,0,0,0,4.384-.08a3.264,3.264,0,0,0,3.5-3.392A2.876,2.876,0,0,0,5.424-6.416V-6.56A2.579,2.579,0,0,0,7.632-9.232c0-1.68-1.36-2.848-3.264-2.848A3.331,3.331,0,0,0,1.024-9.744Zm14.24-2.768c-2.24,0-3.536,1.744-3.536,5.968,0,4.24,1.232,6.032,3.5,6.032s3.52-1.824,3.52-6.064C20.032-10.368,18.784-12.08,16.544-12.08Zm0,1.1c1.44,0,2.128,1.264,2.128,4.848s-.7,4.944-2.16,4.944c-1.44,0-2.144-1.36-2.144-4.944C14.368-9.728,15.12-10.976,16.544-10.976Zm12.08-1.1c-2.24,0-3.536,1.744-3.536,5.968,0,4.24,1.232,6.032,3.5,6.032s3.52-1.824,3.52-6.064C32.112-10.368,30.864-12.08,28.624-12.08Zm0,1.1c1.44,0,2.128,1.264,2.128,4.848s-.7,4.944-2.16,4.944c-1.44,0-2.144-1.36-2.144-4.944C26.448-9.728,27.2-10.976,28.624-10.976ZM44.4-9.488A2.457,2.457,0,0,0,42.064-8.24a3.312,3.312,0,0,0-1.616-.4,2.778,2.778,0,0,0-3.024,2.656A2.459,2.459,0,0,0,38.512-3.9c-.8.512-1.184,1.056-1.184,1.632,0,.608.384,1.024,1.216,1.216C37.52-.72,36.928-.1,36.928.64c0,1.184,1.3,1.968,3.6,1.968,2.56,0,3.888-1.024,3.888-2.32,0-1.072-.608-1.776-2.768-1.984L40-1.856C38.688-2,38.48-2.208,38.48-2.64c0-.288.256-.64.736-.912a3.19,3.19,0,0,0,1.232.24c1.776,0,3.024-1.04,3.024-2.672a2.352,2.352,0,0,0-.8-1.792A1.986,1.986,0,0,1,44.3-8.368ZM40.448-7.76a1.725,1.725,0,0,1,1.808,1.792,1.725,1.725,0,0,1-1.808,1.792A1.725,1.725,0,0,1,38.64-5.968,1.725,1.725,0,0,1,40.448-7.76Zm.944,7.1c1.536.16,1.856.528,1.856,1.1,0,.72-.912,1.312-2.672,1.312-1.488,0-2.512-.432-2.512-1.3,0-.576.48-1.04,1.44-1.312Zm8.336-4.4c1.264-1.2,2.1-1.584,3.056-1.584A6.731,6.731,0,0,1,56.16-5.456a6.491,6.491,0,0,0,3.216,1.04c1.36,0,2.544-.672,3.792-2.16l-.512-.448a4.155,4.155,0,0,1-3.088,1.632,7.027,7.027,0,0,1-3.376-1.184,6.665,6.665,0,0,0-3.216-1.008c-1.36,0-2.48.688-3.76,2.1ZM73.92-12H72.1L68.08-4v.992h4.64v2.72h1.2v-2.72h1.616V-4.064H73.92Zm-1.2,7.936H69.264l2.128-4.368c.4-.816.736-1.632,1.12-2.512h.272c-.032,1.04-.064,1.888-.064,2.816ZM83.936-12.08c-2.24,0-3.536,1.744-3.536,5.968,0,4.24,1.232,6.032,3.5,6.032s3.52-1.824,3.52-6.064C87.424-10.368,86.176-12.08,83.936-12.08Zm0,1.1c1.44,0,2.128,1.264,2.128,4.848s-.7,4.944-2.16,4.944c-1.44,0-2.144-1.36-2.144-4.944C81.76-9.728,82.512-10.976,83.936-10.976Zm12.08-1.1c-2.24,0-3.536,1.744-3.536,5.968,0,4.24,1.232,6.032,3.5,6.032S99.5-1.9,99.5-6.144C99.5-10.368,98.256-12.08,96.016-12.08Zm0,1.1c1.44,0,2.128,1.264,2.128,4.848s-.7,4.944-2.16,4.944c-1.44,0-2.144-1.36-2.144-4.944C93.84-9.728,94.592-10.976,96.016-10.976Zm15.776,1.488a2.457,2.457,0,0,0-2.336,1.248,3.312,3.312,0,0,0-1.616-.4,2.778,2.778,0,0,0-3.024,2.656A2.459,2.459,0,0,0,105.9-3.9c-.8.512-1.184,1.056-1.184,1.632,0,.608.384,1.024,1.216,1.216-1.024.336-1.616.96-1.616,1.7,0,1.184,1.3,1.968,3.6,1.968,2.56,0,3.888-1.024,3.888-2.32,0-1.072-.608-1.776-2.768-1.984l-1.648-.16c-1.312-.144-1.52-.352-1.52-.784,0-.288.256-.64.736-.912a3.19,3.19,0,0,0,1.232.24c1.776,0,3.024-1.04,3.024-2.672a2.352,2.352,0,0,0-.8-1.792,1.986,1.986,0,0,1,1.632-.592ZM107.84-7.76a1.725,1.725,0,0,1,1.808,1.792,1.725,1.725,0,0,1-1.808,1.792,1.725,1.725,0,0,1-1.808-1.792A1.725,1.725,0,0,1,107.84-7.76Zm.944,7.1c1.536.16,1.856.528,1.856,1.1,0,.72-.912,1.312-2.672,1.312-1.488,0-2.512-.432-2.512-1.3,0-.576.48-1.04,1.44-1.312Z" transform="translate(1139 1428)" fill="#653333"/><path d="M3,0H84a3,3,0,0,1,3,3V27a3,3,0,0,1-3,3H3a3,3,0,0,1-3-3V3A3,3,0,0,1,3,0Z" transform="translate(1030 1408)" fill="#b63333" opacity="0.899"/><path d="M6.27-7.08a9.067,9.067,0,0,1-.81,2.655A8.682,8.682,0,0,1,.6-.3a4.647,4.647,0,0,1,.855.945C1.62.9,1.68.99,1.8.99A1.2,1.2,0,0,0,2.16.87a9.843,9.843,0,0,0,4.8-4.68,8.723,8.723,0,0,0,.57-1.44A11.494,11.494,0,0,0,12.87.81a.965.965,0,0,0,.345.15c.12,0,.18-.12.315-.375A5,5,0,0,1,14.4-.54a10.013,10.013,0,0,1-6-6.54h3.585c1.35,0,1.815.03,1.9.03.15,0,.165-.015.165-.18V-8.46c0-.15-.015-.165-.165-.165-.09,0-.555.03-1.9.03H8.115c.06-.645.075-1.335.09-2.07a2.6,2.6,0,0,1,.135-1.05.63.63,0,0,0,.09-.315c0-.105-.12-.18-.27-.21a17.258,17.258,0,0,0-1.725-.12,11.751,11.751,0,0,1,.075,1.74c-.015.735-.03,1.41-.075,2.025H3c-1.35,0-1.815-.03-1.9-.03-.15,0-.165.015-.165.165v1.23c0,.165.015.18.165.18.09,0,.555-.03,1.9-.03ZM24.315-9.96a26.448,26.448,0,0,1-3.735.24c.09.48.195,1.035.24,1.2s.12.21.3.21a25.976,25.976,0,0,0,3.645-.36c.195.42.42.93.57,1.245A26.157,26.157,0,0,1,21.3-7.05a7.568,7.568,0,0,0,.27,1.23c.045.15.1.21.27.21a35.435,35.435,0,0,0,4.11-.45,17.443,17.443,0,0,0,1.245,1.77,6.946,6.946,0,0,0-2.58-.375c-2.34,0-3.72,1-3.72,2.61,0,1.845,1.83,2.82,5.28,2.82q.563,0,1.08-.045c.21-.015.27-.075.315-.225a9.752,9.752,0,0,0,.3-1.365c.015-.12-.03-.2-.18-.2-.54.03-1.095.09-1.65.09-2.3,0-3.57-.315-3.57-1.29,0-.705.825-1.14,2.235-1.14a7.3,7.3,0,0,1,2.82.48,3.777,3.777,0,0,1,.885.48.4.4,0,0,0,.21.09c.09,0,.15-.045.24-.15a4.35,4.35,0,0,0,.615-.93c.075-.165.075-.225-.075-.36a11.185,11.185,0,0,1-1.965-2.6,18.462,18.462,0,0,0,2.535-.735c.15-.06.15-.135.12-.27a5.688,5.688,0,0,0-.27-.99c-.045-.135-.12-.165-.27-.09a17.617,17.617,0,0,1-2.73.78c-.195-.42-.39-.885-.525-1.26,1.02-.225,1.935-.45,2.94-.765a.229.229,0,0,0,.18-.27c-.06-.3-.165-.72-.255-1.005-.045-.12-.12-.135-.255-.075a23.394,23.394,0,0,1-3.06.8c-.09-.255-.135-.39-.24-.78a2.662,2.662,0,0,1-.06-.45c0-.09.03-.195.03-.285,0-.15-.12-.27-.33-.27a10.607,10.607,0,0,0-1.815.165,3.8,3.8,0,0,1,.525.96C24.1-10.56,24.195-10.3,24.315-9.96Zm18.51.825a20.591,20.591,0,0,1-2.37.285,18.647,18.647,0,0,1-1.875.015,11.734,11.734,0,0,0,.345,1.35c.045.18.1.27.24.27.375,0,1.065-.045,1.47-.075,1.08-.09,1.95-.21,2.9-.375A9.646,9.646,0,0,0,45.465-5.01a7.654,7.654,0,0,0-2.67-.405c-2.475,0-3.945,1.2-3.945,2.91,0,1.98,1.905,3.1,5.445,3.1A13.391,13.391,0,0,0,45.96.5c.18-.03.24-.06.285-.21a9.165,9.165,0,0,0,.315-1.6,14.838,14.838,0,0,1-2.4.21c-2.355,0-3.72-.465-3.72-1.59,0-.945.945-1.41,2.505-1.41a6.86,6.86,0,0,1,3.18.765,4.945,4.945,0,0,1,.615.39c.12.09.165.12.24.12.1,0,.18-.06.3-.225a6,6,0,0,0,.585-.975.474.474,0,0,0,.09-.255c0-.075-.06-.12-.15-.2a4.119,4.119,0,0,1-.39-.33,17.084,17.084,0,0,1-2.3-3.165A23.942,23.942,0,0,0,48.1-8.85c.1-.03.165-.105.12-.255a6.512,6.512,0,0,0-.375-1.155c-.09-.165-.135-.18-.285-.1a23.087,23.087,0,0,1-3.135.93c-.195-.4-.33-.765-.51-1.215a6.464,6.464,0,0,1-.24-.75,1.969,1.969,0,0,1-.015-.42c0-.21-.12-.315-.51-.315a11.807,11.807,0,0,0-1.785.24,4.952,4.952,0,0,1,.75,1.215C42.36-10.11,42.57-9.675,42.825-9.135Z" transform="translate(1049 1429)" fill="#fff"/><path d="M5.3-12H4.208a10.868,10.868,0,0,1-2.72,1.376l.224,1.168a11.032,11.032,0,0,0,2.3-1.152V-1.36H1.7V-.288H7.472V-1.36H5.3Zm12.08,0H16.288a10.868,10.868,0,0,1-2.72,1.376l.224,1.168a11.032,11.032,0,0,0,2.3-1.152V-1.36h-2.32V-.288h5.776V-1.36H17.376Zm19.04,1.808c0-1.376.032-2,.032-2.1,0-.112-.016-.128-.128-.128-.1,0-.608.032-2.1.032H30.576c-1.488,0-2-.032-2.1-.032-.112,0-.128.016-.128.128,0,.1.032.72.032,2.1V-8.24c0,4.88-.512,6.656-2.848,8.816a2.233,2.233,0,0,1,.688.368c.128.1.192.16.256.16s.112-.064.208-.176a8.167,8.167,0,0,0,2.48-5.184h6.256v3.5c0,.544-.224.736-.72.736-.7,0-1.12-.032-1.68-.08a2.628,2.628,0,0,1,.288.752c.08.32.08.32.4.32,1.312,0,1.9,0,2.288-.336a1.465,1.465,0,0,0,.448-1.184c0-.768-.032-1.664-.032-2.544Zm-.992,5.04h-6.16c.064-.8.1-1.7.112-2.752h6.048Zm0-3.648H29.376v-2.672h6.048ZM44.9-5.056c1.264-1.2,2.1-1.584,3.056-1.584a6.731,6.731,0,0,1,3.376,1.184,6.491,6.491,0,0,0,3.216,1.04c1.36,0,2.544-.672,3.792-2.16l-.512-.448a4.155,4.155,0,0,1-3.088,1.632A7.027,7.027,0,0,1,51.36-6.576a6.665,6.665,0,0,0-3.216-1.008c-1.36,0-2.48.688-3.76,2.1ZM67.856-12H66.768a10.868,10.868,0,0,1-2.72,1.376l.224,1.168a11.032,11.032,0,0,0,2.3-1.152V-1.36h-2.32V-.288h5.776V-1.36H67.856ZM86.9-10.192c0-1.376.032-2,.032-2.1,0-.112-.016-.128-.128-.128-.1,0-.608.032-2.1.032H81.056c-1.488,0-2-.032-2.1-.032-.112,0-.128.016-.128.128,0,.1.032.72.032,2.1V-8.24c0,4.88-.512,6.656-2.848,8.816A2.233,2.233,0,0,1,76.7.944c.128.1.192.16.256.16s.112-.064.208-.176a8.167,8.167,0,0,0,2.48-5.184H85.9v3.5c0,.544-.224.736-.72.736-.7,0-1.12-.032-1.68-.08a2.628,2.628,0,0,1,.288.752c.08.32.08.32.4.32,1.312,0,1.9,0,2.288-.336a1.465,1.465,0,0,0,.448-1.184c0-.768-.032-1.664-.032-2.544ZM85.9-5.152h-6.16c.064-.8.1-1.7.112-2.752H85.9Zm0-3.648H79.856v-2.672H85.9Z" transform="translate(1139 1477)" fill="#653333"/><path d="M3,0H84a3,3,0,0,1,3,3V27a3,3,0,0,1-3,3H3a3,3,0,0,1-3-3V3A3,3,0,0,1,3,0Z" transform="translate(1030 1457)" fill="#b63333" opacity="0.905"/><path d="M4.92-10.635c.09-.18.195-.375.285-.585a1.667,1.667,0,0,1,.375-.54c.12-.12.165-.18.165-.285s-.105-.165-.255-.225A9.814,9.814,0,0,0,4-12.63a6.446,6.446,0,0,1-.375,1.155A10.4,10.4,0,0,1,.5-7.455a4.128,4.128,0,0,1,.87.84c.15.2.225.285.3.285s.15-.075.315-.225A14.592,14.592,0,0,0,4.125-9.21h8.04a51.032,51.032,0,0,1-.42,7.44c-.15.975-.39,1.365-1.1,1.365a19.281,19.281,0,0,1-2.16-.15,4.091,4.091,0,0,1,.4,1.17c.06.435.06.435.51.465s.87.045,1.44.045c1.515,0,2.16-.7,2.475-2.43A52.958,52.958,0,0,0,13.8-9.09c0-.4,0-.93.03-1.395,0-.15-.03-.18-.18-.18-.105,0-.6.03-2.07.03ZM4.77-.615c.15,0,.165-.015.165-.18v-.81h3.12v.375c0,.15.015.165.165.165H9.36c.135,0,.15-.015.15-.165,0-.09-.03-.57-.03-2.49V-5.97c0-1.41.03-1.92.03-2.01,0-.135-.015-.15-.15-.15-.105,0-.51.03-1.71.03H5.355c-1.2,0-1.605-.03-1.71-.03-.15,0-.165.015-.165.15,0,.09.03.6.03,2.3v1.77c0,2.55-.03,3.03-.03,3.12,0,.165.015.18.165.18Zm.165-2.28V-4.23h3.12v1.335Zm0-3.9h3.12v1.29H4.935Zm21.585-2.4a3.407,3.407,0,0,1,3.36,3.48c0,2.835-2,3.885-4.53,4.485a3.181,3.181,0,0,1,1.05.945c.2.3.33.36.645.27,3.045-.915,4.62-2.67,4.62-5.46,0-2.985-2.115-5.2-5.715-5.2a6.564,6.564,0,0,0-4.875,1.92,5.527,5.527,0,0,0-1.7,3.9C19.38-2.415,20.715-1,22.035-1a2.849,2.849,0,0,0,2.55-1.725A18.782,18.782,0,0,0,26.46-9.195Zm-1.8.09a17.138,17.138,0,0,1-1.59,5.37c-.405.72-.735.915-1.125.915-.465,0-1.02-.765-1.02-2.145a4.319,4.319,0,0,1,1.17-2.775A4.518,4.518,0,0,1,24.72-9.1Zm16.695.555c0-2.2.03-2.94.03-3.03,0-.15-.015-.165-.165-.165-.1,0-.39.03-1.29.03H38.7c-.9,0-1.185-.03-1.29-.03-.15,0-.165.015-.165.165,0,.09.03.885.03,3.6v3.27c0,3.765-.03,4.53-.03,4.62,0,.15.015.165.165.165h1.11c.135,0,.15-.015.15-.165V-1.275h1.38v.66c0,.15.015.165.15.165h1.08c.15,0,.165-.015.165-.165,0-.09-.03-.765-.03-4.5ZM38.67-2.64V-5.88h1.38v3.24Zm1.38-7.71v3.105H38.67V-10.35Zm8.175,3.72c1.425,0,1.92.03,2.01.03.165,0,.18-.015.18-.18V-7.815c0-.15-.015-.165-.18-.165-.09,0-.585.03-2.01.03h-1.59V-9.495h1c1.365,0,1.815.03,1.9.03.15,0,.165-.015.165-.165v-1.05c0-.165-.015-.18-.165-.18-.09,0-.54.03-1.9.03h-1a3.484,3.484,0,0,1,.075-1.125.834.834,0,0,0,.09-.315c0-.075-.09-.135-.24-.15-.555-.06-.96-.09-1.545-.1a12.566,12.566,0,0,1,.1,1.695h-.7c-1.335,0-1.8-.03-1.89-.03-.165,0-.18.015-.18.18v1.05c0,.15.015.165.18.165.09,0,.555-.03,1.89-.03h.7V-7.95H44.04c-1.425,0-1.92-.03-2.01-.03-.165,0-.18.015-.18.165V-6.78c0,.165.015.18.18.18.09,0,.585-.03,2.01-.03Zm-1.17,2.82V-.825c0,.345-.135.465-.5.465-.495,0-.945-.015-1.47-.06a3.343,3.343,0,0,1,.45,1.1c.1.45.12.45.57.45A3.461,3.461,0,0,0,48.06.8,1.4,1.4,0,0,0,48.585-.48c0-.51-.015-1.155-.015-1.845V-3.81c1.02.015,1.425.03,1.5.03.165,0,.18-.015.18-.165v-1.05c0-.15-.015-.165-.18-.165-.075,0-.48.03-1.5.03a1.9,1.9,0,0,1,.075-.765.506.506,0,0,0,.075-.255c0-.075-.09-.135-.255-.165-.4-.06-.945-.105-1.515-.135a11.14,11.14,0,0,1,.1,1.32H44.1c-1.425,0-1.9-.03-1.995-.03-.165,0-.18.015-.18.165v1.05c0,.15.015.165.18.165.09,0,.57-.03,1.995-.03Zm-4.05.945c-.18.105-.18.15-.075.27A12.559,12.559,0,0,1,44.25-.75c.045.075.075.1.12.1s.09-.03.18-.09l.915-.63c.15-.1.165-.15.075-.285a12,12,0,0,0-1.38-1.725c-.12-.105-.165-.105-.315-.015Zm24.66-6.57c0-1.56.03-2.385.03-2.475,0-.165-.015-.18-.165-.18-.09,0-.45.03-1.545.03H64.14c-1.08,0-1.44-.03-1.545-.03-.15,0-.165.015-.165.18,0,.09.03.915.03,2.475V-6.96c0,4.1-.33,5.49-1.6,7.14a3.906,3.906,0,0,1,.93.7c.15.15.225.225.3.225s.15-.09.27-.285A9.222,9.222,0,0,0,63.78-3.69h2.415v2.7c0,.375-.135.525-.465.525-.375,0-.825-.015-1.29-.045a3.159,3.159,0,0,1,.4,1.065c.12.48.1.465.585.465,1.125,0,1.53-.135,1.845-.39A1.5,1.5,0,0,0,67.71-.6c0-.6-.045-1.365-.045-2.07Zm-3.8,4.41c.03-.57.045-1.215.045-1.92v-.27h2.28v2.19Zm2.325-5.655v2.13h-2.28v-2.13Zm-6.33,8.445c1.29,0,1.74.03,1.83.03.135,0,.15-.015.15-.165V-3.39c0-.15-.015-.165-.15-.165-.06,0-.315.015-.855.03v-5.79c.525,0,.78.015.84.015.135,0,.15-.015.15-.15v-1.035c0-.15-.015-.165-.15-.165-.06,0-.315.015-.84.03v-.27a3.5,3.5,0,0,1,.09-1.05.888.888,0,0,0,.075-.285c0-.075-.075-.12-.21-.135-.435-.06-.945-.075-1.41-.1a8.477,8.477,0,0,1,.09,1.56v.285H57.4v-.27a3.577,3.577,0,0,1,.075-1.035.7.7,0,0,0,.09-.285c0-.09-.09-.12-.21-.135-.42-.045-.96-.075-1.425-.09a8.38,8.38,0,0,1,.09,1.56v.255c-.66,0-.93-.03-.99-.03-.165,0-.18.015-.18.165V-9.45c0,.135.015.15.18.15.06,0,.33-.015.99-.03v5.8c-.825,0-1.125-.03-1.2-.03-.15,0-.165.015-.165.165v1.02c0,.15.015.165.165.165.09,0,.54-.03,1.875-.03ZM57.4-3.525V-4.68h2.07v1.155Zm0-4.65V-9.33h2.07v1.155Zm0,2.31V-6.99h2.07v1.125ZM57.6-.78c.135-.18.195-.3.33-.375.12-.06.165-.135.165-.21,0-.09-.06-.15-.21-.225a9.014,9.014,0,0,0-1.155-.525,3.259,3.259,0,0,1-.36.585A6.869,6.869,0,0,1,54.42.135,3.8,3.8,0,0,1,55.2.87c.15.18.24.27.33.27s.18-.06.33-.165A9.615,9.615,0,0,0,57.6-.78Zm1.245-.81c-.12.075-.15.135-.06.27A8.07,8.07,0,0,0,59.865.075c.12.12.195.18.255.18.075,0,.135-.075.255-.225A4.207,4.207,0,0,1,61.2-.7,8.81,8.81,0,0,1,59.925-2.01c-.045-.075-.075-.105-.12-.105a.464.464,0,0,0-.18.09Z" transform="translate(1040 1477)" fill="#fff"/><path d="M5.3-12H4.208a10.868,10.868,0,0,1-2.72,1.376l.224,1.168a11.032,11.032,0,0,0,2.3-1.152V-1.36H1.7V-.288H7.472V-1.36H5.3Zm13.312,0H16.784L12.768-4v.992h4.64v2.72h1.2v-2.72h1.616V-4.064H18.608Zm-1.2,7.936H13.952L16.08-8.432c.4-.816.736-1.632,1.12-2.512h.272c-.032,1.04-.064,1.888-.064,2.816ZM25.7-5.056c1.264-1.2,2.1-1.584,3.056-1.584a6.731,6.731,0,0,1,3.376,1.184,6.491,6.491,0,0,0,3.216,1.04c1.36,0,2.544-.672,3.792-2.16l-.512-.448a4.155,4.155,0,0,1-3.088,1.632A7.027,7.027,0,0,1,32.16-6.576a6.665,6.665,0,0,0-3.216-1.008c-1.36,0-2.48.688-3.76,2.1ZM48.656-12H47.568a10.868,10.868,0,0,1-2.72,1.376l.224,1.168a11.032,11.032,0,0,0,2.3-1.152V-1.36h-2.32V-.288h5.776V-1.36H48.656Zm14.5,1.568a2.875,2.875,0,0,0-2.768-1.648C58-12.08,56.5-10.128,56.5-5.552c0,3.76,1.488,5.472,3.552,5.472,1.936,0,3.344-1.52,3.344-4,0-2.256-1.248-3.68-2.992-3.68a3.051,3.051,0,0,0-2.624,1.632c.064-3.232.912-4.88,2.576-4.88a1.542,1.542,0,0,1,1.536,1.136Zm-5.344,5.5a2.749,2.749,0,0,1,2.336-1.744c1.184,0,1.9.96,1.9,2.624,0,1.888-.768,2.9-2,2.9C58.736-1.152,57.808-2.3,57.808-4.928ZM71.008.128,80.56-11.808l-.576-.48L70.432-.352ZM72.1-12.08c-1.392,0-2.416,1.04-2.416,2.96,0,1.936,1.024,2.96,2.416,2.96,1.408,0,2.432-1.04,2.432-2.976S73.5-12.08,72.1-12.08Zm0,.8c.848,0,1.36.688,1.36,2.16,0,1.488-.528,2.16-1.36,2.16s-1.344-.672-1.344-2.16C70.752-10.592,71.264-11.28,72.1-11.28Zm6.832,5.3c-1.408,0-2.416,1.024-2.416,2.96,0,1.92,1.008,2.96,2.416,2.96,1.392,0,2.432-1.056,2.432-2.976C81.36-4.976,80.32-5.984,78.928-5.984Zm0,.8c.848,0,1.36.688,1.36,2.16,0,1.488-.512,2.16-1.36,2.16s-1.344-.672-1.344-2.16C77.584-4.5,78.1-5.184,78.928-5.184Zm39.808-5.152c1.488,0,1.984.032,2.064.032.112,0,.128-.016.128-.128v-.688c0-.112-.016-.128-.128-.128-.08,0-.576.032-2.064.032h-4.464a5.277,5.277,0,0,1,.08-1.3,1.187,1.187,0,0,0,.112-.336c0-.08-.064-.112-.224-.144a9.94,9.94,0,0,0-1.056-.1,11.677,11.677,0,0,1,.112,1.872h-4.24c-1.5,0-1.984-.032-2.08-.032-.112,0-.128.016-.128.128v.688c0,.112.016.128.128.128.1,0,.576-.032,2.08-.032h4.24c-.016,3.024-.1,4.96-.592,6.24C111.872-2.112,110-.608,106.768.24a2.064,2.064,0,0,1,.48.56c.112.176.144.256.24.256a1.3,1.3,0,0,0,.224-.064c3.168-1.008,4.976-2.48,5.9-4.832a7.886,7.886,0,0,0,.272-.912c.944,3.248,3.664,4.72,6.288,5.664a.927.927,0,0,0,.208.064c.1,0,.128-.08.224-.272a2.814,2.814,0,0,1,.432-.64C117.728-.928,114.9-2.5,114.16-6.7c.08-1.152.112-2.416.112-3.632ZM108.16-5.36c-.128.112-.144.144-.048.208.384.256.816.576,1.248.912a10.834,10.834,0,0,1-2.128,1.3,1.571,1.571,0,0,1,.432.432c.1.144.144.208.224.208a.6.6,0,0,0,.24-.1A13.661,13.661,0,0,0,110-3.7c.3.256.56.5.848.784.1.112.128.112.3-.032l.336-.288c.128-.112.144-.16.048-.256-.3-.272-.608-.528-.928-.784a11.369,11.369,0,0,0,.816-.912,1.18,1.18,0,0,1,.352-.352c.1-.048.16-.1.16-.192,0-.08-.08-.128-.176-.192a5.752,5.752,0,0,0-.64-.352,2.832,2.832,0,0,1-.4.672,9.522,9.522,0,0,1-.752.832c-.448-.336-.88-.64-1.264-.88-.112-.064-.128-.048-.256.048Zm7.488-3.728c-.128.112-.128.144-.016.208.464.272.928.56,1.376.864a14.211,14.211,0,0,1-2.048,1.344,1.556,1.556,0,0,1,.368.352c.112.16.176.224.256.224a.719.719,0,0,0,.24-.112,13.909,13.909,0,0,0,1.856-1.328c.368.272.736.576,1.12.9.1.1.128.1.272-.048l.272-.288c.128-.144.144-.16.064-.224-.4-.32-.768-.624-1.136-.88l.688-.752a1.114,1.114,0,0,1,.352-.3c.08-.048.16-.1.16-.176,0-.064-.064-.112-.176-.192a5.306,5.306,0,0,0-.64-.368,3.26,3.26,0,0,1-.416.64,6.633,6.633,0,0,1-.64.688c-.464-.3-.928-.592-1.408-.88-.1-.048-.128-.048-.208.032Zm-7.2-.1c-.128.128-.144.176-.048.224.464.272.88.528,1.312.832a10.548,10.548,0,0,1-2.208,1.44,1.38,1.38,0,0,1,.4.352c.128.16.176.224.256.224a.719.719,0,0,0,.24-.112,11.977,11.977,0,0,0,1.984-1.424c.32.24.64.512.992.816.1.1.128.08.272-.064l.272-.288c.144-.144.144-.16.048-.24l-1.024-.784c.192-.208.384-.416.576-.656a1.357,1.357,0,0,1,.336-.3c.1-.048.176-.112.176-.192,0-.064-.064-.128-.16-.192a7.207,7.207,0,0,0-.64-.352,2.94,2.94,0,0,1-.4.64c-.176.208-.352.4-.544.592-.432-.288-.864-.56-1.328-.832-.112-.064-.128-.064-.24.048Zm7.84,3.76c-.144.112-.128.144-.032.208.432.3.848.592,1.248.912a9.026,9.026,0,0,1-1.552,1.088,1.6,1.6,0,0,1,.384.352c.112.144.16.208.24.208.048,0,.112-.048.24-.128a9.332,9.332,0,0,0,1.312-.992c.384.336.752.7,1.136,1.088.1.1.128.112.288-.048l.3-.3c.128-.128.144-.16.048-.256-.4-.368-.8-.72-1.184-1.056.224-.24.432-.5.64-.752a1.094,1.094,0,0,1,.336-.3c.1-.048.16-.1.16-.176,0-.064-.048-.112-.144-.176a4.337,4.337,0,0,0-.656-.368,3.555,3.555,0,0,1-.416.64c-.16.208-.352.416-.544.64-.416-.32-.816-.608-1.248-.9-.1-.064-.112-.048-.24.064Zm14.56-2.832c-.128-.384-.24-.656-.416-1.2-.192-.608-.272-.848-.32-1.056a1.237,1.237,0,0,1-.048-.464c0-.144-.016-.24-.208-.24a7.3,7.3,0,0,0-1.36.144,6.18,6.18,0,0,1,.768,1.472c.24.64.432,1.184.624,1.76-.8.336-1.344.528-1.952.768a9.919,9.919,0,0,1-1.616.464,5.669,5.669,0,0,0,.672.992.382.382,0,0,0,.272.16.4.4,0,0,0,.24-.128,3.613,3.613,0,0,1,.864-.5c.576-.256,1.12-.5,1.888-.832.944,2.576,1.68,4.832,2.5,7.472.032.1.048.112.144.1a3.048,3.048,0,0,0,.784-.288c.16-.08.16-.128.1-.288-.864-2.528-1.7-4.864-2.592-7.424.976-.416,1.968-.832,3.024-1.184a7.6,7.6,0,0,1,2.544-.464c.88,0,1.856.352,1.856,1.632,0,1.44-1.232,2.064-2.832,2.064a7.987,7.987,0,0,1-1.424-.128,2.9,2.9,0,0,1,.464.912.259.259,0,0,0,.256.16,5.788,5.788,0,0,0,.752.032c2.3,0,3.936-.976,3.936-2.96,0-1.7-1.168-2.672-3.008-2.672a9.008,9.008,0,0,0-3.04.608C132.7-9.008,131.84-8.672,130.848-8.256Zm1.872-3.792a6.626,6.626,0,0,1,1.888,1.7.144.144,0,0,0,.208.048,3.2,3.2,0,0,0,.608-.528.174.174,0,0,0,0-.24,8.235,8.235,0,0,0-1.728-1.52c-.112-.064-.144-.064-.24,0A8.347,8.347,0,0,0,132.72-12.048Zm17.168,3.392c-.752.112-1.376.208-2.256.3a10.837,10.837,0,0,1-1.664.08,6.091,6.091,0,0,0,.368,1.088c.1.192.24.192.416.08a2.326,2.326,0,0,1,.7-.208c.8-.144,1.456-.256,2.112-.352A33.972,33.972,0,0,1,146.5-.848c-.048.1-.064.176.032.256a4.506,4.506,0,0,0,.64.432.192.192,0,0,0,.272-.08A43.475,43.475,0,0,0,150.7-7.808a11.3,11.3,0,0,1,1.728-.176c.864,0,1.1.448,1.1,1.7a12.089,12.089,0,0,1-.72,4.5c-.3.672-.608.832-1.072.832a4.661,4.661,0,0,1-1.856-.448,2.836,2.836,0,0,1,.192.96.261.261,0,0,0,.192.272A4.2,4.2,0,0,0,151.9.112a1.914,1.914,0,0,0,1.824-1.264,13.368,13.368,0,0,0,.88-5.168c0-1.872-.688-2.576-2.08-2.576a14.726,14.726,0,0,0-1.552.112c.24-.784.448-1.536.688-2.32a1.084,1.084,0,0,1,.272-.528.237.237,0,0,0-.064-.416,6.719,6.719,0,0,0-1.248-.432,5.5,5.5,0,0,1-.144,1.536C150.272-10.048,150.1-9.408,149.888-8.656Zm5.744-.48a8.892,8.892,0,0,1,2.56,4.048c.032.16.144.176.272.1a3.576,3.576,0,0,0,.656-.432c.1-.08.08-.16.048-.272a9.123,9.123,0,0,0-2.576-3.872.2.2,0,0,0-.24-.064A7.2,7.2,0,0,0,155.632-9.136ZM173.264-3.2a7.939,7.939,0,0,0-1.6-.192c-1.568,0-2.72.816-2.72,2.016,0,1.328,1.264,1.952,2.48,1.952,2.064,0,2.88-.88,2.864-2.5A9.675,9.675,0,0,1,176.72-.4c.1.08.176.1.256-.016a5.092,5.092,0,0,0,.384-.7c.048-.128.064-.176-.064-.256a13.926,13.926,0,0,0-3.024-1.6,26.976,26.976,0,0,1-.192-2.944,2.467,2.467,0,0,1,.064-.752.826.826,0,0,0,.1-.288c0-.1-.064-.16-.176-.192a5.056,5.056,0,0,0-1.088-.208,4.973,4.973,0,0,1,.1,1.024C173.088-5.472,173.168-4.192,173.264-3.2Zm.016.96a2.171,2.171,0,0,1,.016.384c0,.816-.48,1.5-1.792,1.5-1.056,0-1.648-.336-1.648-1.072,0-.592.576-1.088,1.856-1.088A5.294,5.294,0,0,1,173.28-2.24Zm-3.408-7.568c.16-.56.336-1.152.512-1.728a1.45,1.45,0,0,1,.224-.5.326.326,0,0,0,.128-.24.183.183,0,0,0-.144-.176,6.7,6.7,0,0,0-1.248-.32,4.729,4.729,0,0,1-.128,1.248c-.144.672-.288,1.264-.48,1.872a20.565,20.565,0,0,1-2.176.128c-.336,0-.752-.016-1.264-.064a4.982,4.982,0,0,0,.1.8c.032.16.048.176.192.192.368.032.608.032.848.032.688,0,1.328-.048,2.016-.112A28.127,28.127,0,0,1,165.44-2.72c-.08.128-.08.192.016.272a3.7,3.7,0,0,0,.64.48c.1.064.176.08.256-.048a38.532,38.532,0,0,0,3.216-6.752c.944-.144,1.808-.288,2.672-.464.128-.016.16-.048.144-.192-.016-.208-.048-.5-.08-.688-.016-.1-.064-.128-.208-.1A21.95,21.95,0,0,1,169.872-9.808Zm4.144.864a10.773,10.773,0,0,1,3.264,1.632c.1.064.144.08.224-.032a4.166,4.166,0,0,0,.368-.64c.08-.128.08-.192-.032-.288a11.339,11.339,0,0,0-3.136-1.5c-.144-.048-.192-.032-.272.1C174.3-9.488,174.176-9.216,174.016-8.944Zm23.744-.928c0-.112-.016-.128-.128-.128-.1,0-.592.032-2.08.032h-.976V-11.3a4.377,4.377,0,0,1,.1-1.44.476.476,0,0,0,.08-.24c0-.08-.08-.128-.192-.144-.3-.032-.672-.064-1.088-.08a9.256,9.256,0,0,1,.112,1.92v1.312h-5.776V-11.28a4.52,4.52,0,0,1,.08-1.392.748.748,0,0,0,.1-.3c0-.064-.08-.128-.192-.144-.336-.032-.72-.064-1.1-.08a9.746,9.746,0,0,1,.128,1.936v1.3h-.928c-1.5,0-2-.032-2.08-.032-.112,0-.128.016-.128.128v.688c0,.128.016.144.128.144.08,0,.576-.032,2.08-.032h.928v5.248c0,3.216-.032,4.64-.032,4.72,0,.112.016.128.128.128h.768c.112,0,.128-.016.128-.128V-.224h5.776V.8c0,.112.016.128.128.128h.768c.112,0,.128-.016.128-.128,0-.1-.032-1.52-.032-4.736V-9.072h.976c1.488,0,1.984.032,2.08.032.112,0,.128-.016.128-.144Zm-4.176,8.784h-5.776v-3.7h5.776Zm0-4.56h-5.776V-9.072h5.776Zm16.064-3.808a26.781,26.781,0,0,1-3.136.368,13.08,13.08,0,0,1-1.584,0,4.862,4.862,0,0,0,.176.832c.048.128.08.192.192.192.4.016.88-.016,1.36-.048,1.1-.08,2.208-.192,3.44-.4a14.071,14.071,0,0,0,2.464,3.7,7.926,7.926,0,0,0-3.392-.72c-2.208,0-3.968.928-3.968,2.784,0,2.144,2.464,3.088,5.392,3.088.7,0,1.552-.048,1.84-.08.128-.032.16-.048.208-.16a5.417,5.417,0,0,0,.208-1.04,12.647,12.647,0,0,1-2.3.192c-2.336,0-4.32-.608-4.32-2.08,0-1.136,1.056-1.824,2.976-1.824a7.6,7.6,0,0,1,3.632.864c.192.112.368.208.576.352.1.064.128.1.192.1s.128-.064.208-.16c.112-.16.3-.448.416-.64a.323.323,0,0,0,.048-.176c0-.048-.032-.1-.112-.144a2.614,2.614,0,0,1-.432-.352,15.233,15.233,0,0,1-2.656-3.9c1.3-.3,2.464-.624,3.456-.96.08-.032.1-.1.08-.208a3.361,3.361,0,0,0-.208-.7c-.048-.112-.128-.112-.224-.08a27.933,27.933,0,0,1-3.5,1.024c-.208-.5-.352-.864-.528-1.344a5.459,5.459,0,0,1-.288-1.072,1.936,1.936,0,0,1-.016-.416c0-.144-.112-.24-.336-.24a9.791,9.791,0,0,0-1.264.144,3.851,3.851,0,0,1,.672,1.248C209.2-10.576,209.376-10.128,209.648-9.456Zm14.528,6.4A2.247,2.247,0,0,0,221.92-.832a2.247,2.247,0,0,0,2.256,2.224,2.247,2.247,0,0,0,2.256-2.224A2.247,2.247,0,0,0,224.176-3.056Zm0,.8A1.417,1.417,0,0,1,225.6-.832,1.417,1.417,0,0,1,224.176.592a1.427,1.427,0,0,1-1.424-1.424A1.427,1.427,0,0,1,224.176-2.256Z" transform="translate(1139 1527)" fill="#653333"/><path d="M3,0H84a3,3,0,0,1,3,3V27a3,3,0,0,1-3,3H3a3,3,0,0,1-3-3V3A3,3,0,0,1,3,0Z" transform="translate(1030 1507)" fill="#b63333" opacity="0.9"/><path d="M7.364-7.42c0,.14.014.154.154.154.1,0,.42-.028,1.47-.028v.77H6.944c.014-.434.014-.882.014-1.358v-1.4H11.3c1.3,0,1.75.028,1.834.028.126,0,.14-.014.14-.154v-.882c0-.154-.014-.168-.14-.168-.084,0-.532.028-1.834.028h-1.26v-.182a2.08,2.08,0,0,1,.056-.644.6.6,0,0,0,.084-.252c0-.07-.084-.126-.21-.14-.448-.042-.938-.07-1.4-.07a3.966,3.966,0,0,1,.1,1.106v.182H7.728c-1.316,0-1.764-.028-1.862-.028-.14,0-.154.014-.154.168,0,.084.028.8.028,2.408a34.269,34.269,0,0,1-.182,4.144A10.088,10.088,0,0,1,4.368.028a3.056,3.056,0,0,1,.714.658c.126.154.2.224.266.224s.14-.084.224-.266A12.116,12.116,0,0,0,6.678-3.122c.1-.756.182-1.512.224-2.338H8.988v.854H8.68c-.91,0-1.176-.014-1.26-.014-.14,0-.154,0-.154.154v.784c0,.14.014.154.154.154.084,0,.35-.028,1.26-.028h2.086c1.078,0,1.6.028,1.68.028.14,0,.154-.014.154-.154,0-.084-.028-.5-.028-1.358v-.42c.434.014.658.028.728.028.154,0,.168-.014.168-.154V-6.4c0-.14-.014-.154-.168-.154-.07,0-.294.028-.728.028v-.322c0-.854.028-1.26.028-1.344,0-.154-.014-.168-.154-.168-.084,0-.6.028-1.68.028h-.588a.961.961,0,0,1,.056-.266.9.9,0,0,0,.07-.238c0-.07-.056-.126-.2-.154A8,8,0,0,0,8.9-9.1a4.37,4.37,0,0,1,.07.77c-1.036,0-1.358-.028-1.456-.028-.14,0-.154.014-.154.168Zm4.088,2.814H10.164V-5.46h1.288Zm0-2.688v.77H10.164v-.77ZM2.436-5.838A11.539,11.539,0,0,1,.392-1.96,3.016,3.016,0,0,1,.91-.98c.056.168.112.238.168.238s.14-.07.224-.21a11.271,11.271,0,0,0,1.3-2.9c-.028,2.436-.1,4.536-.1,4.8,0,.14.014.154.154.154H3.724c.14,0,.154-.014.154-.154,0-.28-.084-2.562-.1-5.4a7.048,7.048,0,0,0,.756,1.526c.07.126.126.2.182.2s.1-.07.182-.238a4.005,4.005,0,0,1,.532-.854A8.859,8.859,0,0,1,3.906-5.838c.84,0,1.12.028,1.2.028.14,0,.154-.014.154-.168v-.966c0-.14-.014-.154-.154-.154-.084,0-.378.028-1.288.028v-.868a2.232,2.232,0,0,1,.49.182.7.7,0,0,0,.28.126c.07,0,.1-.07.168-.238A16.22,16.22,0,0,0,5.4-9.716a.522.522,0,0,1,.154-.294.212.212,0,0,0,.1-.154c0-.056-.056-.112-.154-.168a4.65,4.65,0,0,0-.952-.378,5,5,0,0,1-.084.616A13.808,13.808,0,0,1,3.822-8.05V-9.744a4.8,4.8,0,0,1,.084-1.414.726.726,0,0,0,.1-.308c0-.07-.084-.126-.224-.14a12.885,12.885,0,0,0-1.33-.1,11.624,11.624,0,0,1,.112,1.988V-7.07H2.184C1.2-7.07.9-7.1.812-7.1c-.126,0-.14.014-.14.154v.966c0,.154.014.168.14.168.084,0,.392-.028,1.372-.028ZM8.372.56h2.884V.938c0,.126.014.14.154.14h1.064c.14,0,.154-.014.154-.14,0-.084-.028-.364-.028-1.862v-.84c0-.546.028-.868.028-.952,0-.14-.014-.154-.154-.154-.084,0-.462.028-1.582.028H8.764c-1.134,0-1.5-.028-1.582-.028-.154,0-.168.014-.168.154,0,.1.028.406.028,1.106v.7c0,1.5-.028,1.778-.028,1.848,0,.14.014.154.168.154H8.218c.14,0,.154-.014.154-.154Zm2.884-2.324V-.518H8.372V-1.764ZM.882-10.4c-.2.07-.2.112-.154.238a12.705,12.705,0,0,1,.532,2.38c.014.154.042.14.238.084l.588-.2c.154-.056.182-.1.168-.252a14.609,14.609,0,0,0-.6-2.394c-.056-.14-.056-.126-.238-.056ZM22.526-3.976C21.182-3.976,20.734-4,20.65-4c-.14,0-.154.014-.154.154v.826c0,.14.014.154.154.154.056,0,.308-.014.868-.014a8.555,8.555,0,0,0,1.946,2,14.32,14.32,0,0,1-4.074.826,2.168,2.168,0,0,1,.448.8c.1.308.14.378.322.378a1.7,1.7,0,0,0,.252-.014,13.141,13.141,0,0,0,4.4-1.162,12.5,12.5,0,0,0,4.34,1.106,1.526,1.526,0,0,0,.238.014c.21,0,.252-.084.336-.406a2.433,2.433,0,0,1,.434-.9,16.224,16.224,0,0,1-4-.63,8.9,8.9,0,0,0,1.6-1.5,2.37,2.37,0,0,1,.546-.5c.14-.1.2-.14.2-.266,0-.1-.14-.28-.49-.574s-.448-.364-.56-.364a.422.422,0,0,0-.168.042.776.776,0,0,1-.322.056ZM26.446-2.9a6.422,6.422,0,0,1-1.694,1.414A6.4,6.4,0,0,1,23.044-2.9Zm-6.454-6.37H27.9c1.33,0,1.792.028,1.876.028.14,0,.14-.014.14-.168v-.952c0-.14,0-.154-.14-.154-.084,0-.546.028-1.876.028H24.92v-.182a1.387,1.387,0,0,1,.084-.6.518.518,0,0,0,.1-.266c0-.07-.084-.126-.238-.14-.476-.042-.924-.07-1.484-.084a4.688,4.688,0,0,1,.1,1.134v.14H20.552c-1.33,0-1.792-.028-1.876-.028-.14,0-.154.014-.154.154,0,.084.028.938.028,2.87A29.444,29.444,0,0,1,18.34-3.4,8.519,8.519,0,0,1,17.206-.056a5.513,5.513,0,0,1,.91.812c.14.14.21.224.28.224S18.522.9,18.62.714a11.128,11.128,0,0,0,1.134-3.556,30.379,30.379,0,0,0,.238-4.4ZM27.258-7.91a2.08,2.08,0,0,1,.056-.644.9.9,0,0,0,.07-.238c0-.07-.07-.112-.2-.126-.392-.042-.882-.07-1.316-.084a7.786,7.786,0,0,1,.07,1.092h-2.31a2.14,2.14,0,0,1,.056-.644.568.568,0,0,0,.07-.238c0-.07-.056-.112-.182-.126-.406-.042-.882-.07-1.33-.084a5.927,5.927,0,0,1,.07,1.092h-.182c-.994,0-1.54-.028-1.624-.028-.14,0-.154.014-.154.154v.868c0,.14.014.154.154.154.084,0,.63-.028,1.624-.028h.182v.518c0,.868-.028,1.3-.028,1.4,0,.14.014.154.168.154.084,0,.42-.028,1.442-.028H25.69c1.022,0,1.358.028,1.442.028.14,0,.154-.014.154-.154,0-.084-.028-.532-.028-1.4V-6.79h.364c1.372,0,1.862.028,1.946.028.14,0,.154-.014.154-.154v-.868c0-.14-.014-.154-.154-.154-.084,0-.574.028-1.946.028ZM25.942-5.8h-2.31V-6.79h2.31Z" transform="translate(1057 1527)" fill="#fff"/></g></svg>