<svg xmlns="http://www.w3.org/2000/svg" width="58.277" height="62.819" viewBox="0 0 58.277 62.819"><g transform="translate(-730 -2069)"><path d="M251.029,779.718a17.212,17.212,0,0,0-10.153-10.1c-5.132-1.8-10.481-.778-15.56.624-1.7,1.18-1.51-6.426.532-8.3,1.154-1.061,4.686-4.76,2.033-4.87-2.2-.091-4.8,2.644-5.816,4.363a6.027,6.027,0,0,0-.73,2.011,8.593,8.593,0,0,0-8.742-2.113c.415,7.085,5.179,8.259,8.814,7.482.036.454.065.9.077,1.343-1.22-.2-2.425-.657-3.64-.909a27.506,27.506,0,0,0-5.511-.61,17.322,17.322,0,0,0-10.029,3.012c-5.7,4.013-7.925,11.015-7.829,17.744a36.189,36.189,0,0,0,6.723,20.183,29.127,29.127,0,0,0,6.541,7.032,18.237,18.237,0,0,0,8.423,3.139,12.9,12.9,0,0,0,3.926-.019c1.134-.184,2.2-.663,3.32-.853.85-.144,2.048.525,2.869.708a12.835,12.835,0,0,0,4.27.218,19.26,19.26,0,0,0,12.8-6.9C250.908,804.21,255.412,790.91,251.029,779.718Z" transform="translate(535.527 1311.932)" fill="#b63333"/><path d="M-2.606-7.113A9.443,9.443,0,0,1-3.93-1.635,4.476,4.476,0,0,1-7.833.234,4.52,4.52,0,0,1-11.712-1.6a9.093,9.093,0,0,1-1.383-5.338V-10a9.269,9.269,0,0,1,1.336-5.449,4.51,4.51,0,0,1,3.9-1.852A4.533,4.533,0,0,1-3.989-15.51a8.932,8.932,0,0,1,1.383,5.268Zm-1.406-3.059a8.329,8.329,0,0,0-.955-4.43,3.193,3.193,0,0,0-2.889-1.5,3.2,3.2,0,0,0-2.859,1.465,8.059,8.059,0,0,0-.984,4.324v3.352A8.314,8.314,0,0,0-10.71-2.5,3.209,3.209,0,0,0-7.833-.949,3.161,3.161,0,0,0-4.991-2.461a8.347,8.347,0,0,0,.979-4.43Zm9.935.879H7.376a4.876,4.876,0,0,0,2.109-.428,3.216,3.216,0,0,0,1.377-1.172,3.123,3.123,0,0,0,.475-1.717,3.469,3.469,0,0,0-.926-2.566,3.6,3.6,0,0,0-2.66-.926,3.812,3.812,0,0,0-2.689.967,3.3,3.3,0,0,0-1.049,2.549H2.606a4.559,4.559,0,0,1,.668-2.42A4.489,4.489,0,0,1,5.126-16.7a5.74,5.74,0,0,1,2.625-.6,5.1,5.1,0,0,1,3.656,1.266,4.549,4.549,0,0,1,1.336,3.469,3.693,3.693,0,0,1-.779,2.268A4.67,4.67,0,0,1,9.825-8.742a4.39,4.39,0,0,1,2.414,1.529,4.159,4.159,0,0,1,.82,2.584A4.6,4.6,0,0,1,11.63-1.1,5.37,5.37,0,0,1,7.809.234,6.382,6.382,0,0,1,5.014-.375,4.652,4.652,0,0,1,3.046-2.08a4.645,4.645,0,0,1-.7-2.549H3.755A3.41,3.41,0,0,0,4.891-1.975,4.19,4.19,0,0,0,7.809-.949a4.027,4.027,0,0,0,2.83-.932,3.486,3.486,0,0,0,1.014-2.7,3.191,3.191,0,0,0-1.1-2.613,4.978,4.978,0,0,0-3.229-.9H5.923Z" transform="translate(759 2114)" fill="#fff"/></g></svg>