<svg xmlns="http://www.w3.org/2000/svg" width="200" height="200"><defs><clipPath id="a"><path fill="none" d="M0 0h109.792v125.142H0z"/></clipPath><clipPath id="b"><path fill="none" d="M0 0h53.4v105.153H0z"/></clipPath><clipPath id="c"><path fill="none" d="M0 0h99.359v16.013H0z"/></clipPath></defs><path d="M0 0h200v190a10 10 0 01-10 10H0V0z" fill="#653333"/><g transform="translate(44.873 37.662)" clip-path="url(#a)"><g clip-path="url(#a)"><path d="M15.641 15.4A51.82 51.82 0 000 52.577c0 28.977 23.961 52.571 53.407 52.576v-7.339c-25.34 0-45.958-20.3-45.958-45.237a44.593 44.593 0 0113.464-31.993A46.015 46.015 0 0153.407 7.333V0a53.484 53.484 0 00-37.766 15.4" fill="#fff"/><g clip-path="url(#b)" transform="translate(56.393)" opacity=".75"><path d="M.002 7.334a46.013 46.013 0 0132.493 13.25 44.6 44.6 0 0113.459 31.994c0 24.942-20.613 45.236-45.952 45.236v7.34c29.447 0 53.4-23.59 53.4-52.576A51.806 51.806 0 0037.759 15.4 53.461 53.461 0 00.002 0z" fill="#fff"/></g><path d="M18.204 73.431h4.38V31.713h-4.38v-2.4h15.979v2.4h-4.379v19.12L48.62 29.615a3.719 3.719 0 012.731-1.318 4.089 4.089 0 013.764 4.261c0 2.035-1.445 4.009-3.247 4.009a3.476 3.476 0 01-3.2-3.413L37.18 45.977l16.285 27.454h3.092v2.4H40.582v-2.4h4.222L31.922 51.855l-2.118 2.336v19.24h4.381v2.4H18.204zM77.847 28.12c4.281 0 11.029 1.2 11.029 6.41 0 2.277-1.543 4.26-3.556 4.26a3.615 3.615 0 01-3.351-3.776 3.882 3.882 0 011.392-3.065 10.084 10.084 0 00-5.514-1.489c-8.864 0-12.115 9.529-12.115 22.116 0 12.765 3.149 22.111 12.115 22.111s12.115-9.346 12.115-22.111c0-5.334-.1-9.417-1.392-13.312a7.207 7.207 0 001.7-4.433 10.487 10.487 0 00-.2-1.62l.1-.057c4.949 4.679 7.531 11.8 7.531 19.422 0 12.95-7.219 24.451-19.85 24.451-12.009 0-19.845-10.726-19.845-24.451 0-13.666 7.886-24.457 19.845-24.457" fill="#fff"/><g clip-path="url(#c)" fill="#fff" transform="translate(5.222 109.129)" opacity=".75"><path d="M.998 13.956a.884.884 0 01.895.84 7.288 7.288 0 00.24-2.711V1.169H-.001V.381h4.99l4.663 11a1.688 1.688 0 00-1.1-.429 1.569 1.569 0 00-1.534 1.357L2.929 2.666v9.415c0 2.9-.076 3.929-1.833 3.929a1.094 1.094 0 01-1.1-1.076.981.981 0 011-.981m7.7-2.494a1.184 1.184 0 011.136.747L14.859.381h4.306v.785h-1.7v13.667h1.7v.789h-6.181v-.789h1.693v-12l-4.469 10.468a1.5 1.5 0 01-1.335.808 1.414 1.414 0 01-1.437-1.376 1.277 1.277 0 011.26-1.277M20.66 13.817a.914.914 0 01.942 1.02 9.918 9.918 0 001.074-2.3L27.623.381h1.054l5.348 14.453h1.833v.789h-6.379v-.789h1.593L27.083 4.191l-2.194 5.323h2.914a1.493 1.493 0 011.492 1.475 1.375 1.375 0 01-1.374 1.361 1.224 1.224 0 01-1.237-1.238 1.091 1.091 0 01.363-.808h-2.478l-1.036 2.552c-.856 2.162-1.293 3.158-2.432 3.158a1.339 1.339 0 01-1.438-1.177 1.012 1.012 0 011-1.02"/><path d="M35.799 14.837h1.555V1.169h-1.555V.381h6.046c2.035 0 6.025.176 6.025 4.1 0 2.457-1.954 3.379-3.591 3.712 3.69 1.046 2.852 3.618 3.611 5.953a.87.87 0 00.875.671.623.623 0 00.418-.124 1.353 1.353 0 01-.3-.863 1.13 1.13 0 011.178-1.139 1.294 1.294 0 011.254 1.3c0 1.254-1.615 1.821-2.788 1.821-6.706 0-1.379-7.417-6.98-7.417a.982.982 0 01-1-.983.894.894 0 01.9-.885.8.8 0 01.8.784.741.741 0 01-.064.294c1.136 0 2.793-.467 2.793-3.124a2.97 2.97 0 00-3.131-3.312h-1.7v13.667h1.836v.789h-6.182zM51.615.384h6.181v.785h-1.693v8.822c0 2.943 1.274 5 4.127 5 2.712 0 4.072-2.055 4.072-5V4.217c0-3.93 1.611-3.93 2.435-3.93a1.49 1.49 0 011.491 1.476 1.361 1.361 0 01-1.373 1.346 1.217 1.217 0 01-1.239-1.229 1.256 1.256 0 01.08-.391 4.169 4.169 0 00-.6 2.727V9.99c0 3.883-2.055 6.022-5.806 6.022-3.805 0-5.98-2.413-5.98-6.022V1.168h-1.695zM68.608 14.837H70.3V1.169h-1.692V.385h6.182v.785H73.1v6.263L80.379.489A1.525 1.525 0 0181.435.05a1.449 1.449 0 011.456 1.4 1.318 1.318 0 01-1.258 1.307 1.242 1.242 0 01-1.237-1.113l-4.446 4.2 6.3 8.987h1.2v.789h-6.19v-.789h1.64l-4.986-7.075-.816.774v6.3h1.694v.789h-6.184zM91.682 0c1.655 0 4.267.384 4.267 2.1a1.388 1.388 0 01-1.377 1.39 1.274 1.274 0 01-1.293-1.24 1.19 1.19 0 01.539-1 4.512 4.512 0 00-2.136-.49c-3.432 0-4.687 3.122-4.687 7.246 0 4.183 1.215 7.242 4.687 7.242s4.687-3.06 4.687-7.242a11.661 11.661 0 00-.541-4.355 2.185 2.185 0 00.66-1.452 2.985 2.985 0 00-.079-.54l.039-.013a8.008 8.008 0 012.911 6.36c0 4.239-2.791 8.007-7.677 8.007-4.65 0-7.68-3.516-7.68-8.007 0-4.476 3.05-8.006 7.68-8.006"/></g></g></g></svg>