<svg xmlns="http://www.w3.org/2000/svg" width="58.277" height="62.819" viewBox="0 0 58.277 62.819"><g transform="translate(-767 -1976)"><path d="M251.029,779.718a17.212,17.212,0,0,0-10.153-10.1c-5.132-1.8-10.481-.778-15.56.624-1.7,1.18-1.51-6.426.532-8.3,1.154-1.061,4.686-4.76,2.033-4.87-2.2-.091-4.8,2.644-5.816,4.363a6.027,6.027,0,0,0-.73,2.011,8.593,8.593,0,0,0-8.742-2.113c.415,7.085,5.179,8.259,8.814,7.482.036.454.065.9.077,1.343-1.22-.2-2.425-.657-3.64-.909a27.506,27.506,0,0,0-5.511-.61,17.322,17.322,0,0,0-10.029,3.012c-5.7,4.013-7.925,11.015-7.829,17.744a36.189,36.189,0,0,0,6.723,20.183,29.127,29.127,0,0,0,6.541,7.032,18.237,18.237,0,0,0,8.423,3.139,12.9,12.9,0,0,0,3.926-.019c1.134-.184,2.2-.663,3.32-.853.85-.144,2.048.525,2.869.708a12.835,12.835,0,0,0,4.27.218,19.26,19.26,0,0,0,12.8-6.9C250.908,804.21,255.412,790.91,251.029,779.718Z" transform="translate(572.527 1218.932)" fill="#6dc13a"/><text transform="translate(796 2021)" fill="#fff" font-size="24" font-family="Roboto-Light, Roboto" font-weight="300" letter-spacing="0.1em"><tspan x="-14.501" y="0">02</tspan></text></g></svg>