<svg xmlns="http://www.w3.org/2000/svg" width="58.277" height="62.819"><path d="M56.556 22.65a17.212 17.212 0 00-10.153-10.1c-5.132-1.8-10.481-.778-15.56.624-1.7 1.18-1.51-6.426.532-8.3 1.154-1.061 4.686-4.76 2.033-4.87-2.2-.091-4.8 2.644-5.816 4.363a6.027 6.027 0 00-.73 2.011 8.593 8.593 0 00-8.742-2.113c.415 7.085 5.179 8.259 8.814 7.482.036.454.065.9.077 1.343-1.22-.2-2.425-.657-3.64-.909a27.506 27.506 0 00-5.511-.61 17.322 17.322 0 00-10.029 3.012C2.131 18.596-.094 25.598.002 32.327A36.189 36.189 0 006.725 52.51a29.127 29.127 0 006.541 7.032 18.237 18.237 0 008.423 3.139 12.9 12.9 0 003.926-.019c1.134-.184 2.2-.663 3.32-.853.85-.144 2.048.525 2.869.708a12.835 12.835 0 004.27.218 19.26 19.26 0 0012.8-6.9c7.561-8.693 12.065-21.993 7.682-33.185z" fill="#6dc13a"/><text transform="translate(29 45)" fill="#fff" font-size="24" font-family="Roboto-Light, Roboto" font-weight="300" letter-spacing=".1em"><tspan x="-14.501" y="0">03</tspan></text></svg>