<svg xmlns="http://www.w3.org/2000/svg" width="88.258" height="34.763" viewBox="0 0 88.258 34.763">
  <g id="グループ_676" data-name="グループ 676" transform="translate(-677.269 -881.411)">
    <g id="グループ_675" data-name="グループ 675">
      <path id="パス_740" data-name="パス 740" d="M702.821,897.664a12.97,12.97,0,0,1,.145,6.041,10.768,10.768,0,0,1-2.432,4.861,12.1,12.1,0,0,1-4.566,3.2,11.662,11.662,0,0,1-8.2.57,12.074,12.074,0,0,1-6.931-5.558l-1.929-3.148a10.167,10.167,0,0,1-1.632-5.867,9.837,9.837,0,0,1,2.349-5.822,15.557,15.557,0,0,1,6.116-4.4,15.32,15.32,0,0,1,7.394-1.279,9.656,9.656,0,0,1,5.72,2.425,10.32,10.32,0,0,1,3.023,5.267Zm-2.125-3.443a8.863,8.863,0,0,0-5.1-6.277c-2.651-1.139-5.9-1.04-9.488.467-3.538,1.488-5.909,3.743-6.994,6.446a8.912,8.912,0,0,0,.929,8.191c.763,1.288,1.145,1.933,1.907,3.222a11.8,11.8,0,0,0,3.828,4.027,9.719,9.719,0,0,0,4.74,1.55,11.241,11.241,0,0,0,5.079-.957,10.08,10.08,0,0,0,5.554-4.985,11.337,11.337,0,0,0,.508-8.084Z" fill="#520000"/>
      <path id="パス_741" data-name="パス 741" d="M724.785,887.857c-.651-.062-.977-.09-1.63-.139a8.027,8.027,0,0,0-5.31,1.678,6.865,6.865,0,0,0-2.42,4.572c.418,4.963.627,7.444,1.046,12.407-.4.034-.594.052-.989.091l-1.875-18.927c.506-.05.759-.074,1.265-.116.133,1.576.2,2.364.333,3.941a6.889,6.889,0,0,1,2.8-3.339,9.362,9.362,0,0,1,5.158-1.256,6.157,6.157,0,0,1,1.786.235C724.885,887.345,724.852,887.516,724.785,887.857Z" fill="#520000"/>
      <path id="パス_742" data-name="パス 742" d="M735.96,882.2a.835.835,0,0,1,.5-.626,1.631,1.631,0,0,1,1.023-.131,1.7,1.7,0,0,1,.943.454.783.783,0,0,1-.239,1.36,1.745,1.745,0,0,1-1.021.111,1.668,1.668,0,0,1-.916-.431A.824.824,0,0,1,735.96,882.2Zm-2.2,24.926c-.392-.067-.589-.1-.982-.161,1.183-7.516,1.773-11.274,2.955-18.789.5.079.754.12,1.255.206C735.7,895.876,735.053,899.625,733.761,907.122Z" fill="#520000"/>
      <path id="パス_743" data-name="パス 743" d="M750.448,896.516a7.916,7.916,0,0,1,4.631-1.955,10.271,10.271,0,0,1,5.5,1.069c2.521,1.231,4.084,2.779,4.67,4.454s.234,3.513-.972,5.509c-2.593,4.232-3.89,6.349-6.484,10.581-.351-.215-.528-.321-.881-.531,2.535-4.279,3.8-6.419,6.336-10.7a5.659,5.659,0,0,0,.845-4.735c-.481-1.4-1.816-2.7-3.995-3.758a8.568,8.568,0,0,0-5.935-.738,7.8,7.8,0,0,0-4.541,3.077c-1.662,4.575-2.493,6.863-4.157,11.438-.378-.137-.567-.2-.947-.336,2.493-7.188,3.739-10.782,6.231-17.97.486.168.728.254,1.212.43Z" fill="#520000"/>
    </g>
  </g>
</svg>
