<svg xmlns="http://www.w3.org/2000/svg" width="58.277" height="62.819" viewBox="0 0 58.277 62.819"><g transform="translate(-767 -1976)"><path d="M251.029,779.718a17.212,17.212,0,0,0-10.153-10.1c-5.132-1.8-10.481-.778-15.56.624-1.7,1.18-1.51-6.426.532-8.3,1.154-1.061,4.686-4.76,2.033-4.87-2.2-.091-4.8,2.644-5.816,4.363a6.027,6.027,0,0,0-.73,2.011,8.593,8.593,0,0,0-8.742-2.113c.415,7.085,5.179,8.259,8.814,7.482.036.454.065.9.077,1.343-1.22-.2-2.425-.657-3.64-.909a27.506,27.506,0,0,0-5.511-.61,17.322,17.322,0,0,0-10.029,3.012c-5.7,4.013-7.925,11.015-7.829,17.744a36.189,36.189,0,0,0,6.723,20.183,29.127,29.127,0,0,0,6.541,7.032,18.237,18.237,0,0,0,8.423,3.139,12.9,12.9,0,0,0,3.926-.019c1.134-.184,2.2-.663,3.32-.853.85-.144,2.048.525,2.869.708a12.835,12.835,0,0,0,4.27.218,19.26,19.26,0,0,0,12.8-6.9C250.908,804.21,255.412,790.91,251.029,779.718Z" transform="translate(572.527 1218.932)" fill="#6dc13a"/><path d="M-2.606-7.113A9.443,9.443,0,0,1-3.93-1.635,4.476,4.476,0,0,1-7.833.234,4.52,4.52,0,0,1-11.712-1.6a9.093,9.093,0,0,1-1.383-5.338V-10a9.269,9.269,0,0,1,1.336-5.449,4.51,4.51,0,0,1,3.9-1.852A4.533,4.533,0,0,1-3.989-15.51a8.932,8.932,0,0,1,1.383,5.268Zm-1.406-3.059a8.329,8.329,0,0,0-.955-4.43,3.193,3.193,0,0,0-2.889-1.5,3.2,3.2,0,0,0-2.859,1.465,8.059,8.059,0,0,0-.984,4.324v3.352A8.314,8.314,0,0,0-10.71-2.5,3.209,3.209,0,0,0-7.833-.949,3.161,3.161,0,0,0-4.991-2.461a8.347,8.347,0,0,0,.979-4.43ZM13.493,0H2.805V-1.078L8.653-7.711a15.347,15.347,0,0,0,2.016-2.766,4.611,4.611,0,0,0,.563-2.121,3.448,3.448,0,0,0-.949-2.561A3.544,3.544,0,0,0,7.669-16.1,3.688,3.688,0,0,0,4.886-15a3.951,3.951,0,0,0-1.061,2.859H2.43a5.36,5.36,0,0,1,.65-2.625,4.679,4.679,0,0,1,1.852-1.857A5.5,5.5,0,0,1,7.669-17.3a5.159,5.159,0,0,1,3.662,1.23,4.362,4.362,0,0,1,1.318,3.352,5.688,5.688,0,0,1-.744,2.613A19.425,19.425,0,0,1,9.286-6.562L4.528-1.184h8.965Z" transform="translate(796 2021)" fill="#fff"/></g></svg>