<svg xmlns="http://www.w3.org/2000/svg" width="538.986" height="371.092" viewBox="0 0 538.986 371.092"><g transform="translate(-1030 -1280.908)"><g transform="translate(1159.606 1280.908)"><path d="M31.694,2.128c0-.24-.034-.275-.275-.275-.206,0-1.27.069-4.5.069h-9.3V-7.961h5.353c3.466,0,4.632.069,4.838.069.24,0,.275-.034.275-.275V-9.779c0-.24-.034-.275-.275-.275-.206,0-1.373.069-4.838.069H17.625V-18.77h7.618c3.431,0,4.564.069,4.735.069.24,0,.275-.034.275-.275v-1.647c0-.24-.034-.275-.275-.275-.172,0-1.3.069-4.735.069H8.463c-3.431,0-4.564-.069-4.735-.069-.24,0-.275.034-.275.275v1.647c0,.24.034.275.275.275.172,0,1.3-.069,4.735-.069h6.966v8.785H10.693c-3.5,0-4.667-.069-4.838-.069-.24,0-.275.034-.275.275v1.613c0,.24.034.275.275.275.172,0,1.338-.069,4.838-.069h4.735V1.922H6.713c-3.226,0-4.324-.069-4.5-.069-.24,0-.275.034-.275.275V3.809c0,.206.034.24.275.24.172,0,1.27-.069,4.5-.069H26.924c3.226,0,4.289.069,4.5.069.24,0,.275-.034.275-.24ZM68.308-14.24c3.02,0,4.015.069,4.186.069.24,0,.275-.034.275-.275v-1.407c0-.206-.034-.24-.275-.24-.172,0-1.167.069-4.186.069H65.356v-3.706a10.782,10.782,0,0,1,.172-2.951,1.645,1.645,0,0,0,.24-.686c0-.137-.172-.24-.446-.275a19.963,19.963,0,0,0-2.2-.206,22.11,22.11,0,0,1,.24,4.186v3.637H61.994c-3.02,0-4.015-.069-4.186-.069-.24,0-.275.034-.275.24v1.407c0,.24.034.275.275.275.172,0,1.167-.069,4.186-.069h.824A38.042,38.042,0,0,1,53.827-.171,4.446,4.446,0,0,1,54.925,1c.172.275.275.377.377.377s.24-.1.412-.309a35.049,35.049,0,0,0,7.824-13.451c-.069,10.26-.275,18.6-.275,19.148,0,.24.034.275.275.275h1.647c.24,0,.275-.034.275-.275,0-.583-.206-8.785-.275-19.251a37.937,37.937,0,0,0,7.24,12.7c.172.206.309.343.377.343.1,0,.206-.137.343-.377A5.85,5.85,0,0,1,74.21-1.3,36.3,36.3,0,0,1,65.8-14.24Zm-16.2.034c2.745,0,3.637.069,3.809.069.24,0,.275-.034.275-.275v-1.407c0-.24-.034-.275-.275-.275-.172,0-1.064.069-3.809.069h-.789v-3.706a8.823,8.823,0,0,1,.206-2.951,1.6,1.6,0,0,0,.206-.686c0-.137-.172-.24-.446-.275a19.963,19.963,0,0,0-2.2-.206,22.11,22.11,0,0,1,.24,4.186v3.637H47.273c-2.779,0-3.637-.069-3.843-.069-.24,0-.275.034-.275.275v1.407c0,.24.034.275.275.275.206,0,1.064-.069,3.843-.069h1.578A42.449,42.449,0,0,1,42.228-1.818a5,5,0,0,1,.892,1.373c.1.24.206.377.309.377s.24-.137.377-.343A38.627,38.627,0,0,0,49.5-12.25c-.069,10.157-.309,18.461-.309,19.01,0,.24.034.275.309.275H51.15c.275,0,.309-.034.309-.275,0-.549-.275-8.853-.309-19.422a35.979,35.979,0,0,0,3.809,7.343c.172.24.24.377.343.377.069,0,.137-.172.275-.446a6.852,6.852,0,0,1,.961-1.476,26.957,26.957,0,0,1-4.8-7.343Zm49-2.848a8.581,8.581,0,0,1,8.853,8.682c0,5.731-3.912,9.4-10.706,10.74a3.99,3.99,0,0,1,1.338,1.27.679.679,0,0,0,.892.377C108.936,2.128,112.4-2.367,112.4-7.961c0-6.554-4.564-11.049-12.25-11.049A14.63,14.63,0,0,0,89.857-15.2a12.462,12.462,0,0,0-3.98,8.887c0,4.976,2.436,7.789,5.01,7.789,2.025,0,3.569-1.029,5.044-3.534,2.162-3.5,3.912-9.2,4.53-15Zm-3.054.137A36.437,36.437,0,0,1,94.043-3.5c-1,1.75-2.025,2.5-3.191,2.5-1.235,0-2.779-1.613-2.779-5.353a10.639,10.639,0,0,1,3.294-7.412A11.562,11.562,0,0,1,98.058-16.917Zm49.07,6.623c2.2,0,4.152.069,6.142.137.309,0,.446-.1.446-.446v-1.441c0-.412-.069-.549-.377-.549-2.128.137-3.878.172-6.245.172H132.236c-1.922,0-3.637-.034-5.628-.172a18.6,18.6,0,0,0,.206,1.99c.069.412.1.549.48.515,1.441-.1,3.226-.206,4.941-.206h7a17.431,17.431,0,0,1-1.784,8.27c-1.407,2.711-3.294,4.5-6.726,6.28a6.613,6.613,0,0,1,1.922,1.132c.309.309.618.172,1.064-.1a15.526,15.526,0,0,0,6.074-6.451c1.407-2.608,1.887-5.216,2.059-9.128Zm-4.8-7.584c1.784,0,3.912,0,5.765.069.343,0,.412-.069.412-.48a9.16,9.16,0,0,0,0-1.373c0-.343-.069-.48-.377-.446-1.819.1-3.98.1-5.8.1h-6.005c-1.544,0-3.5-.034-5.525-.172.034.652.1,1.441.172,1.99.034.343.1.48.446.446,1.681-.1,3.4-.137,4.907-.137Zm6.485-4.5a17.437,17.437,0,0,1,3.431,4.735.28.28,0,0,0,.446.1l1.064-.721a.284.284,0,0,0,.1-.377,17.5,17.5,0,0,0-3.363-4.5c-.137-.1-.24-.137-.343-.069Zm3.226-1.887a17.1,17.1,0,0,1,3.431,4.632c.1.206.206.24.377.1l1-.755c.172-.137.24-.206.137-.377a16.773,16.773,0,0,0-3.4-4.358.269.269,0,0,0-.377,0ZM185.252-6.9c2.3,0,4.838,0,7.412.069.412.034.515-.034.515-.412a15.48,15.48,0,0,0,0-1.784c0-.377-.1-.446-.515-.412-2.608.069-5.147.1-7.515.1H174.614a62.673,62.673,0,0,1-7.584-.309,20.283,20.283,0,0,0,.343,2.608c.1.343.275.48.583.48A28.071,28.071,0,0,1,172.59-6.9Zm35.035-10.638c.549-.824.858-1.338,1.235-1.99a4.008,4.008,0,0,1,1-1.167c.377-.275.48-.686.069-.961a9.364,9.364,0,0,0-2.436-1.167,11.924,11.924,0,0,1-1.373,3.4,35.389,35.389,0,0,1-9.814,11.084,6.312,6.312,0,0,1,1.647.961c.309.24.549.172.892-.1a38.949,38.949,0,0,0,7.481-7.961l10.123-.206A37.984,37.984,0,0,1,224.1-7.1a46.078,46.078,0,0,0-5.113-3.226.382.382,0,0,0-.549.1,9.3,9.3,0,0,0-1.2,1.373,36.622,36.622,0,0,1,5.387,3.5,40.652,40.652,0,0,1-12.9,9.642,6.235,6.235,0,0,1,1.922,1.1c.309.309.549.24.926.034a41.83,41.83,0,0,0,11.907-9.368,36.2,36.2,0,0,1,3.843,3.775c.172.206.275.24.549.034A4.576,4.576,0,0,0,230-1.3c.137-.24.24-.412.034-.618A37.689,37.689,0,0,0,225.915-5.7a49.137,49.137,0,0,0,5.456-9.093,2.638,2.638,0,0,1,.824-1.029.587.587,0,0,0,.137-.926,7.794,7.794,0,0,0-1.476-1.373.688.688,0,0,0-.926.069c-.275.24-.652.343-1.819.377Z" transform="translate(39.956 25.092)" fill="#653333"/><path d="M0,0H320.864" transform="translate(0 40.819)" fill="none" stroke="#3e0000" stroke-width="0.7"/></g><g transform="translate(1030 1395.793)"><g transform="translate(0 0)"><path d="M17.915-5.055c2.113,0,2.81.045,2.923.045.157,0,.18-.022.18-.18v-.9c0-.157-.022-.18-.18-.18-.112,0-.809.045-2.923.045h-6.34V-8.562h3.53c2.271,0,3.035.045,3.17.045.157,0,.18-.022.18-.18v-.877c0-.157-.022-.18-.18-.18-.135,0-.9.045-3.17.045h-3.53v-2.181h4.317c2.271,0,3.035.045,3.17.045.157,0,.18-.022.18-.18v-.9c0-.157-.022-.18-.18-.18-.135,0-.9.045-3.17.045H11.575v-.45a4.062,4.062,0,0,1,.135-1.551.959.959,0,0,0,.135-.4c0-.09-.067-.18-.27-.2a14.422,14.422,0,0,0-1.506-.135,9.882,9.882,0,0,1,.157,2.293v.45h-4c-2.271,0-3.013-.045-3.125-.045-.18,0-.2.022-.2.18v.9c0,.157.022.18.2.18.112,0,.854-.045,3.125-.045h4v2.181H7.169c-2.271,0-3.035-.045-3.147-.045-.18,0-.2.022-.2.18V-8.7c0,.157.022.18.2.18.112,0,.877-.045,3.147-.045h3.058v2.338H4.246c-2.113,0-2.788-.045-2.923-.045-.157,0-.18.022-.18.18v.9c0,.157.022.18.18.18.135,0,.809-.045,2.923-.045H9.057A20.006,20.006,0,0,1,.874-.513,2.887,2.887,0,0,1,1.5.206c.225.427.225.427.629.27A24.756,24.756,0,0,0,6.967-1.907V2.544l-1.147.2A20.626,20.626,0,0,1,3.3,3.039c.112.427.247.877.4,1.3a.273.273,0,0,0,.27.2.39.39,0,0,0,.27-.112,2.653,2.653,0,0,1,.922-.27,73.306,73.306,0,0,0,7.824-1.956c.45-.135.45-.135.472-.585a3.018,3.018,0,0,1,.09-.787A52.211,52.211,0,0,1,8.271,2.274V-2.806a18.273,18.273,0,0,0,2.473-2.248h.225a14.933,14.933,0,0,0,9.2,9.06,1.132,1.132,0,0,0,.337.112c.112,0,.157-.09.315-.337a3.706,3.706,0,0,1,.742-.877A13.931,13.931,0,0,1,15.352-.513,28.038,28.038,0,0,0,17.96-2.627a1.936,1.936,0,0,1,.742-.495c.18-.067.27-.135.27-.27,0-.09-.09-.18-.18-.247a9.338,9.338,0,0,0-1.1-.787,3.192,3.192,0,0,1-.607.877,21.29,21.29,0,0,1-2.518,2.2,12.5,12.5,0,0,1-2.271-3.71Zm21.4-1.911V-11.1h5.89a13.508,13.508,0,0,1-1.574,2.585,3.47,3.47,0,0,1,.832.315c.18.09.27.157.36.157s.157-.09.27-.27A19.8,19.8,0,0,0,46.49-10.72a1.233,1.233,0,0,1,.4-.54c.112-.09.157-.157.157-.247,0-.135-.112-.315-.427-.585-.292-.27-.472-.4-.63-.4a.584.584,0,0,0-.225.09,1.087,1.087,0,0,1-.472.067h-5.98v-.517a7.4,7.4,0,0,1,.112-1.978,1.358,1.358,0,0,0,.135-.495c0-.09-.112-.157-.27-.18a13.435,13.435,0,0,0-1.484-.135,13.845,13.845,0,0,1,.157,2.788v.517H34.462c-2.248,0-3.192-.045-3.327-.045-.157,0-.18.022-.18.18,0,.112.045,1.1.045,3.372a42.01,42.01,0,0,1-.4,6.43,10.738,10.738,0,0,1-2.788,5.643,3.015,3.015,0,0,1,.832.652c.135.135.225.225.292.225.09,0,.157-.09.292-.247a13.2,13.2,0,0,0,2.7-5.98,32.231,32.231,0,0,0,.337-3.62H34.44a16.462,16.462,0,0,0,3.822,5.6,21.053,21.053,0,0,1-7.014,3.417,2.548,2.548,0,0,1,.629.832c.112.247.135.36.27.36a1.917,1.917,0,0,0,.337-.09A22.213,22.213,0,0,0,39.3.746a21.7,21.7,0,0,0,7.6,3.6,1.128,1.128,0,0,0,.315.067c.157,0,.2-.112.315-.382a3.422,3.422,0,0,1,.607-.944,21.1,21.1,0,0,1-7.8-3.237,21.073,21.073,0,0,0,3.912-5.1,1.4,1.4,0,0,1,.427-.562c.135-.09.18-.157.18-.27s-.135-.292-.45-.607c-.337-.292-.45-.382-.629-.382a.656.656,0,0,0-.2.045,1.212,1.212,0,0,1-.495.067Zm-1.349,0H32.326c.022-.607.022-1.192.022-1.709V-11.1h5.62ZM42.96-5.729A17.739,17.739,0,0,1,39.3-.985a13.158,13.158,0,0,1-3.485-4.744ZM68.59-2.042a12.027,12.027,0,0,0-2.361-.247c-1.911,0-3.462,1.012-3.462,2.675,0,1.641,1.394,2.563,3.507,2.563,2.54,0,3.665-1.057,3.755-3.035a14.643,14.643,0,0,1,3.147,2.068c.09.09.18.112.27-.022a4.192,4.192,0,0,0,.607-.989c.067-.157.067-.2-.045-.292a16.051,16.051,0,0,0-3.957-2.316c-.112-2.023-.18-4.159-.2-6.79a28.34,28.34,0,0,0,3.71-.54c.09-.022.157-.112.157-.27a5.8,5.8,0,0,0-.09-.9c-.022-.157-.045-.2-.225-.157-1.169.225-2.383.4-3.552.517,0-.922,0-1.709.045-2.5a3.135,3.135,0,0,1,.18-1.079.615.615,0,0,0,.09-.315c0-.112-.09-.2-.247-.27a7.488,7.488,0,0,0-1.731-.315,8.26,8.26,0,0,1,.225,2c0,.9-.022,1.754-.022,2.585a37.952,37.952,0,0,1-5.306,0,9.206,9.206,0,0,0,.09,1.192c.022.18.112.2.247.2a41.253,41.253,0,0,0,5.013-.022C68.432-5.976,68.5-3.908,68.59-2.042Zm0,1.8c0,1.192-.787,1.911-2.383,1.911-1.349,0-2.158-.472-2.158-1.281,0-.922.832-1.439,2.091-1.439a8.8,8.8,0,0,1,2.451.382ZM58.226-14.137a9.534,9.534,0,0,1-.112,2.226,50.677,50.677,0,0,0-.967,8.431A19.39,19.39,0,0,0,58,3.084c.067.18.135.225.292.18A5.973,5.973,0,0,0,59.3,2.971a.215.215,0,0,0,.112-.292,3.9,3.9,0,0,1,.022-1.012,19.492,19.492,0,0,1,1.349-3.552.407.407,0,0,0-.022-.495,3.444,3.444,0,0,1-.517-.922c-.585,1.326-1.1,2.451-1.574,3.665a29.14,29.14,0,0,1-.157-3.889,44.344,44.344,0,0,1,1.079-8.3,3.615,3.615,0,0,1,.36-1.124.379.379,0,0,0-.135-.607A5.671,5.671,0,0,0,58.226-14.137Zm43.817,4.519c0-.157-.022-.18-.18-.18-.112,0-.809.045-2.878.045h-3.3v-2.136h1.6c2.293,0,3.013.045,3.147.045.157,0,.18-.022.18-.2V-12.9c0-.157-.022-.18-.18-.18-.135,0-.854.045-3.147.045h-1.6v-.225a6.909,6.909,0,0,1,.112-1.776,1.3,1.3,0,0,0,.135-.382c0-.09-.112-.18-.247-.2-.472-.045-.9-.067-1.461-.09a10.755,10.755,0,0,1,.157,2.451v.225H89.453v-.225a6.213,6.213,0,0,1,.112-1.8.789.789,0,0,0,.135-.36c0-.09-.112-.18-.27-.2-.472-.045-.9-.067-1.439-.09a10.52,10.52,0,0,1,.157,2.451v.225H86.89c-2.271,0-3.013-.045-3.125-.045-.18,0-.2.022-.2.18v.854c0,.18.022.2.2.2.112,0,.854-.045,3.125-.045h1.259v2.136H85.092c-2.068,0-2.765-.045-2.878-.045-.157,0-.18.022-.18.18v.854c0,.157.022.18.18.18.112,0,.809-.045,2.878-.045h6.138v1.821H88.307c-2.248,0-3.035-.045-3.17-.045-.157,0-.18.022-.18.18,0,.135.045.629.045,2.113v2.99C85-.109,84.957.408,84.957.521c0,.157.022.18.18.18.135,0,.922-.045,3.17-.045h7.4C97.951.656,98.761.7,98.9.7c.157,0,.18-.022.18-.18,0-.112-.045-.629-.045-2.091V-4.56c0-1.484.045-1.978.045-2.113,0-.157-.022-.18-.18-.18-.135,0-.944.045-3.192.045H92.511V-8.629h6.475c2.068,0,2.765.045,2.878.045.157,0,.18-.022.18-.18ZM97.726-.4H92.511V-2.649h5.216Zm-6.5,0H86.306V-2.649h4.924Zm6.5-3.26H92.511V-5.752h5.216Zm-3.35-6.093H89.453v-2.136h4.924ZM91.229-3.661H86.306V-5.752h4.924ZM89.745,1.915c0-.112-.067-.2-.225-.292a7.888,7.888,0,0,0-1.079-.562,4.383,4.383,0,0,1-.9.652,16.123,16.123,0,0,1-5.148,1.641,3.412,3.412,0,0,1,.585.787c.135.27.18.36.315.36a1.429,1.429,0,0,0,.337-.067,18.524,18.524,0,0,0,5.171-2,2.856,2.856,0,0,1,.674-.315C89.633,2.095,89.745,2,89.745,1.915ZM94.579,1.6c-.247.18-.292.247-.135.36a15.9,15.9,0,0,0,5.823,2.473,2.58,2.58,0,0,0,.315.045c.157,0,.2-.09.337-.337a2.94,2.94,0,0,1,.607-.764,14.928,14.928,0,0,1-6-2.248c-.112-.067-.157-.067-.36.09Zm31.475-8.543c2.2,0,2.923.045,3.035.045.157,0,.18-.022.18-.18v-.9c0-.157-.022-.18-.18-.18-.112,0-.809.045-2.743.045l.2-3.957c.045-.832.112-1.664.225-2.518,0-.157-.045-.2-.2-.2-.135,0-.764.045-2.63.045h-3.395c-1.844,0-2.451-.045-2.563-.045-.135,0-.157.022-.157.18v.9c0,.157.022.2.157.18a23.986,23.986,0,0,1,2.563-.067h4.834l-.135,2.068h-4.2c-1.776,0-2.338-.045-2.451-.045-.157,0-.18.022-.18.18v.877c0,.157.022.18.18.18.112,0,.674-.045,2.451-.045h4.137l-.135,2.271h-4.9c-2.2,0-2.923-.045-3.058-.045-.157,0-.18.022-.18.18v.9c0,.157.022.18.18.18.135,0,.854-.045,3.058-.045H122.1v9.15c0,.7-.157.877-1.079.877a12.665,12.665,0,0,1-1.6-.09,2.848,2.848,0,0,1,.4.877c.135.472.157.495.607.495a4.449,4.449,0,0,0,2.361-.36c.427-.315.607-.674.607-1.551,0-1.6-.045-4.451-.157-7.352a15.256,15.256,0,0,0,4.834,7.464c.18.157.27.247.36.247s.157-.09.27-.292a2.646,2.646,0,0,1,.652-.809A15.1,15.1,0,0,1,123.4-6.943ZM114.993-8.09c-.27.112-.292.157-.225.315a13.024,13.024,0,0,1,.764,1.6c-1.259.112-2.406.18-3.552.225,1.259-1.641,2.518-3.507,3.777-5.508a3.59,3.59,0,0,1,.764-1.034c.135-.09.2-.157.2-.292,0-.09-.067-.157-.225-.247a7.966,7.966,0,0,0-1.169-.562,6.957,6.957,0,0,1-.652,1.484c-.562.967-1.124,1.933-1.731,2.855-.517-.585-.989-1.147-1.506-1.686a39.532,39.532,0,0,0,2.136-3.35c.157-.27.225-.382.382-.472a.292.292,0,0,0,.18-.27c0-.09-.067-.18-.225-.27a7.311,7.311,0,0,0-1.192-.54,4.026,4.026,0,0,1-.4,1.169c-.427.854-1.079,1.956-1.686,2.9l-.9-.877c-.112-.112-.157-.09-.337.112l-.36.45c-.18.225-.2.27-.067.4A32.53,32.53,0,0,1,112.25-8.18c-.517.787-1.079,1.529-1.664,2.293h-.225a10.364,10.364,0,0,1-1.461-.045c.067.517.112.9.18,1.237.045.18.112.292.225.292a.551.551,0,0,0,.27-.09,2.132,2.132,0,0,1,.854-.2c.742-.045,1.529-.112,2.338-.18V1.038c0,2.451-.045,3.147-.045,3.282,0,.157.022.157.18.157h1.012c.157,0,.18,0,.18-.157,0-.112-.045-.832-.045-3.282V-4.987l1.844-.2.382,1.214c.067.2.112.2.4.112l.472-.157c.27-.09.292-.157.247-.315A20.508,20.508,0,0,0,115.78-8.18c-.09-.157-.135-.157-.36-.067Zm-3.44,5.373c0-.09-.09-.157-.292-.225-.225-.067-.674-.157-1.147-.247a7.441,7.441,0,0,1-.067,1.371,14.544,14.544,0,0,1-1.079,4.182,2.445,2.445,0,0,1,.742.337.811.811,0,0,0,.337.18c.09,0,.135-.112.225-.337a21.354,21.354,0,0,0,.967-4.114,3.048,3.048,0,0,1,.225-.854A.5.5,0,0,0,111.553-2.717ZM121.4-.851a2.786,2.786,0,0,1-.09-.787A22.816,22.816,0,0,1,117.848.319,9.784,9.784,0,0,1,116.207.9a10.755,10.755,0,0,0,.54,1.124c.09.157.157.2.247.2.112,0,.2-.112.292-.2a2.968,2.968,0,0,1,.7-.427A30.231,30.231,0,0,0,121.13-.2C121.49-.446,121.49-.468,121.4-.851Zm7.149-4.362c0-.09-.067-.18-.247-.292a5.934,5.934,0,0,0-.944-.517,2.22,2.22,0,0,1-.27.629,9.514,9.514,0,0,1-1.866,2.158,1.784,1.784,0,0,1,.562.382c.135.135.225.2.315.2.067,0,.157-.067.315-.225a14.977,14.977,0,0,0,1.506-1.709,1.82,1.82,0,0,1,.382-.36C128.414-5.01,128.549-5.1,128.549-5.212Zm-10.544-.247c-.247.157-.247.2-.135.315a10.692,10.692,0,0,1,1.776,2.473c.045.09.09.135.157.135a.7.7,0,0,0,.247-.112l.517-.337c.2-.135.225-.18.135-.315a11.457,11.457,0,0,0-1.888-2.451c-.112-.112-.157-.135-.36,0ZM115.33-3.279c-.27.09-.292.112-.225.27a16.2,16.2,0,0,1,.787,3.125c.045.2.112.225.382.135l.472-.157c.27-.112.292-.135.27-.292a17.376,17.376,0,0,0-.9-3.1c-.067-.157-.09-.18-.337-.112Zm24.91.157H150c2.271,0,3.08.045,3.192.045.157,0,.18-.022.18-.18,0-.135-.045-.562-.045-1.866v-2.2c0-1.3.045-1.731.045-1.866,0-.157-.022-.18-.18-.18-.112,0-.922.045-3.192.045H146.85a28.856,28.856,0,0,0,2.2-2.563,1.843,1.843,0,0,1,.562-.562c.18-.09.292-.2.292-.337s-.112-.247-.45-.54c-.36-.315-.495-.382-.607-.382a.334.334,0,0,0-.2.045.915.915,0,0,1-.495.067H143.3l.36-.517a1.919,1.919,0,0,1,.495-.607c.112-.067.225-.18.225-.292,0-.09-.045-.18-.247-.27a10.111,10.111,0,0,0-1.349-.4,5.192,5.192,0,0,1-.674,1.529,17.665,17.665,0,0,1-6.385,5.89,2.778,2.778,0,0,1,.607.719c.135.225.18.315.27.315.067,0,.157-.067.315-.157q1.079-.708,1.956-1.416c0,.292.022.742.022,1.484V.611c0,1.821.54,2.5,1.484,2.788.967.337,3.058.472,6.52.472,3.979,0,6.452-.18,7.352-.877.809-.585,1.124-1.461,1.259-3.192.045-.427.045-.45-.382-.585a3.389,3.389,0,0,1-.989-.495c-.112,1.821-.157,2.63-.877,3.147-.764.54-2.945.674-6.52.674a28.886,28.886,0,0,1-5.351-.27c-.967-.225-1.147-.742-1.147-2.091ZM151.976-4.29H146.6V-8.18h5.373Zm-6.7,0H140.24V-8.18h5.036Zm2.563-8.183a27.393,27.393,0,0,1-2.563,3.147h-3.058c-1.439,0-2.248,0-2.7-.022a19.435,19.435,0,0,0,2.968-3.125ZM166-1.39a3.157,3.157,0,0,0-3.17,3.125,3.17,3.17,0,0,0,6.34,0A3.157,3.157,0,0,0,166-1.39Zm0,1.124a1.991,1.991,0,0,1,2,2,2,2,0,1,1-2-2Zm40.715-2.563c2.113,0,2.81.045,2.923.045.157,0,.18-.022.18-.2v-.944c0-.157-.022-.157-.18-.157-.112,0-.809.045-2.923.045h-6.295V-6.111h3.058c2.226,0,3.013.045,3.147.045.157,0,.18-.022.18-.18,0-.112-.045-.674-.045-2.226v-3.665c0-1.551.045-2.113.045-2.248,0-.157-.022-.18-.18-.18-.135,0-.922.045-3.147.045h-7.1c-2.2,0-3.013-.045-3.125-.045-.157,0-.18.022-.18.18,0,.135.045.7.045,2.248v3.665c0,1.551-.045,2.113-.045,2.226,0,.157.022.18.18.18.112,0,.922-.045,3.125-.045h2.72v2.068H193.23c-2.113,0-2.81-.045-2.923-.045-.157,0-.18,0-.18.157v.944c0,.18.022.2.18.2.112,0,.809-.045,2.923-.045H198.2c-2.046,2.473-4.879,4.047-8.431,5.328a2.752,2.752,0,0,1,.674.764c.225.36.225.382.652.225a17.548,17.548,0,0,0,8.071-5.778c-.022,3.44-.157,6.115-.157,6.655,0,.157.022.18.2.18h1.1c.157,0,.18-.022.18-.18,0-.54-.135-3.26-.135-6.722a17.989,17.989,0,0,0,8.5,5.733c.4.157.45.157.652-.247a2.987,2.987,0,0,1,.652-.9,19.352,19.352,0,0,1-8.88-5.058Zm-1.281-4.429h-5.013V-9.8h5.013Zm0-3.665h-5.013v-2.451h5.013ZM199.1-7.258h-4.654V-9.8H199.1Zm0-3.665h-4.654v-2.451H199.1Zm36.646,2.788c0-2.518.045-3.642.045-3.754,0-.157-.023-.18-.18-.18-.112,0-.9.045-3.125.045H227.4c.09-.585.157-1.192.2-1.866a2.911,2.911,0,0,1,.18-1.1.732.732,0,0,0,.09-.315c0-.112-.135-.18-.36-.225a12.983,12.983,0,0,0-1.3-.157,14.819,14.819,0,0,1,.045,2.518c-.022.4-.067.787-.112,1.147h-4.631c-2.226,0-2.99-.045-3.125-.045-.157,0-.18.022-.18.18,0,.112.045,1.124.045,3.642V.566c0,2.518-.045,3.507-.045,3.62,0,.157.022.18.18.18h1.1c.135,0,.157-.022.157-.18,0-.112-.045-1.124-.045-3.462V-10.833h6.25c-.7,2.226-2.406,3.934-5.576,5.171a2.578,2.578,0,0,1,.7.764c.135.2.18.292.292.292a.9.9,0,0,0,.36-.135c2.788-1.416,4.384-3.013,5.238-5.171a10.874,10.874,0,0,0,5.373,5.058.964.964,0,0,0,.337.112c.09,0,.157-.09.27-.36a2.715,2.715,0,0,1,.607-.854,9.786,9.786,0,0,1-5.845-4.879h6.79V1.892c0,.652-.27.9-.877.9a18.046,18.046,0,0,1-2.158-.112,3.328,3.328,0,0,1,.427,1.057c.112.427.112.427.562.427,1.776,0,2.518-.135,2.878-.427a1.732,1.732,0,0,0,.562-1.484c0-.719-.045-1.8-.045-3.6Zm-2.54,8c-3.058-1.192-4.676-2.585-5.823-4.991a5.12,5.12,0,0,1,.315-1.169.529.529,0,0,0,.112-.292c0-.112-.067-.2-.315-.247a8.349,8.349,0,0,0-1.237-.2,8.877,8.877,0,0,1-.27,2.226c-.495,2.068-2.181,3.889-5.643,5.081a2.749,2.749,0,0,1,.764.764c.135.2.2.292.315.292a.9.9,0,0,0,.36-.135c2.608-1.192,4.294-2.653,5.148-4.766A10.885,10.885,0,0,0,231.966.948a.782.782,0,0,0,.315.135c.112,0,.157-.09.27-.36A2.536,2.536,0,0,1,233.2-.131Zm24.236-1.911a12.027,12.027,0,0,0-2.361-.247c-1.911,0-3.462,1.012-3.462,2.675,0,1.641,1.394,2.563,3.507,2.563,2.54,0,3.665-1.057,3.754-3.035a14.643,14.643,0,0,1,3.147,2.068c.09.09.18.112.27-.022A4.191,4.191,0,0,0,262.9.971c.067-.157.067-.2-.045-.292A16.051,16.051,0,0,0,258.9-1.637c-.112-2.023-.18-4.159-.2-6.79a28.341,28.341,0,0,0,3.71-.54c.09-.022.157-.112.157-.27a5.8,5.8,0,0,0-.09-.9c-.022-.157-.045-.2-.225-.157-1.169.225-2.383.4-3.552.517,0-.922,0-1.709.045-2.5a3.136,3.136,0,0,1,.18-1.079.615.615,0,0,0,.09-.315c0-.112-.09-.2-.247-.27a7.488,7.488,0,0,0-1.731-.315,8.261,8.261,0,0,1,.225,2c0,.9-.023,1.754-.023,2.585a37.951,37.951,0,0,1-5.306,0,9.2,9.2,0,0,0,.09,1.192c.022.18.112.2.247.2a41.252,41.252,0,0,0,5.013-.022C257.281-5.976,257.349-3.908,257.439-2.042Zm0,1.8c0,1.192-.787,1.911-2.383,1.911-1.349,0-2.158-.472-2.158-1.281,0-.922.832-1.439,2.091-1.439a8.8,8.8,0,0,1,2.451.382ZM247.074-14.137a9.533,9.533,0,0,1-.112,2.226A50.678,50.678,0,0,0,246-3.481a19.39,19.39,0,0,0,.854,6.565c.067.18.135.225.292.18a5.973,5.973,0,0,0,1.012-.292.215.215,0,0,0,.112-.292,3.9,3.9,0,0,1,.022-1.012,19.493,19.493,0,0,1,1.349-3.552.407.407,0,0,0-.022-.495A3.444,3.444,0,0,1,249.1-3.3c-.585,1.326-1.1,2.451-1.574,3.665a29.137,29.137,0,0,1-.157-3.889,44.344,44.344,0,0,1,1.079-8.3,3.615,3.615,0,0,1,.36-1.124.379.379,0,0,0-.135-.607A5.671,5.671,0,0,0,247.074-14.137Zm44.02,17.221A10.818,10.818,0,0,1,286.216.611a8.431,8.431,0,0,1-2.63-4.451c.045-.292.067-.607.112-1.012a3.574,3.574,0,0,1,.067-.922,1.152,1.152,0,0,0,.157-.4c0-.135-.112-.2-.292-.247-.4-.067-.877-.135-1.394-.18a11.025,11.025,0,0,1,.09,1.709A8.174,8.174,0,0,1,280.82-.041c-1.3,1.731-3.237,2.563-5.958,3.215a2.528,2.528,0,0,1,.652.809c.225.4.247.382.674.247a10.281,10.281,0,0,0,5.418-3.192,8.2,8.2,0,0,0,1.484-3.013,10.111,10.111,0,0,0,2.428,3.732A12.064,12.064,0,0,0,289.9,4.3c.427.135.427.135.607-.292A3.089,3.089,0,0,1,291.094,3.084Zm-.292-9.4a10.809,10.809,0,0,1-4.631-2.316,7.624,7.624,0,0,1-2.563-4.317,8.161,8.161,0,0,0,.09-.877,4.561,4.561,0,0,1,.067-.9,1.249,1.249,0,0,0,.157-.427c0-.135-.112-.225-.292-.247-.45-.067-.877-.112-1.416-.157a10.625,10.625,0,0,1,.112,1.686,7.878,7.878,0,0,1-1.416,4.811,8.532,8.532,0,0,1-4.924,2.99,2.468,2.468,0,0,1,.674.764c.247.382.247.382.652.225a9.381,9.381,0,0,0,4.474-3.08,7.773,7.773,0,0,0,1.349-2.878,8.358,8.358,0,0,0,2.383,3.507A12.371,12.371,0,0,0,289.61-5.19c.4.157.4.157.607-.27A3.2,3.2,0,0,1,290.8-6.314ZM275.2-2.132c.135-.4.135-.4-.2-.7a5.113,5.113,0,0,1-.719-.674,34.587,34.587,0,0,1-2.113,5.1,9.826,9.826,0,0,1-1.192,1.821,11.554,11.554,0,0,0,1.057.787.735.735,0,0,0,.337.135c.112,0,.18-.112.225-.27a6.508,6.508,0,0,1,.4-.967C273.761,1.533,274.5-.266,275.2-2.132Zm-4.182-6.79c-.18.225-.2.27-.045.36a14.577,14.577,0,0,1,3.013,2.428c.157.157.2.135.315-.022l.54-.719c.18-.225.18-.247.067-.36A17.564,17.564,0,0,0,271.782-9.6c-.135-.09-.18-.09-.315.09Zm1.214-5.6c-.2.225-.225.247-.067.36a20,20,0,0,1,3.013,2.608c.09.09.112.112.292-.09l.495-.652c.18-.2.18-.247.067-.36a17.594,17.594,0,0,0-3.013-2.5c-.112-.09-.18-.067-.337.112Zm7.149.967c-.315-.157-.337-.157-.382-.022a8.992,8.992,0,0,1-2.181,3.192c-.135.112-.09.18.135.337l.585.36c.2.135.27.135.382.022a10.111,10.111,0,0,0,2.2-3.327c.067-.18.067-.18-.2-.315Zm-.067,9.308c-.315-.157-.337-.157-.382-.022a8.847,8.847,0,0,1-2.158,3.17c-.135.112-.112.157.135.337l.562.36c.2.135.27.135.382.022a9.954,9.954,0,0,0,2.181-3.3c.067-.18.067-.18-.2-.315Zm10.3-8.858a.232.232,0,0,0-.157-.247,7.057,7.057,0,0,0-1.237-.517,3.133,3.133,0,0,1-.495.989,9.634,9.634,0,0,1-1.956,2.181,2.072,2.072,0,0,1,.764.4c.157.157.225.225.315.225s.157-.067.337-.247a13.816,13.816,0,0,0,1.754-2.046,1.522,1.522,0,0,1,.45-.472C289.543-12.923,289.61-12.991,289.61-13.1Zm-.382,9.465a.232.232,0,0,0-.157-.247,7.056,7.056,0,0,0-1.237-.517,3.7,3.7,0,0,1-.517,1.034,7.575,7.575,0,0,1-1.754,1.911,2.072,2.072,0,0,1,.764.4c.157.157.225.225.292.225.09,0,.18-.09.36-.247A11.032,11.032,0,0,0,288.554-2.9a1.522,1.522,0,0,1,.45-.472C289.161-3.458,289.228-3.526,289.228-3.638Zm10.544-8.813a9.54,9.54,0,0,1,.18,2.158,49.332,49.332,0,0,0,.4,6.272c.495,3.53,1.911,6.138,3.8,6.138,1.506,0,2.72-1.709,3.35-3.53a.5.5,0,0,0-.18-.562,2.858,2.858,0,0,1-.742-1.124c-.652,2.091-1.506,3.53-2.406,3.53-1.079,0-2.046-1.933-2.383-4.586a35.9,35.9,0,0,1-.315-5.1,7.733,7.733,0,0,1,.18-2.068,1.669,1.669,0,0,0,.09-.4c0-.09-.067-.18-.2-.247A6.182,6.182,0,0,0,299.772-12.451Zm11.511,2.81a13.1,13.1,0,0,1,4.227,7.8.207.207,0,0,0,.292.18,4.451,4.451,0,0,0,1.034-.517.258.258,0,0,0,.157-.292,13.632,13.632,0,0,0-4.384-7.779c-.09-.09-.2-.067-.337,0A9.187,9.187,0,0,0,311.283-9.641Zm33.566.022c0-.157-.022-.18-.18-.18-.112,0-.809.045-2.878.045h-3.3v-2.136h1.6c2.293,0,3.013.045,3.147.045.157,0,.18-.022.18-.2V-12.9c0-.157-.022-.18-.18-.18-.135,0-.854.045-3.147.045h-1.6v-.225a6.91,6.91,0,0,1,.112-1.776,1.3,1.3,0,0,0,.135-.382c0-.09-.112-.18-.247-.2-.472-.045-.9-.067-1.461-.09a10.755,10.755,0,0,1,.157,2.451v.225h-4.924v-.225a6.215,6.215,0,0,1,.112-1.8.789.789,0,0,0,.135-.36c0-.09-.112-.18-.27-.2-.472-.045-.9-.067-1.439-.09a10.521,10.521,0,0,1,.157,2.451v.225H329.7c-2.271,0-3.013-.045-3.125-.045-.18,0-.2.022-.2.18v.854c0,.18.022.2.2.2.112,0,.854-.045,3.125-.045h1.259v2.136H327.9c-2.068,0-2.765-.045-2.878-.045-.157,0-.18.022-.18.18v.854c0,.157.022.18.18.18.112,0,.809-.045,2.878-.045h6.138v1.821h-2.923c-2.248,0-3.035-.045-3.17-.045-.157,0-.18.022-.18.18,0,.135.045.629.045,2.113v2.99c0,1.461-.045,1.978-.045,2.091,0,.157.022.18.18.18.135,0,.922-.045,3.17-.045h7.4c2.248,0,3.058.045,3.192.045.157,0,.18-.022.18-.18,0-.112-.045-.629-.045-2.091V-4.56c0-1.484.045-1.978.045-2.113,0-.157-.022-.18-.18-.18-.135,0-.944.045-3.192.045h-3.192V-8.629h6.475c2.068,0,2.765.045,2.878.045.157,0,.18-.022.18-.18ZM340.532-.4h-5.216V-2.649h5.216Zm-6.5,0h-4.924V-2.649h4.924Zm6.5-3.26h-5.216V-5.752h5.216Zm-3.35-6.093h-4.924v-2.136h4.924Zm-3.147,6.093h-4.924V-5.752h4.924Zm-1.484,5.576c0-.112-.067-.2-.225-.292a7.886,7.886,0,0,0-1.079-.562,4.385,4.385,0,0,1-.9.652A16.124,16.124,0,0,1,325.2,3.354a3.412,3.412,0,0,1,.585.787c.135.27.18.36.315.36a1.429,1.429,0,0,0,.337-.067,18.524,18.524,0,0,0,5.171-2,2.856,2.856,0,0,1,.674-.315C332.439,2.095,332.551,2,332.551,1.915Zm4.834-.315c-.247.18-.292.247-.135.36a15.9,15.9,0,0,0,5.823,2.473,2.58,2.58,0,0,0,.315.045c.157,0,.2-.09.337-.337a2.941,2.941,0,0,1,.607-.764,14.928,14.928,0,0,1-6-2.248c-.112-.067-.157-.067-.36.09Zm18.683-4.721h9.757c2.271,0,3.08.045,3.192.045.157,0,.18-.022.18-.18,0-.135-.045-.562-.045-1.866v-2.2c0-1.3.045-1.731.045-1.866,0-.157-.022-.18-.18-.18-.112,0-.922.045-3.192.045h-3.147a28.854,28.854,0,0,0,2.2-2.563,1.843,1.843,0,0,1,.562-.562c.18-.09.292-.2.292-.337s-.112-.247-.45-.54c-.36-.315-.495-.382-.607-.382a.334.334,0,0,0-.2.045.915.915,0,0,1-.495.067h-4.856l.36-.517a1.919,1.919,0,0,1,.495-.607c.112-.067.225-.18.225-.292,0-.09-.045-.18-.247-.27a10.111,10.111,0,0,0-1.349-.4,5.191,5.191,0,0,1-.674,1.529,17.665,17.665,0,0,1-6.385,5.89,2.779,2.779,0,0,1,.607.719c.135.225.18.315.27.315.067,0,.157-.067.315-.157q1.079-.708,1.956-1.416c0,.292.022.742.022,1.484V.611c0,1.821.54,2.5,1.484,2.788.967.337,3.058.472,6.52.472,3.979,0,6.452-.18,7.352-.877.809-.585,1.124-1.461,1.259-3.192.045-.427.045-.45-.382-.585a3.389,3.389,0,0,1-.989-.495c-.112,1.821-.157,2.63-.877,3.147-.764.54-2.945.674-6.52.674a28.886,28.886,0,0,1-5.351-.27c-.967-.225-1.147-.742-1.147-2.091ZM367.8-4.29H362.43V-8.18H367.8Zm-6.7,0h-5.036V-8.18H361.1Zm2.563-8.183A27.39,27.39,0,0,1,361.1-9.326h-3.058c-1.439,0-2.248,0-2.7-.022a19.436,19.436,0,0,0,2.968-3.125ZM381.832-1.39a3.157,3.157,0,0,0-3.17,3.125,3.17,3.17,0,0,0,6.34,0A3.157,3.157,0,0,0,381.832-1.39Zm0,1.124a1.991,1.991,0,0,1,2,2,2,2,0,1,1-2-2Z" transform="translate(153.984 25.494)" fill="#653333"/><path d="M3.55,0H121.876a3.55,3.55,0,0,1,3.55,3.55V40.231a3.55,3.55,0,0,1-3.55,3.55H3.55A3.55,3.55,0,0,1,0,40.231V3.55A3.55,3.55,0,0,1,3.55,0Z" fill="#6dc13a" opacity="0.898"/><path d="M3.466.461c0,1.768.447,2.577,1.342,2.939.937.447,2.7.6,6.475.6,4.366,0,6.39-.213,7.22-.809.852-.554,1.257-1.427,1.406-3.11.064-.639.085-.682-.6-.831a6.293,6.293,0,0,1-1.661-.618c-.085,1.534-.106,2.215-.724,2.684-.618.447-1.981.6-5.751.6a23.617,23.617,0,0,1-4.622-.234c-.7-.192-.873-.6-.873-1.64V-2.478h9.052c2.087,0,2.833.043,2.961.043.213,0,.234-.021.234-.234,0-.128-.043-.639-.043-1.874V-7.1c0-1.214.043-1.7.043-1.832,0-.213-.021-.234-.234-.234-.128,0-.873.043-2.961.043H12.22c.554-.575,1.022-1.129,1.619-1.853a2.6,2.6,0,0,1,.66-.66c.213-.106.341-.192.341-.383s-.106-.319-.6-.745c-.532-.426-.7-.532-.852-.532a.836.836,0,0,0-.3.064,1.052,1.052,0,0,1-.511.064H8.493l.064-.085a2.246,2.246,0,0,1,.532-.7.442.442,0,0,0,.234-.341c0-.149-.085-.256-.3-.341-.6-.149-1.278-.3-2.066-.426a7.648,7.648,0,0,1-.682,1.406A16.351,16.351,0,0,1,.612-8.527a3.754,3.754,0,0,1,.809,1.3c.128.341.213.511.341.511.106,0,.234-.106.469-.256.426-.277.852-.554,1.235-.852ZM15.649-4.4h-4V-7.228h4Zm-9.968,0V-7.228H9.472V-4.4Zm-.6-4.728A16.761,16.761,0,0,0,7.257-11.4h4.26A21.6,21.6,0,0,1,9.664-9.124Z" transform="translate(52.176 28.004)" fill="#fff"/></g><g transform="translate(0 69.813)"><path d="M3.06-10.456a2.873,2.873,0,0,1,2.878-2.361,2.5,2.5,0,0,1,2.7,2.63c0,1.866-1.169,3.013-3.485,3.013H4.027v1.6H5.286c2.5,0,3.687,1.237,3.687,3.35A2.909,2.909,0,0,1,5.982.988,3.068,3.068,0,0,1,2.768-1.418l-1.8.674c.854,2.271,2.5,3.26,5.013,3.26A4.586,4.586,0,0,0,10.906-2.25,4.041,4.041,0,0,0,7.444-6.386v-.2a3.624,3.624,0,0,0,3.1-3.754c0-2.361-1.911-4-4.586-4a4.68,4.68,0,0,0-4.7,3.282Zm20.009-3.889c-3.147,0-4.969,2.451-4.969,8.386,0,5.958,1.731,8.476,4.924,8.476S27.97-.046,27.97-6C27.97-11.939,26.216-14.345,23.069-14.345Zm0,1.551c2.023,0,2.99,1.776,2.99,6.812S25.07.965,23.024.965C21,.965,20.011-.946,20.011-5.982,20.011-11.04,21.068-12.794,23.069-12.794Zm16.974-1.551c-3.147,0-4.969,2.451-4.969,8.386C35.074,0,36.805,2.517,40,2.517S44.944-.046,44.944-6C44.944-11.939,43.19-14.345,40.043-14.345Zm0,1.551c2.023,0,2.99,1.776,2.99,6.812S42.044.965,40,.965c-2.023,0-3.013-1.911-3.013-6.947C36.985-11.04,38.042-12.794,40.043-12.794ZM62.21-10.7a3.453,3.453,0,0,0-3.282,1.754,4.654,4.654,0,0,0-2.271-.562c-2.383,0-4.249,1.529-4.249,3.732a3.455,3.455,0,0,0,1.529,2.923c-1.124.719-1.664,1.484-1.664,2.293,0,.854.54,1.439,1.709,1.709-1.439.472-2.271,1.349-2.271,2.383,0,1.664,1.821,2.765,5.058,2.765,3.6,0,5.463-1.439,5.463-3.26,0-1.506-.854-2.5-3.889-2.788L56.027.021c-1.844-.2-2.136-.495-2.136-1.1,0-.4.36-.9,1.034-1.281a4.482,4.482,0,0,0,1.731.337c2.5,0,4.249-1.461,4.249-3.754A3.3,3.3,0,0,0,59.782-8.3a2.791,2.791,0,0,1,2.293-.832ZM56.657-8.275A2.425,2.425,0,0,1,59.2-5.757a2.425,2.425,0,0,1-2.54,2.518,2.425,2.425,0,0,1-2.54-2.518A2.425,2.425,0,0,1,56.657-8.275Zm1.326,9.982c2.158.225,2.608.742,2.608,1.551,0,1.012-1.281,1.844-3.754,1.844-2.091,0-3.53-.607-3.53-1.821,0-.809.674-1.461,2.023-1.844ZM69.7-4.475C71.473-6.162,72.642-6.7,73.991-6.7s2.518.427,4.744,1.664a9.121,9.121,0,0,0,4.519,1.461c1.911,0,3.575-.944,5.328-3.035l-.719-.629c-1.686,1.754-2.968,2.293-4.339,2.293-1.281,0-2.451-.427-4.744-1.664A9.365,9.365,0,0,0,74.26-8.028c-1.911,0-3.485.967-5.283,2.945Zm33.993-9.757h-2.563L95.483-2.992V-1.6H102V2.224h1.686V-1.6h2.271V-3.082h-2.271ZM102-3.082H97.147l2.99-6.138c.562-1.147,1.034-2.293,1.574-3.53h.382c-.045,1.461-.09,2.653-.09,3.957Zm15.76-11.263c-3.147,0-4.969,2.451-4.969,8.386,0,5.958,1.731,8.476,4.924,8.476S122.664-.046,122.664-6C122.664-11.939,120.91-14.345,117.763-14.345Zm0,1.551c2.023,0,2.99,1.776,2.99,6.812S119.764.965,117.718.965c-2.023,0-3.013-1.911-3.013-6.947C114.705-11.04,115.762-12.794,117.763-12.794Zm16.974-1.551c-3.147,0-4.969,2.451-4.969,8.386,0,5.958,1.731,8.476,4.924,8.476S139.638-.046,139.638-6C139.638-11.939,137.884-14.345,134.737-14.345Zm0,1.551c2.023,0,2.99,1.776,2.99,6.812S136.738.965,134.692.965c-2.023,0-3.013-1.911-3.013-6.947C131.679-11.04,132.736-12.794,134.737-12.794ZM156.9-10.7a3.453,3.453,0,0,0-3.282,1.754,4.654,4.654,0,0,0-2.271-.562c-2.383,0-4.249,1.529-4.249,3.732a3.455,3.455,0,0,0,1.529,2.923c-1.124.719-1.664,1.484-1.664,2.293,0,.854.54,1.439,1.709,1.709-1.439.472-2.271,1.349-2.271,2.383,0,1.664,1.821,2.765,5.058,2.765,3.6,0,5.463-1.439,5.463-3.26,0-1.506-.854-2.5-3.889-2.788L150.722.021c-1.844-.2-2.136-.495-2.136-1.1,0-.4.36-.9,1.034-1.281a4.482,4.482,0,0,0,1.731.337c2.5,0,4.249-1.461,4.249-3.754A3.3,3.3,0,0,0,154.476-8.3a2.791,2.791,0,0,1,2.293-.832Zm-5.553,2.428a2.425,2.425,0,0,1,2.54,2.518,2.425,2.425,0,0,1-2.54,2.518,2.425,2.425,0,0,1-2.54-2.518A2.425,2.425,0,0,1,151.351-8.275Zm1.326,9.982c2.158.225,2.608.742,2.608,1.551,0,1.012-1.281,1.844-3.755,1.844-2.091,0-3.53-.607-3.53-1.821,0-.809.674-1.461,2.023-1.844Z" transform="translate(157.552 25.769)" fill="#653333"/><path d="M3.55,0H121.876a3.55,3.55,0,0,1,3.55,3.55v35.5a3.55,3.55,0,0,1-3.55,3.55H3.55A3.55,3.55,0,0,1,0,39.048V3.55A3.55,3.55,0,0,1,3.55,0Z" transform="translate(0 0)" fill="#6dc13a" opacity="0.899"/><path d="M8.771-7.335a12.874,12.874,0,0,1-1.15,3.77A12.328,12.328,0,0,1,.72,2.292,6.6,6.6,0,0,1,1.934,3.634c.234.362.319.49.49.49a1.7,1.7,0,0,0,.511-.17A13.977,13.977,0,0,0,9.751-2.692a12.386,12.386,0,0,0,.809-2.045,16.321,16.321,0,0,0,7.582,8.6,1.37,1.37,0,0,0,.49.213c.17,0,.256-.17.447-.532a7.1,7.1,0,0,1,1.235-1.6A14.218,14.218,0,0,1,11.8-7.335h5.09c1.917,0,2.577.043,2.7.043.213,0,.234-.021.234-.256V-9.294c0-.213-.021-.234-.234-.234-.128,0-.788.043-2.7.043h-5.5c.085-.916.106-1.9.128-2.939a3.684,3.684,0,0,1,.192-1.491.9.9,0,0,0,.128-.447c0-.149-.17-.256-.383-.3a24.506,24.506,0,0,0-2.449-.17,16.686,16.686,0,0,1,.106,2.471c-.021,1.044-.043,2-.106,2.875H4.128c-1.917,0-2.577-.043-2.7-.043-.213,0-.234.021-.234.234v1.746c0,.234.021.256.234.256.128,0,.788-.043,2.7-.043Zm25.622-4.089a37.554,37.554,0,0,1-5.3.341c.128.682.277,1.47.341,1.7.043.213.17.3.426.3a36.884,36.884,0,0,0,5.176-.511c.277.6.6,1.321.809,1.768a37.141,37.141,0,0,1-5.729.532A10.746,10.746,0,0,0,30.5-5.546c.064.213.149.3.383.3a50.314,50.314,0,0,0,5.836-.639,24.768,24.768,0,0,0,1.768,2.513,9.863,9.863,0,0,0-3.663-.532c-3.323,0-5.282,1.427-5.282,3.706,0,2.62,2.6,4,7.5,4q.8,0,1.534-.064c.3-.021.383-.106.447-.319a13.846,13.846,0,0,0,.426-1.938c.021-.17-.043-.277-.256-.277-.767.043-1.555.128-2.343.128-3.259,0-5.069-.447-5.069-1.832,0-1,1.171-1.619,3.174-1.619a10.37,10.37,0,0,1,4,.682,5.363,5.363,0,0,1,1.257.682.566.566,0,0,0,.3.128c.128,0,.213-.064.341-.213a6.176,6.176,0,0,0,.873-1.321c.106-.234.106-.319-.106-.511a15.882,15.882,0,0,1-2.79-3.685,26.214,26.214,0,0,0,3.6-1.044c.213-.085.213-.192.17-.383a8.077,8.077,0,0,0-.383-1.406c-.064-.192-.17-.234-.383-.128A25.014,25.014,0,0,1,37.95-8.208C37.673-8.8,37.4-9.465,37.2-10c1.448-.319,2.748-.639,4.175-1.086a.326.326,0,0,0,.256-.383c-.085-.426-.234-1.022-.362-1.427-.064-.17-.17-.192-.362-.106a33.218,33.218,0,0,1-4.345,1.129c-.128-.362-.192-.554-.341-1.108a3.78,3.78,0,0,1-.085-.639c0-.128.043-.277.043-.4,0-.213-.17-.383-.469-.383a15.061,15.061,0,0,0-2.577.234,5.4,5.4,0,0,1,.745,1.363C34.1-12.276,34.223-11.914,34.393-11.424Zm26.283,1.171a29.237,29.237,0,0,1-3.365.4,26.478,26.478,0,0,1-2.662.021,16.66,16.66,0,0,0,.49,1.917c.064.256.149.383.341.383.532,0,1.512-.064,2.087-.106,1.534-.128,2.769-.3,4.111-.532A13.7,13.7,0,0,0,64.425-4.4a10.868,10.868,0,0,0-3.791-.575c-3.514,0-5.6,1.7-5.6,4.132,0,2.811,2.7,4.409,7.731,4.409a19.014,19.014,0,0,0,2.364-.149c.256-.043.341-.085.4-.3A13.013,13.013,0,0,0,65.979.844a21.069,21.069,0,0,1-3.408.3c-3.344,0-5.282-.66-5.282-2.258,0-1.342,1.342-2,3.557-2a9.74,9.74,0,0,1,4.515,1.086,7.022,7.022,0,0,1,.873.554c.17.128.234.17.341.17.149,0,.256-.085.426-.319a8.512,8.512,0,0,0,.831-1.384.673.673,0,0,0,.128-.362c0-.106-.085-.17-.213-.277a5.849,5.849,0,0,1-.554-.469,24.257,24.257,0,0,1-3.259-4.494,34,34,0,0,0,4.238-1.235c.149-.043.234-.149.17-.362a9.247,9.247,0,0,0-.532-1.64c-.128-.234-.192-.256-.4-.149a32.781,32.781,0,0,1-4.451,1.321c-.277-.575-.469-1.086-.724-1.725a9.178,9.178,0,0,1-.341-1.065,2.8,2.8,0,0,1-.021-.6c0-.3-.17-.447-.724-.447a16.765,16.765,0,0,0-2.535.341,7.031,7.031,0,0,1,1.065,1.725C60.016-11.637,60.314-11.02,60.676-10.253Z" transform="translate(27.347 26.863)" fill="#fff"/></g><g transform="translate(0 140.808)"><path d="M7.118-14.159H5.589a15.271,15.271,0,0,1-3.822,1.933l.315,1.641A15.5,15.5,0,0,0,5.319-12.2V.791H2.059V2.3h8.116V.791H7.118Zm16.974,0H22.563a15.271,15.271,0,0,1-3.822,1.933l.315,1.641A15.5,15.5,0,0,0,22.293-12.2V.791h-3.26V2.3h8.116V.791H24.092Zm26.754,2.54c0-1.933.045-2.81.045-2.945,0-.157-.022-.18-.18-.18-.135,0-.854.045-2.945.045H42.639c-2.091,0-2.81-.045-2.945-.045-.157,0-.18.022-.18.18,0,.135.045,1.012.045,2.945v2.743c0,6.857-.719,9.353-4,12.388a3.137,3.137,0,0,1,.967.517c.18.135.27.225.36.225s.157-.09.292-.247a11.476,11.476,0,0,0,3.485-7.284h8.79V1.645c0,.764-.315,1.034-1.012,1.034-.989,0-1.574-.045-2.361-.112a3.692,3.692,0,0,1,.4,1.057c.112.45.112.45.562.45,1.844,0,2.675,0,3.215-.472a2.059,2.059,0,0,0,.629-1.664c0-1.079-.045-2.338-.045-3.575ZM49.451-4.537H40.8c.09-1.124.135-2.383.157-3.867h8.5Zm0-5.126h-8.5v-3.754h8.5ZM62.761-4.4c1.776-1.686,2.945-2.226,4.294-2.226S69.573-6.2,71.8-4.964A9.121,9.121,0,0,0,76.317-3.5c1.911,0,3.575-.944,5.328-3.035l-.719-.629c-1.686,1.754-2.968,2.293-4.339,2.293-1.281,0-2.451-.427-4.744-1.664a9.365,9.365,0,0,0-4.519-1.416c-1.911,0-3.485.967-5.283,2.945ZM90.886-9.483c.292-2.158,1.371-3.237,3.013-3.237a2.514,2.514,0,0,1,2.653,2.7c0,1.439-.517,2.383-2.833,4.541A18.323,18.323,0,0,0,88.907.9V2.3h9.6V.746H90.773A15.357,15.357,0,0,1,95.09-4.492c2.72-2.383,3.395-3.732,3.395-5.531,0-2.675-1.888-4.249-4.564-4.249A4.737,4.737,0,0,0,89.042-9.91Zm30.89-2.136c0-1.933.045-2.81.045-2.945,0-.157-.022-.18-.18-.18-.135,0-.854.045-2.945.045H113.57c-2.091,0-2.81-.045-2.945-.045-.157,0-.18.022-.18.18,0,.135.045,1.012.045,2.945v2.743c0,6.857-.719,9.353-4,12.388a3.137,3.137,0,0,1,.967.517c.18.135.27.225.36.225s.157-.09.292-.247a11.476,11.476,0,0,0,3.485-7.284h8.79V1.645c0,.764-.315,1.034-1.012,1.034-.989,0-1.574-.045-2.361-.112a3.692,3.692,0,0,1,.4,1.057c.112.45.112.45.562.45,1.844,0,2.675,0,3.215-.472a2.059,2.059,0,0,0,.63-1.664c0-1.079-.045-2.338-.045-3.575Zm-1.394,7.082h-8.656c.09-1.124.135-2.383.157-3.867h8.5Zm0-5.126h-8.5v-3.754h8.5Z" transform="translate(157.698 25.696)" fill="#653333"/><path d="M3.55,0H121.876a3.55,3.55,0,0,1,3.55,3.55v35.5a3.55,3.55,0,0,1-3.55,3.55H3.55A3.55,3.55,0,0,1,0,39.048V3.55A3.55,3.55,0,0,1,3.55,0Z" transform="translate(0 0)" fill="#6dc13a" opacity="0.905"/><path d="M6.877-12.323c.128-.256.277-.532.4-.831a2.367,2.367,0,0,1,.532-.767c.17-.17.234-.256.234-.4s-.149-.234-.362-.319a13.935,13.935,0,0,0-2.109-.511,9.152,9.152,0,0,1-.532,1.64A14.774,14.774,0,0,1,.594-7.808,5.862,5.862,0,0,1,1.829-6.615c.213.277.319.4.426.4s.213-.106.447-.319A20.72,20.72,0,0,0,5.748-10.3H17.164a72.461,72.461,0,0,1-.6,10.564C16.355,1.649,16.014,2.2,15.013,2.2a27.377,27.377,0,0,1-3.067-.213,5.808,5.808,0,0,1,.575,1.661c.085.618.085.618.724.66s1.235.064,2.045.064c2.151,0,3.067-1,3.514-3.45a75.2,75.2,0,0,0,.682-11.054c0-.575,0-1.321.043-1.981,0-.213-.043-.256-.256-.256-.149,0-.852.043-2.939.043ZM6.664,1.9c.213,0,.234-.021.234-.256V.5h4.43v.532c0,.213.021.234.234.234h1.619c.192,0,.213-.021.213-.234,0-.128-.043-.809-.043-3.536V-5.7c0-2,.043-2.726.043-2.854,0-.192-.021-.213-.213-.213-.149,0-.724.043-2.428.043H7.495c-1.7,0-2.279-.043-2.428-.043-.213,0-.234.021-.234.213,0,.128.043.852.043,3.259v2.513c0,3.621-.043,4.3-.043,4.43,0,.234.021.256.234.256ZM6.9-1.333v-1.9h4.43v1.9Zm0-5.538h4.43v1.832H6.9Zm30.649-3.408a4.838,4.838,0,0,1,4.771,4.941c0,4.025-2.833,5.516-6.432,6.368a4.517,4.517,0,0,1,1.491,1.342c.277.426.469.511.916.383,4.324-1.3,6.56-3.791,6.56-7.753,0-4.238-3-7.391-8.115-7.391a9.32,9.32,0,0,0-6.922,2.726,7.847,7.847,0,0,0-2.407,5.538c0,3.472,1.9,5.474,3.77,5.474,1.6,0,2.7-.852,3.621-2.449a26.669,26.669,0,0,0,2.662-9.18Zm-2.556.128a24.335,24.335,0,0,1-2.258,7.625c-.575,1.022-1.044,1.3-1.6,1.3-.66,0-1.448-1.086-1.448-3.046a6.133,6.133,0,0,1,1.661-3.94A6.415,6.415,0,0,1,34.991-10.151ZM58.7-9.363c0-3.131.043-4.175.043-4.3,0-.213-.021-.234-.234-.234-.149,0-.554.043-1.832.043H54.842c-1.278,0-1.683-.043-1.832-.043-.213,0-.234.021-.234.234,0,.128.043,1.257.043,5.112V-3.91c0,5.346-.043,6.432-.043,6.56,0,.213.021.234.234.234h1.576c.192,0,.213-.021.213-.234V.967h1.959V1.9c0,.213.021.234.213.234h1.534c.213,0,.234-.021.234-.234,0-.128-.043-1.086-.043-6.39ZM54.8-.971v-4.6h1.959v4.6Zm1.959-10.948V-7.51H54.8v-4.409ZM68.367-6.637c2.023,0,2.726.043,2.854.043.234,0,.256-.021.256-.256v-1.47c0-.213-.021-.234-.256-.234-.128,0-.831.043-2.854.043H66.109V-10.7h1.427c1.938,0,2.577.043,2.7.043.213,0,.234-.021.234-.234v-1.491c0-.234-.021-.256-.234-.256-.128,0-.767.043-2.7.043H66.109a4.947,4.947,0,0,1,.106-1.6,1.185,1.185,0,0,0,.128-.447c0-.106-.128-.192-.341-.213-.788-.085-1.363-.128-2.194-.149a17.844,17.844,0,0,1,.149,2.407h-1c-1.9,0-2.556-.043-2.684-.043-.234,0-.256.021-.256.256V-10.9c0,.213.021.234.256.234.128,0,.788-.043,2.684-.043h1v2.194H62.424c-2.023,0-2.726-.043-2.854-.043-.234,0-.256.021-.256.234v1.47c0,.234.021.256.256.256.128,0,.831-.043,2.854-.043Zm-1.661,4V1.606c0,.49-.192.66-.7.66-.7,0-1.342-.021-2.087-.085a4.746,4.746,0,0,1,.639,1.555c.149.639.17.639.809.639a4.914,4.914,0,0,0,2.769-.469,1.98,1.98,0,0,0,.745-1.81c0-.724-.021-1.64-.021-2.62V-2.632c1.448.021,2.023.043,2.13.043.234,0,.256-.021.256-.234V-4.315c0-.213-.021-.234-.256-.234-.106,0-.682.043-2.13.043a2.7,2.7,0,0,1,.106-1.086.718.718,0,0,0,.106-.362c0-.106-.128-.192-.362-.234-.575-.085-1.342-.149-2.151-.192a15.818,15.818,0,0,1,.149,1.874h-4.2c-2.023,0-2.7-.043-2.833-.043-.234,0-.256.021-.256.234v1.491c0,.213.021.234.256.234.128,0,.809-.043,2.833-.043ZM60.955-1.291c-.256.149-.256.213-.106.383a17.832,17.832,0,0,1,1.874,2.62c.064.106.106.149.17.149s.128-.043.256-.128l1.3-.895c.213-.149.234-.213.106-.4a17.035,17.035,0,0,0-1.959-2.449c-.17-.149-.234-.149-.447-.021ZM95.97-10.619c0-2.215.043-3.386.043-3.514,0-.234-.021-.256-.234-.256-.128,0-.639.043-2.194.043h-2.62c-1.534,0-2.045-.043-2.194-.043-.213,0-.234.021-.234.256,0,.128.043,1.3.043,3.514v3.514c0,5.815-.469,7.8-2.279,10.138a5.547,5.547,0,0,1,1.321,1c.213.213.319.319.426.319s.213-.128.383-.4a13.094,13.094,0,0,0,2.023-6.411h3.429V1.372c0,.532-.192.745-.66.745-.532,0-1.171-.021-1.832-.064a4.485,4.485,0,0,1,.575,1.512c.17.682.149.66.831.66,1.6,0,2.172-.192,2.62-.554a2.128,2.128,0,0,0,.618-1.746c0-.852-.064-1.938-.064-2.939ZM90.581-4.358c.043-.809.064-1.725.064-2.726v-.383h3.237v3.11Zm3.3-8.03v3.024H90.645v-3.024ZM84.894-.4c1.832,0,2.471.043,2.6.043.192,0,.213-.021.213-.234V-2.036c0-.213-.021-.234-.213-.234-.085,0-.447.021-1.214.043v-8.221c.745,0,1.108.021,1.193.021.192,0,.213-.021.213-.213v-1.47c0-.213-.021-.234-.213-.234-.085,0-.447.021-1.193.043v-.383a4.976,4.976,0,0,1,.128-1.491,1.261,1.261,0,0,0,.106-.4c0-.106-.106-.17-.3-.192-.618-.085-1.342-.106-2-.149a12.036,12.036,0,0,1,.128,2.215v.4H81.4v-.383a5.079,5.079,0,0,1,.106-1.47,1,1,0,0,0,.128-.4c0-.128-.128-.17-.3-.192-.6-.064-1.363-.106-2.023-.128a11.9,11.9,0,0,1,.128,2.215v.362c-.937,0-1.321-.043-1.406-.043-.234,0-.256.021-.256.234v1.47c0,.192.021.213.256.213.085,0,.469-.021,1.406-.043v8.243c-1.171,0-1.6-.043-1.7-.043-.213,0-.234.021-.234.234V-.588c0,.213.021.234.234.234C77.866-.353,78.5-.4,80.4-.4ZM81.4-2.228v-1.64h2.939v1.64Zm0-6.6v-1.64h2.939v1.64Zm0,3.28v-1.6h2.939v1.6Zm.277,7.22c.192-.256.277-.426.469-.532.17-.085.234-.192.234-.3,0-.128-.085-.213-.3-.319a12.8,12.8,0,0,0-1.64-.745,4.628,4.628,0,0,1-.511.831,9.754,9.754,0,0,1-2.769,2.364,5.391,5.391,0,0,1,1.108,1.044c.213.256.341.383.469.383s.256-.085.469-.234A13.652,13.652,0,0,0,81.678,1.67ZM83.446.52c-.17.106-.213.192-.085.383a11.46,11.46,0,0,0,1.534,1.981c.17.17.277.256.362.256.106,0,.192-.106.362-.319A5.973,5.973,0,0,1,86.79,1.776,12.509,12.509,0,0,1,84.98-.076c-.064-.106-.106-.149-.17-.149a.659.659,0,0,0-.256.128Z" transform="translate(14.308 25.621)" fill="#fff"/></g><g transform="translate(0 212.763)"><path d="M7.118-13.958H5.589a15.271,15.271,0,0,1-3.822,1.933l.315,1.641A15.5,15.5,0,0,0,5.319-12V.993H2.059V2.5h8.116V.993H7.118Zm18.705,0H23.26L17.617-2.717v1.394h6.52V2.5h1.686V-1.323h2.271V-2.806H25.823ZM24.137-2.806H19.28l2.99-6.138c.562-1.147,1.034-2.293,1.574-3.53h.382c-.045,1.461-.09,2.653-.09,3.957ZM35.782-4.2c1.776-1.686,2.945-2.226,4.294-2.226S42.594-6,44.82-4.762A9.121,9.121,0,0,0,49.339-3.3c1.911,0,3.575-.944,5.328-3.035l-.719-.629c-1.686,1.754-2.968,2.293-4.339,2.293-1.281,0-2.451-.427-4.744-1.664a9.366,9.366,0,0,0-4.519-1.416c-1.911,0-3.485.967-5.283,2.945Zm32.262-9.757H66.515a15.271,15.271,0,0,1-3.822,1.933l.315,1.641A15.5,15.5,0,0,0,66.245-12V.993h-3.26V2.5H71.1V.993H68.044Zm20.369,2.2a4.039,4.039,0,0,0-3.889-2.316c-3.35,0-5.463,2.743-5.463,9.173,0,5.283,2.091,7.689,4.991,7.689,2.72,0,4.7-2.136,4.7-5.621C88.75-6,87-8,84.546-8a4.287,4.287,0,0,0-3.687,2.293c.09-4.541,1.281-6.857,3.62-6.857a2.167,2.167,0,0,1,2.158,1.6ZM80.9-4.02c.922-1.686,2.046-2.451,3.282-2.451,1.664,0,2.675,1.349,2.675,3.687,0,2.653-1.079,4.069-2.81,4.069C82.208,1.285,80.9-.333,80.9-4.02Zm18.548,7.1,13.422-16.772-.809-.674L98.642,2.409ZM100.98-14.07c-1.956,0-3.395,1.461-3.395,4.159,0,2.72,1.439,4.159,3.395,4.159,1.978,0,3.417-1.461,3.417-4.182S102.958-14.07,100.98-14.07Zm0,1.124c1.192,0,1.911.967,1.911,3.035,0,2.091-.742,3.035-1.911,3.035s-1.888-.944-1.888-3.035C99.092-11.979,99.811-12.946,100.98-12.946Zm9.6,7.442c-1.978,0-3.395,1.439-3.395,4.159,0,2.7,1.416,4.159,3.395,4.159,1.956,0,3.417-1.484,3.417-4.182C114-4.088,112.536-5.5,110.58-5.5Zm0,1.124c1.192,0,1.911.967,1.911,3.035,0,2.091-.719,3.035-1.911,3.035s-1.888-.944-1.888-3.035C108.691-3.413,109.411-4.38,110.58-4.38Zm55.058,2.293c0-1.709.022-2.293.022-2.406,0-.157-.022-.18-.18-.18-.112,0-.854.045-2.99.045h-5.508c-2.136,0-2.878-.045-3.013-.045-.157,0-.157.022-.157.18,0,.112.023.7.023,2.7v2c0,3.417-.023,3.979-.023,4.092,0,.157,0,.18.157.18h1.012c.157,0,.18-.022.18-.18V3.241h9.128V4.23c0,.135.022.157.18.157h1.012c.157,0,.18-.022.18-.157s-.022-.674-.022-4.069Zm-1.349,4.2h-9.128V-.243h9.128Zm0-3.462h-9.128V-3.5h9.128Zm1.574-8.3c2.181,0,2.923.045,3.058.045.157,0,.18-.022.18-.18v-.877c0-.135-.022-.157-.18-.157-.135,0-.877.045-3.058.045h-5.6v-2.361c1.844-.2,3.237-.4,4.654-.674a7.884,7.884,0,0,1,1.326-.157c.292,0,.45-.09.45-.225a.425.425,0,0,0-.157-.315,7.034,7.034,0,0,0-1.192-.854,6.283,6.283,0,0,1-1.506.472,37.785,37.785,0,0,1-4.541.7c-2.361.225-4.294.382-7.059.472a2.637,2.637,0,0,1,.495.764c.18.4.18.4.652.382,1.933-.112,3.507-.247,5.553-.45v2.248h-5.351c-2.181,0-2.945-.045-3.058-.045-.157,0-.18.022-.18.157v.877c0,.157.022.18.18.18.112,0,.877-.045,3.058-.045h4.384a23.915,23.915,0,0,1-8.318,4.519,2.721,2.721,0,0,1,.585.719c.225.427.225.472.63.315a25.431,25.431,0,0,0,8.116-5.126c-.022,1.933-.112,3.35-.112,3.732,0,.157.022.18.18.18h1.1c.157,0,.18-.022.18-.18,0-.382-.112-1.821-.112-3.777a29.37,29.37,0,0,0,8.408,5.126c.427.18.427.112.652-.315a2.8,2.8,0,0,1,.629-.809,28.31,28.31,0,0,1-8.723-4.384ZM182.3-14.609a12.292,12.292,0,0,1-.2,2.5,41.658,41.658,0,0,0-.517,5.283,13.425,13.425,0,0,0,.562,4.2c.045.135.112.225.225.225.382-.045.877-.112,1.079-.157.135-.045.18-.112.157-.315a1.8,1.8,0,0,1,.157-.719,22.981,22.981,0,0,1,1.416-2.968.475.475,0,0,0,.022-.607,3.189,3.189,0,0,1-.45-.922c-.517,1.012-1.192,2.293-1.664,3.237a15.627,15.627,0,0,1-.09-2.54,33.589,33.589,0,0,1,.674-5.171,2.12,2.12,0,0,1,.4-.877.562.562,0,0,0,.09-.292c0-.135-.09-.225-.292-.337A6.376,6.376,0,0,0,182.3-14.609Zm7.037.135a9.361,9.361,0,0,1,.45,2.361c.135,1.664.225,3.8.225,5.351,0,3.215-.585,5.126-1.844,6.812a10.514,10.514,0,0,1-3.912,3.08,3.34,3.34,0,0,1,1.147.629.422.422,0,0,0,.585.045,11.533,11.533,0,0,0,3.71-3.26c1.281-1.731,1.844-4.159,1.844-7.374,0-1.6-.09-3.462-.27-5.958a3.785,3.785,0,0,1,.045-1.057c.045-.225,0-.382-.337-.45A7.925,7.925,0,0,0,189.334-14.475Zm29.744,5.081c0-1.034.045-1.326.045-1.461,0-.157-.022-.18-.18-.18-.112,0-.832.045-2.878.045h-4.654c-2.046,0-2.765-.045-2.878-.045-.157,0-.18.022-.18.18,0,.135.045.427.045,1.461v1.259c0,1.034-.045,1.326-.045,1.461s.022.157.18.157c.112,0,.832-.045,2.878-.045h4.654c2.046,0,2.765.045,2.878.045.157,0,.18-.022.18-.157s-.045-.427-.045-1.461ZM217.752-7.64H209.7V-9.911h8.049Zm-9.375,2.608c-2.248,0-3.013-.045-3.147-.045-.157,0-.18.022-.18.18,0,.135.045.719.045,2.406V1.533c0,1.933-.045,2.585-.045,2.7,0,.157.022.18.18.18h1.079c.157,0,.18-.022.18-.18,0-.112-.045-.854-.045-2.72V-3.818h14.591V2.117c0,.607-.292.809-.719.809a17.9,17.9,0,0,1-1.821-.09,3.442,3.442,0,0,1,.382.922c.09.427.112.45.54.45,1.619.022,2.113-.067,2.5-.4a1.634,1.634,0,0,0,.495-1.371c0-.877-.022-1.821-.022-2.9V-2.379c0-1.686.045-2.383.045-2.518,0-.157-.022-.18-.18-.18-.135,0-.9.045-3.17.045Zm9.24,3.979c0-.652.045-1.012.045-1.124,0-.157-.022-.18-.18-.18-.135,0-.674.045-2.383.045h-2.923c-1.709,0-2.248-.045-2.383-.045-.157,0-.18.022-.18.18,0,.112.045.495.045,1.326V.116c0,2.091-.045,2.406-.045,2.54,0,.157.023.18.18.18h.944c.157,0,.18-.022.18-.18V1.8h5.418v.674c0,.157.022.18.2.18h.944c.157,0,.18-.022.18-.18,0-.09-.045-.4-.045-2.451ZM216.335.791h-5.418V-1.3h5.418Zm7.059-14.344c0-.157-.022-.18-.18-.18-.135,0-.832.045-2.99.045h-6v-.225a4.152,4.152,0,0,1,.09-1.192,1.1,1.1,0,0,0,.157-.427c0-.09-.112-.18-.292-.2-.382-.045-.922-.09-1.461-.112a8.08,8.08,0,0,1,.157,1.933v.225H207.23c-2.136,0-2.855-.045-2.968-.045-.157,0-.18.022-.18.18v.967c0,.157.022.18.18.18.112,0,.832-.045,2.968-.045h12.995c2.158,0,2.855.045,2.99.045.157,0,.18-.022.18-.18Zm19.537-1.326a5.276,5.276,0,0,1-.989,1.394c-2,2.023-4.451,4.406-6.272,6.34a2.079,2.079,0,0,0-.787,1.461,1.76,1.76,0,0,0,.877,1.416,59.826,59.826,0,0,1,8.476,7.621c.157.2.247.18.427.045a10.166,10.166,0,0,0,.854-.854c.18-.225.135-.27-.022-.45a72.567,72.567,0,0,0-8.678-7.419c-.2-.135-.292-.247-.292-.4a.848.848,0,0,1,.315-.562c1.686-1.8,4.429-4.339,6.632-6.34a2.7,2.7,0,0,1,.832-.585.333.333,0,0,0,.225-.292.475.475,0,0,0-.157-.292A10.389,10.389,0,0,0,242.931-14.879ZM274.2-.536c-.247.135-.27.18-.18.292.292.337.607.764.944,1.237-1.034.2-2.226.4-3.44.585v-3.26h1.844c2.068,0,2.765.045,2.878.045.157,0,.18-.022.18-.18,0-.135-.045-.517-.045-1.731V-5.482c0-1.237.045-1.619.045-1.731,0-.157-.022-.18-.18-.18-.112,0-.809.045-2.878.045h-1.844V-9.956c1.439-.112,2.788-.247,3.867-.382.337.472.652.944.9,1.371.067.09.09.135.157.135s.135-.045.27-.135l.585-.36c.225-.157.27-.2.157-.36a28.408,28.408,0,0,0-3.62-4.137c-.112-.112-.157-.112-.36.022l-.472.292c-.247.157-.247.2-.135.315.54.517,1.124,1.169,1.686,1.821-1.641.18-3.957.36-6.138.472.607-1.057,1.3-2.338,1.754-3.282a1.628,1.628,0,0,1,.382-.585.533.533,0,0,0,.225-.337c0-.135-.135-.247-.315-.315-.427-.135-.787-.225-1.281-.337a7.141,7.141,0,0,1-.427,1.529,21.086,21.086,0,0,1-1.731,3.395,19.071,19.071,0,0,1-1.933-.045,10.725,10.725,0,0,0,.247,1.326c.067.2.135.27.225.27a.551.551,0,0,0,.27-.09,2.189,2.189,0,0,1,.922-.2c1.1-.067,2.316-.157,3.507-.27v2.5h-1.551c-2.046,0-2.765-.045-2.9-.045-.157,0-.18.022-.18.18,0,.112.045.495.045,1.731v1.933c0,1.214-.045,1.6-.045,1.731,0,.157.023.18.18.18.135,0,.854-.045,2.9-.045h1.551v3.44c-1.214.18-2.338.315-3.215.382a13.691,13.691,0,0,1-2.473.067,11.508,11.508,0,0,0,.337,1.394c.067.2.157.27.27.27a.562.562,0,0,0,.315-.09,2.844,2.844,0,0,1,.967-.27c2.878-.36,6.43-.922,9.218-1.484.36.585.7,1.192.989,1.754.09.157.112.157.382.022l.562-.27c.225-.112.247-.18.18-.315a19.25,19.25,0,0,0-2.788-3.957c-.112-.112-.157-.135-.337-.045Zm.922-2.271h-3.6V-6.224h3.6Zm-4.856,0h-3.327V-6.224h3.327Zm-6.205-9.622c0-1.3.045-1.8.045-1.911,0-.157-.022-.18-.18-.18-.112,0-.517.045-1.731.045h-1.933c-1.394,0-1.776-.045-1.888-.045-.157,0-.18.022-.18.18v.944c0,.135.022.157.18.157.112,0,.495-.045,1.888-.045h2.563v3.71h-2.271c-.944,0-1.3-.045-1.439-.045-.157,0-.2.067-.2.2a7.609,7.609,0,0,1-.09,1.551,35.317,35.317,0,0,1-.787,4.654c-.067.292-.067.315.562.427.674.112.674.112.742-.157l.18-.944h3.192c-.292,4.2-.674,5.823-1.034,6.317a1.437,1.437,0,0,1-1.079.427,11.84,11.84,0,0,1-1.888-.18,4.063,4.063,0,0,1,.315.967c.09.45.09.472.45.495.517.045,1.012.045,1.371.045a2.043,2.043,0,0,0,2.023-1.1c.382-.719.854-2.428,1.124-6.632.022-.427.045-.9.09-1.3,0-.157-.045-.2-.2-.2-.112,0-.4.022-1.574.022h-2.585c.157-1.057.315-2.136.45-3.395H262.2c1.214,0,1.619.045,1.731.045.157,0,.18-.022.18-.18,0-.135-.045-.629-.045-1.933Zm22.5-.022a9.54,9.54,0,0,1,.18,2.158,49.332,49.332,0,0,0,.4,6.272c.495,3.53,1.911,6.138,3.8,6.138,1.506,0,2.72-1.709,3.35-3.53a.5.5,0,0,0-.18-.562,2.857,2.857,0,0,1-.742-1.124c-.652,2.091-1.506,3.53-2.406,3.53-1.079,0-2.046-1.933-2.383-4.586a35.9,35.9,0,0,1-.315-5.1,7.735,7.735,0,0,1,.18-2.068,1.668,1.668,0,0,0,.09-.4c0-.09-.067-.18-.2-.247A6.182,6.182,0,0,0,286.569-12.451Zm11.511,2.81a13.1,13.1,0,0,1,4.227,7.8.207.207,0,0,0,.292.18,4.451,4.451,0,0,0,1.034-.517.258.258,0,0,0,.157-.292,13.632,13.632,0,0,0-4.384-7.779c-.09-.09-.2-.067-.337,0A9.187,9.187,0,0,0,298.08-9.641Zm33.431-1.326c0-.157-.022-.18-.18-.18-.135,0-.832.045-2.923.045h-1.371v-1.866a6.151,6.151,0,0,1,.135-2.023.669.669,0,0,0,.112-.337c0-.112-.112-.18-.27-.2-.427-.045-.944-.09-1.529-.112a13.006,13.006,0,0,1,.157,2.7V-11.1h-8.116v-1.844a6.35,6.35,0,0,1,.112-1.956,1.051,1.051,0,0,0,.135-.427c0-.09-.112-.18-.27-.2-.472-.045-1.012-.09-1.551-.112a13.693,13.693,0,0,1,.18,2.72V-11.1h-1.3c-2.113,0-2.81-.045-2.923-.045-.157,0-.18.022-.18.18V-10c0,.18.022.2.18.2.112,0,.809-.045,2.923-.045h1.3v7.374c0,4.519-.045,6.52-.045,6.632,0,.157.022.18.18.18h1.079c.157,0,.18-.022.18-.18V2.589h8.116V4.028c0,.157.022.18.18.18H326.9c.157,0,.18-.022.18-.18,0-.135-.045-2.136-.045-6.655V-9.843h1.371c2.091,0,2.788.045,2.923.045.157,0,.18-.022.18-.2ZM325.643,1.375h-8.116V-3.818h8.116Zm0-6.407h-8.116V-9.843h8.116Zm22.572-5.351a37.631,37.631,0,0,1-4.406.517,18.379,18.379,0,0,1-2.226,0A6.831,6.831,0,0,0,341.83-8.7c.067.18.112.27.27.27.562.022,1.236-.022,1.911-.067,1.551-.112,3.1-.27,4.834-.562a19.772,19.772,0,0,0,3.462,5.193,11.137,11.137,0,0,0-4.766-1.012c-3.1,0-5.576,1.3-5.576,3.912,0,3.013,3.462,4.339,7.576,4.339.989,0,2.181-.067,2.585-.112.18-.045.225-.067.292-.225a7.612,7.612,0,0,0,.292-1.461,17.771,17.771,0,0,1-3.237.27c-3.282,0-6.07-.854-6.07-2.923,0-1.6,1.484-2.563,4.182-2.563a10.681,10.681,0,0,1,5.1,1.214c.27.157.517.292.809.495.135.09.18.135.27.135s.18-.09.292-.225c.157-.225.427-.629.585-.9a.453.453,0,0,0,.067-.247c0-.067-.045-.135-.157-.2a3.674,3.674,0,0,1-.607-.495,21.4,21.4,0,0,1-3.732-5.486c1.821-.427,3.462-.877,4.856-1.349.112-.045.135-.135.112-.292a4.721,4.721,0,0,0-.292-.989c-.067-.157-.18-.157-.315-.112a39.249,39.249,0,0,1-4.924,1.439c-.292-.7-.495-1.214-.742-1.888a7.67,7.67,0,0,1-.4-1.506,2.717,2.717,0,0,1-.022-.585c0-.2-.157-.337-.472-.337a13.757,13.757,0,0,0-1.776.2,5.412,5.412,0,0,1,.944,1.754C347.585-11.957,347.832-11.327,348.215-10.383ZM368.628-1.39a3.157,3.157,0,0,0-3.17,3.125,3.17,3.17,0,0,0,6.34,0A3.157,3.157,0,0,0,368.628-1.39Zm0,1.124a1.991,1.991,0,0,1,2,2,2,2,0,1,1-2-2Z" transform="translate(157.698 25.719)" fill="#653333"/><path d="M4.344,0h117.3a4.344,4.344,0,0,1,4.344,4.344V39.1a4.344,4.344,0,0,1-4.344,4.344H4.344A4.344,4.344,0,0,1,0,39.1V4.344A4.344,4.344,0,0,1,4.344,0Z" transform="translate(0 0)" fill="#6dc13a" opacity="0.9"/><path d="M10.494-8.044c0,.2.02.221.221.221.141,0,.6-.04,2.112-.04v1.106H9.89c.02-.624.02-1.267.02-1.951V-10.72h6.236c1.871,0,2.514.04,2.635.04.181,0,.2-.02.2-.221v-1.267c0-.221-.02-.241-.2-.241-.121,0-.764.04-2.635.04h-1.81v-.262a2.989,2.989,0,0,1,.08-.925.858.858,0,0,0,.121-.362c0-.1-.121-.181-.3-.2-.644-.06-1.348-.1-2.012-.1a5.7,5.7,0,0,1,.141,1.589v.262H11.017c-1.891,0-2.535-.04-2.675-.04-.2,0-.221.02-.221.241,0,.121.04,1.147.04,3.46A49.239,49.239,0,0,1,7.9-2.754a14.5,14.5,0,0,1-1.71,5.411A4.39,4.39,0,0,1,7.215,3.6c.181.221.282.322.382.322s.2-.121.322-.382A17.408,17.408,0,0,0,9.508-1.869c.141-1.086.262-2.172.322-3.359h3V-4h-.443c-1.308,0-1.69-.02-1.81-.02-.2,0-.221,0-.221.221v1.126c0,.2.02.221.221.221.121,0,.5-.04,1.81-.04h3c1.549,0,2.293.04,2.414.04.2,0,.221-.02.221-.221,0-.121-.04-.724-.04-1.951v-.6c.624.02.945.04,1.046.04.221,0,.241-.02.241-.221V-6.576c0-.2-.02-.221-.241-.221-.1,0-.422.04-1.046.04v-.463c0-1.227.04-1.81.04-1.931,0-.221-.02-.241-.221-.241-.121,0-.865.04-2.414.04h-.845a1.381,1.381,0,0,1,.08-.382,1.287,1.287,0,0,0,.1-.342c0-.1-.08-.181-.282-.221a11.5,11.5,0,0,0-1.73-.161,6.278,6.278,0,0,1,.1,1.106c-1.489,0-1.951-.04-2.092-.04-.2,0-.221.02-.221.241ZM16.367-4H14.517V-5.228h1.851Zm0-3.862v1.106H14.517V-7.863ZM3.413-5.771A16.58,16.58,0,0,1,.476-.2,4.333,4.333,0,0,1,1.22,1.209c.08.241.161.342.241.342.1,0,.2-.1.322-.3A16.194,16.194,0,0,0,3.654-2.915c-.04,3.5-.141,6.517-.141,6.9,0,.2.02.221.221.221H5.263c.2,0,.221-.02.221-.221,0-.4-.121-3.681-.141-7.765A10.127,10.127,0,0,0,6.43-1.587c.1.181.181.282.262.282s.141-.1.262-.342a5.755,5.755,0,0,1,.764-1.227,12.729,12.729,0,0,1-2.193-2.9c1.207,0,1.609.04,1.73.04.2,0,.221-.02.221-.241V-7.36c0-.2-.02-.221-.221-.221-.121,0-.543.04-1.851.04V-8.788a3.207,3.207,0,0,1,.7.262,1.006,1.006,0,0,0,.4.181c.1,0,.141-.1.241-.342a23.3,23.3,0,0,0,.925-2.655.75.75,0,0,1,.221-.422.3.3,0,0,0,.141-.221c0-.08-.08-.161-.221-.241a6.682,6.682,0,0,0-1.368-.543,7.179,7.179,0,0,1-.121.885A19.84,19.84,0,0,1,5.4-8.949v-2.434a6.9,6.9,0,0,1,.121-2.032,1.043,1.043,0,0,0,.141-.443c0-.1-.121-.181-.322-.2A18.513,18.513,0,0,0,3.433-14.2a16.7,16.7,0,0,1,.161,2.856v3.8H3.051c-1.408,0-1.851-.04-1.971-.04-.181,0-.2.02-.2.221v1.388c0,.221.02.241.2.241.121,0,.563-.04,1.971-.04Zm8.529,9.193h4.144v.543c0,.181.02.2.221.2h1.529c.2,0,.221-.02.221-.2,0-.121-.04-.523-.04-2.675V.082c0-.785.04-1.247.04-1.368,0-.2-.02-.221-.221-.221-.121,0-.664.04-2.273.04H12.505c-1.629,0-2.152-.04-2.273-.04-.221,0-.241.02-.241.221,0,.141.04.583.04,1.589V1.309c0,2.152-.04,2.555-.04,2.655,0,.2.02.221.241.221h1.489c.2,0,.221-.02.221-.221ZM16.086.082v1.79H11.942V.082ZM1.18-12.329c-.282.1-.282.161-.221.342a18.255,18.255,0,0,1,.764,3.42c.02.221.06.2.342.121l.845-.282c.221-.08.262-.141.241-.362a20.991,20.991,0,0,0-.865-3.44c-.08-.2-.08-.181-.342-.08ZM32.279-3.1c-1.931,0-2.575-.04-2.7-.04-.2,0-.221.02-.221.221v1.187c0,.2.02.221.221.221.08,0,.443-.02,1.247-.02a12.291,12.291,0,0,0,2.8,2.877,20.575,20.575,0,0,1-5.854,1.187,3.115,3.115,0,0,1,.644,1.147c.141.443.2.543.463.543a2.441,2.441,0,0,0,.362-.02,18.881,18.881,0,0,0,6.316-1.67,17.964,17.964,0,0,0,6.236,1.589,2.193,2.193,0,0,0,.342.02c.3,0,.362-.121.483-.583a3.5,3.5,0,0,1,.624-1.287,23.31,23.31,0,0,1-5.753-.905A12.794,12.794,0,0,0,39.782-.783a3.406,3.406,0,0,1,.785-.724c.2-.141.282-.2.282-.382,0-.141-.2-.4-.7-.825-.5-.443-.644-.523-.8-.523a.606.606,0,0,0-.241.06,1.115,1.115,0,0,1-.463.08Zm5.632,1.549A9.227,9.227,0,0,1,35.477.485a9.193,9.193,0,0,1-2.454-2.032ZM28.638-10.7H40c1.911,0,2.575.04,2.7.04.2,0,.2-.02.2-.241v-1.368c0-.2,0-.221-.2-.221-.121,0-.785.04-2.7.04H35.718v-.262a1.992,1.992,0,0,1,.121-.865.745.745,0,0,0,.141-.382c0-.1-.121-.181-.342-.2-.684-.06-1.328-.1-2.132-.121a6.736,6.736,0,0,1,.141,1.629v.2h-4.2c-1.911,0-2.575-.04-2.7-.04-.2,0-.221.02-.221.221,0,.121.04,1.348.04,4.124a42.305,42.305,0,0,1-.3,5.874,12.24,12.24,0,0,1-1.629,4.808A7.921,7.921,0,0,1,25.942,3.7c.2.2.3.322.4.322s.181-.121.322-.382A15.989,15.989,0,0,0,28.3-1.466a43.649,43.649,0,0,0,.342-6.316Zm10.44,1.951a2.989,2.989,0,0,1,.08-.925,1.287,1.287,0,0,0,.1-.342c0-.1-.1-.161-.282-.181-.563-.06-1.267-.1-1.891-.121a11.188,11.188,0,0,1,.1,1.569H33.868a3.074,3.074,0,0,1,.08-.925.816.816,0,0,0,.1-.342c0-.1-.08-.161-.262-.181-.583-.06-1.267-.1-1.911-.121a8.516,8.516,0,0,1,.1,1.569h-.262c-1.428,0-2.213-.04-2.333-.04-.2,0-.221.02-.221.221V-7.32c0,.2.02.221.221.221.121,0,.905-.04,2.333-.04h.262v.744c0,1.247-.04,1.871-.04,2.012,0,.2.02.221.241.221.121,0,.6-.04,2.072-.04h2.575c1.468,0,1.951.04,2.072.04.2,0,.221-.02.221-.221,0-.121-.04-.764-.04-2.012v-.744H39.6c1.971,0,2.675.04,2.8.04.2,0,.221-.02.221-.221V-8.567c0-.2-.02-.221-.221-.221-.121,0-.825.04-2.8.04ZM37.187-5.711H33.868V-7.139h3.319Z" transform="translate(39.135 27.189)" fill="#fff"/></g></g></g></svg>