<svg xmlns="http://www.w3.org/2000/svg" xmlns:xlink="http://www.w3.org/1999/xlink" width="175.377" height="184.188" viewBox="0 0 175.377 184.188"><defs><clipPath id="a"><rect width="175.377" height="184.187" fill="#98231d" stroke="#fff" stroke-width="4"/></clipPath></defs><g transform="translate(-1573 -4926)"><g transform="translate(1578 4931)"><g transform="translate(-5 -5)" clip-path="url(#a)"><path d="M159.522,63.541c-5.1-12.97-15.3-23.669-28.639-28.326-14.473-5.05-29.562-2.181-43.889,1.752-4.8,3.309-4.259-18.029,1.5-23.3C91.75,10.691,101.714.313,94.229.007,88.015-.249,80.7,7.423,77.825,12.244a16.844,16.844,0,0,0-2.058,5.644c-6.646-7.411-19.046-8.458-24.656-5.931,1.171,19.879,14.61,23.171,24.863,20.992.1,1.271.18,2.532.215,3.766-3.441-.568-6.839-1.844-10.267-2.551a78.082,78.082,0,0,0-15.543-1.709A49.066,49.066,0,0,0,22.09,40.9C6,52.164-.264,71.808.009,90.681c.3,20.439,7.256,39.952,18.962,56.622,5.168,7.358,11.107,14.416,18.451,19.725,7.136,5.159,15.1,7.576,23.756,8.806a36.607,36.607,0,0,0,11.077-.051c3.2-.519,6.19-1.861,9.363-2.395,2.4-.4,5.776,1.472,8.094,1.987a36.387,36.387,0,0,0,12.044.611c14.735-1.671,26.407-8.281,36.1-19.364,21.323-24.372,34.028-61.685,21.666-93.081" transform="translate(5 4.974)" fill="#98231d" stroke="#fff" stroke-width="4"/></g></g><text transform="translate(1661 5021)" fill="#fff" font-size="24" font-family="RobotoMonoForPowerline-Medium, Roboto Mono Medium for Powerline" font-weight="500" letter-spacing="0.03em"><tspan x="-29.885" y="0">Page</tspan><tspan x="-22.324" y="45">Top</tspan></text></g></svg>