<svg xmlns="http://www.w3.org/2000/svg" xmlns:xlink="http://www.w3.org/1999/xlink" width="62.5" height="65.64" viewBox="0 0 62.5 65.64"><defs><clipPath id="a"><rect width="62.5" height="65.64" fill="#98231d" stroke="#fff" stroke-width="2"/></clipPath></defs><g transform="translate(-13914 -2986)"><g transform="translate(13914 2986)" clip-path="url(#a)"><path d="M56.85,22.645A17.258,17.258,0,0,0,46.644,12.55c-5.158-1.8-10.535-.777-15.641.624-1.712,1.179-1.518-6.425.536-8.3C32.7,3.811,36.249.112,33.581,0c-2.215-.091-4.82,2.643-5.846,4.361A6,6,0,0,0,27,6.376a8.672,8.672,0,0,0-8.787-2.113c.417,7.084,5.207,8.258,8.86,7.481.035.453.064.9.077,1.342-1.226-.2-2.437-.657-3.659-.909a27.827,27.827,0,0,0-5.539-.609,17.486,17.486,0,0,0-10.081,3.01C2.139,18.591-.094,25.591,0,32.317A36.053,36.053,0,0,0,6.761,52.5a29.2,29.2,0,0,0,6.575,7.03A18.39,18.39,0,0,0,21.8,62.664a13.046,13.046,0,0,0,3.948-.018c1.139-.185,2.206-.663,3.337-.853.854-.144,2.058.525,2.884.708a12.967,12.967,0,0,0,4.292.218,19.384,19.384,0,0,0,12.865-6.9c7.6-8.685,12.127-21.983,7.721-33.172" transform="translate(1.782 1.772)" fill="#98231d" stroke="#fff" stroke-width="1"/></g><path d="M-10.465-2.725V0h-1.172V-7.109h2.378a3.124,3.124,0,0,1,.984.159,2.292,2.292,0,0,1,.779.439,1.991,1.991,0,0,1,.51.693A2.223,2.223,0,0,1-6.8-4.9a2.136,2.136,0,0,1-.183.9,1.984,1.984,0,0,1-.51.684,2.283,2.283,0,0,1-.779.435,3.172,3.172,0,0,1-.984.156Zm0-.947h1.206a1.471,1.471,0,0,0,.532-.09,1.172,1.172,0,0,0,.4-.251A1.077,1.077,0,0,0-8.072-4.4a1.328,1.328,0,0,0,.088-.488A1.449,1.449,0,0,0-8.072-5.4a1.132,1.132,0,0,0-.254-.4,1.147,1.147,0,0,0-.4-.261,1.5,1.5,0,0,0-.532-.1h-1.206ZM-2.025,0a1.078,1.078,0,0,1-.081-.229q-.032-.132-.056-.283a1.968,1.968,0,0,1-.276.237,1.921,1.921,0,0,1-.342.193,2.189,2.189,0,0,1-.405.132A2.124,2.124,0,0,1-3.651.1a2.273,2.273,0,0,1-.759-.12,1.751,1.751,0,0,1-.581-.332,1.479,1.479,0,0,1-.374-.5A1.484,1.484,0,0,1-5.5-1.479a1.5,1.5,0,0,1,.632-1.3A3.107,3.107,0,0,1-3.05-3.228H-2.2v-.347a.839.839,0,0,0-.283-.667,1.182,1.182,0,0,0-.8-.247,1.351,1.351,0,0,0-.41.056.862.862,0,0,0-.293.154.629.629,0,0,0-.176.229.689.689,0,0,0-.059.283H-5.384a1.332,1.332,0,0,1,.144-.6,1.565,1.565,0,0,1,.422-.518,2.169,2.169,0,0,1,.681-.364,2.858,2.858,0,0,1,.92-.137,3.144,3.144,0,0,1,.869.115,2.032,2.032,0,0,1,.693.342,1.59,1.59,0,0,1,.459.566,1.786,1.786,0,0,1,.166.793v2.354a3.591,3.591,0,0,0,.051.632,2.024,2.024,0,0,0,.149.5V0ZM-3.431-.845A1.54,1.54,0,0,0-3.009-.9a1.6,1.6,0,0,0,.356-.146,1.234,1.234,0,0,0,.273-.208A1.143,1.143,0,0,0-2.2-1.494v-.991h-.742a1.907,1.907,0,0,0-1.052.229A.743.743,0,0,0-4.33-1.6a.827.827,0,0,0,.054.3.623.623,0,0,0,.164.239A.8.8,0,0,0-3.834-.9,1.231,1.231,0,0,0-3.431-.845ZM.755-2.681A3.824,3.824,0,0,1,.9-3.779a2.568,2.568,0,0,1,.427-.854A1.938,1.938,0,0,1,2-5.186a1.953,1.953,0,0,1,.881-.2,1.931,1.931,0,0,1,.82.161,1.681,1.681,0,0,1,.6.464l.049-.527h1.06V-.142A2.392,2.392,0,0,1,5.233.8a1.948,1.948,0,0,1-.491.7,2.139,2.139,0,0,1-.754.432,3,3,0,0,1-.967.149,2.91,2.91,0,0,1-.486-.046,2.868,2.868,0,0,1-.544-.151,2.582,2.582,0,0,1-.522-.273A1.716,1.716,0,0,1,1.044,1.2L1.6.5a1.8,1.8,0,0,0,.642.5,1.748,1.748,0,0,0,.71.151,1.616,1.616,0,0,0,.532-.083A1.081,1.081,0,0,0,3.89.83a1.083,1.083,0,0,0,.256-.4,1.521,1.521,0,0,0,.09-.544V-.469a1.708,1.708,0,0,1-.583.42A1.927,1.927,0,0,1,2.875.1,1.869,1.869,0,0,1,2-.1a2.023,2.023,0,0,1-.669-.559A2.577,2.577,0,0,1,.9-1.511,3.659,3.659,0,0,1,.755-2.578Zm1.172.1A2.926,2.926,0,0,0,2-1.909a1.725,1.725,0,0,0,.225.547,1.107,1.107,0,0,0,.388.369,1.115,1.115,0,0,0,.559.134,1.172,1.172,0,0,0,.659-.168,1.223,1.223,0,0,0,.405-.452V-3.813a1.254,1.254,0,0,0-.41-.444,1.156,1.156,0,0,0-.645-.166,1.1,1.1,0,0,0-.559.137,1.134,1.134,0,0,0-.391.376A1.788,1.788,0,0,0,2-3.354a2.9,2.9,0,0,0-.076.674ZM9.669.1A2.83,2.83,0,0,1,8.6-.1a2.474,2.474,0,0,1-.828-.537,2.408,2.408,0,0,1-.535-.808,2.641,2.641,0,0,1-.19-1.008v-.2a3.008,3.008,0,0,1,.2-1.133,2.686,2.686,0,0,1,.542-.859,2.332,2.332,0,0,1,.791-.547,2.42,2.42,0,0,1,.95-.19,2.507,2.507,0,0,1,1.016.193,2,2,0,0,1,.735.542,2.372,2.372,0,0,1,.447.828,3.466,3.466,0,0,1,.151,1.05v.493H8.219A1.742,1.742,0,0,0,8.37-1.7a1.527,1.527,0,0,0,.32.457,1.449,1.449,0,0,0,.464.3,1.515,1.515,0,0,0,.583.11,1.9,1.9,0,0,0,.818-.176,1.612,1.612,0,0,0,.608-.483l.635.6a1.936,1.936,0,0,1-.327.369A2.274,2.274,0,0,1,11-.212a2.829,2.829,0,0,1-.6.225A2.945,2.945,0,0,1,9.669.1ZM9.527-4.438a1.164,1.164,0,0,0-.454.088,1.145,1.145,0,0,0-.376.256,1.485,1.485,0,0,0-.281.41,2.011,2.011,0,0,0-.164.549h2.476v-.088a1.686,1.686,0,0,0-.09-.452,1.194,1.194,0,0,0-.222-.388,1.065,1.065,0,0,0-.369-.273A1.23,1.23,0,0,0,9.527-4.438ZM-3.54,13.857H-5.722V20H-6.889V13.857H-9.057v-.967H-3.54Zm1.081,3.452a3.272,3.272,0,0,1,.168-1.064,2.528,2.528,0,0,1,.483-.854,2.215,2.215,0,0,1,.769-.566,2.477,2.477,0,0,1,1.03-.205,2.507,2.507,0,0,1,1.038.205,2.209,2.209,0,0,1,.771.566,2.5,2.5,0,0,1,.481.854,3.316,3.316,0,0,1,.166,1.064v.1a3.332,3.332,0,0,1-.166,1.069,2.469,2.469,0,0,1-.481.852,2.23,2.23,0,0,1-.769.564A2.477,2.477,0,0,1,0,20.1,2.507,2.507,0,0,1-1.035,19.9a2.224,2.224,0,0,1-.771-.564,2.5,2.5,0,0,1-.483-.852,3.288,3.288,0,0,1-.168-1.069Zm1.167.1a2.92,2.92,0,0,0,.076.679,1.748,1.748,0,0,0,.234.559,1.17,1.17,0,0,0,.4.381A1.154,1.154,0,0,0,0,19.17a1.12,1.12,0,0,0,.569-.139,1.177,1.177,0,0,0,.4-.381,1.748,1.748,0,0,0,.234-.559,2.92,2.92,0,0,0,.076-.679v-.1a2.876,2.876,0,0,0-.076-.669,1.719,1.719,0,0,0-.234-.557,1.209,1.209,0,0,0-.4-.381,1.125,1.125,0,0,0-.579-.142,1.128,1.128,0,0,0-.576.142,1.179,1.179,0,0,0-.4.381,1.752,1.752,0,0,0-.232.557,2.876,2.876,0,0,0-.076.669Zm9.973,0a3.991,3.991,0,0,1-.137,1.069,2.6,2.6,0,0,1-.4.852A1.893,1.893,0,0,1,7.5,19.9a1.858,1.858,0,0,1-.881.2,2.012,2.012,0,0,1-.793-.146,1.685,1.685,0,0,1-.593-.42v2.5H4.062V14.717H5.136l.049.532a1.747,1.747,0,0,1,.6-.466,1.9,1.9,0,0,1,.813-.164,1.956,1.956,0,0,1,.891.2,1.828,1.828,0,0,1,.652.549,2.536,2.536,0,0,1,.4.85,4.117,4.117,0,0,1,.137,1.1Zm-1.167-.1a2.958,2.958,0,0,0-.073-.671,1.753,1.753,0,0,0-.225-.552,1.128,1.128,0,0,0-.386-.374,1.086,1.086,0,0,0-.557-.137,1.156,1.156,0,0,0-.645.166,1.173,1.173,0,0,0-.4.444V18.55a1.232,1.232,0,0,0,.4.444,1.147,1.147,0,0,0,.657.171,1.056,1.056,0,0,0,.557-.142,1.143,1.143,0,0,0,.383-.381,1.777,1.777,0,0,0,.22-.557,3.089,3.089,0,0,0,.071-.674Z" transform="translate(13945 3019)" fill="#fff"/></g></svg>