<svg xmlns="http://www.w3.org/2000/svg" width="182.13" height="183.921" viewBox="0 0 182.13 183.921">
  <g id="グループ_674" data-name="グループ 674" transform="translate(-1420 -4123)">
    <path id="パス_414" data-name="パス 414" d="M-2123.729-1342.613a90.882,90.882,0,0,1,91.065-90.75,91.073,91.073,0,0,1,91.065,90.992,90.847,90.847,0,0,1-90.218,91.137,90.669,90.669,0,0,1-28.459-4.259,13.429,13.429,0,0,0-9.462.484c-14.5,6.461-30.153,5.518-30.153,5.518.581-.508,1.161-1.016,1.694-1.525a19.223,19.223,0,0,0,.605-27.443A90.872,90.872,0,0,1-2123.729-1342.613Z" transform="translate(3543.73 5556.363)" fill="#fff"/>
    <path id="パス_740" data-name="パス 740" d="M-30.744-7.512c0-.168-.024-.192-.192-.192-.144,0-.912.048-3.312.048h-11.88c-2.376,0-3.168-.048-3.288-.048-.192,0-.216.024-.216.192v1.056c0,.168.024.192.216.192.12,0,.912-.048,3.288-.048h2.88a43.585,43.585,0,0,1-2.52,5.64c-.36.024-.7.048-1.032.048a23.59,23.59,0,0,1-2.616,0,14.466,14.466,0,0,0,.36,1.608c.048.144.12.264.264.264A.422.422,0,0,0-48.48,1.1a1.81,1.81,0,0,1,.912-.216c4.2-.312,9-.768,13.224-1.32.48.648.912,1.32,1.368,2.016.072.1.12.144.192.144a.744.744,0,0,0,.264-.12l.744-.5c.216-.144.216-.24.12-.36a43.046,43.046,0,0,0-4.608-5.688c-.1-.1-.168-.1-.36,0l-.7.384c-.24.12-.288.192-.144.336.816.888,1.56,1.752,2.256,2.64-2.76.312-6,.624-8.88.816.96-1.872,1.776-3.744,2.5-5.544h7.344c2.4,0,3.168.048,3.312.048.168,0,.192-.024.192-.192Zm1.824-3.744A22.368,22.368,0,0,1-39.6-19.128a1.26,1.26,0,0,1,.264-.168.264.264,0,0,0,.168-.264c0-.144-.1-.216-.336-.288a8.84,8.84,0,0,0-1.512-.312,5.459,5.459,0,0,1-.624,1.344,21.224,21.224,0,0,1-9.768,7.776,2.65,2.65,0,0,1,.744.816c.144.264.192.36.312.36a.894.894,0,0,0,.36-.144,24.12,24.12,0,0,0,9.648-8.016,23.4,23.4,0,0,0,10.08,7.968.835.835,0,0,0,.336.144c.12,0,.168-.12.312-.384A3.388,3.388,0,0,1-28.92-11.256Zm-6.36-.624c0-.168-.024-.192-.192-.192-.12,0-.792.048-2.808.048h-3.888c-2.016,0-2.688-.048-2.808-.048-.168,0-.192.024-.192.192v1.032c0,.168.024.192.192.192.12,0,.792-.048,2.808-.048h3.888c2.016,0,2.688.048,2.808.048.168,0,.192-.024.192-.192ZM-2.664-.48c0-.168-.024-.192-.192-.192-.12,0-.912.048-3.288.048h-2.9v-9.912h2.04c2.208,0,2.952.048,3.072.048.168,0,.192-.024.192-.192v-1.056c0-.168-.024-.192-.192-.192-.12,0-.864.048-3.072.048h-2.04v-4.728a8.889,8.889,0,0,1,.168-2.5,1.628,1.628,0,0,0,.1-.408c0-.1-.12-.168-.288-.192a13.768,13.768,0,0,0-1.608-.144,16.977,16.977,0,0,1,.168,3.288v4.68h-1.512c-2.208,0-2.952-.048-3.072-.048-.168,0-.192.024-.192.192v1.056c0,.168.024.192.192.192.12,0,.864-.048,3.072-.048h1.512V-.624h-2.424c-2.352,0-3.168-.048-3.288-.048-.192,0-.216.024-.216.192V.576c0,.168.024.192.216.192.12,0,.936-.048,3.288-.048h6.792c2.376,0,3.168.048,3.288.048.168,0,.192-.024.192-.192ZM-18.84-15.792v-1.44A5.349,5.349,0,0,1-18.7-19.1a1.019,1.019,0,0,0,.144-.456c0-.072-.12-.168-.312-.192a14.433,14.433,0,0,0-1.56-.144,13.148,13.148,0,0,1,.168,2.712v1.392h-.792c-1.776,0-2.328-.048-2.448-.048-.168,0-.192.024-.192.192v.984c0,.168.024.192.192.192.12,0,.672-.048,2.448-.048h3.48a19.056,19.056,0,0,1-7.008,8.184A2.584,2.584,0,0,1-24-5.448c.1.216.144.312.24.312s.192-.072.36-.192a25.216,25.216,0,0,0,3.144-2.808v6.7c0,1.92-.048,2.88-.048,3,0,.168.024.192.192.192h1.128c.168,0,.192-.024.192-.192,0-.12-.048-1.08-.048-3V-8.928a16.791,16.791,0,0,0,2.712,2.664.563.563,0,0,0,.312.168c.1,0,.168-.072.264-.264a3.6,3.6,0,0,1,.672-.888A15.2,15.2,0,0,1-18.528-10.2a24.531,24.531,0,0,0,2.3-3.864,1.358,1.358,0,0,1,.48-.576c.144-.12.192-.192.192-.312,0-.1-.12-.264-.408-.576-.312-.312-.48-.408-.6-.408a.7.7,0,0,0-.216.048.635.635,0,0,1-.432.1ZM20.784-4.92c0-1.008.024-1.32.144-1.512a.868.868,0,0,0,.144-.36c0-.12-.12-.192-.312-.216l-.672-.1.264-.624c.12-.336.264-.672.384-1.08h.7c1.8,0,2.376.048,2.5.048.168,0,.192-.024.192-.216V-9.84c0-.168-.024-.192-.192-.192-.12,0-.7.048-2.5.048h-.36a40.181,40.181,0,0,0,1.032-7.08c1.128.024,1.536.048,1.632.048.168,0,.192-.024.192-.192V-18.1c0-.168-.024-.192-.192-.192-.12,0-.648.048-2.376.048H18.7c-1.728,0-2.256-.048-2.376-.048-.168,0-.192.024-.192.192v.888c0,.168.024.192.192.192.072,0,.336-.024.936-.024v7.056c-.624-.024-.888-.048-.96-.048-.168,0-.192.024-.192.192v.864c0,.192.024.216.192.216.12,0,.7-.048,2.5-.048h.624l-.216.624A17.52,17.52,0,0,1,11.712.648a2.574,2.574,0,0,1,.864.7c.168.192.264.288.36.288s.192-.1.36-.216a19.065,19.065,0,0,0,6.192-7.224c.024.264.024.576.024.912v4.1c0,1.176.264,1.536.624,1.752a3.757,3.757,0,0,0,1.68.264A2.186,2.186,0,0,0,23.544.6c.384-.384.624-1.1.7-2.832.024-.36,0-.432-.312-.552a2.782,2.782,0,0,1-.84-.5c-.048,1.68-.12,2.376-.384,2.76a.774.774,0,0,1-.792.432,1.344,1.344,0,0,1-.936-.216c-.168-.144-.192-.408-.192-.984Zm0-12.144a34.589,34.589,0,0,1-1.008,7.08H18.528v-7.08ZM13.1-7.32c-.264.12-.288.192-.168.336a15.244,15.244,0,0,1,1.1,1.872,33.5,33.5,0,0,1-3.024,1.56V-8.784H13.56c1.152,0,1.512.048,1.656.048s.168-.024.168-.192c0-.144-.048-.864-.048-2.592V-15.7c0-1.7.048-2.448.048-2.568,0-.168-.024-.192-.168-.192s-.5.048-1.656.048H11.9c-1.32,0-1.9-.048-1.992-.048-.168,0-.192.024-.192.192,0,.144.048,1.224.048,3.672V-3c-.672.264-1.3.48-1.968.672a11.234,11.234,0,0,0,.576,1.272.291.291,0,0,0,.264.192c.144,0,.24-.1.36-.24a2.855,2.855,0,0,1,.864-.528A48.919,48.919,0,0,0,14.5-4.1a8.214,8.214,0,0,1,.312.816c.072.192.072.192.36.024l.5-.288c.264-.144.288-.216.216-.36a15.324,15.324,0,0,0-1.944-3.6c-.12-.144-.144-.144-.384-.024Zm1.032-2.664h-3.12V-13.1h3.12Zm0-4.248h-3.12v-2.976h3.12Zm-5.04-.48c0-.168-.024-.192-.216-.192-.12,0-.552.048-1.992.048V-16.92a6.573,6.573,0,0,1,.12-2.064,1.118,1.118,0,0,0,.144-.48c0-.1-.12-.168-.288-.192A13.5,13.5,0,0,0,5.352-19.8a15.464,15.464,0,0,1,.168,2.928v2.016h-.6c-1.56,0-1.992-.048-2.112-.048-.192,0-.216.024-.216.192v.96c0,.168.024.192.216.192.12,0,.552-.048,2.112-.048h.36a33.2,33.2,0,0,1-3.312,8.52,2.747,2.747,0,0,1,.6.888c.072.168.12.264.192.264s.144-.12.24-.288A33.751,33.751,0,0,0,5.688-12c-.048,7.1-.24,13.272-.24,13.608,0,.144.024.168.192.168H6.768c.168,0,.192-.024.192-.168,0-.336-.216-6.408-.24-13.7A26.368,26.368,0,0,0,8.256-7.848c.072.168.144.24.192.24.072,0,.12-.072.192-.24a4.634,4.634,0,0,1,.552-.984,18.4,18.4,0,0,1-2.256-4.776c1.392,0,1.824.048,1.944.048.192,0,.216-.024.216-.192Zm41.568-3.936c0-.168-.024-.192-.192-.192-.12,0-.864.048-3.168.048h-13.9c-2.28,0-3.048-.048-3.168-.048-.168,0-.192.024-.192.192v1.008c0,.168.024.192.192.192.12,0,.888-.048,3.168-.048h3.6v2.352h-1.32c-2.448,0-3.312-.048-3.456-.048-.168,0-.192.024-.192.192,0,.144.048.528.048,1.752v1.656c0,1.224-.048,1.608-.048,1.752,0,.168.024.192.192.192.144,0,1.008-.048,3.456-.048h9.264c2.448,0,3.312.048,3.432.048.168,0,.192-.024.192-.192,0-.144-.048-.528-.048-1.752v-1.656c0-1.224.048-1.608.048-1.752,0-.168-.024-.192-.192-.192-.12,0-.984.048-3.432.048H43.32V-17.5H47.3c2.3,0,3.048.048,3.168.048.168,0,.192-.024.192-.192Zm-3.528,7.824H43.32v-3.192h3.816Zm-5.16,0H38.352v-3.192h3.624Zm-4.968,0H33.48v-3.192h3.528Zm4.968-4.32H38.352V-17.5h3.624Zm9,8.136c0-.168-.024-.192-.192-.192-.12,0-.864.048-3.072.048H38.52l.288-.456c.432-.72.576-.888.792-1.032.168-.12.24-.216.24-.312,0-.12-.072-.192-.264-.264a6.779,6.779,0,0,0-1.44-.384,7.438,7.438,0,0,1-.864,1.92l-.312.528H32.928c-2.208,0-2.952-.048-3.072-.048-.168,0-.192.024-.192.192v.984c0,.168.024.192.192.192.12,0,.864-.048,3.072-.048h3.216c-.432.624-.864,1.224-1.32,1.8-.408.528-.72.912-1.1,1.344-.12.12-.24.24-.24.312s.024.144.168.168l.816.192a.453.453,0,0,0,.528-.12,8.272,8.272,0,0,0,.552-.672c1.536.288,2.9.624,4.224.984-2.136,1.3-5.112,2.064-9.5,2.3a2.278,2.278,0,0,1,.576.816c.192.432.216.456.672.432,4.1-.36,7.416-1.176,9.936-3.024a40.966,40.966,0,0,1,6.48,2.928c.192.1.192.048.432-.264l.48-.672c.168-.24.168-.312,0-.384A67.183,67.183,0,0,0,42.552-2.3a12.031,12.031,0,0,0,2.5-3.576h2.664c2.208,0,2.952.048,3.072.048.168,0,.192-.024.192-.192ZM43.416-5.88a9.858,9.858,0,0,1-2.4,3.1c-1.464-.432-2.976-.792-4.656-1.128.456-.6.912-1.3,1.344-1.968Z" transform="translate(1511 4224)" fill="#3e0000" opacity="0.997"/>
  </g>
</svg>
