<svg xmlns="http://www.w3.org/2000/svg" xmlns:xlink="http://www.w3.org/1999/xlink" viewBox="0 0 378.13 642.76"><defs><style>.a{fill:none;}.b{clip-path:url(#a);}.c{fill:#98231d;}</style><clipPath id="a" transform="translate(0 -0.24)"><rect class="a" x="-0.29" y="0.03" width="375" height="643.49"/></clipPath></defs><g class="b"><path class="c" d="M0,59.78H378.13V643H0Z" transform="translate(0 -0.24)"/><path class="c" d="M378.13,97.21H0V.38A27.54,27.54,0,0,0,5,16.15a36,36,0,0,0,5.6,6.28,46.87,46.87,0,0,0,7.05,5.16,59.6,59.6,0,0,0,8,4,71.87,71.87,0,0,0,8.57,2.88A67.34,67.34,0,0,0,51.2,36.8H326.92a50,50,0,0,0,7.23-.58,70.87,70.87,0,0,0,8.16-1.73,72.69,72.69,0,0,0,16.78-6.9,52.31,52.31,0,0,0,7.45-5.16,37.86,37.86,0,0,0,6-6.28A26,26,0,0,0,378.13.24Z" transform="translate(0 -0.24)"/></g></svg>