<svg xmlns="http://www.w3.org/2000/svg" xmlns:xlink="http://www.w3.org/1999/xlink" width="375" height="643" viewBox="0 0 375 643"><defs><clipPath id="a"><rect width="375" height="643" transform="translate(2033 7664)" fill="#fff" stroke="#707070" stroke-width="1"/></clipPath></defs><g transform="translate(-2033 -7664)" clip-path="url(#a)"><path d="M0,0H378.131V582.775H0Z" transform="translate(2033.286 7723.707)" fill="#98231d"/><g transform="translate(2033.286 7664.215)"><path d="M378.131,96.891H0V.141A27.527,27.527,0,0,0,5.024,15.9a35.586,35.586,0,0,0,5.6,6.275,46.856,46.856,0,0,0,7.044,5.149A59.618,59.618,0,0,0,25.7,31.34a69.368,69.368,0,0,0,8.573,2.878,67.147,67.147,0,0,0,16.932,2.31h275.72a49.677,49.677,0,0,0,7.225-.579,70.128,70.128,0,0,0,8.159-1.732,72.317,72.317,0,0,0,16.781-6.894,52.722,52.722,0,0,0,7.452-5.149,38.148,38.148,0,0,0,6.047-6.275A26.01,26.01,0,0,0,378.131,0V96.891Z" transform="translate(0)" fill="#98231d"/></g></g></svg>