<?xml version="1.0" encoding="utf-8"?>
<!-- Generator: Adobe Illustrator 25.0.1, SVG Export Plug-In . SVG Version: 6.00 Build 0)  -->
<svg version="1.1" id="レイヤー_1" xmlns="http://www.w3.org/2000/svg" xmlns:xlink="http://www.w3.org/1999/xlink" x="0px"
	 y="0px" viewBox="0 0 381.6 642.8" style="enable-background:new 0 0 381.6 642.8;" xml:space="preserve">
<style type="text/css">
	.st0{clip-path:url(#SVGID_2_);}
	.st1{fill:#98231D;}
</style>
<g>
	<defs>
		<rect id="SVGID_1_" x="-0.3" y="-0.2" width="381.9" height="643.5"/>
	</defs>
	<clipPath id="SVGID_2_">
		<use xlink:href="#SVGID_1_"  style="overflow:visible;"/>
	</clipPath>
	<g class="st0">
		<path class="st1" d="M0,59.5h385.1v583.2H0V59.5z"/>
		<path class="st1" d="M385.1,97H0V0.1c0,5.7,1.8,11.2,5.1,15.8c1.6,2.3,3.6,4.4,5.7,6.3c2.2,1.9,4.6,3.7,7.2,5.2
			c2.6,1.5,5.3,2.9,8.2,4c2.8,1.1,5.8,2.1,8.7,2.9c5.6,1.5,11.5,2.3,17.3,2.3h280.8c2.5,0,4.9-0.2,7.4-0.6c2.8-0.4,5.6-1,8.3-1.7
			c6-1.6,11.7-3.9,17.1-6.9c2.7-1.5,5.2-3.2,7.6-5.2c2.3-1.9,4.3-4,6.1-6.3C383,11.4,385,5.8,385.1,0V97z"/>
	</g>
</g>
</svg>
