<svg xmlns="http://www.w3.org/2000/svg" xmlns:xlink="http://www.w3.org/1999/xlink" width="375" height="287" viewBox="0 0 375 287"><defs><clipPath id="a"><rect width="375" height="287" transform="translate(2033 7664)" fill="#fff" stroke="#707070" stroke-width="1"/></clipPath></defs><g transform="translate(-2033 -7664)" clip-path="url(#a)"><path d="M0,0H378.131V260.217H0Z" transform="translate(2033.286 7690.66)" fill="#98231d"/><g transform="translate(2033.286 7664.096)"><path d="M378.131,43.263H0V.063C.028,2.594,1.718,4.962,5.024,7.1a32.706,32.706,0,0,0,5.6,2.8,64.071,64.071,0,0,0,7.044,2.3c2.474.665,5.178,1.268,8.036,1.794,2.737.5,5.622.935,8.573,1.285A146.655,146.655,0,0,0,51.205,16.31h275.72c2.208,0,4.639-.087,7.225-.258,2.652-.176,5.4-.436,8.159-.773A134.148,134.148,0,0,0,359.091,12.2a75.154,75.154,0,0,0,7.452-2.3,38.024,38.024,0,0,0,6.047-2.8c3.676-2.178,5.54-4.567,5.54-7.1V43.263Z" transform="translate(0)" fill="#98231d"/></g></g></svg>