<svg xmlns="http://www.w3.org/2000/svg" xmlns:xlink="http://www.w3.org/1999/xlink" width="39.779" height="44.811" viewBox="0 0 39.779 44.811"><defs><clipPath id="a"><rect width="25" height="26.899" transform="translate(0 0)" fill="none" stroke="#fff" stroke-width="1"/></clipPath></defs><g transform="translate(-168.56 -14)"><path d="M8.98-4.01c0-.91.02-1.38.02-1.44,0-.1-.01-.11-.11-.11-.06,0-.4.02-1.36.02H6.89a2.7,2.7,0,0,0,.15-.29.627.627,0,0,1,.16-.22.214.214,0,0,0,.1-.16c0-.06-.04-.09-.12-.12a8.008,8.008,0,0,0-.97-.22,1.584,1.584,0,0,1-.11.43,4.612,4.612,0,0,1-.25.58H4.12a4.442,4.442,0,0,0-.44-.9c-.06-.1-.11-.14-.24-.1l-.61.19c-.12.04-.15.07-.09.16a3.969,3.969,0,0,1,.33.65h-.6c-.95,0-1.29-.02-1.36-.02-.1,0-.11.01-.11.11,0,.07.02.47.02,1.36V-.67C1.02.21,1,.61,1,.67c0,.1.01.11.11.11h.85c.1,0,.11-.01.11-.11,0-.05-.02-.46-.02-1.3v-2.5a1.934,1.934,0,0,1,.35.4c.09.16.16.22.24.22a.538.538,0,0,0,.22-.08A2.537,2.537,0,0,0,4.5-4.71h.76V-3.7a.627.627,0,0,0,.23.57c.13.1.37.13.88.13.64,0,.85-.02,1.08-.19a.952.952,0,0,0,.36-.82c.01-.21-.03-.27-.23-.3a1.7,1.7,0,0,1-.5-.22c-.01.42-.02.55-.12.65a.665.665,0,0,1-.4.08c-.21,0-.27,0-.33-.04s-.06-.13-.06-.29v-.58H7.95V-.5c0,.21-.1.28-.32.28-.25,0-.36-.01-.63-.03A1.554,1.554,0,0,1,7.27.5c.03.24.03.25.34.24C8.32.72,8.59.64,8.74.5a1,1,0,0,0,.27-.81c0-.34-.03-.92-.03-1.51Zm-5.43-.7c-.08.7-.54,1.21-1.5,1.5v-1.5ZM3.96.18c.1,0,.11-.01.11-.12V-.3H5.93v.21c0,.11.01.12.11.12h.72c.1,0,.11-.01.11-.12,0-.06-.02-.25-.02-1.26v-.57c0-.39.02-.59.02-.65,0-.1-.01-.11-.11-.11-.06,0-.31.02-1.08.02H4.32c-.77,0-1.02-.02-1.08-.02-.1,0-.11.01-.11.11,0,.07.02.28.02.79v.51C3.15-.2,3.13,0,3.13.06c0,.11.01.12.11.12Zm.11-2.1H5.93v.88H4.07ZM8.14-6.6c.89,0,1.19.02,1.25.02.09,0,.1-.01.1-.11v-.69c0-.1-.01-.11-.1-.11-.06,0-.36.02-1.25.02H5.46v-.08a1.334,1.334,0,0,1,.05-.51.669.669,0,0,0,.05-.19c0-.05-.05-.09-.15-.1-.34-.03-.7-.05-1.07-.06a3.594,3.594,0,0,1,.07.86v.08H1.91c-.89,0-1.19-.02-1.25-.02-.09,0-.1.01-.1.11v.69c0,.1.01.11.1.11.06,0,.36-.02,1.25-.02Zm5.74-1.39c-.94,0-1.27-.02-1.33-.02-.1,0-.11.01-.11.11,0,.07.02.33.02.93v1.45c0,.6-.02.86-.02.92,0,.11.01.12.11.12.06,0,.39-.02,1.33-.02h2.76c.95,0,1.27.02,1.34.02.1,0,.11-.01.11-.12,0-.06-.02-.32-.02-.92V-6.97c0-.6.02-.86.02-.93,0-.1-.01-.11-.11-.11-.07,0-.39.02-1.34.02Zm-.39.96h3.55v1.57H13.49ZM16.54.76c.1,0,.11-.01.11-.11V.16h1.78V.6c0,.11.01.12.11.12h.79c.1,0,.11-.01.11-.12,0-.06-.02-.34-.02-1.84V-2.31c0-.8.02-1.09.02-1.15,0-.11-.01-.12-.11-.12-.06,0-.32.02-1.09.02H16.86c-.77,0-1.03-.02-1.1-.02-.09,0-.1.01-.1.12,0,.06.02.35.02,1.3v.93c0,1.53-.02,1.81-.02,1.88,0,.1.01.11.1.11Zm.11-3.38h1.78V-.77H16.65ZM11.97.76c.1,0,.11-.01.11-.12V.16h1.66V.57c0,.1.01.11.1.11h.78c.1,0,.11-.01.11-.11,0-.06-.02-.35-.02-1.85V-2.33c0-.79.02-1.08.02-1.14,0-.1-.01-.11-.11-.11-.07,0-.32.02-1.07.02H12.24c-.74,0-.99-.02-1.06-.02-.1,0-.11.01-.11.11,0,.07.02.35.02,1.31v.93c0,1.53-.02,1.81-.02,1.87,0,.11.01.12.11.12Zm.11-3.38h1.66V-.77H12.08Zm16.43-.73c.9,0,1.21.02,1.27.02.1,0,.11-.01.11-.1V-4.4c0-.09-.01-.1-.11-.1-.06,0-.37.02-1.27.02H22.48c-.9,0-1.21-.02-1.27-.02-.1,0-.11.01-.11.1v.97c0,.09.01.1.11.1.06,0,.37-.02,1.27-.02ZM37.18-.82h.21c.96,0,1.31.02,1.37.02.11,0,.12-.01.12-.12,0-.06-.02-.3-.02-.89V-3.25c0-.59.02-.84.02-.9,0-.1-.01-.11-.12-.11-.06,0-.41.02-1.37.02H34.15c-.97,0-1.32-.02-1.38-.02-.1,0-.11.01-.11.11,0,.07.02.31.02.9v1.44c0,.59-.02.83-.02.89,0,.11.01.12.11.12.06,0,.4-.02,1.31-.02-.5.62-1.49.75-2.74.78a2.321,2.321,0,0,1,.37.57c.13.29.13.3.44.27C33.6.68,34.68.34,35.26-.82h.86V-.1c0,.41.13.56.37.65A5.567,5.567,0,0,0,38.2.7,3.116,3.116,0,0,0,39.88.43a1.111,1.111,0,0,0,.44-.88c.04-.27.04-.29-.22-.36a2.01,2.01,0,0,1-.68-.3c-.02.6-.07.71-.24.81a2.122,2.122,0,0,1-.99.13,7.068,7.068,0,0,1-.82-.03c-.16-.03-.19-.12-.19-.27Zm.71-.6H33.64v-.39h4.25Zm0-2.2v.38H33.64v-.38ZM33.64-2.33v-.38h4.25v.38Zm.76-2.9v-.39c.6,0,.88.01.94.01.09,0,.1-.01.1-.11,0-.06-.02-.17-.02-.45v-.27c0-.28.02-.39.02-.45,0-.1-.01-.11-.1-.11-.06,0-.34.01-.94.01v-.39h.12c.82,0,1.07.02,1.13.02.1,0,.11-.01.11-.11v-.47c0-.1-.01-.11-.11-.11-.06,0-.31.02-1.13.02H33.08c-.84,0-1.24-.02-1.3-.02-.1,0-.11.01-.11.11,0,.06.02.36.02.99v1.29c0,.62-.02.92-.02.98,0,.1.01.11.11.11.06,0,.46-.02,1.3-.02h1.64c.68,0,.9.02.96.02.1,0,.11-.01.11-.11v-.46c0-.1-.01-.11-.11-.11-.06,0-.28.02-.96.02Zm.12-.88H32.6V-6.5h1.92ZM32.6-7.38h.96v.39H32.6Zm0,2.15v-.39h.96v.39Zm6.18-1.36c.9,0,1.21.02,1.27.02.11,0,.12-.01.12-.12v-.65c0-.1-.01-.11-.12-.11-.06,0-.37.02-1.27.02H37.52l.06-.12a1.075,1.075,0,0,1,.23-.35c.06-.06.09-.09.09-.15s-.06-.11-.18-.14c-.27-.07-.52-.14-.81-.2a1.93,1.93,0,0,1-.21.56A5.215,5.215,0,0,1,35.49-6.3a1.555,1.555,0,0,1,.43.39c.1.14.16.2.22.2s.11-.06.22-.16A6.115,6.115,0,0,0,37-6.59ZM38.71-4.9c.69,0,.91.02.97.02.1,0,.11-.01.11-.11v-.66c0-.1-.01-.11-.11-.11-.06,0-.28.02-.97.02H37.62c-.69,0-.91-.02-.97-.02-.1,0-.11.01-.11.11v.66c0,.1.01.11.11.11.06,0,.28-.02.97-.02Z" transform="translate(168 58)" fill="#fff"/><g transform="translate(176 14)"><g transform="translate(0 0)" clip-path="url(#a)"><path d="M22.571,9.64A6.566,6.566,0,0,0,18.7,5.789a9.859,9.859,0,0,0-5.935.238c-.65.45-.576-2.451.2-3.168.44-.4,1.787-1.816.775-1.857C12.9.967,11.913,2.01,11.524,2.666a2.3,2.3,0,0,0-.278.767,3.277,3.277,0,0,0-3.334-.806c.158,2.7,1.976,3.15,3.362,2.854.013.173.024.344.029.512-.465-.077-.925-.251-1.388-.347a10.5,10.5,0,0,0-2.1-.232A6.609,6.609,0,0,0,3.987,6.562,7.927,7.927,0,0,0,1,13.329a13.8,13.8,0,0,0,2.564,7.7A11.114,11.114,0,0,0,6.06,23.709a6.955,6.955,0,0,0,3.212,1.2,4.924,4.924,0,0,0,1.5-.007c.432-.071.837-.253,1.266-.326.324-.055.781.2,1.094.27a4.894,4.894,0,0,0,1.629.083,7.344,7.344,0,0,0,4.882-2.633C22.524,18.981,24.242,13.908,22.571,9.64Z" transform="translate(0.466 0.417)" fill="none" stroke="#fff" stroke-miterlimit="10" stroke-width="1"/></g></g></g></svg>