<svg xmlns="http://www.w3.org/2000/svg" xmlns:xlink="http://www.w3.org/1999/xlink" width="27.559" height="42.465" viewBox="0 0 27.559 42.465"><defs><clipPath id="a"><rect width="25" height="22.015" fill="#fff"/></clipPath></defs><g transform="translate(-292.92 -16)"><path d="M3.08-5.82c-.58,0-1.03,0-1.66-.04.02.37.04.73.08.97.01.12.05.18.15.17.47-.03.95-.05,1.44-.05h.9a5.827,5.827,0,0,1-.72,2.16A5.567,5.567,0,0,1,.92-.57a2.551,2.551,0,0,1,.84.58.257.257,0,0,0,.19.1A.455.455,0,0,0,2.18.03,6.446,6.446,0,0,0,4.3-2.03,7.44,7.44,0,0,0,5.19-4.8H7.21a14.007,14.007,0,0,1-.3,3c-.12.45-.25.61-.52.7a4.082,4.082,0,0,1-1.36.09,2.093,2.093,0,0,1,.58.91.243.243,0,0,0,.24.2A4.227,4.227,0,0,0,6.86-.01,1.594,1.594,0,0,0,8.04-1.36a17.046,17.046,0,0,0,.37-3.29c.02-.53.04-.93.04-1.06,0-.11-.05-.14-.21-.14-.46,0-.93.02-1.39.02H5.33c.05-.49.06-.73.09-1.05a.931.931,0,0,1,.13-.47.449.449,0,0,0,.05-.19.207.207,0,0,0-.17-.21,7.831,7.831,0,0,0-1.3-.21,3.845,3.845,0,0,1,.07.79c-.01.54-.03.86-.07,1.35ZM16.75-3.09c.74,0,1.48.01,2.23.02.14.01.18-.03.18-.15a7.371,7.371,0,0,0,0-.94c0-.12-.03-.15-.18-.14-.77.01-1.54.03-2.3.03H13.46a12.847,12.847,0,0,1-2.16-.12,10.853,10.853,0,0,0,.15,1.21c.03.15.11.21.23.21a8,8,0,0,1,1.47-.12Zm8.42-3.48a2.6,2.6,0,0,1,.07-.94.526.526,0,0,0,.08-.23c0-.08-.05-.14-.19-.17a7.381,7.381,0,0,0-1.25-.16,7.63,7.63,0,0,1,.1,1.48v4.92c0,.64-.01,1.23-.04,1.97,0,.12.05.15.19.15a6.608,6.608,0,0,0,.89,0c.14,0,.19-.03.18-.15-.02-.72-.04-1.31-.04-1.96V-3.87a11.076,11.076,0,0,1,2.63,1.28.153.153,0,0,0,.11.05c.05,0,.09-.04.13-.11a5.877,5.877,0,0,0,.43-.87c.05-.13,0-.2-.11-.26a14.106,14.106,0,0,0-3.18-1.36Z" transform="translate(292 58)" fill="#fff"/><g transform="translate(295 16)"><g transform="translate(0 0)" clip-path="url(#a)"><path d="M22.277,0a2.287,2.287,0,0,0-2.23,1.756l-.592,2.453H0l3.256,12.47H17.247L20.8,1.938A1.51,1.51,0,0,1,22.277.779H25V0ZM16.634,15.9H3.858L1.009,4.988H19.267Z" transform="translate(0 0)" fill="#fff"/><path d="M5.951,21.586A2.013,2.013,0,1,0,7.964,23.6a2.016,2.016,0,0,0-2.012-2.014m0,3.247A1.233,1.233,0,1,1,7.185,23.6a1.235,1.235,0,0,1-1.233,1.233" transform="translate(-0.656 -3.598)" fill="#fff"/><path d="M17.841,21.586A2.013,2.013,0,1,0,19.854,23.6a2.016,2.016,0,0,0-2.013-2.014m0,3.247A1.233,1.233,0,1,1,19.074,23.6a1.235,1.235,0,0,1-1.233,1.233" transform="translate(-2.638 -3.598)" fill="#fff"/></g></g></g></svg>