<svg xmlns="http://www.w3.org/2000/svg" width="30.43" height="40.16" viewBox="0 0 30.43 40.16"><g transform="translate(-52.93 -18)"><path d="M8.59-7.74H6.39L5.4-3.76c-.23.89-.39,1.69-.6,2.54H4.66C4.5-2.07,4.3-2.97,4.1-3.78L3.12-7.74H.93V.02H2.12v-3.9c0-.96-.01-1.86-.03-2.76h.14c.23.95.42,1.79.66,2.69L3.91.02H5.49L6.54-4c.26-.95.44-1.75.64-2.64h.14c-.01.92-.02,1.77-.02,2.74V.02H8.59Zm7.23,0H10.7V.02h5.2V-1.05H12.05v-2.5H14.9V-4.62H12.05V-6.67h3.77Zm7.56,0H22.14v3.26c0,1.04.04,1.89.1,2.84H22.1A23.664,23.664,0,0,0,21.07-4.3L19.46-7.74H17.43V.02h1.24V-3.74c0-.96-.02-1.88-.07-2.8h.14c.35.87.66,1.59,1.11,2.56l1.88,4h1.65Zm7.98,0H30.1v5.06c0,1.27-.62,1.81-1.64,1.81s-1.64-.54-1.64-1.81V-7.74H25.47v5.08c0,1.89,1.16,2.82,2.96,2.82a2.619,2.619,0,0,0,2.93-2.82Z" transform="translate(52 58)" fill="#fff"/><g transform="translate(-15510 -108)"><rect width="25" height="1" transform="translate(15566 126)" fill="#fff"/><rect width="25" height="1" transform="translate(15566 135)" fill="#fff"/><rect width="25" height="1" transform="translate(15566 144)" fill="#fff"/></g></g></svg>