<svg xmlns="http://www.w3.org/2000/svg" xmlns:xlink="http://www.w3.org/1999/xlink" width="1920" height="600" viewBox="0 0 1920 600"><defs><clipPath id="a"><rect width="1920" height="600" transform="translate(2037 7664)" fill="#fff" stroke="#707070" stroke-width="1"/></clipPath></defs><g transform="translate(-2037 -7664)" clip-path="url(#a)"><rect width="1956.68" height="483" transform="translate(2018 7800.5)" fill="#98231d"/><g transform="translate(2041.706 6886)"><path d="M1956.68,454H0V232.815c.145,12.96,8.89,25.081,26,36.025a169.953,169.953,0,0,0,28.956,14.345A334.051,334.051,0,0,0,91.4,294.957c12.8,3.4,26.8,6.494,41.585,9.183,14.164,2.575,29.09,4.788,44.362,6.579A766.875,766.875,0,0,0,264.967,316H1691.713c11.423,0,24-.445,37.388-1.323,13.723-.9,27.929-2.232,42.221-3.959a700.834,700.834,0,0,0,86.837-15.761,391.967,391.967,0,0,0,38.564-11.772,197.737,197.737,0,0,0,31.292-14.345c19.021-11.154,28.665-23.383,28.665-36.347V454Z" transform="translate(-23.706 546)" fill="#98231d"/></g></g></svg>